%FSLAX25Y25*%
%MOIN*%
G70*
G01*
G75*
%ADD10C,0.02362*%
%ADD11C,0.00984*%
%ADD12R,0.02441X0.02244*%
%ADD13R,0.02244X0.02441*%
%ADD14O,0.01378X0.06693*%
%ADD15R,0.01614X0.06299*%
%ADD16R,0.02362X0.02165*%
%ADD17R,0.01181X0.10236*%
%ADD18R,0.03000X0.03000*%
G04:AMPARAMS|DCode=19|XSize=29.53mil|YSize=16.54mil|CornerRadius=4.13mil|HoleSize=0mil|Usage=FLASHONLY|Rotation=90.000|XOffset=0mil|YOffset=0mil|HoleType=Round|Shape=RoundedRectangle|*
%AMROUNDEDRECTD19*
21,1,0.02953,0.00827,0,0,90.0*
21,1,0.02126,0.01654,0,0,90.0*
1,1,0.00827,0.00413,0.01063*
1,1,0.00827,0.00413,-0.01063*
1,1,0.00827,-0.00413,-0.01063*
1,1,0.00827,-0.00413,0.01063*
%
%ADD19ROUNDEDRECTD19*%
%ADD20O,0.03150X0.01181*%
%ADD21O,0.01181X0.03150*%
%ADD22R,0.03937X0.05906*%
%ADD23R,0.05906X0.03937*%
%ADD24O,0.01378X0.05512*%
%ADD25R,0.03819X0.03780*%
%ADD26R,0.01181X0.02165*%
%ADD27R,0.01575X0.02165*%
%ADD28R,0.03937X0.02362*%
%ADD29R,0.03000X0.03000*%
%ADD30R,0.05118X0.06102*%
%ADD31C,0.07874*%
%ADD32R,0.02756X0.00984*%
%ADD33R,0.10630X0.10630*%
%ADD34R,0.00984X0.02756*%
%ADD35R,0.06102X0.05118*%
%ADD36R,0.01575X0.01969*%
%ADD37R,0.05906X0.02165*%
%ADD38R,0.03780X0.03819*%
%ADD39R,0.13504X0.09843*%
%ADD40R,0.03937X0.06890*%
%ADD41R,0.02756X0.06890*%
%ADD42R,0.05906X0.06890*%
%ADD43R,0.03150X0.05512*%
%ADD44R,0.05906X0.03937*%
%ADD45R,0.03937X0.06102*%
%ADD46R,0.06200X0.02400*%
%ADD47O,0.06200X0.02400*%
%ADD48R,0.02400X0.06200*%
%ADD49O,0.02400X0.06200*%
%ADD50R,0.01181X0.01181*%
%ADD51R,0.01772X0.02323*%
%ADD52R,0.00787X0.01969*%
%ADD53R,0.08504X0.08898*%
%ADD54R,0.04000X0.05000*%
%ADD55R,0.05000X0.04000*%
%ADD56R,0.01378X0.07874*%
%ADD57R,0.17716X0.18110*%
%ADD58R,0.02441X0.01575*%
%ADD59R,0.04724X0.01181*%
%ADD60R,0.11811X0.10630*%
%ADD61R,0.05512X0.04528*%
%ADD62R,0.04528X0.05512*%
%ADD63R,0.01772X0.05118*%
%ADD64R,0.03740X0.03740*%
%ADD65R,0.02362X0.03937*%
%ADD66O,0.02756X0.00984*%
%ADD67O,0.00984X0.02756*%
%ADD68R,0.17126X0.17126*%
%ADD69C,0.00787*%
%ADD70C,0.00906*%
%ADD71C,0.01969*%
%ADD72C,0.01378*%
%ADD73C,0.01181*%
%ADD74C,0.02756*%
%ADD75C,0.01575*%
%ADD76C,0.00052*%
%ADD77C,0.01000*%
%ADD78C,0.07087*%
%ADD79R,0.07087X0.07087*%
%ADD80C,0.07480*%
%ADD81C,0.25590*%
%ADD82O,0.05906X0.12992*%
%ADD83O,0.05906X0.09055*%
%ADD84C,0.20866*%
%ADD85C,0.08268*%
%ADD86C,0.12795*%
%ADD87C,0.06496*%
%ADD88C,0.09843*%
%ADD89C,0.06693*%
%ADD90R,0.06693X0.06693*%
%ADD91C,0.06000*%
%ADD92R,0.06000X0.06000*%
%ADD93C,0.13780*%
%ADD94C,0.05512*%
%ADD95O,0.15748X0.07874*%
%ADD96O,0.07874X0.15748*%
%ADD97O,0.17716X0.07874*%
%ADD98C,0.04331*%
%ADD99C,0.06299*%
%ADD100C,0.11811*%
%ADD101C,0.03150*%
%ADD102O,0.04528X0.07087*%
%ADD103O,0.05709X0.07874*%
%ADD104C,0.02362*%
%ADD105C,0.00866*%
D12*
X173089Y342523D02*
D03*
Y346302D02*
D03*
X373425Y226299D02*
D03*
Y222520D02*
D03*
X402953Y245984D02*
D03*
Y242205D02*
D03*
Y233543D02*
D03*
Y237323D02*
D03*
X189173Y273701D02*
D03*
Y277480D02*
D03*
X217520Y152284D02*
D03*
Y148504D02*
D03*
X515945Y192441D02*
D03*
Y188661D02*
D03*
Y145590D02*
D03*
Y141811D02*
D03*
X514764Y240079D02*
D03*
Y236299D02*
D03*
X515945Y97559D02*
D03*
Y93779D02*
D03*
Y184173D02*
D03*
Y180394D02*
D03*
Y137382D02*
D03*
Y133602D02*
D03*
X514764Y231870D02*
D03*
Y228091D02*
D03*
X515945Y89291D02*
D03*
Y85512D02*
D03*
X242520Y152284D02*
D03*
Y148504D02*
D03*
X213583Y152284D02*
D03*
Y148504D02*
D03*
X238583Y152284D02*
D03*
Y148504D02*
D03*
X209646Y152284D02*
D03*
Y148504D02*
D03*
X234055Y152284D02*
D03*
Y148504D02*
D03*
X205709Y152284D02*
D03*
Y148504D02*
D03*
X229724Y152284D02*
D03*
Y148504D02*
D03*
X185236Y277480D02*
D03*
Y273701D02*
D03*
X181299Y277480D02*
D03*
Y273701D02*
D03*
X177362Y277480D02*
D03*
Y273701D02*
D03*
X173425Y277480D02*
D03*
Y273701D02*
D03*
X169488Y277480D02*
D03*
Y273701D02*
D03*
X330906Y297953D02*
D03*
Y294173D02*
D03*
X406102Y262520D02*
D03*
Y258740D02*
D03*
X48067Y75785D02*
D03*
Y79565D02*
D03*
X44130Y75785D02*
D03*
Y79565D02*
D03*
X40193Y75785D02*
D03*
Y79565D02*
D03*
X36256Y75785D02*
D03*
Y79565D02*
D03*
X32319Y75785D02*
D03*
Y79565D02*
D03*
X28382Y75785D02*
D03*
Y79565D02*
D03*
X333661Y279213D02*
D03*
Y282992D02*
D03*
X24445Y75785D02*
D03*
Y79565D02*
D03*
X211221Y314646D02*
D03*
Y318425D02*
D03*
X305709Y314646D02*
D03*
Y318425D02*
D03*
X79331Y153071D02*
D03*
Y149291D02*
D03*
X81693Y251260D02*
D03*
Y255039D02*
D03*
X54528Y259764D02*
D03*
Y255984D02*
D03*
X82874Y301102D02*
D03*
Y297323D02*
D03*
X144685Y321969D02*
D03*
Y318189D02*
D03*
Y325669D02*
D03*
Y329449D02*
D03*
X500591Y321732D02*
D03*
Y325512D02*
D03*
X437205Y252284D02*
D03*
Y248504D02*
D03*
X413583Y246142D02*
D03*
Y249921D02*
D03*
X165945Y274724D02*
D03*
Y270945D02*
D03*
X196260Y314646D02*
D03*
Y318425D02*
D03*
Y329213D02*
D03*
Y332992D02*
D03*
X278543Y234331D02*
D03*
Y238110D02*
D03*
X56890Y234331D02*
D03*
Y238110D02*
D03*
X58858Y259764D02*
D03*
Y255984D02*
D03*
X59252Y275512D02*
D03*
Y271732D02*
D03*
X321063Y247953D02*
D03*
Y244173D02*
D03*
X500591Y333228D02*
D03*
Y337008D02*
D03*
X196260Y236929D02*
D03*
Y233150D02*
D03*
X199803Y236929D02*
D03*
Y233150D02*
D03*
X381496Y263701D02*
D03*
Y259921D02*
D03*
X378346Y263701D02*
D03*
Y259921D02*
D03*
X384646Y263701D02*
D03*
Y259921D02*
D03*
X387795Y263701D02*
D03*
Y259921D02*
D03*
X390945Y263701D02*
D03*
Y259921D02*
D03*
X397244Y263701D02*
D03*
Y259921D02*
D03*
X394094Y263701D02*
D03*
Y259921D02*
D03*
X400394Y263701D02*
D03*
Y259921D02*
D03*
X221457Y148504D02*
D03*
Y152284D02*
D03*
X225394Y148504D02*
D03*
Y152284D02*
D03*
X246338Y148504D02*
D03*
Y152284D02*
D03*
X250169Y148504D02*
D03*
Y152284D02*
D03*
D13*
X439528Y220945D02*
D03*
X443307D02*
D03*
X443347Y224724D02*
D03*
X439567D02*
D03*
X105866Y136811D02*
D03*
X102087D02*
D03*
X231299Y272441D02*
D03*
X235079D02*
D03*
X185709Y335433D02*
D03*
X189488D02*
D03*
X410748Y276378D02*
D03*
X406968D02*
D03*
X410748Y280315D02*
D03*
X406968D02*
D03*
X444213Y259055D02*
D03*
X440433D02*
D03*
X406968Y272441D02*
D03*
X410748D02*
D03*
X325709Y274410D02*
D03*
X321929D02*
D03*
X142795Y308268D02*
D03*
X146575D02*
D03*
X59173Y226378D02*
D03*
X55394D02*
D03*
X92795Y255118D02*
D03*
X96575D02*
D03*
X88071Y297244D02*
D03*
X91850D02*
D03*
X87520Y318504D02*
D03*
X83740D02*
D03*
X343386Y286614D02*
D03*
X347165D02*
D03*
X362874Y324803D02*
D03*
X366653D02*
D03*
X366260Y287402D02*
D03*
X362480D02*
D03*
X153661Y286221D02*
D03*
X149882D02*
D03*
X132559Y286614D02*
D03*
X136339D02*
D03*
X146575Y298425D02*
D03*
X142795D02*
D03*
X173110Y335433D02*
D03*
X176890D02*
D03*
X195945Y291732D02*
D03*
X199724D02*
D03*
X432165Y259055D02*
D03*
X435945D02*
D03*
X410748Y268504D02*
D03*
X406968D02*
D03*
X441221Y267323D02*
D03*
X445000D02*
D03*
X429803Y287795D02*
D03*
X433583D02*
D03*
X235157Y276378D02*
D03*
X231378D02*
D03*
X59173Y221654D02*
D03*
X55394D02*
D03*
X120591Y294094D02*
D03*
X116811D02*
D03*
X120591Y249606D02*
D03*
X116811D02*
D03*
X161142Y335827D02*
D03*
X157362D02*
D03*
X232795Y157874D02*
D03*
X229016D02*
D03*
X206181D02*
D03*
X209961D02*
D03*
X238661D02*
D03*
X242441D02*
D03*
X214449D02*
D03*
X218228D02*
D03*
X62874Y137008D02*
D03*
X66654D02*
D03*
X60118Y111024D02*
D03*
X63898D02*
D03*
X455630Y271260D02*
D03*
X451850D02*
D03*
X75709Y169488D02*
D03*
X71929D02*
D03*
X65236D02*
D03*
X69016D02*
D03*
X142795Y293701D02*
D03*
X146575D02*
D03*
X117205Y208661D02*
D03*
X120984D02*
D03*
X89095Y199213D02*
D03*
X85315D02*
D03*
X98937D02*
D03*
X95157D02*
D03*
X225501Y157874D02*
D03*
X221722D02*
D03*
X250194D02*
D03*
X246414D02*
D03*
D14*
X424469Y210000D02*
D03*
X427028D02*
D03*
X429587D02*
D03*
X432146D02*
D03*
X424469Y232441D02*
D03*
X427028D02*
D03*
X429587D02*
D03*
X432146D02*
D03*
D15*
X379006Y224803D02*
D03*
X381506D02*
D03*
X384006D02*
D03*
X386506D02*
D03*
X389006D02*
D03*
X391506D02*
D03*
X394006D02*
D03*
X396506D02*
D03*
X379006Y246063D02*
D03*
X381506D02*
D03*
X384006D02*
D03*
X386506D02*
D03*
X389006D02*
D03*
X391506D02*
D03*
X394006D02*
D03*
X396506D02*
D03*
D16*
X439213Y209902D02*
D03*
Y213248D02*
D03*
X402559Y227658D02*
D03*
Y224311D02*
D03*
D17*
X341142Y340315D02*
D03*
X347047D02*
D03*
X352953D02*
D03*
X358858D02*
D03*
X362795D02*
D03*
X364764D02*
D03*
X366732D02*
D03*
X368701D02*
D03*
X370669D02*
D03*
X372638D02*
D03*
X374606D02*
D03*
X343110D02*
D03*
X339173D02*
D03*
X360827D02*
D03*
X356890D02*
D03*
X349016D02*
D03*
X345079D02*
D03*
X354921D02*
D03*
X350984D02*
D03*
D18*
X88116Y136732D02*
D03*
X93616D02*
D03*
X65939Y105512D02*
D03*
X60439D02*
D03*
X439573Y191614D02*
D03*
X445073D02*
D03*
X439573Y177835D02*
D03*
X445073D02*
D03*
X439573Y164055D02*
D03*
X445073D02*
D03*
X439573Y150276D02*
D03*
X445073D02*
D03*
X439573Y136496D02*
D03*
X445073D02*
D03*
X439573Y122716D02*
D03*
X445073D02*
D03*
X439573Y108937D02*
D03*
X445073D02*
D03*
X439573Y95157D02*
D03*
X445073D02*
D03*
X147526Y281102D02*
D03*
X153026D02*
D03*
X138695Y281890D02*
D03*
X133195D02*
D03*
X424207Y287795D02*
D03*
X418707D02*
D03*
X58071Y317323D02*
D03*
X52571D02*
D03*
X192711Y358661D02*
D03*
X187211D02*
D03*
D19*
X441929Y303937D02*
D03*
X445079D02*
D03*
Y296850D02*
D03*
X441929D02*
D03*
X147047Y343701D02*
D03*
X150197D02*
D03*
Y336614D02*
D03*
X147047D02*
D03*
X437205Y303937D02*
D03*
X434055D02*
D03*
X437205Y296850D02*
D03*
X434055D02*
D03*
D20*
X63386Y118898D02*
D03*
Y120866D02*
D03*
Y122835D02*
D03*
Y124803D02*
D03*
Y126772D02*
D03*
X53543D02*
D03*
Y124803D02*
D03*
Y122835D02*
D03*
Y120866D02*
D03*
Y118898D02*
D03*
X337992Y247835D02*
D03*
Y249803D02*
D03*
X326181D02*
D03*
Y247835D02*
D03*
X63189Y143307D02*
D03*
Y145276D02*
D03*
Y147244D02*
D03*
Y149213D02*
D03*
Y151181D02*
D03*
X53347D02*
D03*
Y149213D02*
D03*
Y147244D02*
D03*
Y145276D02*
D03*
Y143307D02*
D03*
X208071Y273425D02*
D03*
Y275394D02*
D03*
X196260D02*
D03*
Y273425D02*
D03*
D21*
X59449Y128740D02*
D03*
X57480D02*
D03*
Y116929D02*
D03*
X59449D02*
D03*
X328150Y243898D02*
D03*
X330118D02*
D03*
X332087D02*
D03*
X334055D02*
D03*
X336024D02*
D03*
Y253740D02*
D03*
X334055D02*
D03*
X332087D02*
D03*
X330118D02*
D03*
X328150D02*
D03*
X59252Y153150D02*
D03*
X57284D02*
D03*
Y141339D02*
D03*
X59252D02*
D03*
X198228Y269488D02*
D03*
X200197D02*
D03*
X202165D02*
D03*
X204134D02*
D03*
X206102D02*
D03*
Y279331D02*
D03*
X204134D02*
D03*
X202165D02*
D03*
X200197D02*
D03*
X198228D02*
D03*
D22*
X58465Y122835D02*
D03*
X58268Y147244D02*
D03*
X23441Y33049D02*
D03*
D23*
X332087Y248819D02*
D03*
X202165Y274410D02*
D03*
D24*
X365059Y316142D02*
D03*
X362500D02*
D03*
X359941D02*
D03*
X357382D02*
D03*
X354823D02*
D03*
X352264D02*
D03*
X349705D02*
D03*
X347146D02*
D03*
X344587D02*
D03*
X342028D02*
D03*
X339469D02*
D03*
X336910D02*
D03*
X365059Y294094D02*
D03*
X362500D02*
D03*
X359941D02*
D03*
X357382D02*
D03*
X354823D02*
D03*
X352264D02*
D03*
X349705D02*
D03*
X347146D02*
D03*
X344587D02*
D03*
X342028D02*
D03*
X339469D02*
D03*
X336910D02*
D03*
D25*
X132421Y275590D02*
D03*
X138839D02*
D03*
X152618D02*
D03*
X146201D02*
D03*
X110374Y167323D02*
D03*
X116791D02*
D03*
X110374Y161024D02*
D03*
X116791D02*
D03*
D26*
X439567Y38642D02*
D03*
X441535D02*
D03*
X445472D02*
D03*
X447441D02*
D03*
Y41673D02*
D03*
X445472D02*
D03*
X441535D02*
D03*
X439567D02*
D03*
X427173Y38583D02*
D03*
X429142D02*
D03*
X433079D02*
D03*
X435047D02*
D03*
Y41614D02*
D03*
X433079D02*
D03*
X429142D02*
D03*
X427173D02*
D03*
X346654Y38583D02*
D03*
X348622D02*
D03*
X352559D02*
D03*
X354528Y41614D02*
D03*
X352559D02*
D03*
X348622D02*
D03*
X346654D02*
D03*
X354528Y38583D02*
D03*
X334055Y38642D02*
D03*
X336024D02*
D03*
X339961D02*
D03*
X341929D02*
D03*
Y41673D02*
D03*
X339961D02*
D03*
X336024D02*
D03*
X334055D02*
D03*
D27*
X443504Y38642D02*
D03*
Y41673D02*
D03*
X431110Y38583D02*
D03*
Y41614D02*
D03*
X350591Y38583D02*
D03*
Y41614D02*
D03*
X337992Y38642D02*
D03*
Y41673D02*
D03*
D28*
X79134Y104921D02*
D03*
Y112402D02*
D03*
X88189D02*
D03*
Y108661D02*
D03*
Y104921D02*
D03*
D29*
X72638Y105518D02*
D03*
Y111018D02*
D03*
X95866Y105124D02*
D03*
Y110624D02*
D03*
X122244Y243301D02*
D03*
Y237801D02*
D03*
X123031Y285821D02*
D03*
Y280321D02*
D03*
X94291Y324010D02*
D03*
Y318510D02*
D03*
X179331Y352750D02*
D03*
Y347250D02*
D03*
X410433Y263380D02*
D03*
Y257880D02*
D03*
X53972Y80031D02*
D03*
Y74531D02*
D03*
X196260Y298116D02*
D03*
Y303616D02*
D03*
D30*
X306299Y265650D02*
D03*
Y234350D02*
D03*
X288583Y265650D02*
D03*
Y234350D02*
D03*
X259449Y265650D02*
D03*
Y234350D02*
D03*
X241732Y265650D02*
D03*
Y234350D02*
D03*
D31*
X81693Y75931D02*
D03*
X75394Y161811D02*
D03*
X65158D02*
D03*
D32*
X434449Y273425D02*
D03*
Y275394D02*
D03*
X418701Y267520D02*
D03*
Y269488D02*
D03*
Y271457D02*
D03*
Y273425D02*
D03*
Y275394D02*
D03*
Y277362D02*
D03*
X434449D02*
D03*
Y267520D02*
D03*
Y271457D02*
D03*
Y269488D02*
D03*
D33*
X426575Y272441D02*
D03*
D34*
X431496Y264567D02*
D03*
X429528D02*
D03*
X427559D02*
D03*
X425591D02*
D03*
X421654Y280315D02*
D03*
X423622D02*
D03*
X425591D02*
D03*
X427559D02*
D03*
X429528D02*
D03*
X431496D02*
D03*
X423622Y264567D02*
D03*
X421654D02*
D03*
D35*
X473169Y199114D02*
D03*
X504468D02*
D03*
X473169Y181398D02*
D03*
X504468D02*
D03*
X473169Y152323D02*
D03*
X504468D02*
D03*
X473169Y134606D02*
D03*
X504468D02*
D03*
X472185Y246811D02*
D03*
X503484D02*
D03*
X472185Y229095D02*
D03*
X503484D02*
D03*
X473169Y104232D02*
D03*
X504468D02*
D03*
X473169Y86516D02*
D03*
X504468D02*
D03*
D36*
X328346Y286024D02*
D03*
X323228D02*
D03*
X325787Y278543D02*
D03*
X88779Y167520D02*
D03*
X86221Y175000D02*
D03*
X91339D02*
D03*
D37*
X93307Y150787D02*
D03*
X85827Y147047D02*
D03*
Y154528D02*
D03*
X166254Y344089D02*
D03*
X158774Y340349D02*
D03*
Y347829D02*
D03*
D38*
X176181Y368957D02*
D03*
Y362539D02*
D03*
X396654Y341280D02*
D03*
Y347697D02*
D03*
X35236Y246791D02*
D03*
Y253209D02*
D03*
X50984Y284980D02*
D03*
Y291398D02*
D03*
X122343Y219921D02*
D03*
Y226339D02*
D03*
D39*
X102165Y221457D02*
D03*
X102165Y244685D02*
D03*
X102165Y265551D02*
D03*
X102165Y288779D02*
D03*
D40*
X23441Y2581D02*
D03*
D41*
X28165D02*
D03*
X32496D02*
D03*
X36827D02*
D03*
X41157D02*
D03*
X45488D02*
D03*
X49819D02*
D03*
X54149D02*
D03*
X58480D02*
D03*
D42*
X68126D02*
D03*
D43*
Y35608D02*
D03*
D44*
X24228Y38955D02*
D03*
D45*
X68165Y45155D02*
D03*
D46*
X473032Y277165D02*
D03*
D47*
Y282165D02*
D03*
Y287165D02*
D03*
Y292165D02*
D03*
X451731Y277165D02*
D03*
Y282165D02*
D03*
Y287165D02*
D03*
Y292165D02*
D03*
D48*
X81693Y242913D02*
D03*
Y289370D02*
D03*
D49*
X76693Y242913D02*
D03*
X71693D02*
D03*
X66693D02*
D03*
X81693Y221613D02*
D03*
X76693D02*
D03*
X71693D02*
D03*
X66693D02*
D03*
X76693Y289370D02*
D03*
X71693D02*
D03*
X66693D02*
D03*
X81693Y268070D02*
D03*
X76693D02*
D03*
X71693D02*
D03*
X66693D02*
D03*
D50*
X150197Y349508D02*
D03*
X148819Y352854D02*
D03*
X151575D02*
D03*
D51*
X379331Y323445D02*
D03*
Y315138D02*
D03*
D52*
X190354Y231988D02*
D03*
X188386D02*
D03*
X186417D02*
D03*
X184449D02*
D03*
X182480D02*
D03*
X180512D02*
D03*
X178543D02*
D03*
Y227067D02*
D03*
X180512D02*
D03*
X182480D02*
D03*
X184449D02*
D03*
X186417D02*
D03*
X188386D02*
D03*
X190354D02*
D03*
X42948Y63994D02*
D03*
X40980D02*
D03*
X39011D02*
D03*
X37043D02*
D03*
X35074D02*
D03*
X33106D02*
D03*
X31137D02*
D03*
Y59073D02*
D03*
X33106D02*
D03*
X35074D02*
D03*
X37043D02*
D03*
X39011D02*
D03*
X40980D02*
D03*
X42948D02*
D03*
D53*
X52756Y303937D02*
D03*
X72047D02*
D03*
D54*
X451709Y301575D02*
D03*
X459709Y301575D02*
D03*
X475063Y301575D02*
D03*
X467063Y301575D02*
D03*
X122307Y255118D02*
D03*
X114307Y255118D02*
D03*
X121913Y299606D02*
D03*
X113913Y299606D02*
D03*
D55*
X50984Y267654D02*
D03*
X50984Y275654D02*
D03*
X49803Y242976D02*
D03*
X49803Y234976D02*
D03*
D56*
X218665Y174209D02*
D03*
X221028D02*
D03*
X206854D02*
D03*
X209216D02*
D03*
X258823D02*
D03*
X261185D02*
D03*
X263547D02*
D03*
X265909D02*
D03*
X272996D02*
D03*
X280083D02*
D03*
X291894D02*
D03*
X294256D02*
D03*
X296618D02*
D03*
X298980D02*
D03*
X301343D02*
D03*
X303705D02*
D03*
X306067D02*
D03*
X308429D02*
D03*
X310791D02*
D03*
X313154D02*
D03*
X315516D02*
D03*
X317878D02*
D03*
X320240D02*
D03*
X322602D02*
D03*
X324965D02*
D03*
X327327D02*
D03*
X343862D02*
D03*
X346224D02*
D03*
X348587D02*
D03*
X350949D02*
D03*
X353311D02*
D03*
X355673D02*
D03*
X358035D02*
D03*
X360398D02*
D03*
X362760D02*
D03*
X365122D02*
D03*
X367484D02*
D03*
X369847D02*
D03*
X372209D02*
D03*
X374571D02*
D03*
X376933D02*
D03*
X379295D02*
D03*
X381658D02*
D03*
X384020D02*
D03*
X386382D02*
D03*
X388744D02*
D03*
X140713D02*
D03*
X143075D02*
D03*
X145437D02*
D03*
X147799D02*
D03*
X150161D02*
D03*
X152524D02*
D03*
X154886D02*
D03*
X157248D02*
D03*
X159610D02*
D03*
X161972D02*
D03*
X164335D02*
D03*
X166697D02*
D03*
X169059D02*
D03*
X171421D02*
D03*
X173784D02*
D03*
X176146D02*
D03*
X178508D02*
D03*
X180870D02*
D03*
X183232D02*
D03*
X185594D02*
D03*
X187957D02*
D03*
X190319D02*
D03*
X192681D02*
D03*
X195043D02*
D03*
X197406D02*
D03*
X204492D02*
D03*
X211579D02*
D03*
X213941D02*
D03*
X216303D02*
D03*
X228114D02*
D03*
X230476D02*
D03*
X232839D02*
D03*
X235201D02*
D03*
X237563D02*
D03*
X239925D02*
D03*
X247012D02*
D03*
X249374D02*
D03*
X251736D02*
D03*
X254098D02*
D03*
X256461D02*
D03*
X200949Y206492D02*
D03*
X203311D02*
D03*
X205673D02*
D03*
X208035D02*
D03*
X210398D02*
D03*
X212760D02*
D03*
X215122D02*
D03*
X217484D02*
D03*
X219847D02*
D03*
X222209D02*
D03*
X224571D02*
D03*
X226933D02*
D03*
X229295D02*
D03*
X231658D02*
D03*
X234020D02*
D03*
X236382D02*
D03*
X238744D02*
D03*
X241106D02*
D03*
X243468D02*
D03*
X250555D02*
D03*
X141894D02*
D03*
X144256D02*
D03*
X146618D02*
D03*
X153705D02*
D03*
X156067D02*
D03*
X163154D02*
D03*
X170240D02*
D03*
X172602D02*
D03*
X179689D02*
D03*
X182051D02*
D03*
X184413D02*
D03*
X191500D02*
D03*
X193862D02*
D03*
X196224D02*
D03*
X198587D02*
D03*
X321421D02*
D03*
X328508D02*
D03*
X345043D02*
D03*
X347406D02*
D03*
X349768D02*
D03*
X352130D02*
D03*
X354492D02*
D03*
X356854D02*
D03*
X359216D02*
D03*
X361579D02*
D03*
X363941D02*
D03*
X366303D02*
D03*
X368665D02*
D03*
X371028D02*
D03*
X373390D02*
D03*
X375752D02*
D03*
X378114D02*
D03*
X380476D02*
D03*
X382839D02*
D03*
X385201D02*
D03*
X387563D02*
D03*
X389925D02*
D03*
X257642D02*
D03*
X264728D02*
D03*
X271815D02*
D03*
X278902D02*
D03*
X290713D02*
D03*
X293075D02*
D03*
X295437D02*
D03*
X297799D02*
D03*
X300161D02*
D03*
X302524D02*
D03*
X304886D02*
D03*
X307248D02*
D03*
X309610Y206492D02*
D03*
X311972Y206492D02*
D03*
X314335D02*
D03*
X189138D02*
D03*
X186776D02*
D03*
X160791D02*
D03*
X158429D02*
D03*
X151342D02*
D03*
X148980D02*
D03*
X167878D02*
D03*
X165516D02*
D03*
X177327D02*
D03*
X174965D02*
D03*
X248193D02*
D03*
X245831D02*
D03*
X255279D02*
D03*
X252917D02*
D03*
X262366D02*
D03*
X260004D02*
D03*
X269453D02*
D03*
X267091D02*
D03*
X270634Y174209D02*
D03*
X268272D02*
D03*
X277720D02*
D03*
X275358D02*
D03*
X284807D02*
D03*
X282445D02*
D03*
X289531D02*
D03*
X287169D02*
D03*
X326146Y206492D02*
D03*
X323783D02*
D03*
X276539D02*
D03*
X274177D02*
D03*
X283626D02*
D03*
X281264D02*
D03*
X288350D02*
D03*
X285988D02*
D03*
X319059D02*
D03*
X316697D02*
D03*
X202130Y174209D02*
D03*
X199768D02*
D03*
X244650D02*
D03*
X242287D02*
D03*
X225752D02*
D03*
X223390D02*
D03*
D57*
X136579Y143106D02*
D03*
X392878D02*
D03*
D58*
X436024Y86614D02*
D03*
Y82480D02*
D03*
Y80512D02*
D03*
Y72441D02*
D03*
Y74606D02*
D03*
Y76575D02*
D03*
Y78543D02*
D03*
Y84449D02*
D03*
X441929D02*
D03*
Y80512D02*
D03*
Y78543D02*
D03*
Y76575D02*
D03*
Y82480D02*
D03*
Y72441D02*
D03*
Y74606D02*
D03*
Y86614D02*
D03*
D59*
X23779Y184843D02*
D03*
Y186811D02*
D03*
Y230118D02*
D03*
Y228150D02*
D03*
Y226181D02*
D03*
Y224213D02*
D03*
Y214370D02*
D03*
Y208465D02*
D03*
Y206496D02*
D03*
Y204528D02*
D03*
Y202559D02*
D03*
Y200591D02*
D03*
Y198622D02*
D03*
Y196654D02*
D03*
Y194685D02*
D03*
Y192717D02*
D03*
Y190748D02*
D03*
Y188780D02*
D03*
Y178937D02*
D03*
Y173032D02*
D03*
Y171063D02*
D03*
Y169095D02*
D03*
Y167126D02*
D03*
Y165158D02*
D03*
Y163189D02*
D03*
Y161221D02*
D03*
Y159252D02*
D03*
Y157284D02*
D03*
Y155315D02*
D03*
Y153347D02*
D03*
Y151378D02*
D03*
Y149410D02*
D03*
Y147441D02*
D03*
Y145473D02*
D03*
Y143504D02*
D03*
Y141536D02*
D03*
Y139567D02*
D03*
Y137599D02*
D03*
Y135630D02*
D03*
Y133662D02*
D03*
Y182874D02*
D03*
Y180906D02*
D03*
Y218307D02*
D03*
Y216339D02*
D03*
Y222244D02*
D03*
Y220276D02*
D03*
Y176969D02*
D03*
Y175000D02*
D03*
Y212402D02*
D03*
Y210433D02*
D03*
D60*
X15984Y237717D02*
D03*
Y126063D02*
D03*
D61*
X429724Y246063D02*
D03*
X421063D02*
D03*
Y252362D02*
D03*
X429724D02*
D03*
D62*
X137598Y320866D02*
D03*
Y329528D02*
D03*
X131299D02*
D03*
Y320866D02*
D03*
D63*
X146457Y358661D02*
D03*
X149016D02*
D03*
X151575D02*
D03*
X143898D02*
D03*
X154134D02*
D03*
D64*
X205709Y236713D02*
D03*
Y231004D02*
D03*
X184055Y370768D02*
D03*
Y376476D02*
D03*
D65*
X190945Y377362D02*
D03*
X198425D02*
D03*
Y368307D02*
D03*
X194685D02*
D03*
X190945D02*
D03*
D66*
X154528Y326181D02*
D03*
Y324213D02*
D03*
Y322244D02*
D03*
Y320276D02*
D03*
Y318307D02*
D03*
Y316339D02*
D03*
Y310433D02*
D03*
Y308465D02*
D03*
Y306496D02*
D03*
Y304528D02*
D03*
Y302559D02*
D03*
Y300590D02*
D03*
Y298622D02*
D03*
Y296654D02*
D03*
X189961D02*
D03*
Y298622D02*
D03*
Y300590D02*
D03*
Y302559D02*
D03*
Y304528D02*
D03*
Y306496D02*
D03*
Y308465D02*
D03*
Y310433D02*
D03*
Y312402D02*
D03*
Y314370D02*
D03*
Y316339D02*
D03*
Y318307D02*
D03*
Y320276D02*
D03*
Y322244D02*
D03*
Y324213D02*
D03*
Y326181D02*
D03*
X154528Y314370D02*
D03*
Y312402D02*
D03*
D67*
X157480Y293701D02*
D03*
X159449D02*
D03*
X161417D02*
D03*
X163386D02*
D03*
X165354D02*
D03*
X167323D02*
D03*
X169291D02*
D03*
X171260D02*
D03*
X173228D02*
D03*
X175197D02*
D03*
X177165D02*
D03*
X179134D02*
D03*
X181102D02*
D03*
X183071D02*
D03*
X185039D02*
D03*
X187008D02*
D03*
Y329134D02*
D03*
X185039D02*
D03*
X183071D02*
D03*
X181102D02*
D03*
X179134D02*
D03*
X177165D02*
D03*
X175197D02*
D03*
X173228D02*
D03*
X171260D02*
D03*
X169291D02*
D03*
X167323D02*
D03*
X165354D02*
D03*
X163386D02*
D03*
X161417D02*
D03*
X159449D02*
D03*
X157480D02*
D03*
D68*
X172244Y311417D02*
D03*
D78*
X111890Y83858D02*
D03*
X140122Y166335D02*
D03*
D79*
X101890Y83858D02*
D03*
D80*
X390516Y166335D02*
D03*
D81*
X524409Y369685D02*
D03*
X197D02*
D03*
X0Y0D02*
D03*
X524409D02*
D03*
D82*
X385433Y343307D02*
D03*
X328346D02*
D03*
D83*
X385433Y366772D02*
D03*
X328346D02*
D03*
D84*
X390516Y79720D02*
D03*
X140122D02*
D03*
D85*
X408779Y14173D02*
D03*
X418780D02*
D03*
X428780D02*
D03*
X438779D02*
D03*
X448779D02*
D03*
X458779D02*
D03*
Y24173D02*
D03*
X448779D02*
D03*
X438779D02*
D03*
X428780D02*
D03*
X418780D02*
D03*
X408779D02*
D03*
X319409Y14173D02*
D03*
X329410D02*
D03*
X339409D02*
D03*
X349410D02*
D03*
Y24173D02*
D03*
X339409D02*
D03*
X329410D02*
D03*
X319409D02*
D03*
X369409D02*
D03*
X359409D02*
D03*
X369409Y14173D02*
D03*
X359409D02*
D03*
D86*
X281909Y340449D02*
D03*
X236909D02*
D03*
D87*
X275512Y356512D02*
D03*
X243307D02*
D03*
X285512D02*
D03*
X233307D02*
D03*
D88*
X289902Y328441D02*
D03*
X228917D02*
D03*
D89*
X261909Y305449D02*
D03*
X241909D02*
D03*
X236909Y315449D02*
D03*
X266909D02*
D03*
X246909D02*
D03*
X251909Y305449D02*
D03*
X276909Y315449D02*
D03*
X271909Y305449D02*
D03*
X256909Y315449D02*
D03*
D90*
X281909Y305449D02*
D03*
D91*
X154528Y247638D02*
D03*
Y255512D02*
D03*
X162402Y247638D02*
D03*
Y255512D02*
D03*
X170276Y247638D02*
D03*
Y255512D02*
D03*
X178150Y247638D02*
D03*
Y255512D02*
D03*
X186024Y247638D02*
D03*
Y255512D02*
D03*
X193898Y247638D02*
D03*
Y255512D02*
D03*
X201772Y247638D02*
D03*
D92*
Y255512D02*
D03*
D93*
X432795Y321615D02*
D03*
Y343977D02*
D03*
X484527Y321615D02*
D03*
X484527Y343977D02*
D03*
D94*
X444882Y323111D02*
D03*
X472441Y333347D02*
D03*
X444882D02*
D03*
X472441Y323111D02*
D03*
X462598Y333347D02*
D03*
X454724D02*
D03*
X462598Y323111D02*
D03*
X454724D02*
D03*
D95*
X64764Y352362D02*
D03*
D96*
X45472Y340354D02*
D03*
D97*
X64764Y328740D02*
D03*
D98*
X133823Y190350D02*
D03*
D99*
X396815D02*
D03*
D100*
X-5433Y318504D02*
D03*
Y266535D02*
D03*
X32087Y311024D02*
D03*
Y292520D02*
D03*
Y274016D02*
D03*
D101*
X139173Y362795D02*
D03*
X158858D02*
D03*
D102*
X133760Y373622D02*
D03*
X164272D02*
D03*
D103*
X134350Y358661D02*
D03*
X163681D02*
D03*
M02*
