%FSLAX25Y25*%
%MOIN*%
G70*
G01*
G75*
G04 Layer_Color=32768*
%ADD10C,0.02362*%
%ADD11C,0.00984*%
%ADD12R,0.02441X0.02244*%
%ADD13R,0.02244X0.02441*%
%ADD14O,0.01378X0.06693*%
%ADD15R,0.01614X0.06299*%
%ADD16R,0.02362X0.02165*%
%ADD17R,0.01181X0.10236*%
%ADD18R,0.03000X0.03000*%
G04:AMPARAMS|DCode=19|XSize=29.53mil|YSize=16.54mil|CornerRadius=4.13mil|HoleSize=0mil|Usage=FLASHONLY|Rotation=90.000|XOffset=0mil|YOffset=0mil|HoleType=Round|Shape=RoundedRectangle|*
%AMROUNDEDRECTD19*
21,1,0.02953,0.00827,0,0,90.0*
21,1,0.02126,0.01654,0,0,90.0*
1,1,0.00827,0.00413,0.01063*
1,1,0.00827,0.00413,-0.01063*
1,1,0.00827,-0.00413,-0.01063*
1,1,0.00827,-0.00413,0.01063*
%
%ADD19ROUNDEDRECTD19*%
%ADD20O,0.03150X0.01181*%
%ADD21O,0.01181X0.03150*%
%ADD22R,0.03937X0.05906*%
%ADD23R,0.05906X0.03937*%
%ADD24O,0.01378X0.05512*%
%ADD25R,0.03819X0.03780*%
%ADD26R,0.01181X0.02165*%
%ADD27R,0.01575X0.02165*%
%ADD28R,0.03937X0.02362*%
%ADD29R,0.03000X0.03000*%
%ADD30R,0.05118X0.06102*%
%ADD31C,0.07874*%
%ADD32R,0.02756X0.00984*%
%ADD33R,0.10630X0.10630*%
%ADD34R,0.00984X0.02756*%
%ADD35R,0.06102X0.05118*%
%ADD36R,0.01575X0.01969*%
%ADD37R,0.05906X0.02165*%
%ADD38R,0.03780X0.03819*%
%ADD39R,0.13504X0.09843*%
%ADD40R,0.03937X0.06890*%
%ADD41R,0.02756X0.06890*%
%ADD42R,0.05906X0.06890*%
%ADD43R,0.03150X0.05512*%
%ADD44R,0.05906X0.03937*%
%ADD45R,0.03937X0.06102*%
%ADD46R,0.06200X0.02400*%
%ADD47O,0.06200X0.02400*%
%ADD48R,0.02400X0.06200*%
%ADD49O,0.02400X0.06200*%
%ADD50R,0.01181X0.01181*%
%ADD51R,0.01772X0.02323*%
%ADD52R,0.00787X0.01969*%
%ADD53R,0.08504X0.08898*%
%ADD54R,0.04000X0.05000*%
%ADD55R,0.05000X0.04000*%
%ADD56R,0.01378X0.07874*%
%ADD57R,0.17716X0.18110*%
%ADD58R,0.02441X0.01575*%
%ADD59R,0.04724X0.01181*%
%ADD60R,0.11811X0.10630*%
%ADD61R,0.05512X0.04528*%
%ADD62R,0.04528X0.05512*%
%ADD63R,0.01772X0.05118*%
%ADD64R,0.03740X0.03740*%
%ADD65R,0.02362X0.03937*%
%ADD66O,0.02756X0.00984*%
%ADD67O,0.00984X0.02756*%
%ADD68R,0.17126X0.17126*%
%ADD69C,0.00787*%
%ADD70C,0.00906*%
%ADD71C,0.01969*%
%ADD72C,0.01378*%
%ADD73C,0.01181*%
%ADD74C,0.02756*%
%ADD75C,0.01575*%
%ADD76C,0.00052*%
%ADD77C,0.01000*%
%ADD78C,0.07087*%
%ADD79R,0.07087X0.07087*%
%ADD80C,0.07480*%
%ADD81C,0.25590*%
%ADD82O,0.05906X0.12992*%
%ADD83O,0.05906X0.09055*%
%ADD84C,0.20866*%
%ADD85C,0.08268*%
%ADD86C,0.12795*%
%ADD87C,0.06496*%
%ADD88C,0.09843*%
%ADD89C,0.06693*%
%ADD90R,0.06693X0.06693*%
%ADD91C,0.06000*%
%ADD92R,0.06000X0.06000*%
%ADD93C,0.13780*%
%ADD94C,0.05512*%
%ADD95O,0.15748X0.07874*%
%ADD96O,0.07874X0.15748*%
%ADD97O,0.17716X0.07874*%
%ADD98C,0.04331*%
%ADD99C,0.06299*%
%ADD100C,0.11811*%
%ADD101C,0.03150*%
%ADD102O,0.04528X0.07087*%
%ADD103O,0.05709X0.07874*%
%ADD104C,0.02362*%
%ADD105C,0.00866*%
%ADD106C,0.00900*%
%ADD107C,0.00500*%
%ADD108C,0.00394*%
%ADD109C,0.00591*%
%ADD110C,0.00700*%
%ADD111C,0.00701*%
%ADD112C,0.00472*%
%ADD113C,0.00197*%
%ADD114C,0.00004*%
%ADD115C,0.01500*%
%ADD116C,0.00100*%
%ADD117C,0.00200*%
G36*
X153133Y379568D02*
X153300Y379549D01*
X153515Y379502D01*
X153624Y379462D01*
X153726Y379407D01*
X153730Y379404D01*
X153737Y379400D01*
X153766Y379375D01*
X153872Y379284D01*
X153934Y379215D01*
X153966Y379178D01*
X153999Y379134D01*
X154061Y379036D01*
X154115Y378927D01*
X154137Y378872D01*
X154156Y378807D01*
X154181Y378723D01*
X154192Y378676D01*
X154207Y378621D01*
X154217Y378567D01*
X154225Y378508D01*
X154236Y378447D01*
X154239Y378381D01*
X154246Y378315D01*
Y378250D01*
X154243Y378184D01*
X154228Y378017D01*
X154210Y377911D01*
X154185Y377795D01*
X154145Y377678D01*
X154097Y377566D01*
X154068Y377518D01*
X154035Y377464D01*
X153988Y377398D01*
X153926Y377325D01*
X153893Y377289D01*
X153853Y377253D01*
X153813Y377216D01*
X153770Y377180D01*
X153722Y377147D01*
X153671Y377118D01*
X153621Y377092D01*
X153566Y377071D01*
X153489Y377041D01*
X153446Y377027D01*
X153398Y377012D01*
X153348Y377001D01*
X153296Y376991D01*
X153180Y376972D01*
X153122Y376965D01*
X153060D01*
X152998Y376969D01*
X152838Y376991D01*
X152630Y377045D01*
X152525Y377092D01*
X152474Y377125D01*
X152423Y377158D01*
X152379Y377194D01*
X152336Y377238D01*
X152281Y377296D01*
X152252Y377333D01*
X152223Y377376D01*
X152161Y377467D01*
X152106Y377576D01*
X152084Y377635D01*
X152062Y377700D01*
X152390Y377777D01*
X152456Y377624D01*
X152536Y377493D01*
X152590Y377431D01*
X152649Y377376D01*
X152656Y377369D01*
X152678Y377355D01*
X152714Y377336D01*
X152761Y377311D01*
X152823Y377289D01*
X152892Y377267D01*
X152933Y377260D01*
X152976Y377253D01*
X153020Y377249D01*
X153078D01*
X153114Y377253D01*
X153238Y377267D01*
X153395Y377307D01*
X153479Y377344D01*
X153555Y377391D01*
X153559D01*
X153562Y377398D01*
X153588Y377416D01*
X153661Y377489D01*
X153708Y377544D01*
X153752Y377606D01*
X153791Y377682D01*
X153810Y377722D01*
X153828Y377766D01*
Y377769D01*
X153832Y377777D01*
X153839Y377806D01*
X153853Y377853D01*
X153864Y377915D01*
X153879Y377984D01*
X153893Y378068D01*
X153901Y378155D01*
X153904Y378250D01*
Y378254D01*
Y378264D01*
Y378305D01*
X153893Y378439D01*
X153864Y378621D01*
X153813Y378811D01*
Y378814D01*
X153810Y378821D01*
X153795Y378851D01*
X153741Y378945D01*
X153700Y379003D01*
X153650Y379065D01*
X153621Y379091D01*
X153591Y379120D01*
X153559Y379145D01*
X153522Y379171D01*
X153486Y379189D01*
X153446Y379207D01*
X153395Y379229D01*
X153329Y379251D01*
X153256Y379269D01*
X153176Y379284D01*
X153136Y379287D01*
X153093D01*
X153045Y379284D01*
X152929Y379265D01*
X152776Y379218D01*
X152696Y379178D01*
X152620Y379127D01*
X152587Y379098D01*
X152554Y379058D01*
X152514Y379007D01*
X152467Y378938D01*
X152445Y378902D01*
X152423Y378858D01*
X152405Y378811D01*
X152383Y378760D01*
X152368Y378705D01*
X152354Y378647D01*
X152019Y378730D01*
Y378734D01*
X152023Y378749D01*
X152041Y378800D01*
X152106Y378963D01*
X152157Y379065D01*
X152223Y379167D01*
X152303Y379269D01*
X152347Y379313D01*
X152397Y379357D01*
X152401Y379360D01*
X152408Y379364D01*
X152445Y379389D01*
X152503Y379426D01*
X152539Y379444D01*
X152583Y379462D01*
X152681Y379502D01*
X152736Y379520D01*
X152794Y379538D01*
X152922Y379560D01*
X152991Y379568D01*
X153063Y379571D01*
X153082D01*
X153133Y379568D01*
D02*
G37*
G36*
X141357Y379564D02*
X141521Y379535D01*
X141623Y379506D01*
X141729Y379466D01*
X141834Y379404D01*
X141929Y379324D01*
X141965Y379276D01*
X142002Y379222D01*
X142023Y379185D01*
X142045Y379145D01*
X142067Y379098D01*
X142089Y379047D01*
X142107Y378989D01*
X142125Y378927D01*
X142151Y378789D01*
X142162Y378632D01*
X142158Y378556D01*
X142133Y378370D01*
X142063Y378133D01*
X142034Y378075D01*
X142002Y378017D01*
X141925Y377915D01*
X141882Y377875D01*
X141831Y377835D01*
X141758Y377788D01*
X141718Y377762D01*
X141670Y377740D01*
X141565Y377700D01*
X141507Y377682D01*
X141445Y377671D01*
X141379Y377664D01*
X141310Y377660D01*
X141248Y377664D01*
X141095Y377693D01*
X141001Y377722D01*
X140902Y377766D01*
X140800Y377828D01*
X140753Y377868D01*
X140709Y377911D01*
X140706Y377915D01*
X140699Y377922D01*
X140673Y377959D01*
X140637Y378013D01*
X140615Y378050D01*
X140593Y378093D01*
X140571Y378141D01*
X140549Y378192D01*
X140531Y378250D01*
X140513Y378312D01*
X140498Y378381D01*
X140487Y378454D01*
X140476Y378614D01*
Y378618D01*
Y378632D01*
X140480Y378694D01*
X141845D01*
Y378698D01*
Y378709D01*
X141841Y378745D01*
X141820Y378865D01*
X141798Y378938D01*
X141769Y379018D01*
X141729Y379091D01*
X141678Y379156D01*
X141648Y379182D01*
X141616Y379207D01*
X141572Y379233D01*
X141514Y379262D01*
X141448Y379287D01*
X141412Y379298D01*
X141376Y379306D01*
X141292Y379313D01*
X141190Y379302D01*
X141095Y379276D01*
X141048Y379255D01*
X141001Y379225D01*
X140979Y379207D01*
X140957Y379185D01*
X140931Y379156D01*
X140899Y379116D01*
X140869Y379065D01*
X140837Y379007D01*
X140808Y378938D01*
X140487Y378978D01*
Y378982D01*
X140491Y378989D01*
X140502Y379025D01*
X140553Y379138D01*
X140640Y379280D01*
X140699Y379349D01*
X140771Y379415D01*
X140775D01*
X140782Y379422D01*
X140808Y379437D01*
X140851Y379462D01*
X140913Y379491D01*
X140950Y379506D01*
X140986Y379520D01*
X141077Y379542D01*
X141124Y379553D01*
X141179Y379560D01*
X141292Y379568D01*
X141310D01*
X141357Y379564D01*
D02*
G37*
G36*
X156496Y377009D02*
X155550D01*
X155408Y377012D01*
X155164Y377034D01*
X155055Y377060D01*
X154956Y377100D01*
X154854Y377154D01*
X154833Y377169D01*
X154782Y377216D01*
X154749Y377249D01*
X154716Y377289D01*
X154680Y377340D01*
X154651Y377395D01*
X154647Y377402D01*
X154640Y377420D01*
X154611Y377496D01*
X154600Y377547D01*
X154585Y377606D01*
X154578Y377671D01*
X154574Y377740D01*
Y377744D01*
Y377755D01*
X154578Y377795D01*
X154600Y377930D01*
X154625Y378013D01*
X154662Y378104D01*
X154712Y378195D01*
X154782Y378283D01*
X154785Y378286D01*
X154792Y378294D01*
X154822Y378315D01*
X154873Y378352D01*
X154949Y378392D01*
X154996Y378414D01*
X155051Y378436D01*
X155109Y378454D01*
X155178Y378468D01*
X155251Y378483D01*
X155331Y378494D01*
X155422Y378501D01*
X155517Y378505D01*
X156161D01*
Y379528D01*
X156496D01*
Y377009D01*
D02*
G37*
G36*
X148277D02*
X146453D01*
Y377307D01*
X147942D01*
Y378075D01*
X146548D01*
Y378374D01*
X147942D01*
Y379229D01*
X146395D01*
Y379528D01*
X148277D01*
Y377009D01*
D02*
G37*
G36*
X151622D02*
X150679D01*
X150512Y377020D01*
X150363Y377041D01*
X150217Y377085D01*
X150188Y377100D01*
X150119Y377143D01*
X150028Y377216D01*
X150006Y377242D01*
X149984Y377263D01*
X149944Y377322D01*
X149940Y377329D01*
X149929Y377351D01*
X149893Y377424D01*
X149875Y377471D01*
X149857Y377529D01*
X149846Y377591D01*
X149842Y377653D01*
Y377660D01*
Y377678D01*
X149853Y377751D01*
X149879Y377850D01*
X149904Y377901D01*
X149933Y377955D01*
X149937Y377962D01*
X149948Y377977D01*
X149999Y378035D01*
X150035Y378072D01*
X150079Y378112D01*
X150133Y378148D01*
X150195Y378184D01*
X150159Y378199D01*
X150064Y378239D01*
X149948Y378312D01*
X149893Y378359D01*
X149868Y378388D01*
X149842Y378417D01*
X149835Y378425D01*
X149824Y378447D01*
X149802Y378479D01*
X149780Y378523D01*
X149758Y378581D01*
X149748Y378610D01*
X149737Y378643D01*
X149722Y378716D01*
X149718Y378796D01*
Y378803D01*
Y378825D01*
X149729Y378905D01*
X149751Y379011D01*
X149795Y379127D01*
X149799Y379134D01*
X149809Y379153D01*
X149846Y379215D01*
X149904Y379291D01*
X149940Y379331D01*
X149980Y379364D01*
X149984Y379367D01*
X149999Y379378D01*
X150057Y379407D01*
X150144Y379451D01*
X150195Y379469D01*
X150257Y379487D01*
X150264D01*
X150286Y379495D01*
X150370Y379506D01*
X150428Y379513D01*
X150497Y379520D01*
X150574Y379524D01*
X150661Y379528D01*
X151622D01*
Y377009D01*
D02*
G37*
G36*
X145343Y379564D02*
X145438Y379553D01*
X145569Y379517D01*
X145638Y379487D01*
X145707Y379448D01*
Y379444D01*
X145714Y379440D01*
X145736Y379426D01*
X145809Y379360D01*
X145856Y379313D01*
X145904Y379255D01*
X145951Y379189D01*
X145991Y379113D01*
X146006Y379076D01*
X146038Y378971D01*
X146056Y378898D01*
X146075Y378814D01*
X146078Y378767D01*
X146086Y378719D01*
X146089Y378668D01*
Y378618D01*
Y378570D01*
X146078Y378454D01*
X146049Y378294D01*
X145998Y378122D01*
X145980Y378086D01*
X145929Y377995D01*
X145893Y377941D01*
X145845Y377886D01*
X145787Y377828D01*
X145758Y377802D01*
X145725Y377780D01*
X145693Y377762D01*
X145656Y377740D01*
X145605Y377718D01*
X145547Y377697D01*
X145478Y377678D01*
X145441Y377671D01*
X145401Y377664D01*
X145321Y377660D01*
X145223Y377667D01*
X145125Y377689D01*
X145026Y377733D01*
X144954Y377780D01*
X144885Y377839D01*
X144815Y377911D01*
Y377009D01*
X144506D01*
Y379528D01*
X144793D01*
Y379302D01*
X144801Y379309D01*
X144826Y379338D01*
X144866Y379382D01*
X144892Y379407D01*
X144924Y379433D01*
X144957Y379458D01*
X144994Y379480D01*
X145037Y379506D01*
X145085Y379524D01*
X145132Y379542D01*
X145187Y379557D01*
X145245Y379564D01*
X145307Y379568D01*
X145318D01*
X145343Y379564D01*
D02*
G37*
G36*
X143407Y380263D02*
X143541Y380248D01*
X143625Y380230D01*
X143712Y380201D01*
X143800Y380165D01*
X143880Y380117D01*
X143884Y380114D01*
X143887Y380110D01*
X143913Y380088D01*
X143942Y380055D01*
X143978Y380008D01*
X144015Y379942D01*
X144029Y379906D01*
X144047Y379870D01*
X144058Y379826D01*
X144065Y379779D01*
X144073Y379677D01*
X143771Y379717D01*
Y379720D01*
X143767Y379739D01*
X143752Y379793D01*
X143720Y379862D01*
X143698Y379892D01*
X143669Y379921D01*
X143647Y379935D01*
X143585Y379964D01*
X143487Y379997D01*
X143421Y380008D01*
X143352Y380012D01*
X143228Y380001D01*
X143123Y379975D01*
X143068Y379953D01*
X143021Y379924D01*
X143003Y379906D01*
X142955Y379862D01*
X142904Y379786D01*
X142879Y379739D01*
X142861Y379684D01*
X142850Y379597D01*
X142846Y379546D01*
X142842Y379477D01*
X142839Y379287D01*
X142842Y379291D01*
X142850Y379298D01*
X142875Y379324D01*
X142919Y379364D01*
X142977Y379407D01*
X143050Y379451D01*
X143137Y379491D01*
X143185Y379506D01*
X143236Y379517D01*
X143290Y379524D01*
X143345Y379528D01*
X143363D01*
X143407Y379524D01*
X143476Y379513D01*
X143560Y379495D01*
X143654Y379462D01*
X143752Y379415D01*
X143800Y379382D01*
X143847Y379346D01*
X143891Y379306D01*
X143909Y379284D01*
X143931Y379258D01*
X143964Y379211D01*
X143996Y379153D01*
X144015Y379116D01*
X144033Y379073D01*
X144069Y378978D01*
X144087Y378923D01*
X144102Y378869D01*
X144116Y378807D01*
X144127Y378741D01*
X144135Y378607D01*
Y378563D01*
X144124Y378447D01*
X144095Y378294D01*
X144073Y378210D01*
X144040Y378126D01*
X143971Y377999D01*
X143931Y377944D01*
X143884Y377890D01*
X143829Y377831D01*
X143800Y377806D01*
X143767Y377784D01*
X143734Y377766D01*
X143698Y377744D01*
X143647Y377722D01*
X143585Y377700D01*
X143512Y377678D01*
X143472Y377671D01*
X143432Y377664D01*
X143388Y377660D01*
X143345D01*
X143290Y377664D01*
X143156Y377693D01*
X143072Y377726D01*
X142981Y377773D01*
X142893Y377839D01*
X142850Y377879D01*
X142810Y377926D01*
Y377700D01*
X142526D01*
Y379280D01*
Y379284D01*
Y379298D01*
Y379349D01*
X142529Y379422D01*
X142537Y379513D01*
X142562Y379710D01*
X142584Y379804D01*
X142613Y379881D01*
X142617Y379888D01*
X142631Y379910D01*
X142679Y379983D01*
X142719Y380026D01*
X142740Y380048D01*
X142766Y380074D01*
X142824Y380117D01*
X142890Y380161D01*
X142893D01*
X142897Y380165D01*
X142922Y380175D01*
X143017Y380212D01*
X143083Y380230D01*
X143163Y380248D01*
X143254Y380259D01*
X143301Y380263D01*
X143352Y380266D01*
X143367D01*
X143407Y380263D01*
D02*
G37*
%LPC*%
G36*
X145278Y379313D02*
X145245Y379309D01*
X145158Y379291D01*
X145045Y379244D01*
X144986Y379204D01*
X144932Y379149D01*
X144910Y379116D01*
X144885Y379076D01*
X144859Y379022D01*
X144844Y378989D01*
X144834Y378952D01*
X144808Y378865D01*
X144801Y378814D01*
X144793Y378763D01*
X144786Y378705D01*
Y378643D01*
X144790Y378581D01*
X144804Y378432D01*
X144848Y378254D01*
X144885Y378166D01*
X144932Y378093D01*
X144957Y378064D01*
X144990Y378035D01*
X145008Y378021D01*
X145030Y378002D01*
X145081Y377970D01*
X145143Y377944D01*
X145176Y377930D01*
X145212Y377922D01*
X145248Y377915D01*
X145296D01*
X145321Y377919D01*
X145409Y377937D01*
X145463Y377955D01*
X145521Y377988D01*
X145580Y378028D01*
X145609Y378057D01*
X145634Y378086D01*
X145642Y378093D01*
X145656Y378119D01*
X145678Y378159D01*
X145703Y378214D01*
X145729Y378290D01*
X145740Y378334D01*
X145751Y378381D01*
X145765Y378490D01*
X145769Y378552D01*
X145773Y378618D01*
Y378621D01*
Y378632D01*
X145769Y378676D01*
X145754Y378814D01*
X145736Y378898D01*
X145711Y378985D01*
X145674Y379069D01*
X145627Y379142D01*
X145601Y379167D01*
X145569Y379196D01*
X145529Y379225D01*
X145474Y379258D01*
X145416Y379287D01*
X145350Y379306D01*
X145314Y379309D01*
X145278Y379313D01*
D02*
G37*
G36*
X151287Y379229D02*
X150661D01*
X150432Y379218D01*
X150366Y379204D01*
X150304Y379182D01*
X150242Y379153D01*
X150195Y379116D01*
X150173Y379094D01*
X150152Y379073D01*
X150133Y379043D01*
X150111Y379011D01*
X150104Y378996D01*
X150086Y378949D01*
X150068Y378883D01*
X150064Y378840D01*
X150060Y378796D01*
X150072Y378712D01*
X150093Y378636D01*
X150137Y378556D01*
X150152Y378538D01*
X150188Y378497D01*
X150253Y378447D01*
X150294Y378425D01*
X150341Y378406D01*
X150348Y378403D01*
X150363Y378399D01*
X150435Y378385D01*
X150548Y378370D01*
X150625Y378363D01*
X151287D01*
Y379229D01*
D02*
G37*
G36*
X143319Y379273D02*
X143283Y379269D01*
X143192Y379251D01*
X143075Y379204D01*
X143017Y379164D01*
X142959Y379109D01*
X142937Y379076D01*
X142912Y379040D01*
X142886Y378982D01*
X142871Y378949D01*
X142861Y378912D01*
X142835Y378821D01*
X142828Y378774D01*
X142821Y378719D01*
X142813Y378658D01*
Y378596D01*
X142817Y378541D01*
X142832Y378406D01*
X142850Y378323D01*
X142875Y378239D01*
X142912Y378155D01*
X142937Y378119D01*
X142963Y378086D01*
X142988Y378061D01*
X143021Y378031D01*
X143064Y377999D01*
X143115Y377970D01*
X143177Y377941D01*
X143210Y377930D01*
X143246Y377922D01*
X143283Y377915D01*
X143330D01*
X143356Y377919D01*
X143443Y377937D01*
X143501Y377955D01*
X143560Y377988D01*
X143618Y378028D01*
X143676Y378086D01*
X143683Y378093D01*
X143698Y378119D01*
X143720Y378155D01*
X143745Y378210D01*
X143774Y378283D01*
X143796Y378366D01*
X143803Y378414D01*
X143811Y378468D01*
X143814Y378523D01*
X143818Y378585D01*
Y378588D01*
Y378599D01*
X143814Y378643D01*
X143800Y378785D01*
X143756Y378956D01*
X143723Y379040D01*
X143676Y379109D01*
X143650Y379134D01*
X143618Y379160D01*
X143578Y379189D01*
X143527Y379222D01*
X143465Y379247D01*
X143396Y379265D01*
X143359Y379269D01*
X143319Y379273D01*
D02*
G37*
G36*
X141827Y378439D02*
X140804D01*
X140826Y378312D01*
X140862Y378199D01*
X140891Y378144D01*
X140924Y378097D01*
X140950Y378068D01*
X140982Y378039D01*
X141026Y378006D01*
X141051Y377988D01*
X141081Y377973D01*
X141146Y377944D01*
X141183Y377933D01*
X141223Y377922D01*
X141263Y377915D01*
X141317D01*
X141343Y377919D01*
X141430Y377933D01*
X141550Y377977D01*
X141609Y378013D01*
X141667Y378061D01*
X141674Y378068D01*
X141689Y378086D01*
X141714Y378119D01*
X141739Y378163D01*
X141769Y378214D01*
X141794Y378279D01*
X141816Y378356D01*
X141827Y378439D01*
D02*
G37*
G36*
X151287Y378064D02*
X150745D01*
X150621Y378061D01*
X150428Y378039D01*
X150355Y378006D01*
X150294Y377970D01*
X150261Y377941D01*
X150235Y377911D01*
X150224Y377897D01*
X150203Y377850D01*
X150181Y377784D01*
X150173Y377740D01*
X150170Y377693D01*
X150177Y377620D01*
X150195Y377547D01*
X150232Y377475D01*
X150242Y377460D01*
X150275Y377424D01*
X150301Y377402D01*
X150330Y377380D01*
X150366Y377358D01*
X150406Y377344D01*
X150410Y377340D01*
X150428Y377336D01*
X150494Y377325D01*
X150545Y377318D01*
X150610Y377314D01*
X150690Y377307D01*
X151287D01*
Y378064D01*
D02*
G37*
G36*
X156161Y378206D02*
X155513D01*
X155459Y378203D01*
X155335Y378192D01*
X155182Y378155D01*
X155113Y378126D01*
X155055Y378086D01*
X155033Y378064D01*
X155011Y378035D01*
X154985Y377999D01*
X154960Y377951D01*
X154938Y377893D01*
X154927Y377860D01*
X154924Y377828D01*
X154916Y377751D01*
X154927Y377657D01*
X154949Y377569D01*
X154971Y377526D01*
X154996Y377482D01*
X155011Y377464D01*
X155051Y377420D01*
X155084Y377395D01*
X155120Y377373D01*
X155160Y377351D01*
X155208Y377333D01*
X155211D01*
X155226Y377329D01*
X155277Y377318D01*
X155375Y377311D01*
X155440Y377307D01*
X156161D01*
Y378206D01*
D02*
G37*
%LPD*%
D69*
X122625Y107192D02*
Y210792D01*
X408625D01*
Y43492D02*
Y210792D01*
X122625Y43492D02*
X408625D01*
X122625D02*
Y107192D01*
D108*
X96653Y96457D02*
X117126D01*
X96653Y70472D02*
Y96457D01*
Y70472D02*
X117126D01*
Y96457D01*
X106890Y81890D02*
Y85827D01*
X104921Y83858D02*
X108858D01*
X385787Y235433D02*
X389724D01*
X387756Y233465D02*
Y237402D01*
X438228Y211575D02*
X440197D01*
X439213Y210591D02*
Y212559D01*
X354921Y353543D02*
X358858D01*
X356890Y351575D02*
Y355512D01*
X389173Y334252D02*
Y342913D01*
X324606Y334252D02*
X389173D01*
X56496Y122835D02*
X60433D01*
X58465Y120866D02*
Y124803D01*
X332087Y246850D02*
Y250787D01*
X330118Y248819D02*
X334055D01*
X56299Y147244D02*
X60236D01*
X58268Y145276D02*
Y149213D01*
X202165Y272441D02*
Y276378D01*
X200197Y274410D02*
X204134D01*
X349016Y305118D02*
X352953D01*
X350984Y303150D02*
Y307087D01*
X135630Y273721D02*
Y277461D01*
X133760Y275590D02*
X137500D01*
X438386Y37008D02*
Y43307D01*
Y37008D02*
X448622D01*
Y43307D01*
X438386D02*
X448622D01*
X443504Y38189D02*
Y42126D01*
X441535Y40157D02*
X445472D01*
X425992Y36949D02*
Y43248D01*
Y36949D02*
X436228D01*
Y43248D01*
X425992D02*
X436228D01*
X431110Y38130D02*
Y42067D01*
X429142Y40098D02*
X433079D01*
X345472Y36949D02*
Y43248D01*
Y36949D02*
X355709D01*
Y43248D01*
X345472D02*
X355709D01*
X350591Y38130D02*
Y42067D01*
X348622Y40098D02*
X352559D01*
X332874Y37008D02*
Y43307D01*
Y37008D02*
X343110D01*
Y43307D01*
X332874D02*
X343110D01*
X337992Y38189D02*
Y42126D01*
X336024Y40157D02*
X339961D01*
X74606Y103543D02*
Y112992D01*
X70669Y103543D02*
X74606D01*
X70669D02*
Y112992D01*
X74606D01*
X71850Y108268D02*
X73425D01*
X72638Y107480D02*
Y109055D01*
X97835Y103150D02*
Y112598D01*
X93898Y103150D02*
X97835D01*
X93898D02*
Y112598D01*
X97835D01*
X95079Y107874D02*
X96653D01*
X95866Y107087D02*
Y108661D01*
X426575Y270472D02*
Y274409D01*
X424606Y272441D02*
X428543D01*
X174311Y365748D02*
X178051D01*
X176181Y363878D02*
Y367618D01*
X394783Y344488D02*
X398524D01*
X396654Y342618D02*
Y346358D01*
X95866Y250000D02*
X116339D01*
Y216142D02*
Y250000D01*
X87992Y216142D02*
X116339D01*
X87992D02*
Y250000D01*
X95866D01*
X100197Y233071D02*
X104134D01*
X102165Y231102D02*
Y235039D01*
X33366Y250000D02*
X37106D01*
X35236Y248130D02*
Y251870D01*
X49114Y288189D02*
X52854D01*
X50984Y286319D02*
Y290059D01*
X149409Y273721D02*
Y277461D01*
X147539Y275590D02*
X151279D01*
X377362Y319291D02*
X381299D01*
X379331Y317323D02*
Y321260D01*
X375787Y325197D02*
X379331D01*
X375787Y313386D02*
Y325197D01*
Y313386D02*
X382874D01*
Y325197D01*
X379331D02*
X382874D01*
X184449Y227559D02*
Y231496D01*
X182480Y229528D02*
X186417D01*
X192323Y225590D02*
Y233465D01*
X176575D02*
X192323D01*
X176575Y225590D02*
Y233465D01*
Y225590D02*
X192323D01*
X37043Y59565D02*
Y63502D01*
X35074Y61533D02*
X39011D01*
X44917Y57596D02*
Y65470D01*
X29169D02*
X44917D01*
X29169Y57596D02*
Y65470D01*
Y57596D02*
X44917D01*
X145551Y279134D02*
X155000D01*
X145551D02*
Y283071D01*
X155000D01*
Y279134D02*
Y283071D01*
X150276Y280315D02*
Y281890D01*
X149488Y281102D02*
X151063D01*
X131220Y283858D02*
X140669D01*
Y279921D02*
Y283858D01*
X131220Y279921D02*
X140669D01*
X131220D02*
Y283858D01*
X135945Y281102D02*
Y282677D01*
X135158Y281890D02*
X136732D01*
X416732Y289764D02*
X426181D01*
Y285827D02*
Y289764D01*
X416732Y285827D02*
X426181D01*
X416732D02*
Y289764D01*
X421457Y287008D02*
Y288583D01*
X420669Y287795D02*
X422244D01*
X453740Y301575D02*
X457677D01*
X455709Y299606D02*
Y303543D01*
X449016Y304724D02*
X462402D01*
Y298425D02*
Y304724D01*
X449016Y298425D02*
X462402D01*
X449016D02*
Y304724D01*
X469095Y301575D02*
X473032D01*
X471063Y299606D02*
Y303543D01*
X464370Y298425D02*
X477756D01*
X464370D02*
Y304724D01*
X477756D01*
Y298425D02*
Y304724D01*
X408465Y255906D02*
Y265354D01*
X412402D01*
Y255906D02*
Y265354D01*
X408465Y255906D02*
X412402D01*
X409646Y260630D02*
X411221D01*
X410433Y259842D02*
Y261417D01*
X52004Y72557D02*
Y82006D01*
X55941D01*
Y72557D02*
Y82006D01*
X52004Y72557D02*
X55941D01*
X53185Y77281D02*
X54760D01*
X53972Y76494D02*
Y78069D01*
X116339Y255118D02*
X120276D01*
X118307Y253150D02*
Y257087D01*
X111614Y251969D02*
X125000D01*
X111614D02*
Y258268D01*
X125000D01*
Y251969D02*
Y258268D01*
X115945Y299606D02*
X119882D01*
X117913Y297638D02*
Y301575D01*
X111221Y296457D02*
X124606D01*
X111221D02*
Y302756D01*
X124606D01*
Y296457D02*
Y302756D01*
X50984Y269685D02*
Y273622D01*
X49016Y271654D02*
X52953D01*
X47835Y264961D02*
Y278346D01*
X54134D01*
Y264961D02*
Y278346D01*
X47835Y264961D02*
X54134D01*
X95866Y294094D02*
X116339D01*
Y260236D02*
Y294094D01*
X87992Y260236D02*
X116339D01*
X87992D02*
Y294094D01*
X95866D01*
X100197Y277165D02*
X104134D01*
X102165Y275197D02*
Y279134D01*
X198228Y296142D02*
Y305591D01*
X194291Y296142D02*
X198228D01*
X194291D02*
Y305591D01*
X198228D01*
X195472Y300866D02*
X197047D01*
X196260Y300079D02*
Y301654D01*
X49803Y237008D02*
Y240945D01*
X47835Y238976D02*
X51772D01*
X52953Y232283D02*
Y245669D01*
X46654Y232283D02*
X52953D01*
X46654D02*
Y245669D01*
X52953D01*
X111713Y167323D02*
X115453D01*
X113583Y165453D02*
Y169193D01*
X111713Y161024D02*
X115453D01*
X113583Y159153D02*
Y162894D01*
X122343Y221260D02*
Y225000D01*
X120473Y223130D02*
X124213D01*
X185236Y360630D02*
X194685D01*
Y356693D02*
Y360630D01*
X185236Y356693D02*
X194685D01*
X185236D02*
Y360630D01*
X189961Y357874D02*
Y359449D01*
X189173Y358661D02*
X190748D01*
X402559Y225000D02*
Y226969D01*
X401575Y225984D02*
X403543D01*
X205709Y232283D02*
Y235433D01*
X204134Y233858D02*
X207283D01*
X182480Y373622D02*
X185630D01*
X184055Y372047D02*
Y375197D01*
X170276Y311417D02*
X174213D01*
X172244Y309449D02*
Y313386D01*
D109*
X133268Y380709D02*
X164764D01*
D113*
X376929Y220669D02*
Y250197D01*
X398583Y220669D02*
Y250197D01*
X376929Y220669D02*
X398583D01*
X376929Y250197D02*
X398583D01*
X437441Y207244D02*
Y215905D01*
X440984Y207244D02*
Y215905D01*
X437441Y207244D02*
X440984D01*
X437441Y215905D02*
X440984D01*
X65847Y114469D02*
Y131201D01*
X51083Y114469D02*
Y131201D01*
Y114469D02*
X65847D01*
X51083Y131201D02*
X65847D01*
X323721Y241437D02*
X340453D01*
X323721Y256201D02*
X340453D01*
X323721Y241437D02*
Y256201D01*
X340453Y241437D02*
Y256201D01*
X65650Y138878D02*
Y155610D01*
X50886Y138878D02*
Y155610D01*
Y138878D02*
X65650D01*
X50886Y155610D02*
X65650D01*
X193799Y267028D02*
X210531D01*
X193799Y281791D02*
X210531D01*
X193799Y267028D02*
Y281791D01*
X210531Y267028D02*
Y281791D01*
X366929Y290945D02*
Y319291D01*
X335039Y290945D02*
Y319291D01*
X366929D01*
X335039Y290945D02*
X366929D01*
X129528Y278543D02*
X141732D01*
X129528Y272638D02*
X141732D01*
X129528D02*
Y278543D01*
X141732Y272638D02*
Y278543D01*
X179134Y359646D02*
Y371850D01*
X173228Y359646D02*
Y371850D01*
X179134D01*
X173228Y359646D02*
X179134D01*
X393701Y338386D02*
Y350590D01*
X399606Y338386D02*
Y350590D01*
X393701Y338386D02*
X399606D01*
X393701Y350590D02*
X399606D01*
X32283Y243898D02*
Y256102D01*
X38189Y243898D02*
Y256102D01*
X32283Y243898D02*
X38189D01*
X32283Y256102D02*
X38189D01*
X48031Y282087D02*
Y294291D01*
X53937Y282087D02*
Y294291D01*
X48031Y282087D02*
X53937D01*
X48031Y294291D02*
X53937D01*
X143307Y272638D02*
X155512D01*
X143307Y278543D02*
X155512D01*
Y272638D02*
Y278543D01*
X143307Y272638D02*
Y278543D01*
X107480Y164370D02*
Y170276D01*
X119685Y164370D02*
Y170276D01*
X107480D02*
X119685D01*
X107480Y164370D02*
X119685D01*
X107480Y158071D02*
Y163976D01*
X119685Y158071D02*
Y163976D01*
X107480D02*
X119685D01*
X107480Y158071D02*
X119685D01*
X119390Y217028D02*
X125295D01*
X119390Y229232D02*
X125295D01*
X119390Y217028D02*
Y229232D01*
X125295Y217028D02*
Y229232D01*
X400787Y230315D02*
X404331D01*
X400787Y221654D02*
X404331D01*
Y230315D01*
X400787Y221654D02*
Y230315D01*
X202756Y239961D02*
X208661D01*
X202756Y227756D02*
X208661D01*
Y239961D01*
X202756Y227756D02*
Y239961D01*
X181102Y367520D02*
Y379724D01*
X187008Y367520D02*
Y379724D01*
X181102Y367520D02*
X187008D01*
X181102Y379724D02*
X187008D01*
X152165Y291339D02*
Y331496D01*
X192323Y291339D02*
Y331496D01*
X152165D02*
X192323D01*
X152165Y291339D02*
X192323D01*
D117*
X295472Y250000D02*
X299410D01*
X297441Y248031D02*
Y251969D01*
X284055Y269291D02*
X310827D01*
X284055Y230709D02*
Y269291D01*
Y230709D02*
X310827D01*
Y269291D01*
X488819Y188287D02*
Y192224D01*
X486850Y190256D02*
X490787D01*
X469528Y176870D02*
Y203642D01*
Y176870D02*
X508110D01*
Y203642D01*
X469528D02*
X508110D01*
X488819Y141496D02*
Y145433D01*
X486850Y143465D02*
X490787D01*
X469528Y130079D02*
Y156850D01*
Y130079D02*
X508110D01*
Y156850D01*
X469528D02*
X508110D01*
X487835Y235984D02*
Y239921D01*
X485866Y237953D02*
X489803D01*
X468543Y224567D02*
Y251339D01*
Y224567D02*
X507126D01*
Y251339D01*
X468543D02*
X507126D01*
X488819Y93405D02*
Y97342D01*
X486850Y95374D02*
X490787D01*
X469528Y81988D02*
Y108760D01*
Y81988D02*
X508110D01*
Y108760D01*
X469528D02*
X508110D01*
X248622Y250000D02*
X252559D01*
X250590Y248031D02*
Y251969D01*
X237205Y269291D02*
X263976D01*
X237205Y230709D02*
Y269291D01*
Y230709D02*
X263976D01*
Y269291D01*
X62402Y301969D02*
Y305906D01*
X60433Y303937D02*
X64370D01*
X47402Y295937D02*
Y311937D01*
X77402D01*
Y295937D02*
Y311937D01*
X47402Y295937D02*
X77402D01*
M02*
