%FSLAX25Y25*%
%MOIN*%
G70*
G01*
G75*
G04 Layer_Color=16711935*
%ADD10C,0.02362*%
%ADD11C,0.00984*%
%ADD12R,0.02441X0.02244*%
%ADD13R,0.02244X0.02441*%
%ADD14O,0.01378X0.06693*%
%ADD15R,0.01614X0.06299*%
%ADD16R,0.02362X0.02165*%
%ADD17R,0.01181X0.10236*%
%ADD18R,0.03000X0.03000*%
G04:AMPARAMS|DCode=19|XSize=29.53mil|YSize=16.54mil|CornerRadius=4.13mil|HoleSize=0mil|Usage=FLASHONLY|Rotation=90.000|XOffset=0mil|YOffset=0mil|HoleType=Round|Shape=RoundedRectangle|*
%AMROUNDEDRECTD19*
21,1,0.02953,0.00827,0,0,90.0*
21,1,0.02126,0.01654,0,0,90.0*
1,1,0.00827,0.00413,0.01063*
1,1,0.00827,0.00413,-0.01063*
1,1,0.00827,-0.00413,-0.01063*
1,1,0.00827,-0.00413,0.01063*
%
%ADD19ROUNDEDRECTD19*%
%ADD20O,0.03150X0.01181*%
%ADD21O,0.01181X0.03150*%
%ADD22R,0.03937X0.05906*%
%ADD23R,0.05906X0.03937*%
%ADD24O,0.01378X0.05512*%
%ADD25R,0.03819X0.03780*%
%ADD26R,0.01181X0.02165*%
%ADD27R,0.01575X0.02165*%
%ADD28R,0.03937X0.02362*%
%ADD29R,0.03000X0.03000*%
%ADD30R,0.05118X0.06102*%
%ADD31C,0.07874*%
%ADD32R,0.02756X0.00984*%
%ADD33R,0.10630X0.10630*%
%ADD34R,0.00984X0.02756*%
%ADD35R,0.06102X0.05118*%
%ADD36R,0.01575X0.01969*%
%ADD37R,0.05906X0.02165*%
%ADD38R,0.03780X0.03819*%
%ADD39R,0.13504X0.09843*%
%ADD40R,0.03937X0.06890*%
%ADD41R,0.02756X0.06890*%
%ADD42R,0.05906X0.06890*%
%ADD43R,0.03150X0.05512*%
%ADD44R,0.05906X0.03937*%
%ADD45R,0.03937X0.06102*%
%ADD46R,0.06200X0.02400*%
%ADD47O,0.06200X0.02400*%
%ADD48R,0.02400X0.06200*%
%ADD49O,0.02400X0.06200*%
%ADD50R,0.01181X0.01181*%
%ADD51R,0.01772X0.02323*%
%ADD52R,0.00787X0.01969*%
%ADD53R,0.08504X0.08898*%
%ADD54R,0.04000X0.05000*%
%ADD55R,0.05000X0.04000*%
%ADD56R,0.01378X0.07874*%
%ADD57R,0.17716X0.18110*%
%ADD58R,0.02441X0.01575*%
%ADD59R,0.04724X0.01181*%
%ADD60R,0.11811X0.10630*%
%ADD61R,0.05512X0.04528*%
%ADD62R,0.04528X0.05512*%
%ADD63R,0.01772X0.05118*%
%ADD64R,0.03740X0.03740*%
%ADD65R,0.02362X0.03937*%
%ADD66O,0.02756X0.00984*%
%ADD67O,0.00984X0.02756*%
%ADD68R,0.17126X0.17126*%
%ADD69C,0.00787*%
%ADD70C,0.00906*%
%ADD71C,0.01969*%
%ADD72C,0.01378*%
%ADD73C,0.01181*%
%ADD74C,0.02756*%
%ADD75C,0.01575*%
%ADD76C,0.00052*%
%ADD77C,0.01000*%
%ADD78C,0.07087*%
%ADD79R,0.07087X0.07087*%
%ADD80C,0.07480*%
%ADD81C,0.25590*%
%ADD82O,0.05906X0.12992*%
%ADD83O,0.05906X0.09055*%
%ADD84C,0.20866*%
%ADD85C,0.08268*%
%ADD86C,0.12795*%
%ADD87C,0.06496*%
%ADD88C,0.09843*%
%ADD89C,0.06693*%
%ADD90R,0.06693X0.06693*%
%ADD91C,0.06000*%
%ADD92R,0.06000X0.06000*%
%ADD93C,0.13780*%
%ADD94C,0.05512*%
%ADD95O,0.15748X0.07874*%
%ADD96O,0.07874X0.15748*%
%ADD97O,0.17716X0.07874*%
%ADD98C,0.04331*%
%ADD99C,0.06299*%
%ADD100C,0.11811*%
%ADD101C,0.03150*%
%ADD102O,0.04528X0.07087*%
%ADD103O,0.05709X0.07874*%
%ADD104C,0.02362*%
%ADD105C,0.00866*%
%ADD106C,0.00900*%
%ADD107C,0.00500*%
%ADD108C,0.00394*%
%ADD109C,0.00591*%
%ADD110C,0.00700*%
%ADD111C,0.00701*%
%ADD112C,0.00472*%
%ADD113C,0.00197*%
%ADD114C,0.00004*%
%ADD115C,0.01500*%
%ADD116C,0.00100*%
%ADD117C,0.00200*%
D77*
X298386Y297339D02*
Y383362D01*
X220039D02*
X298386D01*
X220039Y297339D02*
Y383362D01*
Y297339D02*
X298386D01*
D108*
X396024Y239764D02*
G03*
X396024Y239764I-1969J0D01*
G01*
X62008Y120276D02*
G03*
X62008Y120276I-1969J0D01*
G01*
X331496Y247244D02*
G03*
X331496Y247244I-1969J0D01*
G01*
X61811Y144685D02*
G03*
X61811Y144685I-1969J0D01*
G01*
X201575Y272835D02*
G03*
X201575Y272835I-1969J0D01*
G01*
X340945Y299803D02*
G03*
X340945Y299803I-1969J0D01*
G01*
X303937Y250000D02*
G03*
X303937Y250000I-6496J0D01*
G01*
X432874Y268110D02*
G03*
X432874Y268110I-1969J0D01*
G01*
X495315Y190256D02*
G03*
X495315Y190256I-6496J0D01*
G01*
Y143465D02*
G03*
X495315Y143465I-6496J0D01*
G01*
X494331Y237953D02*
G03*
X494331Y237953I-6496J0D01*
G01*
X495315Y95374D02*
G03*
X495315Y95374I-6496J0D01*
G01*
X257087Y250000D02*
G03*
X257087Y250000I-6496J0D01*
G01*
X143412Y81504D02*
G03*
X143412Y81504I-3156J0D01*
G01*
X393854Y81507D02*
G03*
X393854Y81507I-3204J0D01*
G01*
X393805Y81496D02*
G03*
X393805Y81496I-3156J0D01*
G01*
X160039Y325590D02*
G03*
X160039Y325590I-1969J0D01*
G01*
X97185Y96063D02*
X116595D01*
X97185Y71063D02*
X116595D01*
Y96063D01*
X97185Y71063D02*
Y96063D01*
X111890Y91358D02*
Y96063D01*
X101890Y91358D02*
X111890D01*
X101890D02*
Y96063D01*
X172105Y342444D02*
X174073D01*
X172105D02*
Y346381D01*
X174073D01*
Y342444D02*
Y346381D01*
X443386Y219961D02*
Y221929D01*
X439449Y219961D02*
X443386D01*
X439449D02*
Y221929D01*
X443386D01*
X439488Y223740D02*
Y225709D01*
X443425D01*
Y223740D02*
Y225709D01*
X439488Y223740D02*
X443425D01*
X372441Y222441D02*
X374410D01*
X372441D02*
Y226378D01*
X374410D01*
Y222441D02*
Y226378D01*
X401968Y242126D02*
X403937D01*
X401968D02*
Y246063D01*
X403937D01*
Y242126D02*
Y246063D01*
X401968Y237402D02*
X403937D01*
Y233465D02*
Y237402D01*
X401968Y233465D02*
X403937D01*
X401968D02*
Y237402D01*
X377913Y227559D02*
Y243307D01*
X397598Y227559D02*
Y243307D01*
X377913Y227559D02*
X397598D01*
X377913Y243307D02*
X397598D01*
X438228Y209606D02*
Y213543D01*
X440197Y209606D02*
Y213543D01*
X438228Y209606D02*
X440197D01*
X438228Y213543D02*
X440197D01*
X102008Y135827D02*
Y137795D01*
X105945D01*
Y135827D02*
Y137795D01*
X102008Y135827D02*
X105945D01*
X63583Y116732D02*
Y128937D01*
X53347Y116732D02*
Y128937D01*
Y116732D02*
X63583D01*
X53347Y128937D02*
X63583D01*
X325984Y243701D02*
X338189D01*
X325984Y253937D02*
X338189D01*
X325984Y243701D02*
Y253937D01*
X338189Y243701D02*
Y253937D01*
X63386Y141142D02*
Y153346D01*
X53150Y141142D02*
Y153346D01*
Y141142D02*
X63386D01*
X53150Y153346D02*
X63386D01*
X196063Y269291D02*
X208268D01*
X196063Y279528D02*
X208268D01*
X196063Y269291D02*
Y279528D01*
X208268Y269291D02*
Y279528D01*
X366535Y296260D02*
Y313976D01*
X335433Y296260D02*
Y313976D01*
X366535D01*
X335433Y296260D02*
X366535D01*
X132185Y277461D02*
X139075D01*
X132185Y273721D02*
X139075D01*
X132185D02*
Y277461D01*
X139075Y273721D02*
Y277461D01*
X231221Y271457D02*
X235157D01*
Y273425D01*
X231221D02*
X235157D01*
X231221Y271457D02*
Y273425D01*
X438583Y42126D02*
X448425D01*
Y38189D02*
Y42126D01*
X438583Y38189D02*
X448425D01*
X438583D02*
Y42126D01*
X426189Y42067D02*
X436031D01*
Y38130D02*
Y42067D01*
X426189Y38130D02*
X436031D01*
X426189D02*
Y42067D01*
X345669D02*
X355512D01*
Y38130D02*
Y42067D01*
X345669Y38130D02*
X355512D01*
X345669D02*
Y42067D01*
X333071Y42126D02*
X342913D01*
Y38189D02*
Y42126D01*
X333071Y38189D02*
X342913D01*
X333071D02*
Y42126D01*
X66339Y103937D02*
Y107087D01*
X60039Y103937D02*
X66339D01*
X60039D02*
Y107087D01*
X66339D01*
X80315Y114567D02*
X87008D01*
X80315Y102756D02*
X87008D01*
X80315D02*
Y114567D01*
X87008Y102756D02*
Y114567D01*
X71063Y105118D02*
Y111417D01*
Y105118D02*
X74213D01*
Y111417D01*
X71063D02*
X74213D01*
X94291Y104724D02*
Y111024D01*
Y104724D02*
X97441D01*
Y111024D01*
X94291D02*
X97441D01*
X286024Y261811D02*
X308858D01*
X286024Y238189D02*
X308858D01*
X304921Y236221D02*
X307677D01*
X304921Y234252D02*
X307677D01*
Y238189D01*
X308858D02*
Y238583D01*
X304921Y234252D02*
Y238189D01*
Y265748D02*
X307677D01*
X304921Y263779D02*
X307677D01*
Y261811D02*
Y265748D01*
X308858Y261417D02*
Y261811D01*
X304921D02*
Y265748D01*
X287205Y234252D02*
X289961D01*
X287205Y236221D02*
X289961D01*
Y234252D02*
Y238189D01*
X287205Y234252D02*
Y238189D01*
X286024D02*
Y238583D01*
X287205Y265748D02*
X289961D01*
X287205Y263779D02*
X289961D01*
Y261811D02*
Y265748D01*
X287205Y261811D02*
Y265748D01*
X286024Y261417D02*
Y261811D01*
X285630Y241634D02*
Y258366D01*
X284449Y238583D02*
Y244685D01*
Y241634D02*
X285630D01*
X284449Y244685D02*
X285630D01*
X284449Y255315D02*
X285630D01*
X284449D02*
Y261417D01*
Y258366D02*
X285630D01*
X284449Y261417D02*
X286024D01*
X284449Y238583D02*
X286024D01*
X310433Y255315D02*
Y261417D01*
X309252Y241634D02*
Y258366D01*
X310433Y238583D02*
Y244685D01*
X308858Y238583D02*
X310433D01*
X309252Y241634D02*
X310433D01*
X309252Y244685D02*
X310433D01*
X309252Y255315D02*
X310433D01*
X309252Y258366D02*
X310433D01*
X308858Y261417D02*
X310433D01*
X216535Y148425D02*
Y152362D01*
Y148425D02*
X218504D01*
Y152362D01*
X216535D02*
X218504D01*
X418701Y280315D02*
X434449D01*
X418701Y264567D02*
X434449D01*
X418701D02*
Y280315D01*
X434449Y264567D02*
Y280315D01*
X477008Y178839D02*
Y201673D01*
X500630Y178839D02*
Y201673D01*
X502598Y197736D02*
Y200492D01*
X504567Y197736D02*
Y200492D01*
X500630D02*
X504567D01*
X500236Y201673D02*
X500630D01*
Y197736D02*
X504567D01*
X473071D02*
Y200492D01*
X475039Y197736D02*
Y200492D01*
X473071D02*
X477008D01*
Y201673D02*
X477402D01*
X473071Y197736D02*
X477008D01*
X504567Y180020D02*
Y182776D01*
X502598Y180020D02*
Y182776D01*
X500630D02*
X504567D01*
X500630Y180020D02*
X504567D01*
X500236Y178839D02*
X500630D01*
X473071Y180020D02*
Y182776D01*
X475039Y180020D02*
Y182776D01*
X473071D02*
X477008D01*
X473071Y180020D02*
X477008D01*
Y178839D02*
X477402D01*
X480453Y178445D02*
X497185D01*
X494134Y177264D02*
X500236D01*
X497185D02*
Y178445D01*
X494134Y177264D02*
Y178445D01*
X483504Y177264D02*
Y178445D01*
X477402Y177264D02*
X483504D01*
X480453D02*
Y178445D01*
X477402Y177264D02*
Y178839D01*
X500236Y177264D02*
Y178839D01*
X477402Y203248D02*
X483504D01*
X480453Y202067D02*
X497185D01*
X494134Y203248D02*
X500236D01*
Y201673D02*
Y203248D01*
X497185Y202067D02*
Y203248D01*
X494134Y202067D02*
Y203248D01*
X483504Y202067D02*
Y203248D01*
X480453Y202067D02*
Y203248D01*
X477402Y201673D02*
Y203248D01*
X477008Y132047D02*
Y154882D01*
X500630Y132047D02*
Y154882D01*
X502598Y150945D02*
Y153701D01*
X504567Y150945D02*
Y153701D01*
X500630D02*
X504567D01*
X500236Y154882D02*
X500630D01*
Y150945D02*
X504567D01*
X473071D02*
Y153701D01*
X475039Y150945D02*
Y153701D01*
X473071D02*
X477008D01*
Y154882D02*
X477402D01*
X473071Y150945D02*
X477008D01*
X504567Y133228D02*
Y135984D01*
X502598Y133228D02*
Y135984D01*
X500630D02*
X504567D01*
X500630Y133228D02*
X504567D01*
X500236Y132047D02*
X500630D01*
X473071Y133228D02*
Y135984D01*
X475039Y133228D02*
Y135984D01*
X473071D02*
X477008D01*
X473071Y133228D02*
X477008D01*
Y132047D02*
X477402D01*
X480453Y131653D02*
X497185D01*
X494134Y130472D02*
X500236D01*
X497185D02*
Y131653D01*
X494134Y130472D02*
Y131653D01*
X483504Y130472D02*
Y131653D01*
X477402Y130472D02*
X483504D01*
X480453D02*
Y131653D01*
X477402Y130472D02*
Y132047D01*
X500236Y130472D02*
Y132047D01*
X477402Y156457D02*
X483504D01*
X480453Y155276D02*
X497185D01*
X494134Y156457D02*
X500236D01*
Y154882D02*
Y156457D01*
X497185Y155276D02*
Y156457D01*
X494134Y155276D02*
Y156457D01*
X483504Y155276D02*
Y156457D01*
X480453Y155276D02*
Y156457D01*
X477402Y154882D02*
Y156457D01*
X476024Y226535D02*
Y249370D01*
X499646Y226535D02*
Y249370D01*
X501614Y245433D02*
Y248189D01*
X503583Y245433D02*
Y248189D01*
X499646D02*
X503583D01*
X499252Y249370D02*
X499646D01*
Y245433D02*
X503583D01*
X472087D02*
Y248189D01*
X474055Y245433D02*
Y248189D01*
X472087D02*
X476024D01*
Y249370D02*
X476417D01*
X472087Y245433D02*
X476024D01*
X503583Y227716D02*
Y230472D01*
X501614Y227716D02*
Y230472D01*
X499646D02*
X503583D01*
X499646Y227716D02*
X503583D01*
X499252Y226535D02*
X499646D01*
X472087Y227716D02*
Y230472D01*
X474055Y227716D02*
Y230472D01*
X472087D02*
X476024D01*
X472087Y227716D02*
X476024D01*
Y226535D02*
X476417D01*
X479468Y226142D02*
X496201D01*
X493150Y224961D02*
X499252D01*
X496201D02*
Y226142D01*
X493150Y224961D02*
Y226142D01*
X482520Y224961D02*
Y226142D01*
X476417Y224961D02*
X482520D01*
X479468D02*
Y226142D01*
X476417Y224961D02*
Y226535D01*
X499252Y224961D02*
Y226535D01*
X476417Y250945D02*
X482520D01*
X479468Y249764D02*
X496201D01*
X493150Y250945D02*
X499252D01*
Y249370D02*
Y250945D01*
X496201Y249764D02*
Y250945D01*
X493150Y249764D02*
Y250945D01*
X482520Y249764D02*
Y250945D01*
X479468Y249764D02*
Y250945D01*
X476417Y249370D02*
Y250945D01*
X477008Y83957D02*
Y106791D01*
X500630Y83957D02*
Y106791D01*
X502598Y102854D02*
Y105610D01*
X504567Y102854D02*
Y105610D01*
X500630D02*
X504567D01*
X500236Y106791D02*
X500630D01*
Y102854D02*
X504567D01*
X473071D02*
Y105610D01*
X475039Y102854D02*
Y105610D01*
X473071D02*
X477008D01*
Y106791D02*
X477402D01*
X473071Y102854D02*
X477008D01*
X504567Y85138D02*
Y87894D01*
X502598Y85138D02*
Y87894D01*
X500630D02*
X504567D01*
X500630Y85138D02*
X504567D01*
X500236Y83957D02*
X500630D01*
X473071Y85138D02*
Y87894D01*
X475039Y85138D02*
Y87894D01*
X473071D02*
X477008D01*
X473071Y85138D02*
X477008D01*
Y83957D02*
X477402D01*
X480453Y83563D02*
X497185D01*
X494134Y82382D02*
X500236D01*
X497185D02*
Y83563D01*
X494134Y82382D02*
Y83563D01*
X483504Y82382D02*
Y83563D01*
X477402Y82382D02*
X483504D01*
X480453D02*
Y83563D01*
X477402Y82382D02*
Y83957D01*
X500236Y82382D02*
Y83957D01*
X477402Y108366D02*
X483504D01*
X480453Y107185D02*
X497185D01*
X494134Y108366D02*
X500236D01*
Y106791D02*
Y108366D01*
X497185Y107185D02*
Y108366D01*
X494134Y107185D02*
Y108366D01*
X483504Y107185D02*
Y108366D01*
X480453Y107185D02*
Y108366D01*
X477402Y106791D02*
Y108366D01*
X239173Y261811D02*
X262008D01*
X239173Y238189D02*
X262008D01*
X258071Y236220D02*
X260827D01*
X258071Y234252D02*
X260827D01*
Y238189D01*
X262008D02*
Y238583D01*
X258071Y234252D02*
Y238189D01*
Y265748D02*
X260827D01*
X258071Y263779D02*
X260827D01*
Y261811D02*
Y265748D01*
X262008Y261417D02*
Y261811D01*
X258071D02*
Y265748D01*
X240354Y234252D02*
X243110D01*
X240354Y236220D02*
X243110D01*
Y234252D02*
Y238189D01*
X240354Y234252D02*
Y238189D01*
X239173D02*
Y238583D01*
X240354Y265748D02*
X243110D01*
X240354Y263779D02*
X243110D01*
Y261811D02*
Y265748D01*
X240354Y261811D02*
Y265748D01*
X239173Y261417D02*
Y261811D01*
X238779Y241634D02*
Y258366D01*
X237598Y238583D02*
Y244685D01*
Y241634D02*
X238779D01*
X237598Y244685D02*
X238779D01*
X237598Y255315D02*
X238779D01*
X237598D02*
Y261417D01*
Y258366D02*
X238779D01*
X237598Y261417D02*
X239173D01*
X237598Y238583D02*
X239173D01*
X263583Y255315D02*
Y261417D01*
X262402Y241634D02*
Y258366D01*
X263583Y238583D02*
Y244685D01*
X262008Y238583D02*
X263583D01*
X262402Y241634D02*
X263583D01*
X262402Y244685D02*
X263583D01*
X262402Y255315D02*
X263583D01*
X262402Y258366D02*
X263583D01*
X262008Y261417D02*
X263583D01*
X514961Y188583D02*
Y192520D01*
Y188583D02*
X516929D01*
Y192520D01*
X514961D02*
X516929D01*
X514961Y141732D02*
Y145669D01*
Y141732D02*
X516929D01*
Y145669D01*
X514961D02*
X516929D01*
X513779Y236221D02*
Y240158D01*
Y236221D02*
X515748D01*
Y240158D01*
X513779D02*
X515748D01*
X514961Y93701D02*
Y97638D01*
Y93701D02*
X516929D01*
Y97638D01*
X514961D02*
X516929D01*
X514961Y180315D02*
Y184252D01*
Y180315D02*
X516929D01*
Y184252D01*
X514961D02*
X516929D01*
X514961Y133524D02*
Y137461D01*
Y133524D02*
X516929D01*
Y137461D01*
X514961D02*
X516929D01*
X513779Y228012D02*
Y231949D01*
Y228012D02*
X515748D01*
Y231949D01*
X513779D02*
X515748D01*
X514961Y85433D02*
Y89370D01*
Y85433D02*
X516929D01*
Y89370D01*
X514961D02*
X516929D01*
X241535Y148425D02*
Y152362D01*
Y148425D02*
X243504D01*
Y152362D01*
X241535D02*
X243504D01*
X212598Y148425D02*
Y152362D01*
Y148425D02*
X214567D01*
Y152362D01*
X212598D02*
X214567D01*
X237598Y148425D02*
Y152362D01*
Y148425D02*
X239567D01*
Y152362D01*
X237598D02*
X239567D01*
X208661Y148425D02*
Y152362D01*
Y148425D02*
X210630D01*
Y152362D01*
X208661D02*
X210630D01*
X233071Y148425D02*
Y152362D01*
Y148425D02*
X235039D01*
Y152362D01*
X233071D02*
X235039D01*
X204724Y148425D02*
Y152362D01*
Y148425D02*
X206693D01*
Y152362D01*
X204724D02*
X206693D01*
X228740Y148425D02*
Y152362D01*
Y148425D02*
X230709D01*
Y152362D01*
X228740D02*
X230709D01*
X184252Y273622D02*
Y277559D01*
Y273622D02*
X186221D01*
Y277559D01*
X184252D02*
X186221D01*
X180315Y273622D02*
Y277559D01*
Y273622D02*
X182283D01*
Y277559D01*
X180315D02*
X182283D01*
X176378Y273622D02*
Y277559D01*
Y273622D02*
X178347D01*
Y277559D01*
X176378D02*
X178347D01*
X172441Y273622D02*
Y277559D01*
Y273622D02*
X174409D01*
Y277559D01*
X172441D02*
X174409D01*
X168504Y273622D02*
Y277559D01*
Y273622D02*
X170473D01*
Y277559D01*
X168504D02*
X170473D01*
X329921Y294094D02*
Y298031D01*
Y294094D02*
X331890D01*
Y298031D01*
X329921D02*
X331890D01*
X406890Y277362D02*
X410827D01*
X406890Y275394D02*
Y277362D01*
Y275394D02*
X410827D01*
Y277362D01*
X406890Y281299D02*
X410827D01*
X406890Y279331D02*
Y281299D01*
Y279331D02*
X410827D01*
Y281299D01*
X440354Y260039D02*
X444291D01*
X440354Y258071D02*
Y260039D01*
Y258071D02*
X444291D01*
Y260039D01*
X405118Y258661D02*
Y262598D01*
Y258661D02*
X407087D01*
Y262598D01*
X405118D02*
X407087D01*
X406890Y271457D02*
X410827D01*
Y273425D01*
X406890D02*
X410827D01*
X406890Y271457D02*
Y273425D01*
X49051Y75707D02*
Y79644D01*
X47082D02*
X49051D01*
X47082Y75707D02*
Y79644D01*
Y75707D02*
X49051D01*
X45114D02*
Y79644D01*
X43145D02*
X45114D01*
X43145Y75707D02*
Y79644D01*
Y75707D02*
X45114D01*
X41177D02*
Y79644D01*
X39208D02*
X41177D01*
X39208Y75707D02*
Y79644D01*
Y75707D02*
X41177D01*
X37240D02*
Y79644D01*
X35271D02*
X37240D01*
X35271Y75707D02*
Y79644D01*
Y75707D02*
X37240D01*
X33303D02*
Y79644D01*
X31334D02*
X33303D01*
X31334Y75707D02*
Y79644D01*
Y75707D02*
X33303D01*
X29366D02*
Y79644D01*
X27397D02*
X29366D01*
X27397Y75707D02*
Y79644D01*
Y75707D02*
X29366D01*
X334646Y279134D02*
Y283071D01*
X332677D02*
X334646D01*
X332677Y279134D02*
Y283071D01*
Y279134D02*
X334646D01*
X25429Y75707D02*
Y79644D01*
X23460D02*
X25429D01*
X23460Y75707D02*
Y79644D01*
Y75707D02*
X25429D01*
X321850Y275394D02*
X325787D01*
X321850Y273425D02*
Y275394D01*
Y273425D02*
X325787D01*
Y275394D01*
X142717Y307283D02*
X146653D01*
Y309252D01*
X142717D02*
X146653D01*
X142717Y307283D02*
Y309252D01*
X78347Y149213D02*
Y153150D01*
Y149213D02*
X80315D01*
Y153150D01*
X78347D02*
X80315D01*
X55315Y227362D02*
X59252D01*
X55315Y225394D02*
Y227362D01*
Y225394D02*
X59252D01*
Y227362D01*
X82677Y251181D02*
Y255118D01*
X80709D02*
X82677D01*
X80709Y251181D02*
Y255118D01*
Y251181D02*
X82677D01*
X92716Y254134D02*
X96653D01*
Y256102D01*
X92716D02*
X96653D01*
X92716Y254134D02*
Y256102D01*
X120669Y243701D02*
X123819D01*
Y237402D02*
Y243701D01*
X120669Y237402D02*
X123819D01*
X120669D02*
Y243701D01*
X53543Y255906D02*
Y259842D01*
Y255906D02*
X55512D01*
Y259842D01*
X53543D02*
X55512D01*
X81890Y297244D02*
Y301181D01*
Y297244D02*
X83858D01*
Y301181D01*
X81890D02*
X83858D01*
X87992Y296260D02*
X91929D01*
Y298228D01*
X87992D02*
X91929D01*
X87992Y296260D02*
Y298228D01*
X121457Y286221D02*
X124606D01*
Y279921D02*
Y286221D01*
X121457Y279921D02*
X124606D01*
X121457D02*
Y286221D01*
X83661Y319488D02*
X87598D01*
X83661Y317520D02*
Y319488D01*
Y317520D02*
X87598D01*
Y319488D01*
X86811Y144882D02*
X92323D01*
X86811Y156693D02*
X92323D01*
Y144882D02*
Y156693D01*
X86811Y144882D02*
Y156693D01*
X178051Y362303D02*
Y369193D01*
X174311Y362303D02*
Y369193D01*
X178051D01*
X174311Y362303D02*
X178051D01*
X394783Y341043D02*
Y347933D01*
X398524Y341043D02*
Y347933D01*
X394783Y341043D02*
X398524D01*
X394783Y347933D02*
X398524D01*
X89370Y220276D02*
Y245866D01*
Y220276D02*
X114961D01*
Y245866D01*
X89370D02*
X114961D01*
X95866Y219685D02*
Y220276D01*
Y219685D02*
X108465D01*
Y220276D01*
X95866Y245866D02*
Y246457D01*
X108465D01*
Y245866D02*
Y246457D01*
X33366Y246555D02*
Y253445D01*
X37106Y246555D02*
Y253445D01*
X33366Y246555D02*
X37106D01*
X33366Y253445D02*
X37106D01*
X49114Y284744D02*
Y291634D01*
X52854Y284744D02*
Y291634D01*
X49114Y284744D02*
X52854D01*
X49114Y291634D02*
X52854D01*
X145965Y273721D02*
X152854D01*
X145965Y277461D02*
X152854D01*
Y273721D02*
Y277461D01*
X145965Y273721D02*
Y277461D01*
X176854Y226988D02*
X191854D01*
X176854D02*
Y231988D01*
X191854D01*
Y226988D02*
Y231988D01*
X29449Y58994D02*
X44449D01*
X29449D02*
Y63994D01*
X44449D01*
Y58994D02*
Y63994D01*
X147126Y282677D02*
X153425D01*
X147126Y279528D02*
Y282677D01*
Y279528D02*
X153425D01*
Y282677D01*
X132795Y280315D02*
X139094D01*
Y283465D01*
X132795D02*
X139094D01*
X132795Y280315D02*
Y283465D01*
X418307Y286221D02*
X424606D01*
Y289370D01*
X418307D02*
X424606D01*
X418307Y286221D02*
Y289370D01*
X449800Y304360D02*
X461611D01*
Y298848D02*
Y304360D01*
X449800Y298848D02*
X461611D01*
X449800D02*
Y304360D01*
X465161Y298790D02*
X476972D01*
X465161D02*
Y304302D01*
X476972D01*
Y298790D02*
Y304302D01*
X412008Y257480D02*
Y263779D01*
X408858D02*
X412008D01*
X408858Y257480D02*
Y263779D01*
Y257480D02*
X412008D01*
X55547Y74132D02*
Y80431D01*
X52397D02*
X55547D01*
X52397Y74132D02*
Y80431D01*
Y74132D02*
X55547D01*
X112405Y252333D02*
X124216D01*
X112405D02*
Y257845D01*
X124216D01*
Y252333D02*
Y257845D01*
X112011Y296821D02*
X123822D01*
X112011D02*
Y302333D01*
X123822D01*
Y296821D02*
Y302333D01*
X48199Y265745D02*
Y277556D01*
X53711D01*
Y265745D02*
Y277556D01*
X48199Y265745D02*
X53711D01*
X137256Y81496D02*
X143256D01*
X140256Y78273D02*
Y84720D01*
X390650Y78265D02*
Y84712D01*
X387407Y81507D02*
X393854D01*
X390650Y78340D02*
Y84402D01*
Y81488D02*
Y84402D01*
X387650Y81488D02*
X393650D01*
X398744Y151492D02*
Y174992D01*
X384244Y151492D02*
X398744D01*
X384244Y134492D02*
Y151492D01*
Y134492D02*
X398744D01*
Y107492D02*
Y134492D01*
Y107492D02*
X407244D01*
Y161992D01*
X405244Y163992D02*
X407244Y161992D01*
X405244Y163992D02*
Y181992D01*
X125744Y163992D02*
Y181992D01*
X123744Y161992D02*
X125744Y163992D01*
X123744Y107492D02*
Y161992D01*
Y107492D02*
X132244D01*
Y134492D01*
X144744D01*
X132244Y151492D02*
X144744D01*
Y134492D02*
Y151492D01*
X132244D02*
Y174992D01*
X398744D01*
X392744Y205492D02*
Y208992D01*
X138107Y205492D02*
X392744D01*
X125744Y181992D02*
Y208992D01*
X138107D01*
Y205492D02*
Y208992D01*
X405244Y181992D02*
Y208992D01*
X392744D02*
X405244D01*
X398390Y45862D02*
Y107492D01*
X132248Y45862D02*
Y107492D01*
Y45862D02*
X398390D01*
X89370Y264370D02*
Y289961D01*
Y264370D02*
X114961D01*
Y289961D01*
X89370D02*
X114961D01*
X95866Y263779D02*
Y264370D01*
Y263779D02*
X108465D01*
Y264370D01*
X95866Y289961D02*
Y290551D01*
X108465D01*
Y289961D02*
Y290551D01*
X194685Y297716D02*
Y304016D01*
Y297716D02*
X197835D01*
Y304016D01*
X194685D02*
X197835D01*
X52588Y233074D02*
Y244885D01*
X47076Y233074D02*
X52588D01*
X47076D02*
Y244885D01*
X52588D01*
X232874Y156890D02*
Y158858D01*
X228937Y156890D02*
X232874D01*
X228937D02*
Y158858D01*
X232874D01*
X210039Y156890D02*
Y158858D01*
X206102Y156890D02*
X210039D01*
X206102D02*
Y158858D01*
X210039D01*
X242520Y156890D02*
Y158858D01*
X238583Y156890D02*
X242520D01*
X238583D02*
Y158858D01*
X242520D01*
X218307Y156890D02*
Y158858D01*
X214370Y156890D02*
X218307D01*
X214370D02*
Y158858D01*
X218307D01*
X110138Y165453D02*
Y169193D01*
X117028Y165453D02*
Y169193D01*
X110138D02*
X117028D01*
X110138Y165453D02*
X117028D01*
X110138Y159153D02*
Y162894D01*
X117028Y159153D02*
Y162894D01*
X110138D02*
X117028D01*
X110138Y159153D02*
X117028D01*
X120473Y219685D02*
X124213D01*
X120473Y226575D02*
X124213D01*
X120473Y219685D02*
Y226575D01*
X124213Y219685D02*
Y226575D01*
X186811Y357087D02*
X193110D01*
Y360236D01*
X186811D02*
X193110D01*
X186811Y357087D02*
Y360236D01*
X71850Y168504D02*
Y170472D01*
X75787D01*
Y168504D02*
Y170472D01*
X71850Y168504D02*
X75787D01*
X499606Y337087D02*
X501575D01*
Y333150D02*
Y337087D01*
X499606Y333150D02*
X501575D01*
X499606D02*
Y337087D01*
X69095Y168504D02*
Y170472D01*
X65158Y168504D02*
X69095D01*
X65158D02*
Y170472D01*
X69095D01*
X401575Y227953D02*
X403543D01*
X401575Y224016D02*
X403543D01*
Y227953D01*
X401575Y224016D02*
Y227953D01*
X142717Y292717D02*
X146653D01*
Y294685D01*
X142717D02*
X146653D01*
X142717Y292717D02*
Y294685D01*
X359173Y272244D02*
Y274213D01*
Y272244D02*
X363110D01*
Y274213D01*
X359173D02*
X363110D01*
X356496Y272244D02*
Y274213D01*
X352559D02*
X356496D01*
X352559Y272244D02*
Y274213D01*
Y272244D02*
X356496D01*
X370669Y253740D02*
Y255709D01*
Y253740D02*
X374606D01*
Y255709D01*
X370669D02*
X374606D01*
X367913Y253740D02*
Y255709D01*
X363976D02*
X367913D01*
X363976Y253740D02*
Y255709D01*
Y253740D02*
X367913D01*
X349410D02*
Y255709D01*
Y253740D02*
X353346D01*
Y255709D01*
X349410D02*
X353346D01*
X346654Y253740D02*
Y255709D01*
X342717D02*
X346654D01*
X342717Y253740D02*
Y255709D01*
Y253740D02*
X346654D01*
X340354Y272244D02*
Y274213D01*
Y272244D02*
X344291D01*
Y274213D01*
X340354D02*
X344291D01*
X337598Y272244D02*
Y274213D01*
X333661D02*
X337598D01*
X333661Y272244D02*
Y274213D01*
Y272244D02*
X337598D01*
X117126Y207677D02*
X121063D01*
Y209646D01*
X117126D02*
X121063D01*
X117126Y207677D02*
Y209646D01*
X195276Y233071D02*
Y237008D01*
Y233071D02*
X197244D01*
Y237008D01*
X195276D02*
X197244D01*
X198819Y233071D02*
Y237008D01*
Y233071D02*
X200787D01*
Y237008D01*
X198819D02*
X200787D01*
X204134D02*
X207283D01*
X204134Y230709D02*
X207283D01*
Y237008D01*
X204134Y230709D02*
Y237008D01*
X182480Y370472D02*
Y376772D01*
X185630Y370472D02*
Y376772D01*
X182480Y370472D02*
X185630D01*
X182480Y376772D02*
X185630D01*
X200591Y369488D02*
Y376181D01*
X188779Y369488D02*
Y376181D01*
X200591D01*
X188779Y369488D02*
X200591D01*
X154528Y293701D02*
Y329134D01*
X189961Y293701D02*
Y329134D01*
X154528D02*
X189961D01*
X154528Y293701D02*
X189961D01*
X380512Y259842D02*
X382480D01*
X380512D02*
Y263779D01*
X382480D01*
Y259842D02*
Y263779D01*
X377362Y259842D02*
X379331D01*
X377362D02*
Y263779D01*
X379331D01*
Y259842D02*
Y263779D01*
X383661Y259842D02*
X385630D01*
X383661D02*
Y263779D01*
X385630D01*
Y259842D02*
Y263779D01*
X386811Y259842D02*
X388779D01*
X386811D02*
Y263779D01*
X388779D01*
Y259842D02*
Y263779D01*
X389961Y259842D02*
X391929D01*
X389961D02*
Y263779D01*
X391929D01*
Y259842D02*
Y263779D01*
X396260Y259842D02*
X398228D01*
X396260D02*
Y263779D01*
X398228D01*
Y259842D02*
Y263779D01*
X393110Y259842D02*
X395079D01*
X393110D02*
Y263779D01*
X395079D01*
Y259842D02*
Y263779D01*
X399409Y259842D02*
X401378D01*
X399409D02*
Y263779D01*
X401378D01*
Y259842D02*
Y263779D01*
X85236Y198228D02*
Y200197D01*
X89173D01*
Y198228D02*
Y200197D01*
X85236Y198228D02*
X89173D01*
X95079D02*
Y200197D01*
X99016D01*
Y198228D02*
Y200197D01*
X95079Y198228D02*
X99016D01*
X220472Y152362D02*
X222441D01*
Y148425D02*
Y152362D01*
X220472Y148425D02*
X222441D01*
X220472D02*
Y152362D01*
X224410D02*
X226378D01*
Y148425D02*
Y152362D01*
X224410Y148425D02*
X226378D01*
X224410D02*
Y152362D01*
X225580Y156890D02*
Y158858D01*
X221643Y156890D02*
X225580D01*
X221643D02*
Y158858D01*
X225580D01*
X245354Y152362D02*
X247322D01*
Y148425D02*
Y152362D01*
X245354Y148425D02*
X247322D01*
X245354D02*
Y152362D01*
X249185D02*
X251153D01*
Y148425D02*
Y152362D01*
X249185Y148425D02*
X251153D01*
X249185D02*
Y152362D01*
X250272Y156890D02*
Y158858D01*
X246335Y156890D02*
X250272D01*
X246335D02*
Y158858D01*
X250272D01*
X159758Y338183D02*
X165270D01*
X159758Y349994D02*
X165270D01*
Y338183D02*
Y349994D01*
X159758Y338183D02*
Y349994D01*
D109*
X133268Y357087D02*
X164764D01*
X133268D02*
Y383071D01*
X164764D01*
Y357087D02*
Y383071D01*
D112*
X399079Y79720D02*
G03*
X399079Y79720I-8563J0D01*
G01*
X148685D02*
G03*
X148685Y79720I-8563J0D01*
G01*
D114*
X190256Y273524D02*
Y277658D01*
X188091D02*
X190256D01*
X188091Y273524D02*
Y277658D01*
Y273524D02*
X190256D01*
X189665Y334350D02*
Y336516D01*
X185531Y334350D02*
X189665D01*
X185531D02*
Y336516D01*
X189665D01*
X210138Y318602D02*
X212303D01*
Y314469D02*
Y318602D01*
X210138Y314469D02*
X212303D01*
X210138D02*
Y318602D01*
X304626D02*
X306791D01*
Y314469D02*
Y318602D01*
X304626Y314469D02*
X306791D01*
X304626D02*
Y318602D01*
X347342Y285531D02*
Y287697D01*
X343209Y285531D02*
X347342D01*
X343209D02*
Y287697D01*
X347342D01*
X366831Y323721D02*
Y325886D01*
X362697Y323721D02*
X366831D01*
X362697D02*
Y325886D01*
X366831D01*
X362303Y286319D02*
Y288484D01*
X366437D01*
Y286319D02*
Y288484D01*
X362303Y286319D02*
X366437D01*
X143602Y318012D02*
X145768D01*
X143602D02*
Y322146D01*
X145768D01*
Y318012D02*
Y322146D01*
X143602Y329626D02*
X145768D01*
Y325492D02*
Y329626D01*
X143602Y325492D02*
X145768D01*
X143602D02*
Y329626D01*
X499508Y325689D02*
X501673D01*
Y321555D02*
Y325689D01*
X499508Y321555D02*
X501673D01*
X499508D02*
Y325689D01*
X149705Y285138D02*
Y287303D01*
X153839D01*
Y285138D02*
Y287303D01*
X149705Y285138D02*
X153839D01*
X436122Y248327D02*
X438287D01*
X436122D02*
Y252461D01*
X438287D01*
Y248327D02*
Y252461D01*
X412500Y250098D02*
X414665D01*
Y245965D02*
Y250098D01*
X412500Y245965D02*
X414665D01*
X412500D02*
Y250098D01*
X136516Y285531D02*
Y287697D01*
X132382Y285531D02*
X136516D01*
X132382D02*
Y287697D01*
X136516D01*
X164862Y270768D02*
X167028D01*
X164862D02*
Y274902D01*
X167028D01*
Y270768D02*
Y274902D01*
X195177Y318602D02*
X197343D01*
Y314469D02*
Y318602D01*
X195177Y314469D02*
X197343D01*
X195177D02*
Y318602D01*
Y333169D02*
X197343D01*
Y329035D02*
Y333169D01*
X195177Y329035D02*
X197343D01*
X195177D02*
Y333169D01*
X142618Y297342D02*
Y299508D01*
X146752D01*
Y297342D02*
Y299508D01*
X142618Y297342D02*
X146752D01*
X177067Y334350D02*
Y336516D01*
X172933Y334350D02*
X177067D01*
X172933D02*
Y336516D01*
X177067D01*
X199902Y290650D02*
Y292815D01*
X195768Y290650D02*
X199902D01*
X195768D02*
Y292815D01*
X199902D01*
X436122Y257972D02*
Y260138D01*
X431988Y257972D02*
X436122D01*
X431988D02*
Y260138D01*
X436122D01*
X406791Y267421D02*
Y269587D01*
X410925D01*
Y267421D02*
Y269587D01*
X406791Y267421D02*
X410925D01*
X445177Y266240D02*
Y268406D01*
X441043Y266240D02*
X445177D01*
X441043D02*
Y268406D01*
X445177D01*
X433760Y286713D02*
Y288878D01*
X429626Y286713D02*
X433760D01*
X429626D02*
Y288878D01*
X433760D01*
X277461Y238287D02*
X279626D01*
Y234154D02*
Y238287D01*
X277461Y234154D02*
X279626D01*
X277461D02*
Y238287D01*
X231201Y275295D02*
Y277461D01*
X235335D01*
Y275295D02*
Y277461D01*
X231201Y275295D02*
X235335D01*
X55216Y220571D02*
Y222736D01*
X59350D01*
Y220571D02*
Y222736D01*
X55216Y220571D02*
X59350D01*
X55807Y238287D02*
X57973D01*
Y234154D02*
Y238287D01*
X55807Y234154D02*
X57973D01*
X55807D02*
Y238287D01*
X57776Y255807D02*
X59941D01*
X57776D02*
Y259941D01*
X59941D01*
Y255807D02*
Y259941D01*
X58169Y271555D02*
X60335D01*
X58169D02*
Y275689D01*
X60335D01*
Y271555D02*
Y275689D01*
X116634Y295177D02*
X120768D01*
X116634Y293012D02*
Y295177D01*
Y293012D02*
X120768D01*
Y295177D01*
X116634Y250689D02*
X120768D01*
X116634Y248524D02*
Y250689D01*
Y248524D02*
X120768D01*
Y250689D01*
X157185Y336910D02*
X161319D01*
X157185Y334744D02*
Y336910D01*
Y334744D02*
X161319D01*
Y336910D01*
X62697Y135925D02*
X66831D01*
Y138091D01*
X62697D02*
X66831D01*
X62697Y135925D02*
Y138091D01*
X59941Y109941D02*
X64075D01*
Y112106D01*
X59941D02*
X64075D01*
X59941Y109941D02*
Y112106D01*
X319980Y243996D02*
Y248130D01*
Y243996D02*
X322146D01*
Y248130D01*
X319980D02*
X322146D01*
X451673Y272342D02*
X455807D01*
X451673Y270177D02*
Y272342D01*
Y270177D02*
X455807D01*
Y272342D01*
M02*
