%FSLAX25Y25*%
%MOIN*%
G70*
G01*
G75*
G04 Layer_Color=16711935*
%ADD10C,0.02362*%
%ADD11C,0.00984*%
%ADD12R,0.02441X0.02244*%
%ADD13R,0.02244X0.02441*%
%ADD14O,0.01378X0.06693*%
%ADD15R,0.01614X0.06299*%
%ADD16R,0.02362X0.02165*%
%ADD17R,0.01181X0.10236*%
%ADD18R,0.03000X0.03000*%
G04:AMPARAMS|DCode=19|XSize=29.53mil|YSize=16.54mil|CornerRadius=4.13mil|HoleSize=0mil|Usage=FLASHONLY|Rotation=90.000|XOffset=0mil|YOffset=0mil|HoleType=Round|Shape=RoundedRectangle|*
%AMROUNDEDRECTD19*
21,1,0.02953,0.00827,0,0,90.0*
21,1,0.02126,0.01654,0,0,90.0*
1,1,0.00827,0.00413,0.01063*
1,1,0.00827,0.00413,-0.01063*
1,1,0.00827,-0.00413,-0.01063*
1,1,0.00827,-0.00413,0.01063*
%
%ADD19ROUNDEDRECTD19*%
%ADD20O,0.03150X0.01181*%
%ADD21O,0.01181X0.03150*%
%ADD22R,0.03937X0.05906*%
%ADD23R,0.05906X0.03937*%
%ADD24O,0.01378X0.05512*%
%ADD25R,0.03819X0.03780*%
%ADD26R,0.01181X0.02165*%
%ADD27R,0.01575X0.02165*%
%ADD28R,0.03937X0.02362*%
%ADD29R,0.03000X0.03000*%
%ADD30R,0.05118X0.06102*%
%ADD31C,0.07874*%
%ADD32R,0.02756X0.00984*%
%ADD33R,0.10630X0.10630*%
%ADD34R,0.00984X0.02756*%
%ADD35R,0.06102X0.05118*%
%ADD36R,0.01575X0.01969*%
%ADD37R,0.05906X0.02165*%
%ADD38R,0.03780X0.03819*%
%ADD39R,0.13504X0.09843*%
%ADD40R,0.03937X0.06890*%
%ADD41R,0.02756X0.06890*%
%ADD42R,0.05906X0.06890*%
%ADD43R,0.03150X0.05512*%
%ADD44R,0.05906X0.03937*%
%ADD45R,0.03937X0.06102*%
%ADD46R,0.06200X0.02400*%
%ADD47O,0.06200X0.02400*%
%ADD48R,0.02400X0.06200*%
%ADD49O,0.02400X0.06200*%
%ADD50R,0.01181X0.01181*%
%ADD51R,0.01772X0.02323*%
%ADD52R,0.00787X0.01969*%
%ADD53R,0.08504X0.08898*%
%ADD54R,0.04000X0.05000*%
%ADD55R,0.05000X0.04000*%
%ADD56R,0.01378X0.07874*%
%ADD57R,0.17716X0.18110*%
%ADD58R,0.02441X0.01575*%
%ADD59R,0.04724X0.01181*%
%ADD60R,0.11811X0.10630*%
%ADD61R,0.05512X0.04528*%
%ADD62R,0.04528X0.05512*%
%ADD63R,0.01772X0.05118*%
%ADD64R,0.03740X0.03740*%
%ADD65R,0.02362X0.03937*%
%ADD66O,0.02756X0.00984*%
%ADD67O,0.00984X0.02756*%
%ADD68R,0.17126X0.17126*%
%ADD69C,0.00787*%
%ADD70C,0.00906*%
%ADD71C,0.01969*%
%ADD72C,0.01378*%
%ADD73C,0.01181*%
%ADD74C,0.02756*%
%ADD75C,0.01575*%
%ADD76C,0.00052*%
%ADD77C,0.01000*%
%ADD78C,0.07087*%
%ADD79R,0.07087X0.07087*%
%ADD80C,0.07480*%
%ADD81C,0.25590*%
%ADD82O,0.05906X0.12992*%
%ADD83O,0.05906X0.09055*%
%ADD84C,0.20866*%
%ADD85C,0.08268*%
%ADD86C,0.12795*%
%ADD87C,0.06496*%
%ADD88C,0.09843*%
%ADD89C,0.06693*%
%ADD90R,0.06693X0.06693*%
%ADD91C,0.06000*%
%ADD92R,0.06000X0.06000*%
%ADD93C,0.13780*%
%ADD94C,0.05512*%
%ADD95O,0.15748X0.07874*%
%ADD96O,0.07874X0.15748*%
%ADD97O,0.17716X0.07874*%
%ADD98C,0.04331*%
%ADD99C,0.06299*%
%ADD100C,0.11811*%
%ADD101C,0.03150*%
%ADD102O,0.04528X0.07087*%
%ADD103O,0.05709X0.07874*%
%ADD104C,0.02362*%
%ADD105C,0.00866*%
%ADD106C,0.00900*%
%ADD107C,0.00500*%
%ADD108C,0.00394*%
%ADD109C,0.00591*%
%ADD110C,0.00700*%
%ADD111C,0.00701*%
%ADD112C,0.00472*%
D13*
X359252Y273228D02*
D03*
X363032D02*
D03*
X356417D02*
D03*
X352638D02*
D03*
X370748Y254724D02*
D03*
X374528D02*
D03*
X367835D02*
D03*
X364055D02*
D03*
X349488D02*
D03*
X353268D02*
D03*
X346575D02*
D03*
X342795D02*
D03*
X340433Y273228D02*
D03*
X344213D02*
D03*
X337520D02*
D03*
X333740D02*
D03*
D31*
X288386Y179134D02*
D03*
X316732Y160236D02*
D03*
X221457Y198425D02*
D03*
X81693Y75931D02*
D03*
D78*
X111890Y83858D02*
D03*
D79*
X101890D02*
D03*
D81*
X524409Y369685D02*
D03*
X197D02*
D03*
X0Y0D02*
D03*
X524409D02*
D03*
D82*
X385433Y343307D02*
D03*
X328346D02*
D03*
D83*
X385433Y366772D02*
D03*
X328346D02*
D03*
D85*
X408779Y14173D02*
D03*
X418780D02*
D03*
X428780D02*
D03*
X438779D02*
D03*
X448779D02*
D03*
X458779D02*
D03*
Y24173D02*
D03*
X448779D02*
D03*
X438779D02*
D03*
X428780D02*
D03*
X418780D02*
D03*
X408779D02*
D03*
X319409Y14173D02*
D03*
X329410D02*
D03*
X339409D02*
D03*
X349410D02*
D03*
Y24173D02*
D03*
X339409D02*
D03*
X329410D02*
D03*
X319409D02*
D03*
X369409D02*
D03*
X359409D02*
D03*
X369409Y14173D02*
D03*
X359409D02*
D03*
D86*
X281909Y340449D02*
D03*
X236909D02*
D03*
D87*
X275512Y356512D02*
D03*
X243307D02*
D03*
X285512D02*
D03*
X233307D02*
D03*
D88*
X289902Y328441D02*
D03*
X228917D02*
D03*
D89*
X261909Y305449D02*
D03*
X241909D02*
D03*
X236909Y315449D02*
D03*
X266909D02*
D03*
X246909D02*
D03*
X251909Y305449D02*
D03*
X276909Y315449D02*
D03*
X271909Y305449D02*
D03*
X256909Y315449D02*
D03*
D90*
X281909Y305449D02*
D03*
D91*
X154528Y247638D02*
D03*
Y255512D02*
D03*
X162402Y247638D02*
D03*
Y255512D02*
D03*
X170276Y247638D02*
D03*
Y255512D02*
D03*
X178150Y247638D02*
D03*
Y255512D02*
D03*
X186024Y247638D02*
D03*
Y255512D02*
D03*
X193898Y247638D02*
D03*
Y255512D02*
D03*
X201772Y247638D02*
D03*
D92*
Y255512D02*
D03*
D93*
X432795Y321615D02*
D03*
Y343977D02*
D03*
X484527Y321615D02*
D03*
X484527Y343977D02*
D03*
D94*
X444882Y323111D02*
D03*
X472441Y333347D02*
D03*
X444882D02*
D03*
X472441Y323111D02*
D03*
X462598Y333347D02*
D03*
X454724D02*
D03*
X462598Y323111D02*
D03*
X454724D02*
D03*
D95*
X64764Y352362D02*
D03*
D96*
X45472Y340354D02*
D03*
D97*
X64764Y328740D02*
D03*
D98*
X133823Y190350D02*
D03*
D99*
X396815D02*
D03*
D100*
X390516Y166335D02*
D03*
X140122D02*
D03*
X-5433Y318504D02*
D03*
Y266535D02*
D03*
X32087Y311024D02*
D03*
Y292520D02*
D03*
Y274016D02*
D03*
D101*
X139173Y362795D02*
D03*
X158858D02*
D03*
D102*
X133760Y373622D02*
D03*
X164272D02*
D03*
D103*
X134350Y358661D02*
D03*
X163681D02*
D03*
D104*
X165748Y317913D02*
D03*
X170079D02*
D03*
X174409D02*
D03*
X178740D02*
D03*
X165748Y313583D02*
D03*
X170079D02*
D03*
X174409D02*
D03*
X178740D02*
D03*
X165748Y309252D02*
D03*
X170079D02*
D03*
X174409D02*
D03*
X178740D02*
D03*
X165748Y304921D02*
D03*
X170079D02*
D03*
X174409D02*
D03*
X178740D02*
D03*
M02*
