%FSLAX25Y25*%
%MOIN*%
G70*
G01*
G75*
%ADD10C,0.02362*%
%ADD11C,0.00984*%
%ADD12R,0.02441X0.02244*%
%ADD13R,0.02244X0.02441*%
%ADD14O,0.01378X0.06693*%
%ADD15R,0.01614X0.06299*%
%ADD16R,0.02362X0.02165*%
%ADD17R,0.01181X0.10236*%
%ADD18R,0.03000X0.03000*%
G04:AMPARAMS|DCode=19|XSize=29.53mil|YSize=16.54mil|CornerRadius=4.13mil|HoleSize=0mil|Usage=FLASHONLY|Rotation=90.000|XOffset=0mil|YOffset=0mil|HoleType=Round|Shape=RoundedRectangle|*
%AMROUNDEDRECTD19*
21,1,0.02953,0.00827,0,0,90.0*
21,1,0.02126,0.01654,0,0,90.0*
1,1,0.00827,0.00413,0.01063*
1,1,0.00827,0.00413,-0.01063*
1,1,0.00827,-0.00413,-0.01063*
1,1,0.00827,-0.00413,0.01063*
%
%ADD19ROUNDEDRECTD19*%
%ADD20O,0.03150X0.01181*%
%ADD21O,0.01181X0.03150*%
%ADD22R,0.03937X0.05906*%
%ADD23R,0.05906X0.03937*%
%ADD24O,0.01378X0.05512*%
%ADD25R,0.03819X0.03780*%
%ADD26R,0.01181X0.02165*%
%ADD27R,0.01575X0.02165*%
%ADD28R,0.03937X0.02362*%
%ADD29R,0.03000X0.03000*%
%ADD30R,0.05118X0.06102*%
%ADD31C,0.07874*%
%ADD32R,0.02756X0.00984*%
%ADD33R,0.10630X0.10630*%
%ADD34R,0.00984X0.02756*%
%ADD35R,0.06102X0.05118*%
%ADD36R,0.01575X0.01969*%
%ADD37R,0.05906X0.02165*%
%ADD38R,0.03780X0.03819*%
%ADD39R,0.13504X0.09843*%
%ADD40R,0.03937X0.06890*%
%ADD41R,0.02756X0.06890*%
%ADD42R,0.05906X0.06890*%
%ADD43R,0.03150X0.05512*%
%ADD44R,0.05906X0.03937*%
%ADD45R,0.03937X0.06102*%
%ADD46R,0.06200X0.02400*%
%ADD47O,0.06200X0.02400*%
%ADD48R,0.02400X0.06200*%
%ADD49O,0.02400X0.06200*%
%ADD50R,0.01181X0.01181*%
%ADD51R,0.01772X0.02323*%
%ADD52R,0.00787X0.01969*%
%ADD53R,0.08504X0.08898*%
%ADD54R,0.04000X0.05000*%
%ADD55R,0.05000X0.04000*%
%ADD56R,0.01378X0.07874*%
%ADD57R,0.17716X0.18110*%
%ADD58R,0.02441X0.01575*%
%ADD59R,0.04724X0.01181*%
%ADD60R,0.11811X0.10630*%
%ADD61R,0.05512X0.04528*%
%ADD62R,0.04528X0.05512*%
%ADD63R,0.01772X0.05118*%
%ADD64R,0.03740X0.03740*%
%ADD65R,0.02362X0.03937*%
%ADD66O,0.02756X0.00984*%
%ADD67O,0.00984X0.02756*%
%ADD68R,0.17126X0.17126*%
%ADD69C,0.00787*%
%ADD70C,0.00906*%
%ADD71C,0.01969*%
%ADD72C,0.01378*%
%ADD73C,0.01181*%
%ADD74C,0.02756*%
%ADD75C,0.01575*%
%ADD76C,0.00052*%
%ADD77C,0.01000*%
%ADD78C,0.07087*%
%ADD79R,0.07087X0.07087*%
%ADD80C,0.07480*%
%ADD81C,0.25590*%
%ADD82O,0.05906X0.12992*%
%ADD83O,0.05906X0.09055*%
%ADD84C,0.20866*%
%ADD85C,0.08268*%
%ADD86C,0.12795*%
%ADD87C,0.06496*%
%ADD88C,0.09843*%
%ADD89C,0.06693*%
%ADD90R,0.06693X0.06693*%
%ADD91C,0.06000*%
%ADD92R,0.06000X0.06000*%
%ADD93C,0.13780*%
%ADD94C,0.05512*%
%ADD95O,0.15748X0.07874*%
%ADD96O,0.07874X0.15748*%
%ADD97O,0.17716X0.07874*%
%ADD98C,0.04331*%
%ADD99C,0.06299*%
%ADD100C,0.11811*%
%ADD101C,0.03150*%
%ADD102O,0.04528X0.07087*%
%ADD103O,0.05709X0.07874*%
%ADD104C,0.02362*%
%ADD105C,0.00866*%
%ADD106C,0.00900*%
%ADD107C,0.00500*%
%ADD108C,0.00394*%
%ADD109C,0.00591*%
%ADD110C,0.00700*%
%ADD111C,0.00701*%
%ADD112C,0.00472*%
D10*
X101197Y355118D02*
G03*
X101197Y355118I-1118J0D01*
G01*
X431752Y223583D02*
G03*
X431752Y223583I-1181J0D01*
G01*
X394843Y235925D02*
G03*
X394843Y235925I-1181J0D01*
G01*
X340551Y302362D02*
G03*
X340551Y302362I-1181J0D01*
G01*
D11*
X435492Y232441D02*
G03*
X435492Y232441I-492J0D01*
G01*
X399971Y246063D02*
G03*
X399971Y246063I-492J0D01*
G01*
X67224Y116732D02*
G03*
X67224Y116732I-492J0D01*
G01*
X326476Y240551D02*
G03*
X326476Y240551I-492J0D01*
G01*
X67028Y141142D02*
G03*
X67028Y141142I-492J0D01*
G01*
X196555Y266142D02*
G03*
X196555Y266142I-492J0D01*
G01*
X334547Y294094D02*
G03*
X334547Y294094I-492J0D01*
G01*
X88681Y101575D02*
G03*
X88681Y101575I-492J0D01*
G01*
X438567Y267441D02*
G03*
X438567Y267441I-492J0D01*
G01*
X188091Y368307D02*
G03*
X188091Y368307I-492J0D01*
G01*
X151870Y329134D02*
G03*
X151870Y329134I-492J0D01*
G01*
D69*
X303740Y250000D02*
G03*
X303740Y250000I-6299J0D01*
G01*
X495118Y190256D02*
G03*
X495118Y190256I-6299J0D01*
G01*
Y143465D02*
G03*
X495118Y143465I-6299J0D01*
G01*
X494134Y237953D02*
G03*
X494134Y237953I-6299J0D01*
G01*
X495118Y95374D02*
G03*
X495118Y95374I-6299J0D01*
G01*
X256890Y250000D02*
G03*
X256890Y250000I-6299J0D01*
G01*
X97185Y96063D02*
X116595D01*
X97185Y71063D02*
X116595D01*
Y96063D01*
X97185Y71063D02*
Y96063D01*
X101890Y91358D02*
Y96063D01*
Y91358D02*
X111890D01*
Y96063D01*
X39961Y259842D02*
Y325197D01*
X422968Y214921D02*
Y227520D01*
X434508Y214921D02*
Y227520D01*
X422968Y214921D02*
X434508D01*
X422968Y227520D02*
X434508D01*
X377913Y231004D02*
Y239862D01*
X397598Y231004D02*
Y239862D01*
X377913Y231004D02*
X397598D01*
X377913Y239862D02*
X397598D01*
X332087Y337402D02*
X336811D01*
X376969D02*
X381693D01*
X327362Y372441D02*
Y380709D01*
X386811Y372441D02*
Y380709D01*
X327362Y351181D02*
Y361024D01*
X386811Y351181D02*
Y361024D01*
X64173Y116142D02*
Y116732D01*
X61614Y116142D02*
X64173D01*
X52756D02*
X55315D01*
X52756D02*
Y116732D01*
Y128937D02*
Y129528D01*
X55315D01*
X64173Y128937D02*
Y129528D01*
X61614D02*
X64173D01*
X325394Y243110D02*
X325984D01*
X325394D02*
Y245669D01*
Y251969D02*
Y254528D01*
X325984D01*
X338189D02*
X338779D01*
Y251969D02*
Y254528D01*
X338189Y243110D02*
X338779D01*
Y245669D01*
X63976Y140551D02*
Y141142D01*
X61417Y140551D02*
X63976D01*
X52559D02*
X55118D01*
X52559D02*
Y141142D01*
Y153346D02*
Y153937D01*
X55118D01*
X63976Y153346D02*
Y153937D01*
X61417D02*
X63976D01*
X195473Y268701D02*
X196063D01*
X195473D02*
Y271260D01*
Y277559D02*
Y280118D01*
X196063D01*
X208268D02*
X208858D01*
Y277559D02*
Y280118D01*
X208268Y268701D02*
X208858D01*
Y271260D01*
X366535Y298425D02*
Y311811D01*
X335433Y298425D02*
Y311811D01*
X366535D01*
X335433Y298425D02*
X366535D01*
X402874Y29921D02*
X464685D01*
Y8268D02*
Y29921D01*
X402874Y8268D02*
X464685D01*
X402874D02*
Y29921D01*
X438091Y43602D02*
X439567D01*
X438091Y42126D02*
Y43602D01*
X448917Y36713D02*
Y38189D01*
X447441Y36713D02*
X448917D01*
X447441Y43602D02*
X448917D01*
Y42126D02*
Y43602D01*
X438091Y36713D02*
X439567D01*
X438091D02*
Y38189D01*
X425697Y43543D02*
X427173D01*
X425697Y42067D02*
Y43543D01*
X436524Y36654D02*
Y38130D01*
X435047Y36654D02*
X436524D01*
X435047Y43543D02*
X436524D01*
Y42067D02*
Y43543D01*
X425697Y36654D02*
X427173D01*
X425697D02*
Y38130D01*
X345177Y43543D02*
X346654D01*
X345177Y42067D02*
Y43543D01*
X356004Y36654D02*
Y38130D01*
X354528Y36654D02*
X356004D01*
X354528Y43543D02*
X356004D01*
Y42067D02*
Y43543D01*
X345177Y36654D02*
X346654D01*
X345177D02*
Y38130D01*
X332579Y43602D02*
X334055D01*
X332579Y42126D02*
Y43602D01*
X343406Y36713D02*
Y38189D01*
X341929Y36713D02*
X343406D01*
X341929Y43602D02*
X343406D01*
Y42126D02*
Y43602D01*
X332579Y36713D02*
X334055D01*
X332579D02*
Y38189D01*
X313504Y29921D02*
X375315D01*
Y8268D02*
Y29921D01*
X313504Y8268D02*
X375315D01*
X313504D02*
Y29921D01*
X82677Y102756D02*
Y114567D01*
X84646Y102756D02*
Y114567D01*
X82677D02*
X84646D01*
X82677Y102756D02*
X84646D01*
X310433Y238583D02*
Y261417D01*
X292323Y238189D02*
X302559D01*
X292323Y261811D02*
X302559D01*
X284449Y238583D02*
Y261417D01*
X433563Y280906D02*
X435039D01*
Y279429D02*
Y280906D01*
X418110D02*
X419587D01*
X418110Y279429D02*
Y280906D01*
Y263976D02*
Y265453D01*
Y263976D02*
X419587D01*
X433563D02*
X435039D01*
Y265453D01*
X477402Y203248D02*
X500236D01*
X500630Y185138D02*
Y195374D01*
X477008Y185138D02*
Y195374D01*
X477402Y177264D02*
X500236D01*
X477402Y156457D02*
X500236D01*
X500630Y138347D02*
Y148583D01*
X477008Y138347D02*
Y148583D01*
X477402Y130472D02*
X500236D01*
X476417Y250945D02*
X499252D01*
X499646Y232835D02*
Y243071D01*
X476024Y232835D02*
Y243071D01*
X476417Y224961D02*
X499252D01*
X477402Y108366D02*
X500236D01*
X500630Y90256D02*
Y100492D01*
X477008Y90256D02*
Y100492D01*
X477402Y82382D02*
X500236D01*
X263583Y238583D02*
Y261417D01*
X245472Y238189D02*
X255709D01*
X245472Y261811D02*
X255709D01*
X237598Y238583D02*
Y261417D01*
X92323Y144882D02*
Y148130D01*
X90354Y144882D02*
X92323D01*
Y153445D02*
Y156693D01*
X90354D02*
X92323D01*
X88661Y219567D02*
Y246575D01*
X115669Y219567D02*
Y246575D01*
X88661Y219567D02*
X94488Y219567D01*
X88661Y246575D02*
X94488Y246575D01*
X109843Y219567D02*
X115669Y219567D01*
X109843Y246575D02*
X115669Y246575D01*
X483761Y352362D02*
Y381890D01*
X433561Y352362D02*
Y381890D01*
X483761Y329921D02*
Y335827D01*
X433561Y329921D02*
Y335827D01*
X437677Y315236D02*
X479685Y315236D01*
X84055Y325590D02*
Y382677D01*
X45472Y325590D02*
X54921D01*
X45472Y349606D02*
Y382677D01*
Y325590D02*
Y331102D01*
X74606Y325590D02*
X84055D01*
X405201Y179051D02*
X405205Y179055D01*
X382244Y131492D02*
Y154524D01*
X132839Y154492D02*
X147244D01*
Y131492D02*
Y154492D01*
X132909Y171453D02*
X138106D01*
X125752Y178933D02*
Y208992D01*
Y166138D02*
Y179130D01*
X122602Y162988D02*
X125752Y166138D01*
X122602Y106992D02*
Y162988D01*
Y106992D02*
X132642D01*
X132839Y154492D02*
Y171453D01*
X132642Y107280D02*
Y131492D01*
X147244D01*
X405205Y179055D02*
Y208992D01*
X405201Y165232D02*
Y179051D01*
Y165232D02*
X408626Y161807D01*
Y106992D02*
Y161807D01*
X392740Y171453D02*
X396815D01*
X392740Y208992D02*
X405205D01*
X382244Y154524D02*
X396815D01*
Y171453D01*
X382244Y131492D02*
X397209D01*
Y106992D02*
Y131492D01*
X125752Y208992D02*
X138106D01*
X397209Y106992D02*
X408626D01*
X-13189Y325197D02*
X39961D01*
X-12795Y259842D02*
X39961D01*
X88661Y263662D02*
Y290669D01*
X115669Y263661D02*
Y290669D01*
X88661Y263662D02*
X94488Y263661D01*
X88661Y290669D02*
X94488Y290669D01*
X109843Y263661D02*
X115669Y263661D01*
X109843Y290669D02*
X115669Y290669D01*
X5275Y119685D02*
X27322D01*
X5275Y244095D02*
X27322D01*
Y119685D02*
Y244095D01*
X5275Y119685D02*
Y244095D01*
X417063Y253563D02*
Y256063D01*
X419563D01*
X431063Y242563D02*
X433563D01*
Y245063D01*
X127799Y317028D02*
X130299D01*
X127799D02*
Y319528D01*
X141299Y331028D02*
Y333528D01*
X138799D02*
X141299D01*
X188779Y373819D02*
X200591D01*
X188779Y371850D02*
X200591D01*
Y373819D01*
X188779Y371850D02*
Y373819D01*
X153937Y328248D02*
Y329724D01*
X155413D01*
X189075D02*
X190551D01*
Y328248D02*
Y329724D01*
Y293110D02*
Y294587D01*
X189075Y293110D02*
X190551D01*
X153937D02*
Y294587D01*
Y293110D02*
X155413D01*
X165270Y338183D02*
Y341431D01*
X163301Y338183D02*
X165270D01*
Y346746D02*
Y349994D01*
X163301D02*
X165270D01*
X397835Y64041D02*
X398359Y64566D01*
X399409D01*
X399934Y64041D01*
Y63516D01*
X399409Y62992D01*
X398884D01*
X399409D01*
X399934Y62467D01*
Y61942D01*
X399409Y61417D01*
X398359D01*
X397835Y61942D01*
X400983Y64566D02*
Y62467D01*
X402033Y61417D01*
X403082Y62467D01*
Y64566D01*
X404132Y64041D02*
X404657Y64566D01*
X405706D01*
X406231Y64041D01*
Y63516D01*
X405706Y62992D01*
X405181D01*
X405706D01*
X406231Y62467D01*
Y61942D01*
X405706Y61417D01*
X404657D01*
X404132Y61942D01*
X412528Y64041D02*
X412003Y64566D01*
X410954D01*
X410429Y64041D01*
Y61942D01*
X410954Y61417D01*
X412003D01*
X412528Y61942D01*
Y62992D01*
X411479D01*
X413578Y61417D02*
Y64566D01*
X415677Y61417D01*
Y64566D01*
X416726D02*
Y61417D01*
X418300D01*
X418825Y61942D01*
Y64041D01*
X418300Y64566D01*
X416726D01*
X423023D02*
Y61417D01*
X424073Y62467D01*
X425122Y61417D01*
Y64566D01*
X426172Y61417D02*
X427221D01*
X426697D01*
Y64566D01*
X426172Y64041D01*
X430895Y64566D02*
X428796D01*
Y62992D01*
X429845Y63516D01*
X430370D01*
X430895Y62992D01*
Y61942D01*
X430370Y61417D01*
X429321D01*
X428796Y61942D01*
X435093Y64566D02*
Y62467D01*
X436142Y61417D01*
X437192Y62467D01*
Y64566D01*
X438242Y61417D02*
X439291D01*
X438766D01*
Y64566D01*
X438242Y64041D01*
X442965Y64566D02*
X440865D01*
Y62992D01*
X441915Y63516D01*
X442440D01*
X442965Y62992D01*
Y61942D01*
X442440Y61417D01*
X441390D01*
X440865Y61942D01*
X447163Y61417D02*
Y64566D01*
X448737D01*
X449262Y64041D01*
Y62992D01*
X448737Y62467D01*
X447163D01*
X450311Y61417D02*
X451361D01*
X450836D01*
Y64566D01*
X450311Y64041D01*
X452935Y61942D02*
X453460Y61417D01*
X454509D01*
X455034Y61942D01*
Y64041D01*
X454509Y64566D01*
X453460D01*
X452935Y64041D01*
Y63516D01*
X453460Y62992D01*
X455034D01*
X459232Y61417D02*
Y64566D01*
X461331Y61417D01*
Y64566D01*
X462381Y61417D02*
X463430D01*
X462906D01*
Y64566D01*
X462381Y64041D01*
X465005D02*
X465529Y64566D01*
X466579D01*
X467104Y64041D01*
Y63516D01*
X466579Y62992D01*
X467104Y62467D01*
Y61942D01*
X466579Y61417D01*
X465529D01*
X465005Y61942D01*
Y62467D01*
X465529Y62992D01*
X465005Y63516D01*
Y64041D01*
X465529Y62992D02*
X466579D01*
X397835Y56561D02*
X398359Y57086D01*
X399409D01*
X399934Y56561D01*
Y56036D01*
X399409Y55511D01*
X398884D01*
X399409D01*
X399934Y54987D01*
Y54462D01*
X399409Y53937D01*
X398359D01*
X397835Y54462D01*
X400983Y57086D02*
Y54987D01*
X402033Y53937D01*
X403082Y54987D01*
Y57086D01*
X404132Y56561D02*
X404657Y57086D01*
X405706D01*
X406231Y56561D01*
Y56036D01*
X405706Y55511D01*
X405181D01*
X405706D01*
X406231Y54987D01*
Y54462D01*
X405706Y53937D01*
X404657D01*
X404132Y54462D01*
X412528Y56561D02*
X412003Y57086D01*
X410954D01*
X410429Y56561D01*
Y54462D01*
X410954Y53937D01*
X412003D01*
X412528Y54462D01*
Y55511D01*
X411479D01*
X413578Y53937D02*
Y57086D01*
X415677Y53937D01*
Y57086D01*
X416726D02*
Y53937D01*
X418300D01*
X418825Y54462D01*
Y56561D01*
X418300Y57086D01*
X416726D01*
X423023D02*
Y56561D01*
X424073Y55511D01*
X425122Y56561D01*
Y57086D01*
X424073Y55511D02*
Y53937D01*
X426172D02*
X427221D01*
X426697D01*
Y57086D01*
X426172Y56561D01*
X428796Y57086D02*
X430895D01*
Y56561D01*
X428796Y54462D01*
Y53937D01*
X435093Y57086D02*
Y56561D01*
X436142Y55511D01*
X437192Y56561D01*
Y57086D01*
X436142Y55511D02*
Y53937D01*
X438242D02*
X439291D01*
X438766D01*
Y57086D01*
X438242Y56561D01*
X442965Y57086D02*
X441915Y56561D01*
X440865Y55511D01*
Y54462D01*
X441390Y53937D01*
X442440D01*
X442965Y54462D01*
Y54987D01*
X442440Y55511D01*
X440865D01*
X447163Y53937D02*
Y57086D01*
X448737D01*
X449262Y56561D01*
Y55511D01*
X448737Y54987D01*
X447163D01*
X452410Y53937D02*
X450311D01*
X452410Y56036D01*
Y56561D01*
X451886Y57086D01*
X450836D01*
X450311Y56561D01*
X453460D02*
X453984Y57086D01*
X455034D01*
X455559Y56561D01*
Y54462D01*
X455034Y53937D01*
X453984D01*
X453460Y54462D01*
Y56561D01*
X459757Y53937D02*
Y57086D01*
X461856Y53937D01*
Y57086D01*
X465005Y53937D02*
X462906D01*
X465005Y56036D01*
Y56561D01*
X464480Y57086D01*
X463430D01*
X462906Y56561D01*
X466054D02*
X466579Y57086D01*
X467628D01*
X468153Y56561D01*
Y54462D01*
X467628Y53937D01*
X466579D01*
X466054Y54462D01*
Y56561D01*
X309252Y64041D02*
X309777Y64566D01*
X310826D01*
X311351Y64041D01*
Y63516D01*
X310826Y62992D01*
X310301D01*
X310826D01*
X311351Y62467D01*
Y61942D01*
X310826Y61417D01*
X309777D01*
X309252Y61942D01*
X312401Y64566D02*
Y62467D01*
X313450Y61417D01*
X314500Y62467D01*
Y64566D01*
X315549Y64041D02*
X316074Y64566D01*
X317124D01*
X317648Y64041D01*
Y63516D01*
X317124Y62992D01*
X316599D01*
X317124D01*
X317648Y62467D01*
Y61942D01*
X317124Y61417D01*
X316074D01*
X315549Y61942D01*
X323945Y64041D02*
X323421Y64566D01*
X322371D01*
X321846Y64041D01*
Y61942D01*
X322371Y61417D01*
X323421D01*
X323945Y61942D01*
Y62992D01*
X322896D01*
X324995Y61417D02*
Y64566D01*
X327094Y61417D01*
Y64566D01*
X328144D02*
Y61417D01*
X329718D01*
X330243Y61942D01*
Y64041D01*
X329718Y64566D01*
X328144D01*
X334441D02*
Y61417D01*
X335490Y62467D01*
X336540Y61417D01*
Y64566D01*
X339688Y61417D02*
X337589D01*
X339688Y63516D01*
Y64041D01*
X339164Y64566D01*
X338114D01*
X337589Y64041D01*
X340738D02*
X341263Y64566D01*
X342312D01*
X342837Y64041D01*
Y61942D01*
X342312Y61417D01*
X341263D01*
X340738Y61942D01*
Y64041D01*
X347035Y64566D02*
Y62467D01*
X348085Y61417D01*
X349134Y62467D01*
Y64566D01*
X352283Y61417D02*
X350184D01*
X352283Y63516D01*
Y64041D01*
X351758Y64566D01*
X350708D01*
X350184Y64041D01*
X353332D02*
X353857Y64566D01*
X354907D01*
X355431Y64041D01*
Y61942D01*
X354907Y61417D01*
X353857D01*
X353332Y61942D01*
Y64041D01*
X359629Y61417D02*
Y64566D01*
X361204D01*
X361729Y64041D01*
Y62992D01*
X361204Y62467D01*
X359629D01*
X362778Y61417D02*
X363827D01*
X363303D01*
Y64566D01*
X362778Y64041D01*
X367501Y64566D02*
X366451Y64041D01*
X365402Y62992D01*
Y61942D01*
X365927Y61417D01*
X366976D01*
X367501Y61942D01*
Y62467D01*
X366976Y62992D01*
X365402D01*
X371699Y61417D02*
Y64566D01*
X373273D01*
X373798Y64041D01*
Y62992D01*
X373273Y62467D01*
X371699D01*
X374848Y61417D02*
X375897D01*
X375372D01*
Y64566D01*
X374848Y64041D01*
X379571Y64566D02*
X377471D01*
Y62992D01*
X378521Y63516D01*
X379046D01*
X379571Y62992D01*
Y61942D01*
X379046Y61417D01*
X377996D01*
X377471Y61942D01*
X309252Y56561D02*
X309777Y57086D01*
X310826D01*
X311351Y56561D01*
Y56036D01*
X310826Y55511D01*
X310301D01*
X310826D01*
X311351Y54987D01*
Y54462D01*
X310826Y53937D01*
X309777D01*
X309252Y54462D01*
X312401Y57086D02*
Y54987D01*
X313450Y53937D01*
X314500Y54987D01*
Y57086D01*
X315549Y56561D02*
X316074Y57086D01*
X317124D01*
X317648Y56561D01*
Y56036D01*
X317124Y55511D01*
X316599D01*
X317124D01*
X317648Y54987D01*
Y54462D01*
X317124Y53937D01*
X316074D01*
X315549Y54462D01*
X323945Y56561D02*
X323421Y57086D01*
X322371D01*
X321846Y56561D01*
Y54462D01*
X322371Y53937D01*
X323421D01*
X323945Y54462D01*
Y55511D01*
X322896D01*
X324995Y53937D02*
Y57086D01*
X327094Y53937D01*
Y57086D01*
X328144D02*
Y53937D01*
X329718D01*
X330243Y54462D01*
Y56561D01*
X329718Y57086D01*
X328144D01*
X334441D02*
Y54462D01*
X334965Y53937D01*
X336015D01*
X336540Y54462D01*
Y57086D01*
X339688Y53937D02*
X337589D01*
X339688Y56036D01*
Y56561D01*
X339164Y57086D01*
X338114D01*
X337589Y56561D01*
X340738D02*
X341263Y57086D01*
X342312D01*
X342837Y56561D01*
Y54462D01*
X342312Y53937D01*
X341263D01*
X340738Y54462D01*
Y56561D01*
X347035Y57086D02*
X349134D01*
X348085D01*
Y53937D01*
X352283D02*
X350184D01*
X352283Y56036D01*
Y56561D01*
X351758Y57086D01*
X350708D01*
X350184Y56561D01*
X353332D02*
X353857Y57086D01*
X354907D01*
X355431Y56561D01*
Y54462D01*
X354907Y53937D01*
X353857D01*
X353332Y54462D01*
Y56561D01*
X359629Y53937D02*
Y57086D01*
X361204D01*
X361729Y56561D01*
Y55511D01*
X361204Y54987D01*
X359629D01*
X362778Y53937D02*
X363827D01*
X363303D01*
Y57086D01*
X362778Y56561D01*
X365402D02*
X365927Y57086D01*
X366976D01*
X367501Y56561D01*
Y56036D01*
X366976Y55511D01*
X367501Y54987D01*
Y54462D01*
X366976Y53937D01*
X365927D01*
X365402Y54462D01*
Y54987D01*
X365927Y55511D01*
X365402Y56036D01*
Y56561D01*
X365927Y55511D02*
X366976D01*
X371699Y53937D02*
Y57086D01*
X373798Y53937D01*
Y57086D01*
X374848Y53937D02*
X375897D01*
X375372D01*
Y57086D01*
X374848Y56561D01*
X377471Y57086D02*
X379571D01*
Y56561D01*
X377471Y54462D01*
Y53937D01*
X90037Y342480D02*
Y340118D01*
X91808D01*
X91217Y341299D01*
Y341889D01*
X91808Y342480D01*
X92988D01*
X93579Y341889D01*
Y340708D01*
X92988Y340118D01*
X91808Y343660D02*
Y346022D01*
X93579Y347202D02*
Y348383D01*
Y347793D01*
X90037D01*
X90627Y347202D01*
X93579Y352516D02*
Y350154D01*
X91217Y352516D01*
X90627D01*
X90037Y351925D01*
Y350745D01*
X90627Y350154D01*
X90037Y353696D02*
X92398D01*
X93579Y354877D01*
X92398Y356058D01*
X90037D01*
X90627Y360781D02*
X90037Y361371D01*
Y362552D01*
X90627Y363142D01*
X91217D01*
X91808Y362552D01*
Y361961D01*
Y362552D01*
X92398Y363142D01*
X92988D01*
X93579Y362552D01*
Y361371D01*
X92988Y360781D01*
X93579Y364323D02*
X91217D01*
X90037Y365504D01*
X91217Y366684D01*
X93579D01*
X91808D01*
Y364323D01*
X247835Y274410D02*
Y277558D01*
X249409D01*
X249934Y277033D01*
Y275984D01*
X249409Y275459D01*
X247835D01*
X248884D02*
X249934Y274410D01*
X253082Y277033D02*
X252557Y277558D01*
X251508D01*
X250983Y277033D01*
Y276508D01*
X251508Y275984D01*
X252557D01*
X253082Y275459D01*
Y274934D01*
X252557Y274410D01*
X251508D01*
X250983Y274934D01*
X254132Y277558D02*
X256231D01*
X255181D01*
Y274410D01*
X293110D02*
Y277558D01*
X294685D01*
X295209Y277033D01*
Y275984D01*
X294685Y275459D01*
X293110D01*
X297833Y277558D02*
X296784D01*
X296259Y277033D01*
Y274934D01*
X296784Y274410D01*
X297833D01*
X298358Y274934D01*
Y277033D01*
X297833Y277558D01*
X299407Y274410D02*
Y277558D01*
X300982D01*
X301506Y277033D01*
Y275984D01*
X300982Y275459D01*
X299407D01*
X300457D02*
X301506Y274410D01*
X88465Y129448D02*
Y126299D01*
X90039D01*
X90564Y126824D01*
Y128923D01*
X90039Y129448D01*
X88465D01*
X93187D02*
X92138D01*
X91613Y128923D01*
Y126824D01*
X92138Y126299D01*
X93187D01*
X93712Y126824D01*
Y128923D01*
X93187Y129448D01*
X94762Y126299D02*
Y129448D01*
X96861Y126299D01*
Y129448D01*
X100009D02*
X97910D01*
Y126299D01*
X100009D01*
X97910Y127874D02*
X98960D01*
X13583Y133465D02*
X14763D01*
X14173D01*
Y137007D01*
X13583Y136416D01*
X14369Y230708D02*
X12008D01*
Y228936D01*
X13189Y229527D01*
X13779D01*
X14369Y228936D01*
Y227756D01*
X13779Y227165D01*
X12598D01*
X12008Y227756D01*
X15550Y230117D02*
X16140Y230708D01*
X17321D01*
X17911Y230117D01*
Y227756D01*
X17321Y227165D01*
X16140D01*
X15550Y227756D01*
Y230117D01*
D71*
X50492Y311024D02*
G03*
X50492Y311024I-689J0D01*
G01*
D75*
X157610Y359055D02*
G03*
X157610Y359055I-557J0D01*
G01*
D77*
X433268Y180315D02*
G03*
X431299Y182283I-1969J0D01*
G01*
X413583D02*
G03*
X411614Y180315I0J-1969D01*
G01*
X431299Y174409D02*
G03*
X433268Y176378I0J1969D01*
G01*
X411614D02*
G03*
X413583Y174409I1969J0D01*
G01*
X120669Y312992D02*
G03*
X122638Y314961I0J1969D01*
G01*
X112795D02*
G03*
X114764Y312992I1969J0D01*
G01*
X114764Y381102D02*
G03*
X112795Y379134I0J-1969D01*
G01*
X122638D02*
G03*
X120669Y381102I-1969J0D01*
G01*
X147047Y226378D02*
G03*
X149016Y224409I1969J0D01*
G01*
Y234252D02*
G03*
X147047Y232283I0J-1969D01*
G01*
X173819Y232283D02*
G03*
X171850Y234252I-1969J0D01*
G01*
Y224409D02*
G03*
X173819Y226378I0J1969D01*
G01*
X84287Y-278D02*
G03*
X86256Y1691I0J1969D01*
G01*
X76413D02*
G03*
X78382Y-278I1969J0D01*
G01*
X78382Y44210D02*
G03*
X76413Y42242I0J-1969D01*
G01*
X86256D02*
G03*
X84287Y44210I-1969J0D01*
G01*
X420276Y337008D02*
G03*
X422244Y338976I0J1969D01*
G01*
X412402D02*
G03*
X414370Y337008I1969J0D01*
G01*
X414370Y381102D02*
G03*
X412402Y379134I0J-1969D01*
G01*
X422244D02*
G03*
X420276Y381102I-1969J0D01*
G01*
X215551Y379528D02*
G03*
X213583Y381496I-1969J0D01*
G01*
X207677Y381496D02*
G03*
X205709Y379528I0J-1969D01*
G01*
Y332677D02*
G03*
X207677Y330709I1969J0D01*
G01*
X213583Y330709D02*
G03*
X215551Y332677I0J1969D01*
G01*
X316339Y328346D02*
G03*
X318307Y330315I0J1969D01*
G01*
X308465D02*
G03*
X310433Y328346I1969J0D01*
G01*
X310433Y377953D02*
G03*
X308465Y375984I0J-1969D01*
G01*
X318307D02*
G03*
X316339Y377953I-1969J0D01*
G01*
X87992Y337008D02*
G03*
X89961Y335039I1969J0D01*
G01*
X104921Y335039D02*
G03*
X106890Y337008I0J1969D01*
G01*
X87992Y337008D02*
G03*
X89961Y335039I1969J0D01*
G01*
X106890Y370472D02*
G03*
X104921Y372441I-1969J0D01*
G01*
X89961D02*
G03*
X87992Y370472I0J-1969D01*
G01*
X9646Y336221D02*
G03*
X7677Y334252I0J-1969D01*
G01*
X7677Y328346D02*
G03*
X9646Y326378I1969J0D01*
G01*
X28543Y334252D02*
G03*
X26575Y336221I-1969J0D01*
G01*
Y326378D02*
G03*
X28543Y328346I0J1969D01*
G01*
X21457Y248031D02*
G03*
X23425Y250000I0J1969D01*
G01*
X23425Y255906D02*
G03*
X21457Y257874I-1969J0D01*
G01*
X7677Y250000D02*
G03*
X9646Y248031I1969J0D01*
G01*
Y257874D02*
G03*
X7677Y255906I0J-1969D01*
G01*
X42717Y120866D02*
G03*
X44685Y122835I0J1969D01*
G01*
X33268Y122441D02*
G03*
X34843Y120866I1575J0D01*
G01*
X35236Y181595D02*
G03*
X33268Y179626I-197J-1772D01*
G01*
X44685Y180020D02*
G03*
X43110Y181595I-1575J0D01*
G01*
X379331Y50492D02*
G03*
X381299Y52461I0J1969D01*
G01*
X381203Y66287D02*
G03*
X379380Y68110I-1823J0D01*
G01*
X308858Y68209D02*
G03*
X306890Y66240I0J-1969D01*
G01*
Y52461D02*
G03*
X308858Y50492I1969J0D01*
G01*
X397441Y68110D02*
G03*
X395472Y66142I0J-1969D01*
G01*
Y52362D02*
G03*
X397441Y50394I1969J0D01*
G01*
X95079Y355118D02*
G03*
X105079Y355118I5000J0D01*
G01*
X491536Y216535D02*
G03*
X493504Y218504I0J1969D01*
G01*
Y221457D02*
G03*
X491536Y223425I-1969J0D01*
G01*
X470669Y218504D02*
G03*
X472638Y216535I1969J0D01*
G01*
X472638Y223425D02*
G03*
X470669Y221457I0J-1969D01*
G01*
X472638Y175197D02*
G03*
X470669Y173228I0J-1969D01*
G01*
X470669Y170276D02*
G03*
X472638Y168307I1969J0D01*
G01*
X493504Y173228D02*
G03*
X491536Y175197I-1969J0D01*
G01*
X491536Y168307D02*
G03*
X493504Y170276I0J1969D01*
G01*
X473032Y127756D02*
G03*
X471063Y125787I0J-1969D01*
G01*
X471063Y122835D02*
G03*
X473032Y120866I1969J0D01*
G01*
X493898Y125787D02*
G03*
X491929Y127756I-1969J0D01*
G01*
X491929Y120866D02*
G03*
X493898Y122835I0J1969D01*
G01*
X472638Y80315D02*
G03*
X470669Y78347I0J-1969D01*
G01*
X470669Y75394D02*
G03*
X472638Y73425I1969J0D01*
G01*
X493504Y78347D02*
G03*
X491536Y80315I-1969J0D01*
G01*
X491536Y73425D02*
G03*
X493504Y75394I0J1969D01*
G01*
X287598Y279331D02*
G03*
X285630Y277362I0J-1969D01*
G01*
X285630Y274409D02*
G03*
X287598Y272441I1969J0D01*
G01*
X411614Y189764D02*
G03*
X413583Y187795I1969J0D01*
G01*
X431299Y187795D02*
G03*
X433268Y189764I0J1969D01*
G01*
X413583Y195669D02*
G03*
X411614Y193701I0J-1969D01*
G01*
X433268Y193701D02*
G03*
X431299Y195669I-1969J0D01*
G01*
X433268Y166535D02*
G03*
X431299Y168504I-1969J0D01*
G01*
X413583D02*
G03*
X411614Y166535I0J-1969D01*
G01*
X431299Y160630D02*
G03*
X433268Y162598I0J1969D01*
G01*
X411614D02*
G03*
X413583Y160630I1969J0D01*
G01*
X433268Y152362D02*
G03*
X431299Y154331I-1969J0D01*
G01*
X413583D02*
G03*
X411614Y152362I0J-1969D01*
G01*
X431299Y146457D02*
G03*
X433268Y148425I0J1969D01*
G01*
X411614D02*
G03*
X413583Y146457I1969J0D01*
G01*
X433268Y138976D02*
G03*
X431299Y140945I-1969J0D01*
G01*
X413583D02*
G03*
X411614Y138976I0J-1969D01*
G01*
X431299Y133071D02*
G03*
X433268Y135039I0J1969D01*
G01*
X411614D02*
G03*
X413583Y133071I1969J0D01*
G01*
X433268Y125197D02*
G03*
X431299Y127165I-1969J0D01*
G01*
X413583D02*
G03*
X411614Y125197I0J-1969D01*
G01*
X431299Y119291D02*
G03*
X433268Y121260I0J1969D01*
G01*
X411614D02*
G03*
X413583Y119291I1969J0D01*
G01*
X433268Y111417D02*
G03*
X431299Y113386I-1969J0D01*
G01*
X413583D02*
G03*
X411614Y111417I0J-1969D01*
G01*
X431299Y105512D02*
G03*
X433268Y107480I0J1969D01*
G01*
X411614D02*
G03*
X413583Y105512I1969J0D01*
G01*
X433268Y96850D02*
G03*
X431299Y98819I-1969J0D01*
G01*
X413583D02*
G03*
X411614Y96850I0J-1969D01*
G01*
X431299Y90945D02*
G03*
X433268Y92913I0J1969D01*
G01*
X411614D02*
G03*
X413583Y90945I1969J0D01*
G01*
X306496Y272441D02*
G03*
X308465Y274409I0J1969D01*
G01*
Y277362D02*
G03*
X306496Y279331I-1969J0D01*
G01*
X395472Y52362D02*
G03*
X397441Y50394I1969J0D01*
G01*
X397441Y68110D02*
G03*
X395472Y66142I0J-1969D01*
G01*
X471063Y66240D02*
G03*
X469095Y68209I-1969J0D01*
G01*
X469095Y50492D02*
G03*
X471063Y52461I0J1969D01*
G01*
X262402Y277362D02*
G03*
X260433Y279331I-1969J0D01*
G01*
X260433Y272441D02*
G03*
X262402Y274409I0J1969D01*
G01*
X239567D02*
G03*
X241535Y272441I1969J0D01*
G01*
X241535Y279331D02*
G03*
X239567Y277362I0J-1969D01*
G01*
X105079Y129331D02*
G03*
X103110Y131299I-1969J0D01*
G01*
X103110Y124409D02*
G03*
X105079Y126378I0J1969D01*
G01*
X82244Y126378D02*
G03*
X84213Y124409I1969J0D01*
G01*
X84213Y131299D02*
G03*
X82244Y129331I0J-1969D01*
G01*
X438779Y35039D02*
G03*
X438779Y35039I-394J0D01*
G01*
X426181D02*
G03*
X426181Y35039I-394J0D01*
G01*
X345866Y34646D02*
G03*
X345866Y34646I-394J0D01*
G01*
X333268D02*
G03*
X333268Y34646I-394J0D01*
G01*
X463631Y274665D02*
G03*
X461131Y274665I-1250J0D01*
G01*
X84193Y233513D02*
G03*
X84193Y231013I0J-1250D01*
G01*
Y279970D02*
G03*
X84193Y277470I0J-1250D01*
G01*
X376831Y325638D02*
G03*
X376831Y325638I-500J0D01*
G01*
X192842Y232528D02*
G03*
X192842Y232528I-394J0D01*
G01*
X45437Y64533D02*
G03*
X45437Y64533I-394J0D01*
G01*
X416889Y242845D02*
G03*
X417063Y242563I-141J-282D01*
G01*
X129331Y334646D02*
G03*
X129049Y334472I-282J141D01*
G01*
X413583Y174409D02*
X431299Y174409D01*
X433268Y176378D02*
Y180315D01*
X413583Y182283D02*
X431299Y182283D01*
X411614Y176378D02*
Y180315D01*
X114764Y312992D02*
X120669D01*
X122638Y314961D02*
Y379134D01*
X114764Y381102D02*
X120669D01*
X112795Y314961D02*
Y379134D01*
X147047Y226378D02*
Y232283D01*
X149016Y224409D02*
X171850D01*
X173819Y226378D02*
Y232283D01*
X149016Y234252D02*
X171850D01*
X78382Y-278D02*
X84287D01*
X86256Y1691D02*
Y42242D01*
X78382Y44210D02*
X84287D01*
X76413Y1691D02*
Y42242D01*
X414370Y337008D02*
X420276D01*
X422244Y338976D02*
Y379134D01*
X414370Y381102D02*
X420276D01*
X412402Y338976D02*
Y379134D01*
X205709Y332677D02*
Y379527D01*
X207677Y381496D02*
X213583D01*
X215551Y332677D02*
Y379527D01*
X207677Y330709D02*
X213583D01*
X310433Y328346D02*
X316339D01*
X318307Y330315D02*
Y375984D01*
X310433Y377953D02*
X316339D01*
X106890Y337008D02*
Y370472D01*
X89961Y372441D02*
X104921D01*
X89961Y335039D02*
X104921D01*
X87992Y337008D02*
Y370472D01*
X7677Y328346D02*
Y334252D01*
X28543Y328346D02*
Y334252D01*
X9646Y336221D02*
X26575D01*
X9646Y326378D02*
X26575D01*
X9646Y248031D02*
X21063D01*
X10039Y257874D02*
X21457D01*
X23425Y250000D02*
Y255906D01*
X7677Y250000D02*
Y255906D01*
X35236Y181595D02*
X43110D01*
X44685Y122835D02*
Y179528D01*
X34843Y120866D02*
X42717D01*
X33268Y122441D02*
Y179626D01*
X308465Y330315D02*
Y375984D01*
X308858Y50394D02*
X379331D01*
X381299Y56201D02*
Y63090D01*
X306890Y52756D02*
Y66535D01*
X395472Y52362D02*
Y66142D01*
X103079Y338118D02*
Y341118D01*
Y365118D02*
Y368118D01*
X101579Y366618D02*
X104579D01*
X100079Y355618D02*
Y368618D01*
Y337618D02*
Y350118D01*
X308858Y68110D02*
X379380D01*
X472638Y216535D02*
X491929D01*
X472638Y223425D02*
X491536D01*
X493504Y218504D02*
Y221457D01*
X470669Y218504D02*
Y221457D01*
Y170276D02*
Y173228D01*
X493504Y170276D02*
Y173228D01*
X472638Y175197D02*
X491536D01*
X472638Y168307D02*
X491536D01*
X471063Y122835D02*
Y125787D01*
X493898Y122835D02*
Y125787D01*
X473032Y127756D02*
X491929D01*
X473032Y120866D02*
X491929D01*
X470669Y75394D02*
Y78347D01*
X493504Y75394D02*
Y78347D01*
X472638Y80315D02*
X491536D01*
X472638Y73425D02*
X491536D01*
X285630Y274409D02*
Y277362D01*
X308465Y274409D02*
Y277362D01*
X287598Y279331D02*
X306496D01*
X287992Y272441D02*
X306890D01*
X241535Y279331D02*
X260433D01*
X241929Y272441D02*
X260827D01*
X411614Y189764D02*
Y193701D01*
X413583Y195669D02*
X431299Y195669D01*
X433268Y189764D02*
Y193701D01*
X413583Y187795D02*
X431299Y187795D01*
X411614Y176701D02*
Y180638D01*
X413583Y160630D02*
X431299Y160630D01*
X433268Y162598D02*
Y166535D01*
X413583Y168504D02*
X431299Y168504D01*
X411614Y162598D02*
Y166535D01*
X413583Y146457D02*
X431299Y146457D01*
X433268Y148425D02*
Y152362D01*
X413583Y154331D02*
X431299Y154331D01*
X411614Y148425D02*
Y152362D01*
X413583Y133071D02*
X431299Y133071D01*
X433268Y135039D02*
Y138976D01*
X413583Y140945D02*
X431299Y140945D01*
X411614Y135039D02*
Y138976D01*
X413583Y119291D02*
X431299Y119291D01*
X433268Y121260D02*
Y125197D01*
X413583Y127165D02*
X431299Y127165D01*
X411614Y121260D02*
Y125197D01*
X413583Y105512D02*
X431299Y105512D01*
X433268Y107480D02*
Y111417D01*
X413583Y113386D02*
X431299Y113386D01*
X411614Y107480D02*
Y111417D01*
X413583Y90945D02*
X431299Y90945D01*
X433268Y92913D02*
Y96850D01*
X413583Y98819D02*
X431299Y98819D01*
X411614Y92913D02*
Y96850D01*
X381299Y52756D02*
Y56201D01*
Y63090D02*
Y66287D01*
X471063Y62795D02*
Y66240D01*
Y52461D02*
Y55905D01*
X397441Y68110D02*
X469095D01*
X395472Y52362D02*
Y66142D01*
X471063Y56004D02*
Y62894D01*
X397441Y50394D02*
X469095D01*
X262402Y274409D02*
Y277362D01*
X239567Y274213D02*
Y277165D01*
X84606Y124409D02*
X103504D01*
X84213Y131299D02*
X103110D01*
X105079Y126378D02*
Y129331D01*
X82244Y126378D02*
Y129331D01*
X91254Y135551D02*
Y137913D01*
X90466Y136732D02*
X91254Y137913D01*
X90466Y136732D02*
X91254Y135551D01*
X228150Y297339D02*
X290669D01*
Y335827D02*
Y381890D01*
Y297339D02*
Y321654D01*
X228150Y297339D02*
Y322047D01*
Y335433D02*
Y381890D01*
X93110Y320872D02*
X95472D01*
X94291Y321659D02*
X95472Y320872D01*
X93110D02*
X94291Y321659D01*
X442711Y190433D02*
Y192795D01*
X441923Y191614D02*
X442711Y192795D01*
X441923Y191614D02*
X442711Y190433D01*
Y176654D02*
Y179016D01*
X441923Y177835D02*
X442711Y179016D01*
X441923Y177835D02*
X442711Y176654D01*
Y162874D02*
Y165236D01*
X441923Y164055D02*
X442711Y165236D01*
X441923Y164055D02*
X442711Y162874D01*
Y149094D02*
Y151457D01*
X441923Y150276D02*
X442711Y151457D01*
X441923Y150276D02*
X442711Y149094D01*
Y135315D02*
Y137677D01*
X441923Y136496D02*
X442711Y137677D01*
X441923Y136496D02*
X442711Y135315D01*
Y121535D02*
Y123898D01*
X441923Y122716D02*
X442711Y123898D01*
X441923Y122716D02*
X442711Y121535D01*
Y107756D02*
Y110118D01*
X441923Y108937D02*
X442711Y110118D01*
X441923Y108937D02*
X442711Y107756D01*
Y93976D02*
Y96339D01*
X441923Y95157D02*
X442711Y96339D01*
X441923Y95157D02*
X442711Y93976D01*
X149764Y243012D02*
X206772D01*
X149764D02*
Y260512D01*
X206772D01*
Y243012D02*
Y260512D01*
X463631Y274665D02*
X466432D01*
X458331D02*
X461131D01*
X458331D02*
Y294665D01*
X466432D01*
Y274665D02*
Y294665D01*
X84193Y233513D02*
Y236313D01*
Y228213D02*
Y231013D01*
X64193Y228213D02*
X84193D01*
X64193D02*
Y236313D01*
X84193D01*
Y279970D02*
Y282770D01*
Y274670D02*
Y277470D01*
X64193Y274670D02*
X84193D01*
X64193D02*
Y282770D01*
X84193D01*
X178150Y349612D02*
X180512D01*
X179331Y350400D02*
X180512Y349612D01*
X178150D02*
X179331Y350400D01*
X110433Y68535D02*
X113099D01*
X100197Y68141D02*
X102863D01*
X101530Y69474D02*
Y66808D01*
X114671Y315354D02*
X119670D01*
X120669Y316354D01*
Y318353D01*
X119670Y319353D01*
X114671D01*
X115671Y325351D02*
X114671Y324351D01*
Y322352D01*
X115671Y321352D01*
X116671D01*
X117670Y322352D01*
Y324351D01*
X118670Y325351D01*
X119670D01*
X120669Y324351D01*
Y322352D01*
X119670Y321352D01*
X114671Y327350D02*
X120669D01*
Y330349D01*
X119670Y331349D01*
X118670D01*
X117670Y330349D01*
Y327350D01*
Y330349D01*
X116671Y331349D01*
X115671D01*
X114671Y330349D01*
Y327350D01*
X115671Y343345D02*
X114671Y342346D01*
Y340346D01*
X115671Y339347D01*
X119670D01*
X120669Y340346D01*
Y342346D01*
X119670Y343345D01*
X114671Y348344D02*
Y346344D01*
X115671Y345345D01*
X119670D01*
X120669Y346344D01*
Y348344D01*
X119670Y349343D01*
X115671D01*
X114671Y348344D01*
X120669Y351343D02*
X114671D01*
X120669Y355341D01*
X114671D01*
X115671Y361339D02*
X114671Y360340D01*
Y358340D01*
X115671Y357341D01*
X116671D01*
X117670Y358340D01*
Y360340D01*
X118670Y361339D01*
X119670D01*
X120669Y360340D01*
Y358340D01*
X119670Y357341D01*
X114671Y366338D02*
Y364338D01*
X115671Y363339D01*
X119670D01*
X120669Y364338D01*
Y366338D01*
X119670Y367337D01*
X115671D01*
X114671Y366338D01*
Y369337D02*
X120669D01*
Y373336D01*
X114671Y379334D02*
Y375335D01*
X120669D01*
Y379334D01*
X117670Y375335D02*
Y377334D01*
X153015Y232376D02*
X151015D01*
X152015D01*
Y227378D01*
X151015Y226378D01*
X150015D01*
X149016Y227378D01*
X155014Y232376D02*
X159012D01*
X157013D01*
Y226378D01*
X161012D02*
Y230377D01*
X163011Y232376D01*
X165011Y230377D01*
Y226378D01*
Y229377D01*
X161012D01*
X171009Y231376D02*
X170009Y232376D01*
X168010D01*
X167010Y231376D01*
Y227378D01*
X168010Y226378D01*
X170009D01*
X171009Y227378D01*
Y229377D01*
X169009D01*
X79289Y6083D02*
X78289Y5084D01*
Y3084D01*
X79289Y2084D01*
X80288D01*
X81288Y3084D01*
Y5084D01*
X82288Y6083D01*
X83287D01*
X84287Y5084D01*
Y3084D01*
X83287Y2084D01*
X78289Y8083D02*
X84287D01*
Y11082D01*
X83287Y12081D01*
X79289D01*
X78289Y11082D01*
Y8083D01*
X79289Y24077D02*
X78289Y23078D01*
Y21078D01*
X79289Y20079D01*
X83287D01*
X84287Y21078D01*
Y23078D01*
X83287Y24077D01*
X84287Y26077D02*
X80288D01*
X78289Y28076D01*
X80288Y30075D01*
X84287D01*
X81288D01*
Y26077D01*
X84287Y32075D02*
X78289D01*
Y35074D01*
X79289Y36073D01*
X81288D01*
X82288Y35074D01*
Y32075D01*
Y34074D02*
X84287Y36073D01*
X78289Y38073D02*
X84287D01*
Y41072D01*
X83287Y42072D01*
X79289D01*
X78289Y41072D01*
Y38073D01*
X13038Y334345D02*
X11039D01*
X10039Y333345D01*
Y329346D01*
X11039Y328346D01*
X13038D01*
X14038Y329346D01*
Y333345D01*
X13038Y334345D01*
X20036D02*
X16037D01*
Y331346D01*
X18037D01*
X16037D01*
Y328346D01*
X26034Y334345D02*
X22036D01*
Y331346D01*
X24035D01*
X22036D01*
Y328346D01*
X13038Y255998D02*
X11039D01*
X10039Y254998D01*
Y251000D01*
X11039Y250000D01*
X13038D01*
X14038Y251000D01*
Y254998D01*
X13038Y255998D01*
X16037Y250000D02*
Y255998D01*
X20036Y250000D01*
Y255998D01*
X41929Y124409D02*
X35931D01*
X37930Y126409D01*
X35931Y128408D01*
X41929D01*
X35931Y130408D02*
Y132407D01*
Y131407D01*
X41929D01*
Y130408D01*
Y132407D01*
Y135406D02*
X35931D01*
Y138405D01*
X36931Y139405D01*
X38930D01*
X39930Y138405D01*
Y135406D01*
X35931Y141404D02*
Y143403D01*
Y142404D01*
X41929D01*
Y141404D01*
Y143403D01*
X36931Y156399D02*
X35931Y155399D01*
Y153400D01*
X36931Y152400D01*
X40929D01*
X41929Y153400D01*
Y155399D01*
X40929Y156399D01*
X36931Y162397D02*
X35931Y161398D01*
Y159398D01*
X36931Y158398D01*
X37930D01*
X38930Y159398D01*
Y161398D01*
X39930Y162397D01*
X40929D01*
X41929Y161398D01*
Y159398D01*
X40929Y158398D01*
X35931Y164397D02*
Y166396D01*
Y165396D01*
X41929D01*
Y164397D01*
Y166396D01*
X38930Y169395D02*
Y173394D01*
X41929Y179392D02*
Y175393D01*
X37930Y179392D01*
X36931D01*
X35931Y178392D01*
Y176393D01*
X36931Y175393D01*
X414278Y339370D02*
X419276D01*
X420276Y340370D01*
Y342369D01*
X419276Y343369D01*
X414278D01*
X415277Y349367D02*
X414278Y348367D01*
Y346368D01*
X415277Y345368D01*
X416277D01*
X417277Y346368D01*
Y348367D01*
X418276Y349367D01*
X419276D01*
X420276Y348367D01*
Y346368D01*
X419276Y345368D01*
X414278Y351366D02*
X420276D01*
Y354365D01*
X419276Y355365D01*
X418276D01*
X417277Y354365D01*
Y351366D01*
Y354365D01*
X416277Y355365D01*
X415277D01*
X414278Y354365D01*
Y351366D01*
X420276Y367361D02*
Y363362D01*
X416277Y367361D01*
X415277D01*
X414278Y366361D01*
Y364362D01*
X415277Y363362D01*
X420276Y369360D02*
X419276D01*
Y370360D01*
X420276D01*
Y369360D01*
X415277Y374359D02*
X414278Y375358D01*
Y377358D01*
X415277Y378358D01*
X419276D01*
X420276Y377358D01*
Y375358D01*
X419276Y374359D01*
X415277D01*
X310340Y330709D02*
X316339D01*
X313340D01*
Y334707D01*
X310340D01*
X316339D01*
X310340Y336707D02*
X316339D01*
Y339706D01*
X315339Y340705D01*
X311340D01*
X310340Y339706D01*
Y336707D01*
X316339Y342705D02*
X310340D01*
X312340Y344704D01*
X310340Y346704D01*
X316339D01*
X310340Y348703D02*
Y350702D01*
Y349703D01*
X316339D01*
Y348703D01*
Y350702D01*
X310340Y362698D02*
Y360699D01*
X311340Y359699D01*
X315339D01*
X316339Y360699D01*
Y362698D01*
X315339Y363698D01*
X311340D01*
X310340Y362698D01*
Y365697D02*
X315339D01*
X316339Y366697D01*
Y368696D01*
X315339Y369696D01*
X310340D01*
Y371695D02*
Y375694D01*
Y373695D01*
X316339D01*
X207585Y337070D02*
Y333071D01*
X213583D01*
Y337070D01*
X210584Y333071D02*
Y335070D01*
X207585Y339069D02*
Y343068D01*
Y341068D01*
X213583D01*
X207585Y345067D02*
X213583D01*
X210584D01*
Y349066D01*
X207585D01*
X213583D01*
X207585Y355064D02*
Y351065D01*
X213583D01*
Y355064D01*
X210584Y351065D02*
Y353064D01*
X213583Y357063D02*
X207585D01*
Y360062D01*
X208584Y361062D01*
X210584D01*
X211583Y360062D01*
Y357063D01*
Y359062D02*
X213583Y361062D01*
Y363061D02*
X207585D01*
X213583Y367060D01*
X207585D01*
Y373058D02*
Y369059D01*
X213583D01*
Y373058D01*
X210584Y369059D02*
Y371059D01*
X207585Y375057D02*
Y379056D01*
Y377057D01*
X213583D01*
D106*
X85616Y134232D02*
X87116D01*
X85616D02*
Y139232D01*
X87116D01*
X94616Y134232D02*
X96116D01*
Y139232D01*
X94616D02*
X96116D01*
X57939Y108012D02*
X59439D01*
X57939Y103012D02*
X59439D01*
X57939D02*
Y108012D01*
X66939D02*
X68439D01*
X66939Y103012D02*
X68439D01*
Y108012D01*
X70138Y113518D02*
X75138D01*
Y112018D02*
Y113518D01*
X70138Y112018D02*
Y113518D01*
Y103018D02*
X75138D01*
Y103018D02*
Y104518D01*
X70138Y103018D02*
Y104518D01*
X93366Y113124D02*
X98366D01*
Y111624D02*
Y113124D01*
X93366Y111624D02*
Y113124D01*
Y102624D02*
X98366D01*
Y102624D02*
Y104124D01*
X93366Y102624D02*
Y104124D01*
X119744Y235301D02*
Y236801D01*
X124744Y235301D02*
Y236801D01*
X119744Y235301D02*
X124744D01*
X119744Y244301D02*
Y245801D01*
X124744Y244301D02*
Y245801D01*
X119744D02*
X124744D01*
X120531Y277821D02*
Y279321D01*
X125531Y277821D02*
Y279321D01*
X120531Y277821D02*
X125531D01*
X120531Y286821D02*
Y288321D01*
X125531Y286821D02*
Y288321D01*
X120531D02*
X125531D01*
X91791Y325010D02*
Y326510D01*
X96791D01*
Y325010D02*
Y326510D01*
X91791Y316010D02*
Y317510D01*
Y316010D02*
X96791D01*
Y317510D01*
X437073Y189114D02*
X438573D01*
X437073D02*
Y194114D01*
X438573D01*
X446073Y189114D02*
X447573D01*
Y194114D01*
X446073D02*
X447573D01*
X437073Y175335D02*
X438573D01*
X437073D02*
Y180335D01*
X438573D01*
X446073Y175335D02*
X447573D01*
Y180335D01*
X446073D02*
X447573D01*
X437073Y161555D02*
X438573D01*
X437073D02*
Y166555D01*
X438573D01*
X446073Y161555D02*
X447573D01*
Y166555D01*
X446073D02*
X447573D01*
X437073Y147776D02*
X438573D01*
X437073D02*
Y152776D01*
X438573D01*
X446073Y147776D02*
X447573D01*
Y152776D01*
X446073D02*
X447573D01*
X437073Y133996D02*
X438573D01*
X437073D02*
Y138996D01*
X438573D01*
X446073Y133996D02*
X447573D01*
Y138996D01*
X446073D02*
X447573D01*
X437073Y120217D02*
X438573D01*
X437073D02*
Y125216D01*
X438573D01*
X446073Y120217D02*
X447573D01*
Y125216D01*
X446073D02*
X447573D01*
X437073Y106437D02*
X438573D01*
X437073D02*
Y111437D01*
X438573D01*
X446073Y106437D02*
X447573D01*
Y111437D01*
X446073D02*
X447573D01*
X437073Y92658D02*
X438573D01*
X437073D02*
Y97658D01*
X438573D01*
X446073Y92658D02*
X447573D01*
Y97658D01*
X446073D02*
X447573D01*
X176831Y353750D02*
Y355250D01*
X181831D01*
Y353750D02*
Y355250D01*
X176831Y344750D02*
Y346250D01*
Y344750D02*
X181831D01*
Y346250D01*
X155526Y278602D02*
Y283602D01*
X154026Y278602D02*
X155526D01*
X154026Y283602D02*
X155526D01*
X145026Y278602D02*
Y283602D01*
X145026Y278602D02*
X146526D01*
X145026Y283602D02*
X146526D01*
X130695Y279390D02*
Y284390D01*
X132195D01*
X130695Y279390D02*
X132195D01*
X141195D02*
Y284390D01*
X139695D02*
X141195D01*
X139695Y279390D02*
X141195D01*
X416207Y285295D02*
Y290295D01*
X417707D01*
X416207Y285295D02*
X417707D01*
X426707D02*
Y290295D01*
X425207D02*
X426707D01*
X425207Y285295D02*
X426707D01*
X448709Y298075D02*
X451709D01*
X448709D02*
Y305075D01*
X451709D01*
X459709Y298075D02*
X462709D01*
X462709Y305075D02*
X462709Y298075D01*
X459709Y305075D02*
X462709D01*
X475063Y305075D02*
X478063D01*
Y298075D02*
Y305075D01*
X475063Y298075D02*
X478063D01*
X464063Y305075D02*
X467063D01*
X464063D02*
X464063Y298075D01*
X467063D01*
X407933Y255380D02*
X412933D01*
X407933D02*
Y256880D01*
X412933Y255380D02*
Y256880D01*
X407933Y265880D02*
X412933D01*
X407933Y264380D02*
Y265880D01*
X412933Y264380D02*
Y265880D01*
X51472Y72031D02*
X56472D01*
X51472D02*
Y73531D01*
X56472Y72031D02*
Y73531D01*
X51472Y82531D02*
X56472D01*
X51472Y81031D02*
Y82531D01*
X56472Y81031D02*
Y82531D01*
X122307Y258618D02*
X125307D01*
Y251618D02*
Y258618D01*
X122307Y251618D02*
X125307D01*
X111307Y258618D02*
X114307D01*
X111307D02*
X111307Y251618D01*
X114307D01*
X121913Y303106D02*
X124913D01*
Y296106D02*
Y303106D01*
X121913Y296106D02*
X124913D01*
X110913Y303106D02*
X113913D01*
X110913D02*
X110913Y296106D01*
X113913D01*
X54484Y264654D02*
Y267653D01*
X47484Y264654D02*
X54484D01*
X47484D02*
Y267653D01*
X54484Y275654D02*
Y278654D01*
X47484Y278654D02*
X54484Y278654D01*
X47484Y275654D02*
Y278654D01*
X193760Y306116D02*
X198760D01*
Y304616D02*
Y306116D01*
X193760Y304616D02*
Y306116D01*
Y295616D02*
X198760D01*
Y295616D02*
Y297116D01*
X193760Y295616D02*
Y297116D01*
X50071Y319823D02*
X51571D01*
X50071Y314823D02*
X51571D01*
X50071D02*
Y319823D01*
X59071D02*
X60571D01*
X59071Y314823D02*
X60571D01*
Y319823D01*
X46303Y242976D02*
Y245976D01*
X53303D01*
Y242976D02*
Y245976D01*
X46303Y231976D02*
Y234976D01*
Y231976D02*
X53303Y231976D01*
Y234976D01*
X184711Y356161D02*
Y361161D01*
X186211D01*
X184711Y356161D02*
X186211D01*
X195211D02*
Y361161D01*
X193711D02*
X195211D01*
X193711Y356161D02*
X195211D01*
D107*
X441339Y299055D02*
Y301732D01*
X445669Y299055D02*
Y301732D01*
X146457Y338819D02*
Y341496D01*
X150787Y338819D02*
Y341496D01*
X433465Y299055D02*
Y301732D01*
X437795Y299055D02*
Y301732D01*
X376331Y323638D02*
X377331D01*
X376331Y315138D02*
Y323638D01*
Y315138D02*
X377331D01*
X381331D02*
X382331D01*
Y323638D01*
X381331D02*
X382331D01*
D108*
X329724Y280315D02*
Y284252D01*
X321850Y280315D02*
Y284252D01*
X329724D01*
X321850Y280315D02*
X329724D01*
X68165Y8081D02*
Y31081D01*
X23165Y8581D02*
Y28581D01*
Y43581D02*
Y46081D01*
X63165D01*
X84842Y169291D02*
X92716D01*
X84842Y173228D02*
X92716D01*
X84842Y169291D02*
Y173228D01*
X92716Y169291D02*
Y173228D01*
D109*
X133268Y377795D02*
Y378346D01*
Y363110D02*
Y369409D01*
X164764Y363110D02*
Y369409D01*
Y377795D02*
Y378346D01*
X155709Y357087D02*
X160158D01*
X137874D02*
X142323D01*
X163583Y378346D02*
X164764D01*
X163583D02*
Y383071D01*
X134449D02*
X163583D01*
X134449Y378346D02*
Y383071D01*
X133268Y378346D02*
X134449D01*
D110*
X105739Y101424D02*
X103740D01*
Y99925D01*
X104740D01*
X103740D01*
Y98425D01*
X106739D02*
Y100425D01*
X107739Y101424D01*
X108739Y100425D01*
Y98425D01*
Y99925D01*
X106739D01*
X109738Y98425D02*
Y101424D01*
X111738Y98425D01*
Y101424D01*
X251378Y137008D02*
X248379D01*
Y138507D01*
X248879Y139007D01*
X249878D01*
X250378Y138507D01*
Y137008D01*
Y138007D02*
X251378Y139007D01*
Y142006D02*
Y140007D01*
X249379Y142006D01*
X248879D01*
X248379Y141506D01*
Y140507D01*
X248879Y140007D01*
X248379Y145005D02*
Y143006D01*
X249878D01*
X249379Y144006D01*
Y144505D01*
X249878Y145005D01*
X250878D01*
X251378Y144505D01*
Y143506D01*
X250878Y143006D01*
X248993Y160760D02*
Y163759D01*
X250492D01*
X250992Y163259D01*
Y162259D01*
X250492Y161759D01*
X248993D01*
X249993D02*
X250992Y160760D01*
X253991D02*
X251992D01*
X253991Y162759D01*
Y163259D01*
X253491Y163759D01*
X252492D01*
X251992Y163259D01*
X256990Y163759D02*
X255991Y163259D01*
X254991Y162259D01*
Y161260D01*
X255491Y160760D01*
X256490D01*
X256990Y161260D01*
Y161759D01*
X256490Y162259D01*
X254991D01*
X256496Y137008D02*
X253497D01*
Y138507D01*
X253997Y139007D01*
X254996D01*
X255496Y138507D01*
Y137008D01*
Y138007D02*
X256496Y139007D01*
Y142006D02*
Y140007D01*
X254497Y142006D01*
X253997D01*
X253497Y141506D01*
Y140507D01*
X253997Y140007D01*
Y143006D02*
X253497Y143506D01*
Y144505D01*
X253997Y145005D01*
X254497D01*
X254996Y144505D01*
X255496Y145005D01*
X255996D01*
X256496Y144505D01*
Y143506D01*
X255996Y143006D01*
X255496D01*
X254996Y143506D01*
X254497Y143006D01*
X253997D01*
X254996Y143506D02*
Y144505D01*
X221850Y137008D02*
X218851D01*
Y138507D01*
X219351Y139007D01*
X220351D01*
X220851Y138507D01*
Y137008D01*
Y138007D02*
X221850Y139007D01*
X221351Y140007D02*
X221850Y140507D01*
Y141506D01*
X221351Y142006D01*
X219351D01*
X218851Y141506D01*
Y140507D01*
X219351Y140007D01*
X219851D01*
X220351Y140507D01*
Y142006D01*
X218851Y145005D02*
X219351Y144006D01*
X220351Y143006D01*
X221351D01*
X221850Y143506D01*
Y144505D01*
X221351Y145005D01*
X220851D01*
X220351Y144505D01*
Y143006D01*
X220669Y160760D02*
Y163759D01*
X222169D01*
X222669Y163259D01*
Y162259D01*
X222169Y161759D01*
X220669D01*
X221669D02*
X222669Y160760D01*
X223668Y161260D02*
X224168Y160760D01*
X225168D01*
X225668Y161260D01*
Y163259D01*
X225168Y163759D01*
X224168D01*
X223668Y163259D01*
Y162759D01*
X224168Y162259D01*
X225668D01*
X226667Y163759D02*
X228667D01*
Y163259D01*
X226667Y161260D01*
Y160760D01*
X226575Y137008D02*
X223576D01*
Y138507D01*
X224076Y139007D01*
X225075D01*
X225575Y138507D01*
Y137008D01*
Y138007D02*
X226575Y139007D01*
X226075Y140007D02*
X226575Y140507D01*
Y141506D01*
X226075Y142006D01*
X224076D01*
X223576Y141506D01*
Y140507D01*
X224076Y140007D01*
X224575D01*
X225075Y140507D01*
Y142006D01*
X224076Y143006D02*
X223576Y143506D01*
Y144505D01*
X224076Y145005D01*
X224575D01*
X225075Y144505D01*
X225575Y145005D01*
X226075D01*
X226575Y144505D01*
Y143506D01*
X226075Y143006D01*
X225575D01*
X225075Y143506D01*
X224575Y143006D01*
X224076D01*
X225075Y143506D02*
Y144505D01*
X84842Y204724D02*
Y207723D01*
X86342D01*
X86842Y207224D01*
Y206224D01*
X86342Y205724D01*
X84842D01*
X85842D02*
X86842Y204724D01*
X87841Y207723D02*
X89841D01*
Y207224D01*
X87841Y205224D01*
Y204724D01*
X95079D02*
Y207723D01*
X96578D01*
X97078Y207224D01*
Y206224D01*
X96578Y205724D01*
X95079D01*
X96078D02*
X97078Y204724D01*
X98078Y207224D02*
X98578Y207723D01*
X99577D01*
X100077Y207224D01*
Y206724D01*
X99577Y206224D01*
X100077Y205724D01*
Y205224D01*
X99577Y204724D01*
X98578D01*
X98078Y205224D01*
Y205724D01*
X98578Y206224D01*
X98078Y206724D01*
Y207224D01*
X98578Y206224D02*
X99577D01*
X155344Y354769D02*
Y351770D01*
X156844D01*
X157344Y352270D01*
Y354269D01*
X156844Y354769D01*
X155344D01*
X158344Y354269D02*
X158843Y354769D01*
X159843D01*
X160343Y354269D01*
Y353769D01*
X159843Y353269D01*
X159343D01*
X159843D01*
X160343Y352769D01*
Y352270D01*
X159843Y351770D01*
X158843D01*
X158344Y352270D01*
X29724Y128347D02*
X30724D01*
X30224D01*
Y131345D01*
X29724Y130846D01*
X31330Y230558D02*
X29331D01*
Y229059D01*
X30330Y229558D01*
X30830D01*
X31330Y229059D01*
Y228059D01*
X30830Y227559D01*
X29831D01*
X29331Y228059D01*
X32330Y230058D02*
X32830Y230558D01*
X33829D01*
X34329Y230058D01*
Y228059D01*
X33829Y227559D01*
X32830D01*
X32330Y228059D01*
Y230058D01*
D111*
X116645Y213311D02*
Y216334D01*
X118156D01*
X118660Y215830D01*
Y214823D01*
X118156Y214319D01*
X116645D01*
X117652D02*
X118660Y213311D01*
X121682D02*
X119667D01*
X121682Y215326D01*
Y215830D01*
X121178Y216334D01*
X120171D01*
X119667Y215830D01*
X122690D02*
X123194Y216334D01*
X124201D01*
X124705Y215830D01*
Y213815D01*
X124201Y213311D01*
X123194D01*
X122690Y213815D01*
Y215830D01*
X197441Y219882D02*
X194418D01*
Y221393D01*
X194922Y221897D01*
X195930D01*
X196433Y221393D01*
Y219882D01*
Y220889D02*
X197441Y221897D01*
X196937Y222904D02*
X197441Y223408D01*
Y224416D01*
X196937Y224920D01*
X194922D01*
X194418Y224416D01*
Y223408D01*
X194922Y222904D01*
X195426D01*
X195930Y223408D01*
Y224920D01*
X194418Y227942D02*
Y225927D01*
X195930D01*
X195426Y226935D01*
Y227438D01*
X195930Y227942D01*
X196937D01*
X197441Y227438D01*
Y226431D01*
X196937Y225927D01*
X202559Y219882D02*
X199536D01*
Y221393D01*
X200040Y221897D01*
X201048D01*
X201552Y221393D01*
Y219882D01*
Y220889D02*
X202559Y221897D01*
X202055Y222904D02*
X202559Y223408D01*
Y224416D01*
X202055Y224920D01*
X200040D01*
X199536Y224416D01*
Y223408D01*
X200040Y222904D01*
X200544D01*
X201048Y223408D01*
Y224920D01*
X202559Y227438D02*
X199536D01*
X201048Y225927D01*
Y227942D01*
X168434Y375637D02*
Y374630D01*
Y375133D01*
X170953D01*
X171457Y374630D01*
Y374126D01*
X170953Y373622D01*
X171457Y376645D02*
Y377652D01*
Y377149D01*
X168434D01*
X168938Y376645D01*
Y379164D02*
X168434Y379667D01*
Y380675D01*
X168938Y381179D01*
X169442D01*
X169945Y380675D01*
Y380171D01*
Y380675D01*
X170449Y381179D01*
X170953D01*
X171457Y380675D01*
Y379667D01*
X170953Y379164D01*
X200717Y357874D02*
Y358882D01*
Y358378D01*
X203740D01*
Y357874D01*
Y358882D01*
X201221Y362408D02*
X200717Y361904D01*
Y360897D01*
X201221Y360393D01*
X203236D01*
X203740Y360897D01*
Y361904D01*
X203236Y362408D01*
X203740Y363416D02*
Y364423D01*
Y363919D01*
X200717D01*
X201221Y363416D01*
X200717Y367950D02*
Y365934D01*
X202229D01*
X201725Y366942D01*
Y367446D01*
X202229Y367950D01*
X203236D01*
X203740Y367446D01*
Y366438D01*
X203236Y365934D01*
X205158Y221897D02*
X204655Y221393D01*
Y220386D01*
X205158Y219882D01*
X207173D01*
X207677Y220386D01*
Y221393D01*
X207173Y221897D01*
X204655Y224920D02*
Y222904D01*
X206166D01*
X205662Y223912D01*
Y224416D01*
X206166Y224920D01*
X207173D01*
X207677Y224416D01*
Y223408D01*
X207173Y222904D01*
X205158Y225927D02*
X204655Y226431D01*
Y227438D01*
X205158Y227942D01*
X205662D01*
X206166Y227438D01*
X206670Y227942D01*
X207173D01*
X207677Y227438D01*
Y226431D01*
X207173Y225927D01*
X206670D01*
X206166Y226431D01*
X205662Y225927D01*
X205158D01*
X206166Y226431D02*
Y227438D01*
X131693Y290551D02*
Y293574D01*
X133204D01*
X133708Y293070D01*
Y292062D01*
X133204Y291559D01*
X131693D01*
X132701D02*
X133708Y290551D01*
X134716Y293070D02*
X135219Y293574D01*
X136227D01*
X136731Y293070D01*
Y292566D01*
X136227Y292062D01*
X135723D01*
X136227D01*
X136731Y291559D01*
Y291055D01*
X136227Y290551D01*
X135219D01*
X134716Y291055D01*
X137738Y293574D02*
X139753D01*
Y293070D01*
X137738Y291055D01*
Y290551D01*
X401221Y215795D02*
X400717Y215291D01*
Y214283D01*
X401221Y213779D01*
X403236D01*
X403740Y214283D01*
Y215291D01*
X403236Y215795D01*
X400717Y218817D02*
Y216802D01*
X402229D01*
X401725Y217810D01*
Y218314D01*
X402229Y218817D01*
X403236D01*
X403740Y218314D01*
Y217306D01*
X403236Y216802D01*
X400717Y221840D02*
X401221Y220832D01*
X402229Y219825D01*
X403236D01*
X403740Y220329D01*
Y221336D01*
X403236Y221840D01*
X402733D01*
X402229Y221336D01*
Y219825D01*
X131693Y339637D02*
Y339133D01*
X132701Y338125D01*
X133708Y339133D01*
Y339637D01*
X132701Y338125D02*
Y336614D01*
X136731D02*
X134716D01*
X136731Y338629D01*
Y339133D01*
X136227Y339637D01*
X135219D01*
X134716Y339133D01*
X417126Y240424D02*
Y239920D01*
X418133Y238913D01*
X419141Y239920D01*
Y240424D01*
X418133Y238913D02*
Y237402D01*
X420149D02*
X421156D01*
X420652D01*
Y240424D01*
X420149Y239920D01*
X54655Y164567D02*
Y166582D01*
Y165575D01*
X57677D01*
Y167590D02*
X54655D01*
Y169101D01*
X55158Y169605D01*
X56166D01*
X56670Y169101D01*
Y167590D01*
X57677Y172124D02*
X54655D01*
X56166Y170612D01*
Y172627D01*
X79458Y165453D02*
Y167468D01*
Y166460D01*
X82480D01*
Y168475D02*
X79458D01*
Y169987D01*
X79962Y170491D01*
X80969D01*
X81473Y169987D01*
Y168475D01*
X82480Y171498D02*
Y172506D01*
Y172002D01*
X79458D01*
X79962Y171498D01*
X60620Y174409D02*
Y177432D01*
X62131D01*
X62635Y176928D01*
Y175921D01*
X62131Y175417D01*
X60620D01*
X61627D02*
X62635Y174409D01*
X63643Y177432D02*
X65658D01*
Y176928D01*
X63643Y174913D01*
Y174409D01*
X66665Y176928D02*
X67169Y177432D01*
X68177D01*
X68680Y176928D01*
Y176425D01*
X68177Y175921D01*
X68680Y175417D01*
Y174913D01*
X68177Y174409D01*
X67169D01*
X66665Y174913D01*
Y175417D01*
X67169Y175921D01*
X66665Y176425D01*
Y176928D01*
X67169Y175921D02*
X68177D01*
X507677Y331496D02*
X504655D01*
Y333007D01*
X505158Y333511D01*
X506166D01*
X506670Y333007D01*
Y331496D01*
Y332504D02*
X507677Y333511D01*
X504655Y336534D02*
X505158Y335526D01*
X506166Y334519D01*
X507173D01*
X507677Y335022D01*
Y336030D01*
X507173Y336534D01*
X506670D01*
X506166Y336030D01*
Y334519D01*
X507173Y337541D02*
X507677Y338045D01*
Y339053D01*
X507173Y339556D01*
X505158D01*
X504655Y339053D01*
Y338045D01*
X505158Y337541D01*
X505662D01*
X506166Y338045D01*
Y339556D01*
X71457Y174409D02*
Y177432D01*
X72968D01*
X73472Y176928D01*
Y175921D01*
X72968Y175417D01*
X71457D01*
X72464D02*
X73472Y174409D01*
X76494Y177432D02*
X74479D01*
Y175921D01*
X75487Y176425D01*
X75991D01*
X76494Y175921D01*
Y174913D01*
X75991Y174409D01*
X74983D01*
X74479Y174913D01*
X77502Y174409D02*
X78509D01*
X78006D01*
Y177432D01*
X77502Y176928D01*
X460873Y269448D02*
X460370Y269952D01*
X459362D01*
X458858Y269448D01*
Y267433D01*
X459362Y266929D01*
X460370D01*
X460873Y267433D01*
X463896Y269952D02*
X461881D01*
Y268441D01*
X462888Y268944D01*
X463392D01*
X463896Y268441D01*
Y267433D01*
X463392Y266929D01*
X462385D01*
X461881Y267433D01*
X466919Y266929D02*
X464903D01*
X466919Y268944D01*
Y269448D01*
X466415Y269952D01*
X465407D01*
X464903Y269448D01*
X23472Y117983D02*
X22464D01*
X22968D01*
Y115464D01*
X22464Y114961D01*
X21960D01*
X21457Y115464D01*
X26494Y117983D02*
X24479D01*
Y116472D01*
X25487Y116976D01*
X25991D01*
X26494Y116472D01*
Y115464D01*
X25991Y114961D01*
X24983D01*
X24479Y115464D01*
X89851Y161542D02*
X87836D01*
X87332Y161039D01*
Y160031D01*
X87836Y159527D01*
X89851D01*
X90354Y160031D01*
Y161039D01*
X89347Y160535D02*
X90354Y161542D01*
Y161039D02*
X89851Y161542D01*
X90354Y164565D02*
Y162550D01*
X88339Y164565D01*
X87836D01*
X87332Y164061D01*
Y163054D01*
X87836Y162550D01*
X177599Y376031D02*
X177095Y375527D01*
Y374519D01*
X177599Y374016D01*
X179614D01*
X180118Y374519D01*
Y375527D01*
X179614Y376031D01*
X177095Y379053D02*
Y377038D01*
X178607D01*
X178103Y378046D01*
Y378550D01*
X178607Y379053D01*
X179614D01*
X180118Y378550D01*
Y377542D01*
X179614Y377038D01*
X177095Y382076D02*
Y380061D01*
X178607D01*
X178103Y381069D01*
Y381572D01*
X178607Y382076D01*
X179614D01*
X180118Y381572D01*
Y380565D01*
X179614Y380061D01*
X191605Y354094D02*
X191101Y354597D01*
X190094D01*
X189590Y354094D01*
Y352079D01*
X190094Y351575D01*
X191101D01*
X191605Y352079D01*
X194628Y354597D02*
X192613D01*
Y353086D01*
X193620Y353590D01*
X194124D01*
X194628Y353086D01*
Y352079D01*
X194124Y351575D01*
X193116D01*
X192613Y352079D01*
X195635Y354094D02*
X196139Y354597D01*
X197147D01*
X197651Y354094D01*
Y353590D01*
X197147Y353086D01*
X196643D01*
X197147D01*
X197651Y352582D01*
Y352079D01*
X197147Y351575D01*
X196139D01*
X195635Y352079D01*
X320119Y233511D02*
X319615Y233007D01*
Y232000D01*
X320119Y231496D01*
X322134D01*
X322638Y232000D01*
Y233007D01*
X322134Y233511D01*
X322638Y236030D02*
X319615D01*
X321127Y234519D01*
Y236534D01*
X320119Y237541D02*
X319615Y238045D01*
Y239053D01*
X320119Y239556D01*
X320623D01*
X321127Y239053D01*
X321630Y239556D01*
X322134D01*
X322638Y239053D01*
Y238045D01*
X322134Y237541D01*
X321630D01*
X321127Y238045D01*
X320623Y237541D01*
X320119D01*
X321127Y238045D02*
Y239053D01*
X432874Y73622D02*
X429851D01*
Y75133D01*
X430355Y75637D01*
X431363D01*
X431867Y75133D01*
Y73622D01*
Y74630D02*
X432874Y75637D01*
X429851Y78660D02*
Y76645D01*
X431363D01*
X430859Y77652D01*
Y78156D01*
X431363Y78660D01*
X432370D01*
X432874Y78156D01*
Y77148D01*
X432370Y76645D01*
Y79667D02*
X432874Y80171D01*
Y81179D01*
X432370Y81682D01*
X430355D01*
X429851Y81179D01*
Y80171D01*
X430355Y79667D01*
X430859D01*
X431363Y80171D01*
Y81682D01*
X125914Y219685D02*
X128937D01*
Y221700D01*
X125914Y222708D02*
Y224723D01*
X126418D01*
X128433Y222708D01*
X128937D01*
X101378Y160424D02*
Y157402D01*
X103393D01*
X106416Y160424D02*
X105408Y159921D01*
X104401Y158913D01*
Y157905D01*
X104904Y157402D01*
X105912D01*
X106416Y157905D01*
Y158409D01*
X105912Y158913D01*
X104401D01*
X101378Y165227D02*
Y162205D01*
X103393D01*
X104401Y164724D02*
X104904Y165227D01*
X105912D01*
X106416Y164724D01*
Y164220D01*
X105912Y163716D01*
X105408D01*
X105912D01*
X106416Y163212D01*
Y162708D01*
X105912Y162205D01*
X104904D01*
X104401Y162708D01*
X49456Y107637D02*
X48952Y108141D01*
X47945D01*
X47441Y107637D01*
Y105622D01*
X47945Y105118D01*
X48952D01*
X49456Y105622D01*
X52479Y108141D02*
X50464D01*
Y106629D01*
X51471Y107133D01*
X51975D01*
X52479Y106629D01*
Y105622D01*
X51975Y105118D01*
X50967D01*
X50464Y105622D01*
X54998Y105118D02*
Y108141D01*
X53486Y106629D01*
X55501D01*
X71897Y141889D02*
X71393Y142393D01*
X70386D01*
X69882Y141889D01*
Y139874D01*
X70386Y139370D01*
X71393D01*
X71897Y139874D01*
X74416Y139370D02*
Y142393D01*
X72904Y140881D01*
X74920D01*
X75927Y139874D02*
X76431Y139370D01*
X77438D01*
X77942Y139874D01*
Y141889D01*
X77438Y142393D01*
X76431D01*
X75927Y141889D01*
Y141385D01*
X76431Y140881D01*
X77942D01*
X210433Y160748D02*
Y163771D01*
X211944D01*
X212448Y163267D01*
Y162259D01*
X211944Y161756D01*
X210433D01*
X211441D02*
X212448Y160748D01*
X214967D02*
Y163771D01*
X213456Y162259D01*
X215471D01*
X216478Y163267D02*
X216982Y163771D01*
X217990D01*
X218493Y163267D01*
Y162763D01*
X217990Y162259D01*
X218493Y161756D01*
Y161252D01*
X217990Y160748D01*
X216982D01*
X216478Y161252D01*
Y161756D01*
X216982Y162259D01*
X216478Y162763D01*
Y163267D01*
X216982Y162259D02*
X217990D01*
X239173Y160748D02*
Y163771D01*
X240685D01*
X241188Y163267D01*
Y162259D01*
X240685Y161756D01*
X239173D01*
X240181D02*
X241188Y160748D01*
X243707D02*
Y163771D01*
X242196Y162259D01*
X244211D01*
X245218Y163771D02*
X247234D01*
Y163267D01*
X245218Y161252D01*
Y160748D01*
X200197D02*
Y163771D01*
X201708D01*
X202212Y163267D01*
Y162259D01*
X201708Y161756D01*
X200197D01*
X201204D02*
X202212Y160748D01*
X204731D02*
Y163771D01*
X203220Y162259D01*
X205235D01*
X208257Y160748D02*
X206242D01*
X208257Y162763D01*
Y163267D01*
X207753Y163771D01*
X206746D01*
X206242Y163267D01*
X230217Y160748D02*
Y163771D01*
X231728D01*
X232232Y163267D01*
Y162259D01*
X231728Y161756D01*
X230217D01*
X231224D02*
X232232Y160748D01*
X234751D02*
Y163771D01*
X233239Y162259D01*
X235254D01*
X236262Y160748D02*
X237269D01*
X236766D01*
Y163771D01*
X236262Y163267D01*
X41772Y237842D02*
X41269Y237338D01*
Y236331D01*
X41772Y235827D01*
X43788D01*
X44291Y236331D01*
Y237338D01*
X43788Y237842D01*
X44291Y238849D02*
Y239857D01*
Y239353D01*
X41269D01*
X41772Y238849D01*
X44291Y242880D02*
X41269D01*
X42780Y241368D01*
Y243383D01*
X46306Y323101D02*
X44291D01*
Y321590D01*
X45299D01*
X44291D01*
Y320079D01*
X47314D02*
X48322D01*
X47818D01*
Y323101D01*
X47314Y322598D01*
X164986Y334075D02*
X164482Y334578D01*
X163474D01*
X162970Y334075D01*
Y332060D01*
X163474Y331556D01*
X164482D01*
X164986Y332060D01*
X167505Y331556D02*
Y334578D01*
X165993Y333067D01*
X168008D01*
X169016Y334075D02*
X169520Y334578D01*
X170527D01*
X171031Y334075D01*
Y333571D01*
X170527Y333067D01*
X170023D01*
X170527D01*
X171031Y332563D01*
Y332060D01*
X170527Y331556D01*
X169520D01*
X169016Y332060D01*
X201221Y302015D02*
X200717Y301511D01*
Y300504D01*
X201221Y300000D01*
X203236D01*
X203740Y300504D01*
Y301511D01*
X203236Y302015D01*
X203740Y304534D02*
X200717D01*
X202229Y303023D01*
Y305038D01*
X201221Y306045D02*
X200717Y306549D01*
Y307557D01*
X201221Y308060D01*
X203236D01*
X203740Y307557D01*
Y306549D01*
X203236Y306045D01*
X201221D01*
X128590Y249763D02*
X128086Y250267D01*
X127079D01*
X126575Y249763D01*
Y247748D01*
X127079Y247244D01*
X128086D01*
X128590Y247748D01*
X129597Y247244D02*
X130605D01*
X130101D01*
Y250267D01*
X129597Y249763D01*
X134131Y247244D02*
X132116D01*
X134131Y249259D01*
Y249763D01*
X133628Y250267D01*
X132620D01*
X132116Y249763D01*
X125047Y292283D02*
X124543Y292786D01*
X123535D01*
X123031Y292283D01*
Y290267D01*
X123535Y289764D01*
X124543D01*
X125047Y290267D01*
X127566Y289764D02*
Y292786D01*
X126054Y291275D01*
X128069D01*
X117126Y267590D02*
Y264567D01*
X119141D01*
X122164D02*
X120149D01*
X122164Y266582D01*
Y267086D01*
X121660Y267590D01*
X120652D01*
X120149Y267086D01*
X-7237Y330188D02*
X-8244D01*
X-7741D01*
Y327669D01*
X-8244Y327165D01*
X-8748D01*
X-9252Y327669D01*
X-6229Y327165D02*
X-5222D01*
X-5726D01*
Y330188D01*
X-6229Y329684D01*
X409646Y204331D02*
Y207353D01*
X410653Y206346D01*
X411661Y207353D01*
Y204331D01*
X412668D02*
X413676D01*
X413172D01*
Y207353D01*
X412668Y206850D01*
X57914Y264614D02*
X57410Y264110D01*
Y263102D01*
X57914Y262598D01*
X59929D01*
X60433Y263102D01*
Y264110D01*
X59929Y264614D01*
X57914Y265621D02*
X57410Y266125D01*
Y267132D01*
X57914Y267636D01*
X58418D01*
X58922Y267132D01*
Y266629D01*
Y267132D01*
X59425Y267636D01*
X59929D01*
X60433Y267132D01*
Y266125D01*
X59929Y265621D01*
X62245Y257527D02*
X61741Y257023D01*
Y256016D01*
X62245Y255512D01*
X64260D01*
X64764Y256016D01*
Y257023D01*
X64260Y257527D01*
X61741Y260549D02*
Y258535D01*
X63253D01*
X62749Y259542D01*
Y260046D01*
X63253Y260549D01*
X64260D01*
X64764Y260046D01*
Y259038D01*
X64260Y258535D01*
X42560Y270913D02*
X42056Y270409D01*
Y269401D01*
X42560Y268898D01*
X44575D01*
X45079Y269401D01*
Y270409D01*
X44575Y270913D01*
X42056Y273935D02*
X42560Y272928D01*
X43567Y271920D01*
X44575D01*
X45079Y272424D01*
Y273432D01*
X44575Y273935D01*
X44071D01*
X43567Y273432D01*
Y271920D01*
X117960Y307243D02*
X117456Y307747D01*
X116449D01*
X115945Y307243D01*
Y305228D01*
X116449Y304724D01*
X117456D01*
X117960Y305228D01*
X118967Y307747D02*
X120983D01*
Y307243D01*
X118967Y305228D01*
Y304724D01*
X55158Y247291D02*
X54655Y246787D01*
Y245779D01*
X55158Y245276D01*
X57173D01*
X57677Y245779D01*
Y246787D01*
X57173Y247291D01*
X57677Y248298D02*
Y249306D01*
Y248802D01*
X54655D01*
X55158Y248298D01*
X57677Y250817D02*
Y251825D01*
Y251321D01*
X54655D01*
X55158Y250817D01*
X62055Y211180D02*
X61551Y211684D01*
X60543D01*
X60039Y211180D01*
Y209165D01*
X60543Y208661D01*
X61551D01*
X62055Y209165D01*
X63062Y208661D02*
X64070D01*
X63566D01*
Y211684D01*
X63062Y211180D01*
X65581D02*
X66085Y211684D01*
X67092D01*
X67596Y211180D01*
Y210677D01*
X67092Y210173D01*
X66588D01*
X67092D01*
X67596Y209669D01*
Y209165D01*
X67092Y208661D01*
X66085D01*
X65581Y209165D01*
X128590Y256456D02*
X128086Y256960D01*
X127079D01*
X126575Y256456D01*
Y254441D01*
X127079Y253937D01*
X128086D01*
X128590Y254441D01*
X129597Y253937D02*
X130605D01*
X130101D01*
Y256960D01*
X129597Y256456D01*
X134131Y256960D02*
X132116D01*
Y255448D01*
X133124Y255952D01*
X133628D01*
X134131Y255448D01*
Y254441D01*
X133628Y253937D01*
X132620D01*
X132116Y254441D01*
X53816Y88745D02*
X53312Y88241D01*
Y87234D01*
X53816Y86730D01*
X55831D01*
X56334Y87234D01*
Y88241D01*
X55831Y88745D01*
X53312Y91768D02*
Y89753D01*
X54823D01*
X54319Y90760D01*
Y91264D01*
X54823Y91768D01*
X55831D01*
X56334Y91264D01*
Y90257D01*
X55831Y89753D01*
X53816Y92775D02*
X53312Y93279D01*
Y94287D01*
X53816Y94791D01*
X55831D01*
X56334Y94287D01*
Y93279D01*
X55831Y92775D01*
X53816D01*
X230558Y287164D02*
X230055Y287668D01*
X229047D01*
X228543Y287164D01*
Y285149D01*
X229047Y284646D01*
X230055D01*
X230558Y285149D01*
X231566Y284646D02*
X232574D01*
X232070D01*
Y287668D01*
X231566Y287164D01*
X236100Y287668D02*
X235092Y287164D01*
X234085Y286157D01*
Y285149D01*
X234589Y284646D01*
X235596D01*
X236100Y285149D01*
Y285653D01*
X235596Y286157D01*
X234085D01*
X274259Y229291D02*
X273755Y229794D01*
X272748D01*
X272244Y229291D01*
Y227275D01*
X272748Y226772D01*
X273755D01*
X274259Y227275D01*
X275267Y226772D02*
X276274D01*
X275770D01*
Y229794D01*
X275267Y229291D01*
X277786Y229794D02*
X279801D01*
Y229291D01*
X277786Y227275D01*
Y226772D01*
X402448Y251300D02*
X401944Y250796D01*
Y249789D01*
X402448Y249285D01*
X404463D01*
X404967Y249789D01*
Y250796D01*
X404463Y251300D01*
X404967Y252308D02*
Y253315D01*
Y252811D01*
X401944D01*
X402448Y252308D01*
Y254826D02*
X401944Y255330D01*
Y256338D01*
X402448Y256842D01*
X402952D01*
X403456Y256338D01*
X403960Y256842D01*
X404463D01*
X404967Y256338D01*
Y255330D01*
X404463Y254826D01*
X403960D01*
X403456Y255330D01*
X402952Y254826D01*
X402448D01*
X403456Y255330D02*
Y256338D01*
X431358Y293161D02*
X430855Y293665D01*
X429847D01*
X429343Y293161D01*
Y291146D01*
X429847Y290642D01*
X430855D01*
X431358Y291146D01*
X432366Y290642D02*
X433374D01*
X432870D01*
Y293665D01*
X432366Y293161D01*
X434885Y291146D02*
X435389Y290642D01*
X436396D01*
X436900Y291146D01*
Y293161D01*
X436396Y293665D01*
X435389D01*
X434885Y293161D01*
Y292658D01*
X435389Y292154D01*
X436900D01*
X447487Y264330D02*
X446984Y264834D01*
X445976D01*
X445472Y264330D01*
Y262315D01*
X445976Y261811D01*
X446984D01*
X447487Y262315D01*
X450510Y261811D02*
X448495D01*
X450510Y263826D01*
Y264330D01*
X450006Y264834D01*
X448999D01*
X448495Y264330D01*
X451518D02*
X452022Y264834D01*
X453029D01*
X453533Y264330D01*
Y262315D01*
X453029Y261811D01*
X452022D01*
X451518Y262315D01*
Y264330D01*
X406936Y285983D02*
X406433Y286487D01*
X405425D01*
X404921Y285983D01*
Y283968D01*
X405425Y283465D01*
X406433D01*
X406936Y283968D01*
X409959Y283465D02*
X407944D01*
X409959Y285480D01*
Y285983D01*
X409455Y286487D01*
X408448D01*
X407944Y285983D01*
X410966Y283465D02*
X411974D01*
X411470D01*
Y286487D01*
X410966Y285983D01*
X466385Y309212D02*
X465881Y309716D01*
X464874D01*
X464370Y309212D01*
Y307197D01*
X464874Y306693D01*
X465881D01*
X466385Y307197D01*
X469408Y306693D02*
X467393D01*
X469408Y308708D01*
Y309212D01*
X468904Y309716D01*
X467897D01*
X467393Y309212D01*
X472431Y306693D02*
X470415D01*
X472431Y308708D01*
Y309212D01*
X471927Y309716D01*
X470919D01*
X470415Y309212D01*
X451425D02*
X450921Y309716D01*
X449913D01*
X449409Y309212D01*
Y307197D01*
X449913Y306693D01*
X450921D01*
X451425Y307197D01*
X454447Y306693D02*
X452432D01*
X454447Y308708D01*
Y309212D01*
X453943Y309716D01*
X452936D01*
X452432Y309212D01*
X455455D02*
X455959Y309716D01*
X456966D01*
X457470Y309212D01*
Y308708D01*
X456966Y308204D01*
X456462D01*
X456966D01*
X457470Y307700D01*
Y307197D01*
X456966Y306693D01*
X455959D01*
X455455Y307197D01*
X446700Y255668D02*
X446196Y256172D01*
X445189D01*
X444685Y255668D01*
Y253653D01*
X445189Y253150D01*
X446196D01*
X446700Y253653D01*
X449723Y253150D02*
X447708D01*
X449723Y255165D01*
Y255668D01*
X449219Y256172D01*
X448211D01*
X447708Y255668D01*
X452242Y253150D02*
Y256172D01*
X450730Y254661D01*
X452745D01*
X419141Y295039D02*
X418637Y295542D01*
X417630D01*
X417126Y295039D01*
Y293023D01*
X417630Y292520D01*
X418637D01*
X419141Y293023D01*
X422164Y292520D02*
X420149D01*
X422164Y294535D01*
Y295039D01*
X421660Y295542D01*
X420652D01*
X420149Y295039D01*
X425186Y295542D02*
X423171D01*
Y294031D01*
X424179Y294535D01*
X424683D01*
X425186Y294031D01*
Y293023D01*
X424683Y292520D01*
X423675D01*
X423171Y293023D01*
X199062Y287558D02*
X198559Y288062D01*
X197551D01*
X197047Y287558D01*
Y285543D01*
X197551Y285039D01*
X198559D01*
X199062Y285543D01*
X200070Y287558D02*
X200574Y288062D01*
X201581D01*
X202085Y287558D01*
Y287054D01*
X201581Y286551D01*
X201077D01*
X201581D01*
X202085Y286047D01*
Y285543D01*
X201581Y285039D01*
X200574D01*
X200070Y285543D01*
X203093Y288062D02*
X205108D01*
Y287558D01*
X203093Y285543D01*
Y285039D01*
X178590Y341102D02*
X178086Y341605D01*
X177079D01*
X176575Y341102D01*
Y339086D01*
X177079Y338583D01*
X178086D01*
X178590Y339086D01*
X179597Y341102D02*
X180101Y341605D01*
X181109D01*
X181613Y341102D01*
Y340598D01*
X181109Y340094D01*
X180605D01*
X181109D01*
X181613Y339590D01*
Y339086D01*
X181109Y338583D01*
X180101D01*
X179597Y339086D01*
X182620Y341102D02*
X183124Y341605D01*
X184131D01*
X184635Y341102D01*
Y340598D01*
X184131Y340094D01*
X184635Y339590D01*
Y339086D01*
X184131Y338583D01*
X183124D01*
X182620Y339086D01*
Y339590D01*
X183124Y340094D01*
X182620Y340598D01*
Y341102D01*
X183124Y340094D02*
X184131D01*
X132133Y298976D02*
X131629Y299479D01*
X130622D01*
X130118Y298976D01*
Y296960D01*
X130622Y296457D01*
X131629D01*
X132133Y296960D01*
X134652Y296457D02*
Y299479D01*
X133141Y297968D01*
X135156D01*
X136163Y296457D02*
X137171D01*
X136667D01*
Y299479D01*
X136163Y298976D01*
X200434Y329574D02*
X199930Y329070D01*
Y328063D01*
X200434Y327559D01*
X202449D01*
X202953Y328063D01*
Y329070D01*
X202449Y329574D01*
X202953Y332093D02*
X199930D01*
X201441Y330582D01*
Y332597D01*
X202953Y335619D02*
Y333604D01*
X200938Y335619D01*
X200434D01*
X199930Y335116D01*
Y334108D01*
X200434Y333604D01*
Y315007D02*
X199930Y314503D01*
Y313496D01*
X200434Y312992D01*
X202449D01*
X202953Y313496D01*
Y314503D01*
X202449Y315007D01*
X200434Y316015D02*
X199930Y316518D01*
Y317526D01*
X200434Y318030D01*
X200938D01*
X201441Y317526D01*
Y317022D01*
Y317526D01*
X201945Y318030D01*
X202449D01*
X202953Y317526D01*
Y316518D01*
X202449Y316015D01*
Y319037D02*
X202953Y319541D01*
Y320549D01*
X202449Y321053D01*
X200434D01*
X199930Y320549D01*
Y319541D01*
X200434Y319037D01*
X200938D01*
X201441Y319541D01*
Y321053D01*
X163629Y267479D02*
X163126Y267983D01*
X162118D01*
X161614Y267479D01*
Y265464D01*
X162118Y264961D01*
X163126D01*
X163629Y265464D01*
X164637Y267479D02*
X165141Y267983D01*
X166148D01*
X166652Y267479D01*
Y266976D01*
X166148Y266472D01*
X165644D01*
X166148D01*
X166652Y265968D01*
Y265464D01*
X166148Y264961D01*
X165141D01*
X164637Y265464D01*
X169675Y267983D02*
X167659D01*
Y266472D01*
X168667Y266976D01*
X169171D01*
X169675Y266472D01*
Y265464D01*
X169171Y264961D01*
X168163D01*
X167659Y265464D01*
X133314Y266692D02*
X132810Y267196D01*
X131803D01*
X131299Y266692D01*
Y264677D01*
X131803Y264173D01*
X132810D01*
X133314Y264677D01*
X134322Y266692D02*
X134826Y267196D01*
X135833D01*
X136337Y266692D01*
Y266188D01*
X135833Y265685D01*
X135329D01*
X135833D01*
X136337Y265181D01*
Y264677D01*
X135833Y264173D01*
X134826D01*
X134322Y264677D01*
X139360Y264173D02*
X137345D01*
X139360Y266188D01*
Y266692D01*
X138856Y267196D01*
X137848D01*
X137345Y266692D01*
X133314Y271023D02*
X132810Y271527D01*
X131803D01*
X131299Y271023D01*
Y269008D01*
X131803Y268504D01*
X132810D01*
X133314Y269008D01*
X134322Y271023D02*
X134826Y271527D01*
X135833D01*
X136337Y271023D01*
Y270519D01*
X135833Y270015D01*
X135329D01*
X135833D01*
X136337Y269512D01*
Y269008D01*
X135833Y268504D01*
X134826D01*
X134322Y269008D01*
X137345Y271023D02*
X137848Y271527D01*
X138856D01*
X139360Y271023D01*
Y270519D01*
X138856Y270015D01*
X138352D01*
X138856D01*
X139360Y269512D01*
Y269008D01*
X138856Y268504D01*
X137848D01*
X137345Y269008D01*
X408702Y246897D02*
X408198Y246393D01*
Y245386D01*
X408702Y244882D01*
X410717D01*
X411221Y245386D01*
Y246393D01*
X410717Y246897D01*
X411221Y249920D02*
Y247904D01*
X409205Y249920D01*
X408702D01*
X408198Y249416D01*
Y248408D01*
X408702Y247904D01*
X408198Y252942D02*
X408702Y251935D01*
X409709Y250927D01*
X410717D01*
X411221Y251431D01*
Y252438D01*
X410717Y252942D01*
X410213D01*
X409709Y252438D01*
Y250927D01*
X440591Y246110D02*
X440088Y245606D01*
Y244598D01*
X440591Y244094D01*
X442606D01*
X443110Y244598D01*
Y245606D01*
X442606Y246110D01*
X443110Y249132D02*
Y247117D01*
X441095Y249132D01*
X440591D01*
X440088Y248628D01*
Y247621D01*
X440591Y247117D01*
X440088Y250140D02*
Y252155D01*
X440591D01*
X442606Y250140D01*
X443110D01*
X159299Y280472D02*
X158795Y280975D01*
X157787D01*
X157283Y280472D01*
Y278456D01*
X157787Y277953D01*
X158795D01*
X159299Y278456D01*
X161817Y277953D02*
Y280975D01*
X160306Y279464D01*
X162321D01*
X164840Y277953D02*
Y280975D01*
X163329Y279464D01*
X165344D01*
X158905Y286377D02*
X158401Y286881D01*
X157394D01*
X156890Y286377D01*
Y284362D01*
X157394Y283858D01*
X158401D01*
X158905Y284362D01*
X161424Y283858D02*
Y286881D01*
X159912Y285370D01*
X161927D01*
X164950Y286881D02*
X162935D01*
Y285370D01*
X163943Y285873D01*
X164446D01*
X164950Y285370D01*
Y284362D01*
X164446Y283858D01*
X163439D01*
X162935Y284362D01*
X505158Y322487D02*
X504655Y321984D01*
Y320976D01*
X505158Y320472D01*
X507173D01*
X507677Y320976D01*
Y321984D01*
X507173Y322487D01*
X507677Y325510D02*
Y323495D01*
X505662Y325510D01*
X505158D01*
X504655Y325006D01*
Y323999D01*
X505158Y323495D01*
Y326518D02*
X504655Y327022D01*
Y328029D01*
X505158Y328533D01*
X505662D01*
X506166Y328029D01*
X506670Y328533D01*
X507173D01*
X507677Y328029D01*
Y327022D01*
X507173Y326518D01*
X506670D01*
X506166Y327022D01*
X505662Y326518D01*
X505158D01*
X506166Y327022D02*
Y328029D01*
X124450Y329968D02*
X123946Y329464D01*
Y328456D01*
X124450Y327953D01*
X126465D01*
X126969Y328456D01*
Y329464D01*
X126465Y329968D01*
X126969Y332487D02*
X123946D01*
X125457Y330975D01*
Y332991D01*
X123946Y336013D02*
X124450Y335006D01*
X125457Y333998D01*
X126465D01*
X126969Y334502D01*
Y335509D01*
X126465Y336013D01*
X125961D01*
X125457Y335509D01*
Y333998D01*
X124450Y319732D02*
X123946Y319228D01*
Y318220D01*
X124450Y317717D01*
X126465D01*
X126969Y318220D01*
Y319228D01*
X126465Y319732D01*
X126969Y322251D02*
X123946D01*
X125457Y320739D01*
Y322754D01*
X123946Y323762D02*
Y325777D01*
X124450D01*
X126465Y323762D01*
X126969D01*
X362842Y284409D02*
X362338Y284912D01*
X361331D01*
X360827Y284409D01*
Y282394D01*
X361331Y281890D01*
X362338D01*
X362842Y282394D01*
X365864Y281890D02*
X363849D01*
X365864Y283905D01*
Y284409D01*
X365361Y284912D01*
X364353D01*
X363849Y284409D01*
X366872Y282394D02*
X367376Y281890D01*
X368383D01*
X368887Y282394D01*
Y284409D01*
X368383Y284912D01*
X367376D01*
X366872Y284409D01*
Y283905D01*
X367376Y283401D01*
X368887D01*
X353787Y326141D02*
X353283Y326645D01*
X352275D01*
X351772Y326141D01*
Y324126D01*
X352275Y323622D01*
X353283D01*
X353787Y324126D01*
X354794Y326141D02*
X355298Y326645D01*
X356306D01*
X356809Y326141D01*
Y325637D01*
X356306Y325133D01*
X355802D01*
X356306D01*
X356809Y324630D01*
Y324126D01*
X356306Y323622D01*
X355298D01*
X354794Y324126D01*
X357817Y326141D02*
X358321Y326645D01*
X359328D01*
X359832Y326141D01*
Y324126D01*
X359328Y323622D01*
X358321D01*
X357817Y324126D01*
Y326141D01*
X344732Y281653D02*
X344228Y282156D01*
X343220D01*
X342717Y281653D01*
Y279638D01*
X343220Y279134D01*
X344228D01*
X344732Y279638D01*
X345739Y281653D02*
X346243Y282156D01*
X347251D01*
X347754Y281653D01*
Y281149D01*
X347251Y280645D01*
X346747D01*
X347251D01*
X347754Y280141D01*
Y279638D01*
X347251Y279134D01*
X346243D01*
X345739Y279638D01*
X348762Y279134D02*
X349769D01*
X349266D01*
Y282156D01*
X348762Y281653D01*
X42323Y315227D02*
Y312205D01*
X43834D01*
X44338Y312708D01*
Y314724D01*
X43834Y315227D01*
X42323D01*
X45346Y312205D02*
X46353D01*
X45849D01*
Y315227D01*
X45346Y314724D01*
X24178Y54053D02*
X27200D01*
Y55564D01*
X26697Y56068D01*
X24682D01*
X24178Y55564D01*
Y54053D01*
X27200Y57076D02*
Y58083D01*
Y57579D01*
X24178D01*
X24682Y57076D01*
X27200Y61610D02*
Y59595D01*
X25185Y61610D01*
X24682D01*
X24178Y61106D01*
Y60098D01*
X24682Y59595D01*
X184055Y222904D02*
Y219882D01*
X185566D01*
X186070Y220386D01*
Y222401D01*
X185566Y222904D01*
X184055D01*
X189093D02*
X187078D01*
Y221393D01*
X188085Y221897D01*
X188589D01*
X189093Y221393D01*
Y220386D01*
X188589Y219882D01*
X187582D01*
X187078Y220386D01*
X384182Y318898D02*
X387205D01*
Y320409D01*
X386701Y320913D01*
X384686D01*
X384182Y320409D01*
Y318898D01*
X387205Y323935D02*
Y321920D01*
X385190Y323935D01*
X384686D01*
X384182Y323432D01*
Y322424D01*
X384686Y321920D01*
X184159Y345422D02*
X187182D01*
Y346933D01*
X186678Y347437D01*
X184663D01*
X184159Y346933D01*
Y345422D01*
Y348445D02*
X187182D01*
Y349956D01*
X186678Y350460D01*
X186174D01*
X185670Y349956D01*
Y348445D01*
Y349956D01*
X185167Y350460D01*
X184663D01*
X184159Y349956D01*
Y348445D01*
X184663Y353482D02*
X184159Y352978D01*
Y351971D01*
X184663Y351467D01*
X186678D01*
X187182Y351971D01*
Y352978D01*
X186678Y353482D01*
X185670D01*
Y352475D01*
X139567Y350660D02*
Y347638D01*
X141078D01*
X141582Y348142D01*
Y350157D01*
X141078Y350660D01*
X139567D01*
X144101Y347638D02*
Y350660D01*
X142590Y349149D01*
X144605D01*
X59379Y280709D02*
Y281716D01*
Y281212D01*
X62402D01*
Y280709D01*
Y281716D01*
X59883Y285243D02*
X59379Y284739D01*
Y283731D01*
X59883Y283227D01*
X61898D01*
X62402Y283731D01*
Y284739D01*
X61898Y285243D01*
X62402Y288265D02*
Y286250D01*
X60387Y288265D01*
X59883D01*
X59379Y287761D01*
Y286754D01*
X59883Y286250D01*
X60166Y238189D02*
Y239196D01*
Y238693D01*
X63189D01*
Y238189D01*
Y239196D01*
X60670Y242723D02*
X60166Y242219D01*
Y241212D01*
X60670Y240708D01*
X62685D01*
X63189Y241212D01*
Y242219D01*
X62685Y242723D01*
X63189Y245242D02*
X60166D01*
X61678Y243730D01*
Y245746D01*
X473425Y273101D02*
X474433D01*
X473929D01*
Y270079D01*
X473425D01*
X474433D01*
X477959Y272598D02*
X477455Y273101D01*
X476448D01*
X475944Y272598D01*
Y270583D01*
X476448Y270079D01*
X477455D01*
X477959Y270583D01*
X480982Y273101D02*
X478967D01*
Y271590D01*
X479974Y272094D01*
X480478D01*
X480982Y271590D01*
Y270583D01*
X480478Y270079D01*
X479470D01*
X478967Y270583D01*
X86544Y377212D02*
Y376204D01*
Y376708D01*
X89063D01*
X89567Y376204D01*
Y375701D01*
X89063Y375197D01*
X89567Y380235D02*
Y378220D01*
X87552Y380235D01*
X87048D01*
X86544Y379731D01*
Y378723D01*
X87048Y378220D01*
X16385Y40031D02*
X15378D01*
X15881D01*
Y37512D01*
X15378Y37008D01*
X14874D01*
X14370Y37512D01*
X17393D02*
X17897Y37008D01*
X18904D01*
X19408Y37512D01*
Y39527D01*
X18904Y40031D01*
X17897D01*
X17393Y39527D01*
Y39023D01*
X17897Y38519D01*
X19408D01*
X491976Y380975D02*
X490968D01*
X491472D01*
Y378456D01*
X490968Y377953D01*
X490464D01*
X489961Y378456D01*
X492983Y380472D02*
X493487Y380975D01*
X494495D01*
X494998Y380472D01*
Y379968D01*
X494495Y379464D01*
X493991D01*
X494495D01*
X494998Y378960D01*
Y378456D01*
X494495Y377953D01*
X493487D01*
X492983Y378456D01*
X209144Y254771D02*
Y253764D01*
Y254267D01*
X211663D01*
X212167Y253764D01*
Y253260D01*
X211663Y252756D01*
X212167Y255779D02*
Y256786D01*
Y256282D01*
X209144D01*
X209648Y255779D01*
X212167Y260313D02*
Y258297D01*
X210152Y260313D01*
X209648D01*
X209144Y259809D01*
Y258801D01*
X209648Y258297D01*
X156890Y276251D02*
Y273228D01*
X158905D01*
X159912D02*
X160920D01*
X160416D01*
Y276251D01*
X159912Y275747D01*
X162431Y273228D02*
X163439D01*
X162935D01*
Y276251D01*
X162431Y275747D01*
X54921Y293180D02*
Y290158D01*
X56936D01*
X57944D02*
X58951D01*
X58448D01*
Y293180D01*
X57944Y292676D01*
X38906Y248819D02*
X41929D01*
Y250834D01*
Y253353D02*
X38906D01*
X40418Y251841D01*
Y253857D01*
X86417Y216802D02*
Y213779D01*
X88432D01*
X91455Y216802D02*
X89440D01*
Y215291D01*
X90447Y215795D01*
X90951D01*
X91455Y215291D01*
Y214283D01*
X90951Y213779D01*
X89944D01*
X89440Y214283D01*
X401111Y340945D02*
X404134D01*
Y342960D01*
Y343968D02*
Y344975D01*
Y344471D01*
X401111D01*
X401615Y343968D01*
Y346486D02*
X401111Y346990D01*
Y347998D01*
X401615Y348501D01*
X403630D01*
X404134Y347998D01*
Y346990D01*
X403630Y346486D01*
X401615D01*
X179458Y360267D02*
X182480D01*
Y362282D01*
Y363290D02*
Y364297D01*
Y363793D01*
X179458D01*
X179961Y363290D01*
Y365809D02*
X179458Y366312D01*
Y367320D01*
X179961Y367824D01*
X180465D01*
X180969Y367320D01*
Y366816D01*
Y367320D01*
X181473Y367824D01*
X181976D01*
X182480Y367320D01*
Y366312D01*
X181976Y365809D01*
X417732Y96330D02*
Y93307D01*
X419747D01*
X422770Y96330D02*
X420755D01*
Y93307D01*
X422770D01*
X420755Y94818D02*
X421762D01*
X423777Y96330D02*
Y93307D01*
X425289D01*
X425792Y93811D01*
Y95826D01*
X425289Y96330D01*
X423777D01*
X426800Y93307D02*
X427807D01*
X427304D01*
Y96330D01*
X426800Y95826D01*
X416732Y110897D02*
Y107874D01*
X418747D01*
X421770Y110897D02*
X419755D01*
Y107874D01*
X421770D01*
X419755Y109385D02*
X420762D01*
X422778Y110897D02*
Y107874D01*
X424289D01*
X424793Y108378D01*
Y110393D01*
X424289Y110897D01*
X422778D01*
X427815Y107874D02*
X425800D01*
X427815Y109889D01*
Y110393D01*
X427312Y110897D01*
X426304D01*
X425800Y110393D01*
X416732Y124676D02*
Y121653D01*
X418747D01*
X421770Y124676D02*
X419755D01*
Y121653D01*
X421770D01*
X419755Y123165D02*
X420762D01*
X422778Y124676D02*
Y121653D01*
X424289D01*
X424793Y122157D01*
Y124172D01*
X424289Y124676D01*
X422778D01*
X425800Y124172D02*
X426304Y124676D01*
X427312D01*
X427815Y124172D01*
Y123669D01*
X427312Y123165D01*
X426808D01*
X427312D01*
X427815Y122661D01*
Y122157D01*
X427312Y121653D01*
X426304D01*
X425800Y122157D01*
X416732Y138456D02*
Y135433D01*
X418747D01*
X421770Y138456D02*
X419755D01*
Y135433D01*
X421770D01*
X419755Y136944D02*
X420762D01*
X422778Y138456D02*
Y135433D01*
X424289D01*
X424793Y135937D01*
Y137952D01*
X424289Y138456D01*
X422778D01*
X427312Y135433D02*
Y138456D01*
X425800Y136944D01*
X427815D01*
X416732Y151841D02*
Y148819D01*
X418747D01*
X421770Y151841D02*
X419755D01*
Y148819D01*
X421770D01*
X419755Y150330D02*
X420762D01*
X422778Y151841D02*
Y148819D01*
X424289D01*
X424793Y149323D01*
Y151338D01*
X424289Y151841D01*
X422778D01*
X427815D02*
X425800D01*
Y150330D01*
X426808Y150834D01*
X427312D01*
X427815Y150330D01*
Y149323D01*
X427312Y148819D01*
X426304D01*
X425800Y149323D01*
X416732Y166015D02*
Y162992D01*
X418747D01*
X421770Y166015D02*
X419755D01*
Y162992D01*
X421770D01*
X419755Y164503D02*
X420762D01*
X422778Y166015D02*
Y162992D01*
X424289D01*
X424793Y163496D01*
Y165511D01*
X424289Y166015D01*
X422778D01*
X427815D02*
X426808Y165511D01*
X425800Y164503D01*
Y163496D01*
X426304Y162992D01*
X427312D01*
X427815Y163496D01*
Y164000D01*
X427312Y164503D01*
X425800D01*
X416732Y179794D02*
Y176772D01*
X418747D01*
X421770Y179794D02*
X419755D01*
Y176772D01*
X421770D01*
X419755Y178283D02*
X420762D01*
X422778Y179794D02*
Y176772D01*
X424289D01*
X424793Y177275D01*
Y179290D01*
X424289Y179794D01*
X422778D01*
X425800D02*
X427815D01*
Y179290D01*
X425800Y177275D01*
Y176772D01*
X416732Y193574D02*
Y190551D01*
X418747D01*
X421770Y193574D02*
X419755D01*
Y190551D01*
X421770D01*
X419755Y192062D02*
X420762D01*
X422778Y193574D02*
Y190551D01*
X424289D01*
X424793Y191055D01*
Y193070D01*
X424289Y193574D01*
X422778D01*
X425800Y193070D02*
X426304Y193574D01*
X427312D01*
X427815Y193070D01*
Y192566D01*
X427312Y192062D01*
X427815Y191559D01*
Y191055D01*
X427312Y190551D01*
X426304D01*
X425800Y191055D01*
Y191559D01*
X426304Y192062D01*
X425800Y192566D01*
Y193070D01*
X426304Y192062D02*
X427312D01*
X85630Y311417D02*
Y314440D01*
X87141D01*
X87645Y313936D01*
Y312929D01*
X87141Y312425D01*
X85630D01*
X88653Y314440D02*
Y311417D01*
X89660Y312425D01*
X90668Y311417D01*
Y314440D01*
X91675Y311417D02*
Y314440D01*
X93186D01*
X93690Y313936D01*
Y312929D01*
X93186Y312425D01*
X91675D01*
X92683D02*
X93690Y311417D01*
X94698Y310913D02*
X96713D01*
X97720Y314440D02*
Y311417D01*
X99736D01*
X102758Y314440D02*
X100743D01*
Y311417D01*
X102758D01*
X100743Y312929D02*
X101751D01*
X103766Y314440D02*
Y311417D01*
X105277D01*
X105781Y311921D01*
Y313936D01*
X105277Y314440D01*
X103766D01*
X90401Y140661D02*
Y142676D01*
X89897Y143180D01*
X88890D01*
X88386Y142676D01*
Y140661D01*
X88890Y140157D01*
X89897D01*
X89393Y141165D02*
X90401Y140157D01*
X89897D02*
X90401Y140661D01*
X91408Y140157D02*
X92416D01*
X91912D01*
Y143180D01*
X91408Y142676D01*
X76575Y313386D02*
Y316408D01*
X78086D01*
X78590Y315905D01*
Y314897D01*
X78086Y314393D01*
X76575D01*
X77582D02*
X78590Y313386D01*
X79597D02*
X80605D01*
X80101D01*
Y316408D01*
X79597Y315905D01*
X119488Y272835D02*
Y275857D01*
X121000D01*
X121503Y275354D01*
Y274346D01*
X121000Y273842D01*
X119488D01*
X120496D02*
X121503Y272835D01*
X122511Y275354D02*
X123015Y275857D01*
X124022D01*
X124526Y275354D01*
Y274850D01*
X124022Y274346D01*
X123518D01*
X124022D01*
X124526Y273842D01*
Y273338D01*
X124022Y272835D01*
X123015D01*
X122511Y273338D01*
X87598Y300394D02*
Y303416D01*
X89110D01*
X89613Y302913D01*
Y301905D01*
X89110Y301401D01*
X87598D01*
X88606D02*
X89613Y300394D01*
X92132D02*
Y303416D01*
X90621Y301905D01*
X92636D01*
X73032Y294488D02*
Y297511D01*
X74543D01*
X75047Y297007D01*
Y296000D01*
X74543Y295496D01*
X73032D01*
X74039D02*
X75047Y294488D01*
X78069Y297511D02*
X76054D01*
Y296000D01*
X77062Y296503D01*
X77565D01*
X78069Y296000D01*
Y294992D01*
X77565Y294488D01*
X76558D01*
X76054Y294992D01*
X51772Y255512D02*
X48749D01*
Y257023D01*
X49253Y257527D01*
X50260D01*
X50764Y257023D01*
Y255512D01*
Y256519D02*
X51772Y257527D01*
X48749Y260549D02*
X49253Y259542D01*
X50260Y258535D01*
X51268D01*
X51772Y259038D01*
Y260046D01*
X51268Y260549D01*
X50764D01*
X50260Y260046D01*
Y258535D01*
X129331Y238583D02*
X126308D01*
Y240094D01*
X126812Y240598D01*
X127819D01*
X128323Y240094D01*
Y238583D01*
Y239590D02*
X129331Y240598D01*
X128827Y241605D02*
X129331Y242109D01*
Y243117D01*
X128827Y243620D01*
X126812D01*
X126308Y243117D01*
Y242109D01*
X126812Y241605D01*
X127316D01*
X127819Y242109D01*
Y243620D01*
X86811Y249606D02*
Y252629D01*
X88322D01*
X88826Y252125D01*
Y251118D01*
X88322Y250614D01*
X86811D01*
X87819D02*
X88826Y249606D01*
X89834D02*
X90841D01*
X90337D01*
Y252629D01*
X89834Y252125D01*
X92352Y249606D02*
X93360D01*
X92856D01*
Y252629D01*
X92352Y252125D01*
X78150Y251181D02*
X75127D01*
Y252692D01*
X75631Y253196D01*
X76638D01*
X77142Y252692D01*
Y251181D01*
Y252189D02*
X78150Y253196D01*
Y254204D02*
Y255211D01*
Y254708D01*
X75127D01*
X75631Y254204D01*
X78150Y258738D02*
Y256723D01*
X76135Y258738D01*
X75631D01*
X75127Y258234D01*
Y257226D01*
X75631Y256723D01*
X60039Y213386D02*
Y216408D01*
X61551D01*
X62055Y215905D01*
Y214897D01*
X61551Y214393D01*
X60039D01*
X61047D02*
X62055Y213386D01*
X63062D02*
X64070D01*
X63566D01*
Y216408D01*
X63062Y215905D01*
X65581D02*
X66085Y216408D01*
X67092D01*
X67596Y215905D01*
Y215401D01*
X67092Y214897D01*
X66588D01*
X67092D01*
X67596Y214393D01*
Y213890D01*
X67092Y213386D01*
X66085D01*
X65581Y213890D01*
X76575Y148031D02*
X73552D01*
Y149543D01*
X74056Y150047D01*
X75064D01*
X75567Y149543D01*
Y148031D01*
Y149039D02*
X76575Y150047D01*
Y151054D02*
Y152062D01*
Y151558D01*
X73552D01*
X74056Y151054D01*
Y153573D02*
X73552Y154077D01*
Y155084D01*
X74056Y155588D01*
X76071D01*
X76575Y155084D01*
Y154077D01*
X76071Y153573D01*
X74056D01*
X313189Y314567D02*
X310166D01*
Y316078D01*
X310670Y316582D01*
X311678D01*
X312181Y316078D01*
Y314567D01*
Y315575D02*
X313189Y316582D01*
X310166Y319605D02*
X310670Y318597D01*
X311678Y317590D01*
X312685D01*
X313189Y318093D01*
Y319101D01*
X312685Y319605D01*
X312181D01*
X311678Y319101D01*
Y317590D01*
X313189Y320612D02*
Y321620D01*
Y321116D01*
X310166D01*
X310670Y320612D01*
X217913Y313779D02*
X214891D01*
Y315291D01*
X215394Y315795D01*
X216402D01*
X216906Y315291D01*
Y313779D01*
Y314787D02*
X217913Y315795D01*
X214891Y318817D02*
X215394Y317810D01*
X216402Y316802D01*
X217410D01*
X217913Y317306D01*
Y318314D01*
X217410Y318817D01*
X216906D01*
X216402Y318314D01*
Y316802D01*
X215394Y319825D02*
X214891Y320329D01*
Y321336D01*
X215394Y321840D01*
X217410D01*
X217913Y321336D01*
Y320329D01*
X217410Y319825D01*
X215394D01*
X128543Y306693D02*
Y309716D01*
X130055D01*
X130558Y309212D01*
Y308204D01*
X130055Y307700D01*
X128543D01*
X129551D02*
X130558Y306693D01*
X131566Y309212D02*
X132070Y309716D01*
X133077D01*
X133581Y309212D01*
Y308708D01*
X133077Y308204D01*
X132573D01*
X133077D01*
X133581Y307700D01*
Y307197D01*
X133077Y306693D01*
X132070D01*
X131566Y307197D01*
X134589Y309212D02*
X135092Y309716D01*
X136100D01*
X136604Y309212D01*
Y308708D01*
X136100Y308204D01*
X136604Y307700D01*
Y307197D01*
X136100Y306693D01*
X135092D01*
X134589Y307197D01*
Y307700D01*
X135092Y308204D01*
X134589Y308708D01*
Y309212D01*
X135092Y308204D02*
X136100D01*
X321063Y268110D02*
Y271133D01*
X322574D01*
X323078Y270629D01*
Y269621D01*
X322574Y269118D01*
X321063D01*
X322071D02*
X323078Y268110D01*
X326101D02*
X324086D01*
X326101Y270125D01*
Y270629D01*
X325597Y271133D01*
X324589D01*
X324086Y270629D01*
X327108Y268614D02*
X327612Y268110D01*
X328620D01*
X329123Y268614D01*
Y270629D01*
X328620Y271133D01*
X327612D01*
X327108Y270629D01*
Y270125D01*
X327612Y269621D01*
X329123D01*
X22476Y86730D02*
X19453D01*
Y88241D01*
X19957Y88745D01*
X20965D01*
X21468Y88241D01*
Y86730D01*
Y87738D02*
X22476Y88745D01*
X19453Y91768D02*
X19957Y90760D01*
X20965Y89753D01*
X21972D01*
X22476Y90257D01*
Y91264D01*
X21972Y91768D01*
X21468D01*
X20965Y91264D01*
Y89753D01*
X22476Y94791D02*
Y92775D01*
X20461Y94791D01*
X19957D01*
X19453Y94287D01*
Y93279D01*
X19957Y92775D01*
X339665Y276378D02*
X336643D01*
Y277889D01*
X337146Y278393D01*
X338154D01*
X338658Y277889D01*
Y276378D01*
Y277385D02*
X339665Y278393D01*
X337146Y279401D02*
X336643Y279904D01*
Y280912D01*
X337146Y281416D01*
X337650D01*
X338154Y280912D01*
Y280408D01*
Y280912D01*
X338658Y281416D01*
X339162D01*
X339665Y280912D01*
Y279904D01*
X339162Y279401D01*
X337146Y282423D02*
X336643Y282927D01*
Y283934D01*
X337146Y284438D01*
X339162D01*
X339665Y283934D01*
Y282927D01*
X339162Y282423D01*
X337146D01*
X27200Y86730D02*
X24178D01*
Y88241D01*
X24682Y88745D01*
X25689D01*
X26193Y88241D01*
Y86730D01*
Y87738D02*
X27200Y88745D01*
X24178Y91768D02*
X24682Y90760D01*
X25689Y89753D01*
X26697D01*
X27200Y90257D01*
Y91264D01*
X26697Y91768D01*
X26193D01*
X25689Y91264D01*
Y89753D01*
X24682Y92775D02*
X24178Y93279D01*
Y94287D01*
X24682Y94791D01*
X25185D01*
X25689Y94287D01*
Y93783D01*
Y94287D01*
X26193Y94791D01*
X26697D01*
X27200Y94287D01*
Y93279D01*
X26697Y92775D01*
X31925Y86730D02*
X28902D01*
Y88241D01*
X29406Y88745D01*
X30414D01*
X30917Y88241D01*
Y86730D01*
Y87738D02*
X31925Y88745D01*
X28902Y91768D02*
X29406Y90760D01*
X30414Y89753D01*
X31421D01*
X31925Y90257D01*
Y91264D01*
X31421Y91768D01*
X30917D01*
X30414Y91264D01*
Y89753D01*
X31925Y94287D02*
X28902D01*
X30414Y92775D01*
Y94791D01*
X36649Y86730D02*
X33627D01*
Y88241D01*
X34130Y88745D01*
X35138D01*
X35642Y88241D01*
Y86730D01*
Y87738D02*
X36649Y88745D01*
X33627Y91768D02*
X34130Y90760D01*
X35138Y89753D01*
X36145D01*
X36649Y90257D01*
Y91264D01*
X36145Y91768D01*
X35642D01*
X35138Y91264D01*
Y89753D01*
X33627Y94791D02*
Y92775D01*
X35138D01*
X34634Y93783D01*
Y94287D01*
X35138Y94791D01*
X36145D01*
X36649Y94287D01*
Y93279D01*
X36145Y92775D01*
X41374Y86730D02*
X38351D01*
Y88241D01*
X38855Y88745D01*
X39862D01*
X40366Y88241D01*
Y86730D01*
Y87738D02*
X41374Y88745D01*
X38351Y91768D02*
X38855Y90760D01*
X39862Y89753D01*
X40870D01*
X41374Y90257D01*
Y91264D01*
X40870Y91768D01*
X40366D01*
X39862Y91264D01*
Y89753D01*
X38351Y94791D02*
X38855Y93783D01*
X39862Y92775D01*
X40870D01*
X41374Y93279D01*
Y94287D01*
X40870Y94791D01*
X40366D01*
X39862Y94287D01*
Y92775D01*
X46492Y86730D02*
X43469D01*
Y88241D01*
X43973Y88745D01*
X44980D01*
X45484Y88241D01*
Y86730D01*
Y87738D02*
X46492Y88745D01*
X43469Y91768D02*
X43973Y90760D01*
X44980Y89753D01*
X45988D01*
X46492Y90257D01*
Y91264D01*
X45988Y91768D01*
X45484D01*
X44980Y91264D01*
Y89753D01*
X43469Y92775D02*
Y94791D01*
X43973D01*
X45988Y92775D01*
X46492D01*
X51610Y86730D02*
X48587D01*
Y88241D01*
X49091Y88745D01*
X50099D01*
X50602Y88241D01*
Y86730D01*
Y87738D02*
X51610Y88745D01*
X48587Y91768D02*
X49091Y90760D01*
X50099Y89753D01*
X51106D01*
X51610Y90257D01*
Y91264D01*
X51106Y91768D01*
X50602D01*
X50099Y91264D01*
Y89753D01*
X49091Y92775D02*
X48587Y93279D01*
Y94287D01*
X49091Y94791D01*
X49595D01*
X50099Y94287D01*
X50602Y94791D01*
X51106D01*
X51610Y94287D01*
Y93279D01*
X51106Y92775D01*
X50602D01*
X50099Y93279D01*
X49595Y92775D01*
X49091D01*
X50099Y93279D02*
Y94287D01*
X404921Y288189D02*
Y291212D01*
X406433D01*
X406936Y290708D01*
Y289700D01*
X406433Y289196D01*
X404921D01*
X405929D02*
X406936Y288189D01*
X407944D02*
X408952D01*
X408448D01*
Y291212D01*
X407944Y290708D01*
X412478Y291212D02*
X410463D01*
Y289700D01*
X411470Y290204D01*
X411974D01*
X412478Y289700D01*
Y288693D01*
X411974Y288189D01*
X410966D01*
X410463Y288693D01*
X400591Y250394D02*
X397568D01*
Y251905D01*
X398072Y252409D01*
X399079D01*
X399583Y251905D01*
Y250394D01*
Y251401D02*
X400591Y252409D01*
Y253416D02*
Y254424D01*
Y253920D01*
X397568D01*
X398072Y253416D01*
X397568Y257950D02*
X398072Y256943D01*
X399079Y255935D01*
X400087D01*
X400591Y256439D01*
Y257447D01*
X400087Y257950D01*
X399583D01*
X399079Y257447D01*
Y255935D01*
X454528Y253150D02*
Y256172D01*
X456039D01*
X456543Y255668D01*
Y254661D01*
X456039Y254157D01*
X454528D01*
X455535D02*
X456543Y253150D01*
X457550D02*
X458558D01*
X458054D01*
Y256172D01*
X457550Y255668D01*
X460069Y256172D02*
X462084D01*
Y255668D01*
X460069Y253653D01*
Y253150D01*
X404921Y297638D02*
Y300660D01*
X406433D01*
X406936Y300157D01*
Y299149D01*
X406433Y298645D01*
X404921D01*
X405929D02*
X406936Y297638D01*
X407944D02*
X408952D01*
X408448D01*
Y300660D01*
X407944Y300157D01*
X410463D02*
X410966Y300660D01*
X411974D01*
X412478Y300157D01*
Y299653D01*
X411974Y299149D01*
X412478Y298645D01*
Y298142D01*
X411974Y297638D01*
X410966D01*
X410463Y298142D01*
Y298645D01*
X410966Y299149D01*
X410463Y299653D01*
Y300157D01*
X410966Y299149D02*
X411974D01*
X404921Y292913D02*
Y295936D01*
X406433D01*
X406936Y295432D01*
Y294425D01*
X406433Y293921D01*
X404921D01*
X405929D02*
X406936Y292913D01*
X407944D02*
X408952D01*
X408448D01*
Y295936D01*
X407944Y295432D01*
X410463Y293417D02*
X410966Y292913D01*
X411974D01*
X412478Y293417D01*
Y295432D01*
X411974Y295936D01*
X410966D01*
X410463Y295432D01*
Y294929D01*
X410966Y294425D01*
X412478D01*
X327756Y294882D02*
X324733D01*
Y296393D01*
X325237Y296897D01*
X326245D01*
X326748Y296393D01*
Y294882D01*
Y295889D02*
X327756Y296897D01*
Y299920D02*
Y297904D01*
X325741Y299920D01*
X325237D01*
X324733Y299416D01*
Y298408D01*
X325237Y297904D01*
X324733Y300927D02*
Y302942D01*
X325237D01*
X327252Y300927D01*
X327756D01*
X170276Y280315D02*
X167253D01*
Y281826D01*
X167757Y282330D01*
X168764D01*
X169268Y281826D01*
Y280315D01*
Y281323D02*
X170276Y282330D01*
X167757Y283338D02*
X167253Y283841D01*
Y284849D01*
X167757Y285353D01*
X168261D01*
X168764Y284849D01*
Y284345D01*
Y284849D01*
X169268Y285353D01*
X169772D01*
X170276Y284849D01*
Y283841D01*
X169772Y283338D01*
X170276Y288375D02*
Y286360D01*
X168261Y288375D01*
X167757D01*
X167253Y287872D01*
Y286864D01*
X167757Y286360D01*
X174606Y280315D02*
X171584D01*
Y281826D01*
X172087Y282330D01*
X173095D01*
X173599Y281826D01*
Y280315D01*
Y281323D02*
X174606Y282330D01*
X172087Y283338D02*
X171584Y283841D01*
Y284849D01*
X172087Y285353D01*
X172591D01*
X173095Y284849D01*
Y284345D01*
Y284849D01*
X173599Y285353D01*
X174102D01*
X174606Y284849D01*
Y283841D01*
X174102Y283338D01*
X172087Y286360D02*
X171584Y286864D01*
Y287872D01*
X172087Y288375D01*
X172591D01*
X173095Y287872D01*
Y287368D01*
Y287872D01*
X173599Y288375D01*
X174102D01*
X174606Y287872D01*
Y286864D01*
X174102Y286360D01*
X178937Y280315D02*
X175914D01*
Y281826D01*
X176418Y282330D01*
X177426D01*
X177929Y281826D01*
Y280315D01*
Y281323D02*
X178937Y282330D01*
X176418Y283338D02*
X175914Y283841D01*
Y284849D01*
X176418Y285353D01*
X176922D01*
X177426Y284849D01*
Y284345D01*
Y284849D01*
X177929Y285353D01*
X178433D01*
X178937Y284849D01*
Y283841D01*
X178433Y283338D01*
X178937Y287872D02*
X175914D01*
X177426Y286360D01*
Y288375D01*
X183268Y280315D02*
X180245D01*
Y281826D01*
X180749Y282330D01*
X181756D01*
X182260Y281826D01*
Y280315D01*
Y281323D02*
X183268Y282330D01*
X180749Y283338D02*
X180245Y283841D01*
Y284849D01*
X180749Y285353D01*
X181253D01*
X181756Y284849D01*
Y284345D01*
Y284849D01*
X182260Y285353D01*
X182764D01*
X183268Y284849D01*
Y283841D01*
X182764Y283338D01*
X180245Y288375D02*
Y286360D01*
X181756D01*
X181253Y287368D01*
Y287872D01*
X181756Y288375D01*
X182764D01*
X183268Y287872D01*
Y286864D01*
X182764Y286360D01*
X187598Y280315D02*
X184576D01*
Y281826D01*
X185080Y282330D01*
X186087D01*
X186591Y281826D01*
Y280315D01*
Y281323D02*
X187598Y282330D01*
X185080Y283338D02*
X184576Y283841D01*
Y284849D01*
X185080Y285353D01*
X185583D01*
X186087Y284849D01*
Y284345D01*
Y284849D01*
X186591Y285353D01*
X187095D01*
X187598Y284849D01*
Y283841D01*
X187095Y283338D01*
X184576Y288375D02*
X185080Y287368D01*
X186087Y286360D01*
X187095D01*
X187598Y286864D01*
Y287872D01*
X187095Y288375D01*
X186591D01*
X186087Y287872D01*
Y286360D01*
X232009Y137008D02*
X228986D01*
Y138519D01*
X229490Y139023D01*
X230498D01*
X231001Y138519D01*
Y137008D01*
Y138015D02*
X232009Y139023D01*
X229490Y140031D02*
X228986Y140534D01*
Y141542D01*
X229490Y142046D01*
X229994D01*
X230498Y141542D01*
Y141038D01*
Y141542D01*
X231001Y142046D01*
X231505D01*
X232009Y141542D01*
Y140534D01*
X231505Y140031D01*
Y143053D02*
X232009Y143557D01*
Y144564D01*
X231505Y145068D01*
X229490D01*
X228986Y144564D01*
Y143557D01*
X229490Y143053D01*
X229994D01*
X230498Y143557D01*
Y145068D01*
X202953Y137008D02*
X199930D01*
Y138519D01*
X200434Y139023D01*
X201441D01*
X201945Y138519D01*
Y137008D01*
Y138015D02*
X202953Y139023D01*
Y141542D02*
X199930D01*
X201441Y140031D01*
Y142046D01*
X200434Y143053D02*
X199930Y143557D01*
Y144564D01*
X200434Y145068D01*
X202449D01*
X202953Y144564D01*
Y143557D01*
X202449Y143053D01*
X200434D01*
X236417Y137008D02*
X233395D01*
Y138519D01*
X233898Y139023D01*
X234906D01*
X235410Y138519D01*
Y137008D01*
Y138015D02*
X236417Y139023D01*
Y141542D02*
X233395D01*
X234906Y140031D01*
Y142046D01*
X233898Y143053D02*
X233395Y143557D01*
Y144564D01*
X233898Y145068D01*
X234402D01*
X234906Y144564D01*
Y144061D01*
Y144564D01*
X235410Y145068D01*
X235913D01*
X236417Y144564D01*
Y143557D01*
X235913Y143053D01*
X207677Y137008D02*
X204655D01*
Y138519D01*
X205158Y139023D01*
X206166D01*
X206670Y138519D01*
Y137008D01*
Y138015D02*
X207677Y139023D01*
Y141542D02*
X204655D01*
X206166Y140031D01*
Y142046D01*
X207677Y144564D02*
X204655D01*
X206166Y143053D01*
Y145068D01*
X241142Y137008D02*
X238119D01*
Y138519D01*
X238623Y139023D01*
X239630D01*
X240134Y138519D01*
Y137008D01*
Y138015D02*
X241142Y139023D01*
Y141542D02*
X238119D01*
X239630Y140031D01*
Y142046D01*
X238119Y145068D02*
Y143053D01*
X239630D01*
X239127Y144061D01*
Y144564D01*
X239630Y145068D01*
X240638D01*
X241142Y144564D01*
Y143557D01*
X240638Y143053D01*
X212402Y137008D02*
X209379D01*
Y138519D01*
X209883Y139023D01*
X210890D01*
X211394Y138519D01*
Y137008D01*
Y138015D02*
X212402Y139023D01*
Y141542D02*
X209379D01*
X210890Y140031D01*
Y142046D01*
X209379Y145068D02*
X209883Y144061D01*
X210890Y143053D01*
X211898D01*
X212402Y143557D01*
Y144564D01*
X211898Y145068D01*
X211394D01*
X210890Y144564D01*
Y143053D01*
X246260Y137008D02*
X243237D01*
Y138519D01*
X243741Y139023D01*
X244748D01*
X245252Y138519D01*
Y137008D01*
Y138015D02*
X246260Y139023D01*
Y141542D02*
X243237D01*
X244748Y140031D01*
Y142046D01*
X245756Y143053D02*
X246260Y143557D01*
Y144564D01*
X245756Y145068D01*
X243741D01*
X243237Y144564D01*
Y143557D01*
X243741Y143053D01*
X244245D01*
X244748Y143557D01*
Y145068D01*
X523032Y82284D02*
X520009D01*
Y83795D01*
X520513Y84299D01*
X521520D01*
X522024Y83795D01*
Y82284D01*
Y83291D02*
X523032Y84299D01*
X520009Y85306D02*
Y87321D01*
X520513D01*
X522528Y85306D01*
X523032D01*
X522528Y88329D02*
X523032Y88832D01*
Y89840D01*
X522528Y90344D01*
X520513D01*
X520009Y89840D01*
Y88832D01*
X520513Y88329D01*
X521016D01*
X521520Y88832D01*
Y90344D01*
X522638Y224803D02*
X519615D01*
Y226314D01*
X520119Y226818D01*
X521127D01*
X521630Y226314D01*
Y224803D01*
Y225811D02*
X522638Y226818D01*
X519615Y229841D02*
Y227826D01*
X521127D01*
X520623Y228833D01*
Y229337D01*
X521127Y229841D01*
X522134D01*
X522638Y229337D01*
Y228330D01*
X522134Y227826D01*
X522638Y232863D02*
Y230848D01*
X520623Y232863D01*
X520119D01*
X519615Y232360D01*
Y231352D01*
X520119Y230848D01*
X523032Y129921D02*
X520009D01*
Y131433D01*
X520513Y131936D01*
X521520D01*
X522024Y131433D01*
Y129921D01*
Y130929D02*
X523032Y131936D01*
X520009Y134959D02*
Y132944D01*
X521520D01*
X521016Y133951D01*
Y134455D01*
X521520Y134959D01*
X522528D01*
X523032Y134455D01*
Y133448D01*
X522528Y132944D01*
X520513Y135967D02*
X520009Y136470D01*
Y137478D01*
X520513Y137982D01*
X521016D01*
X521520Y137478D01*
Y136974D01*
Y137478D01*
X522024Y137982D01*
X522528D01*
X523032Y137478D01*
Y136470D01*
X522528Y135967D01*
X523032Y177165D02*
X520009D01*
Y178677D01*
X520513Y179180D01*
X521520D01*
X522024Y178677D01*
Y177165D01*
Y178173D02*
X523032Y179180D01*
X520009Y182203D02*
Y180188D01*
X521520D01*
X521016Y181195D01*
Y181699D01*
X521520Y182203D01*
X522528D01*
X523032Y181699D01*
Y180692D01*
X522528Y180188D01*
X523032Y184722D02*
X520009D01*
X521520Y183211D01*
Y185226D01*
X523032Y94095D02*
X520009D01*
Y95606D01*
X520513Y96110D01*
X521520D01*
X522024Y95606D01*
Y94095D01*
Y95102D02*
X523032Y96110D01*
X520009Y99132D02*
Y97117D01*
X521520D01*
X521016Y98125D01*
Y98628D01*
X521520Y99132D01*
X522528D01*
X523032Y98628D01*
Y97621D01*
X522528Y97117D01*
X520009Y102155D02*
Y100140D01*
X521520D01*
X521016Y101147D01*
Y101651D01*
X521520Y102155D01*
X522528D01*
X523032Y101651D01*
Y100644D01*
X522528Y100140D01*
X522638Y235039D02*
X519615D01*
Y236551D01*
X520119Y237054D01*
X521127D01*
X521630Y236551D01*
Y235039D01*
Y236047D02*
X522638Y237054D01*
X519615Y240077D02*
Y238062D01*
X521127D01*
X520623Y239070D01*
Y239573D01*
X521127Y240077D01*
X522134D01*
X522638Y239573D01*
Y238566D01*
X522134Y238062D01*
X519615Y243100D02*
X520119Y242092D01*
X521127Y241085D01*
X522134D01*
X522638Y241588D01*
Y242596D01*
X522134Y243100D01*
X521630D01*
X521127Y242596D01*
Y241085D01*
X523032Y140551D02*
X520009D01*
Y142062D01*
X520513Y142566D01*
X521520D01*
X522024Y142062D01*
Y140551D01*
Y141559D02*
X523032Y142566D01*
X520009Y145589D02*
Y143574D01*
X521520D01*
X521016Y144581D01*
Y145085D01*
X521520Y145589D01*
X522528D01*
X523032Y145085D01*
Y144078D01*
X522528Y143574D01*
X520009Y146597D02*
Y148612D01*
X520513D01*
X522528Y146597D01*
X523032D01*
Y187402D02*
X520009D01*
Y188913D01*
X520513Y189417D01*
X521520D01*
X522024Y188913D01*
Y187402D01*
Y188409D02*
X523032Y189417D01*
X520009Y192439D02*
Y190424D01*
X521520D01*
X521016Y191432D01*
Y191936D01*
X521520Y192439D01*
X522528D01*
X523032Y191936D01*
Y190928D01*
X522528Y190424D01*
X520513Y193447D02*
X520009Y193951D01*
Y194958D01*
X520513Y195462D01*
X521016D01*
X521520Y194958D01*
X522024Y195462D01*
X522528D01*
X523032Y194958D01*
Y193951D01*
X522528Y193447D01*
X522024D01*
X521520Y193951D01*
X521016Y193447D01*
X520513D01*
X521520Y193951D02*
Y194958D01*
X315204Y283968D02*
Y285983D01*
X314700Y286487D01*
X313693D01*
X313189Y285983D01*
Y283968D01*
X313693Y283465D01*
X314700D01*
X314196Y284472D02*
X315204Y283465D01*
X314700D02*
X315204Y283968D01*
X316212Y285983D02*
X316715Y286487D01*
X317723D01*
X318227Y285983D01*
Y285480D01*
X317723Y284976D01*
X317219D01*
X317723D01*
X318227Y284472D01*
Y283968D01*
X317723Y283465D01*
X316715D01*
X316212Y283968D01*
X301818Y381369D02*
X300811D01*
X301314D01*
Y378850D01*
X300811Y378346D01*
X300307D01*
X299803Y378850D01*
X302826Y378346D02*
X303833D01*
X303330D01*
Y381369D01*
X302826Y380865D01*
X305345D02*
X305848Y381369D01*
X306856D01*
X307360Y380865D01*
Y378850D01*
X306856Y378346D01*
X305848D01*
X305345Y378850D01*
Y380865D01*
X265788Y240598D02*
X265284Y240094D01*
Y239086D01*
X265788Y238583D01*
X266292D01*
X266796Y239086D01*
Y240094D01*
X267300Y240598D01*
X267803D01*
X268307Y240094D01*
Y239086D01*
X267803Y238583D01*
X265284Y241605D02*
X268307D01*
X267300Y242613D01*
X268307Y243620D01*
X265284D01*
Y246643D02*
Y244628D01*
X266796D01*
X266292Y245636D01*
Y246139D01*
X266796Y246643D01*
X267803D01*
X268307Y246139D01*
Y245132D01*
X267803Y244628D01*
X476046Y78109D02*
X475542Y78613D01*
X474535D01*
X474031Y78109D01*
Y77606D01*
X474535Y77102D01*
X475542D01*
X476046Y76598D01*
Y76094D01*
X475542Y75590D01*
X474535D01*
X474031Y76094D01*
X477054Y78613D02*
Y75590D01*
X478061Y76598D01*
X479069Y75590D01*
Y78613D01*
X480077Y75590D02*
X481084D01*
X480580D01*
Y78613D01*
X480077Y78109D01*
X475047Y221023D02*
X474543Y221527D01*
X473535D01*
X473032Y221023D01*
Y220519D01*
X473535Y220015D01*
X474543D01*
X475047Y219512D01*
Y219008D01*
X474543Y218504D01*
X473535D01*
X473032Y219008D01*
X476054Y221527D02*
Y218504D01*
X477062Y219512D01*
X478069Y218504D01*
Y221527D01*
X480588Y218504D02*
Y221527D01*
X479077Y220015D01*
X481092D01*
X475047Y125354D02*
X474543Y125857D01*
X473535D01*
X473032Y125354D01*
Y124850D01*
X473535Y124346D01*
X474543D01*
X475047Y123842D01*
Y123338D01*
X474543Y122835D01*
X473535D01*
X473032Y123338D01*
X476054Y125857D02*
Y122835D01*
X477062Y123842D01*
X478069Y122835D01*
Y125857D01*
X481092Y122835D02*
X479077D01*
X481092Y124850D01*
Y125354D01*
X480588Y125857D01*
X479581D01*
X479077Y125354D01*
X475047Y172598D02*
X474543Y173101D01*
X473535D01*
X473032Y172598D01*
Y172094D01*
X473535Y171590D01*
X474543D01*
X475047Y171086D01*
Y170582D01*
X474543Y170079D01*
X473535D01*
X473032Y170582D01*
X476054Y173101D02*
Y170079D01*
X477062Y171086D01*
X478069Y170079D01*
Y173101D01*
X479077Y172598D02*
X479581Y173101D01*
X480588D01*
X481092Y172598D01*
Y172094D01*
X480588Y171590D01*
X480084D01*
X480588D01*
X481092Y171086D01*
Y170582D01*
X480588Y170079D01*
X479581D01*
X479077Y170582D01*
X437205Y284519D02*
X438212D01*
X437709D01*
Y281496D01*
X437205D01*
X438212D01*
X441739Y284015D02*
X441235Y284519D01*
X440227D01*
X439724Y284015D01*
Y282000D01*
X440227Y281496D01*
X441235D01*
X441739Y282000D01*
X444761Y284519D02*
X443754Y284015D01*
X442746Y283007D01*
Y282000D01*
X443250Y281496D01*
X444258D01*
X444761Y282000D01*
Y282504D01*
X444258Y283007D01*
X442746D01*
X217520Y137008D02*
X214497D01*
Y138519D01*
X215001Y139023D01*
X216008D01*
X216512Y138519D01*
Y137008D01*
Y138015D02*
X217520Y139023D01*
X214497Y142046D02*
Y140031D01*
X216008D01*
X215505Y141038D01*
Y141542D01*
X216008Y142046D01*
X217016D01*
X217520Y141542D01*
Y140534D01*
X217016Y140031D01*
X215001Y143053D02*
X214497Y143557D01*
Y144564D01*
X215001Y145068D01*
X217016D01*
X217520Y144564D01*
Y143557D01*
X217016Y143053D01*
X215001D01*
X78984Y67426D02*
X78480Y67930D01*
X77472D01*
X76968Y67426D01*
Y65411D01*
X77472Y64907D01*
X78480D01*
X78984Y65411D01*
Y66419D01*
X77976D01*
X79991Y64907D02*
Y67930D01*
X82006Y64907D01*
Y67930D01*
X83014D02*
Y64907D01*
X84525D01*
X85029Y65411D01*
Y67426D01*
X84525Y67930D01*
X83014D01*
X174627Y349233D02*
X171604D01*
Y350744D01*
X172108Y351248D01*
X173115D01*
X173619Y350744D01*
Y349233D01*
Y350240D02*
X174627Y351248D01*
X172108Y352255D02*
X171604Y352759D01*
Y353767D01*
X172108Y354270D01*
X172612D01*
X173115Y353767D01*
Y353263D01*
Y353767D01*
X173619Y354270D01*
X174123D01*
X174627Y353767D01*
Y352759D01*
X174123Y352255D01*
X174627Y355278D02*
Y356286D01*
Y355782D01*
X171604D01*
X172108Y355278D01*
X312639Y240991D02*
X312135Y240488D01*
Y239480D01*
X312639Y238976D01*
X313142D01*
X313646Y239480D01*
Y240488D01*
X314150Y240991D01*
X314654D01*
X315158Y240488D01*
Y239480D01*
X314654Y238976D01*
X312135Y241999D02*
X315158D01*
X314150Y243007D01*
X315158Y244014D01*
X312135D01*
Y247037D02*
X312639Y246029D01*
X313646Y245022D01*
X314654D01*
X315158Y245525D01*
Y246533D01*
X314654Y247037D01*
X314150D01*
X313646Y246533D01*
Y245022D01*
X100040Y108314D02*
X99536Y107810D01*
Y106803D01*
X100040Y106299D01*
X102055D01*
X102559Y106803D01*
Y107810D01*
X102055Y108314D01*
X102559Y109322D02*
Y110329D01*
Y109826D01*
X99536D01*
X100040Y109322D01*
X72481Y119338D02*
X71977Y118834D01*
Y117827D01*
X72481Y117323D01*
X74496D01*
X75000Y117827D01*
Y118834D01*
X74496Y119338D01*
X75000Y122361D02*
Y120345D01*
X72985Y122361D01*
X72481D01*
X71977Y121857D01*
Y120849D01*
X72481Y120345D01*
X192369Y340708D02*
X191866Y341212D01*
X190858D01*
X190354Y340708D01*
Y338693D01*
X190858Y338189D01*
X191866D01*
X192369Y338693D01*
X193377Y340708D02*
X193881Y341212D01*
X194888D01*
X195392Y340708D01*
Y340204D01*
X194888Y339700D01*
X194385D01*
X194888D01*
X195392Y339196D01*
Y338693D01*
X194888Y338189D01*
X193881D01*
X193377Y338693D01*
X197911Y338189D02*
Y341212D01*
X196400Y339700D01*
X198415D01*
X78150Y120739D02*
X79157D01*
X78653D01*
Y117717D01*
X78150D01*
X79157D01*
X82684Y120235D02*
X82180Y120739D01*
X81172D01*
X80668Y120235D01*
Y118220D01*
X81172Y117717D01*
X82180D01*
X82684Y118220D01*
X83691Y117717D02*
X84699D01*
X84195D01*
Y120739D01*
X83691Y120235D01*
X47441Y100394D02*
Y103416D01*
X48952D01*
X49456Y102913D01*
Y101905D01*
X48952Y101401D01*
X47441D01*
X48449D02*
X49456Y100394D01*
X52479D02*
X50464D01*
X52479Y102409D01*
Y102913D01*
X51975Y103416D01*
X50967D01*
X50464Y102913D01*
X316779Y6172D02*
X315771D01*
X316275D01*
Y3653D01*
X315771Y3150D01*
X315267D01*
X314764Y3653D01*
X319801Y6172D02*
X318794Y5669D01*
X317786Y4661D01*
Y3653D01*
X318290Y3150D01*
X319298D01*
X319801Y3653D01*
Y4157D01*
X319298Y4661D01*
X317786D01*
X323425Y41212D02*
Y38189D01*
X324937D01*
X325440Y38693D01*
Y40708D01*
X324937Y41212D01*
X323425D01*
X326448D02*
X328463D01*
Y40708D01*
X326448Y38693D01*
Y38189D01*
X358465Y41212D02*
Y38189D01*
X359976D01*
X360480Y38693D01*
Y40708D01*
X359976Y41212D01*
X358465D01*
X361487Y38693D02*
X361991Y38189D01*
X362999D01*
X363502Y38693D01*
Y40708D01*
X362999Y41212D01*
X361991D01*
X361487Y40708D01*
Y40204D01*
X361991Y39700D01*
X363502D01*
X415551Y41212D02*
Y38189D01*
X417063D01*
X417566Y38693D01*
Y40708D01*
X417063Y41212D01*
X415551D01*
X418574Y38189D02*
X419581D01*
X419078D01*
Y41212D01*
X418574Y40708D01*
X421093D02*
X421596Y41212D01*
X422604D01*
X423108Y40708D01*
Y38693D01*
X422604Y38189D01*
X421596D01*
X421093Y38693D01*
Y40708D01*
X452165Y41212D02*
Y38189D01*
X453677D01*
X454180Y38693D01*
Y40708D01*
X453677Y41212D01*
X452165D01*
X455188Y38189D02*
X456196D01*
X455692D01*
Y41212D01*
X455188Y40708D01*
X457707Y38189D02*
X458714D01*
X458211D01*
Y41212D01*
X457707Y40708D01*
X405755Y6172D02*
X404748D01*
X405252D01*
Y3653D01*
X404748Y3150D01*
X404244D01*
X403740Y3653D01*
X406763Y6172D02*
X408778D01*
Y5669D01*
X406763Y3653D01*
Y3150D01*
X228543Y279528D02*
Y282550D01*
X230055D01*
X230558Y282046D01*
Y281039D01*
X230055Y280535D01*
X228543D01*
X229551D02*
X230558Y279528D01*
X231566D02*
X232574D01*
X232070D01*
Y282550D01*
X231566Y282046D01*
X235596Y279528D02*
Y282550D01*
X234085Y281039D01*
X236100D01*
X418307Y303416D02*
Y300394D01*
X420322D01*
X421330Y300898D02*
X421834Y300394D01*
X422841D01*
X423345Y300898D01*
Y302913D01*
X422841Y303416D01*
X421834D01*
X421330Y302913D01*
Y302409D01*
X421834Y301905D01*
X423345D01*
X142056Y337008D02*
X145079D01*
Y339023D01*
Y340031D02*
Y341038D01*
Y340534D01*
X142056D01*
X142560Y340031D01*
X145079Y344061D02*
X142056D01*
X143567Y342549D01*
Y344565D01*
X189804Y283118D02*
X189300Y282614D01*
Y281606D01*
X189804Y281102D01*
X191819D01*
X192323Y281606D01*
Y282614D01*
X191819Y283118D01*
X189300Y286140D02*
Y284125D01*
X190812D01*
X190308Y285133D01*
Y285636D01*
X190812Y286140D01*
X191819D01*
X192323Y285636D01*
Y284629D01*
X191819Y284125D01*
X192323Y287148D02*
Y288155D01*
Y287651D01*
X189300D01*
X189804Y287148D01*
X131693Y262472D02*
Y259449D01*
X133708D01*
X134716D02*
X135723D01*
X135219D01*
Y262472D01*
X134716Y261968D01*
X139250Y262472D02*
X137234D01*
Y260960D01*
X138242Y261464D01*
X138746D01*
X139250Y260960D01*
Y259953D01*
X138746Y259449D01*
X137738D01*
X137234Y259953D01*
X368828Y298819D02*
Y299826D01*
Y299323D01*
X371850D01*
Y298819D01*
Y299826D01*
X369332Y303353D02*
X368828Y302849D01*
Y301841D01*
X369332Y301338D01*
X371347D01*
X371850Y301841D01*
Y302849D01*
X371347Y303353D01*
X368828Y304360D02*
Y306376D01*
X369332D01*
X371347Y304360D01*
X371850D01*
X211614Y280188D02*
X212622D01*
X212118D01*
Y277165D01*
X211614D01*
X212622D01*
X216148Y279684D02*
X215644Y280188D01*
X214637D01*
X214133Y279684D01*
Y277669D01*
X214637Y277165D01*
X215644D01*
X216148Y277669D01*
X217156D02*
X217659Y277165D01*
X218667D01*
X219171Y277669D01*
Y279684D01*
X218667Y280188D01*
X217659D01*
X217156Y279684D01*
Y279181D01*
X217659Y278677D01*
X219171D01*
X66859Y145276D02*
Y146283D01*
Y145779D01*
X69882D01*
Y145276D01*
Y146283D01*
X67363Y149810D02*
X66859Y149306D01*
Y148298D01*
X67363Y147794D01*
X69378D01*
X69882Y148298D01*
Y149306D01*
X69378Y149810D01*
X69882Y150817D02*
Y151825D01*
Y151321D01*
X66859D01*
X67363Y150817D01*
Y153336D02*
X66859Y153840D01*
Y154847D01*
X67363Y155351D01*
X69378D01*
X69882Y154847D01*
Y153840D01*
X69378Y153336D01*
X67363D01*
X330118Y240424D02*
X331126D01*
X330622D01*
Y237402D01*
X330118D01*
X331126D01*
X334652Y239920D02*
X334148Y240424D01*
X333141D01*
X332637Y239920D01*
Y237905D01*
X333141Y237402D01*
X334148D01*
X334652Y237905D01*
X335660Y237402D02*
X336667D01*
X336163D01*
Y240424D01*
X335660Y239920D01*
X338178Y237402D02*
X339186D01*
X338682D01*
Y240424D01*
X338178Y239920D01*
X66859Y122047D02*
Y123055D01*
Y122551D01*
X69882D01*
Y122047D01*
Y123055D01*
X67363Y126581D02*
X66859Y126077D01*
Y125070D01*
X67363Y124566D01*
X69378D01*
X69882Y125070D01*
Y126077D01*
X69378Y126581D01*
X69882Y127589D02*
Y128596D01*
Y128093D01*
X66859D01*
X67363Y127589D01*
X69882Y132123D02*
Y130108D01*
X67867Y132123D01*
X67363D01*
X66859Y131619D01*
Y130611D01*
X67363Y130108D01*
X425787Y303416D02*
Y300394D01*
X427803D01*
X428810Y302913D02*
X429314Y303416D01*
X430321D01*
X430825Y302913D01*
Y302409D01*
X430321Y301905D01*
X430825Y301401D01*
Y300898D01*
X430321Y300394D01*
X429314D01*
X428810Y300898D01*
Y301401D01*
X429314Y301905D01*
X428810Y302409D01*
Y302913D01*
X429314Y301905D02*
X430321D01*
X133314Y95038D02*
X132810Y95542D01*
X131803D01*
X131299Y95038D01*
Y94535D01*
X131803Y94031D01*
X132810D01*
X133314Y93527D01*
Y93024D01*
X132810Y92520D01*
X131803D01*
X131299Y93024D01*
X134322Y92520D02*
Y95542D01*
X135833D01*
X136337Y95038D01*
Y94031D01*
X135833Y93527D01*
X134322D01*
X137345Y92520D02*
X138352D01*
X137848D01*
Y95542D01*
X137345Y95038D01*
X383081Y95689D02*
X382577Y96193D01*
X381570D01*
X381066Y95689D01*
Y95186D01*
X381570Y94682D01*
X382577D01*
X383081Y94178D01*
Y93674D01*
X382577Y93170D01*
X381570D01*
X381066Y93674D01*
X384088Y93170D02*
Y96193D01*
X385600D01*
X386104Y95689D01*
Y94682D01*
X385600Y94178D01*
X384088D01*
X389126Y93170D02*
X387111D01*
X389126Y95186D01*
Y95689D01*
X388622Y96193D01*
X387615D01*
X387111Y95689D01*
X75787Y135700D02*
Y132677D01*
X77299D01*
X77802Y133181D01*
Y135196D01*
X77299Y135700D01*
X75787D01*
X78810Y132677D02*
X79818D01*
X79314D01*
Y135700D01*
X78810Y135196D01*
X81329D02*
X81833Y135700D01*
X82840D01*
X83344Y135196D01*
Y134692D01*
X82840Y134188D01*
X82336D01*
X82840D01*
X83344Y133685D01*
Y133181D01*
X82840Y132677D01*
X81833D01*
X81329Y133181D01*
X111063Y134724D02*
Y137747D01*
X112574D01*
X113078Y137243D01*
Y136236D01*
X112574Y135732D01*
X111063D01*
X112071D02*
X113078Y134724D01*
X114086Y137243D02*
X114589Y137747D01*
X115597D01*
X116101Y137243D01*
Y136740D01*
X115597Y136236D01*
X116101Y135732D01*
Y135228D01*
X115597Y134724D01*
X114589D01*
X114086Y135228D01*
Y135732D01*
X114589Y136236D01*
X114086Y136740D01*
Y137243D01*
X114589Y136236D02*
X115597D01*
X117108Y137243D02*
X117612Y137747D01*
X118620D01*
X119123Y137243D01*
Y135228D01*
X118620Y134724D01*
X117612D01*
X117108Y135228D01*
Y137243D01*
X390795Y380188D02*
X389787D01*
X390291D01*
Y377669D01*
X389787Y377165D01*
X389283D01*
X388779Y377669D01*
X391802Y377165D02*
X392810D01*
X392306D01*
Y380188D01*
X391802Y379684D01*
X394321Y377165D02*
X395329D01*
X394825D01*
Y380188D01*
X394321Y379684D01*
X443347Y209495D02*
X442843Y208992D01*
Y207984D01*
X443347Y207480D01*
X445362D01*
X445866Y207984D01*
Y208992D01*
X445362Y209495D01*
X442843Y212518D02*
Y210503D01*
X444355D01*
X443851Y211510D01*
Y212014D01*
X444355Y212518D01*
X445362D01*
X445866Y212014D01*
Y211007D01*
X445362Y210503D01*
X442843Y213526D02*
Y215541D01*
X443347D01*
X445362Y213526D01*
X445866D01*
X365621Y247581D02*
X366629D01*
X366125D01*
Y244558D01*
X365621D01*
X366629D01*
X370155Y247077D02*
X369651Y247581D01*
X368644D01*
X368140Y247077D01*
Y245062D01*
X368644Y244558D01*
X369651D01*
X370155Y245062D01*
X371163Y244558D02*
X372170D01*
X371666D01*
Y247581D01*
X371163Y247077D01*
X373681D02*
X374185Y247581D01*
X375193D01*
X375697Y247077D01*
Y246573D01*
X375193Y246069D01*
X374689D01*
X375193D01*
X375697Y245566D01*
Y245062D01*
X375193Y244558D01*
X374185D01*
X373681Y245062D01*
X437598Y233731D02*
X438606D01*
X438102D01*
Y230709D01*
X437598D01*
X438606D01*
X442132Y233227D02*
X441629Y233731D01*
X440621D01*
X440117Y233227D01*
Y231212D01*
X440621Y230709D01*
X441629D01*
X442132Y231212D01*
X443140Y230709D02*
X444147D01*
X443644D01*
Y233731D01*
X443140Y233227D01*
X447170Y230709D02*
Y233731D01*
X445659Y232220D01*
X447674D01*
X410039Y225590D02*
X407017D01*
Y227102D01*
X407520Y227606D01*
X408528D01*
X409032Y227102D01*
Y225590D01*
Y226598D02*
X410039Y227606D01*
X407520Y228613D02*
X407017Y229117D01*
Y230124D01*
X407520Y230628D01*
X408024D01*
X408528Y230124D01*
X409032Y230628D01*
X409536D01*
X410039Y230124D01*
Y229117D01*
X409536Y228613D01*
X409032D01*
X408528Y229117D01*
X408024Y228613D01*
X407520D01*
X408528Y229117D02*
Y230124D01*
X410039Y231636D02*
Y232643D01*
Y232140D01*
X407017D01*
X407520Y231636D01*
X410039Y234252D02*
X407017D01*
Y235763D01*
X407520Y236267D01*
X408528D01*
X409032Y235763D01*
Y234252D01*
Y235260D02*
X410039Y236267D01*
X407520Y237275D02*
X407017Y237778D01*
Y238786D01*
X407520Y239290D01*
X408024D01*
X408528Y238786D01*
X409032Y239290D01*
X409536D01*
X410039Y238786D01*
Y237778D01*
X409536Y237275D01*
X409032D01*
X408528Y237778D01*
X408024Y237275D01*
X407520D01*
X408528Y237778D02*
Y238786D01*
X410039Y242312D02*
Y240297D01*
X408024Y242312D01*
X407520D01*
X407017Y241809D01*
Y240801D01*
X407520Y240297D01*
X369882Y220866D02*
X366859D01*
Y222377D01*
X367363Y222881D01*
X368371D01*
X368874Y222377D01*
Y220866D01*
Y221874D02*
X369882Y222881D01*
X367363Y223889D02*
X366859Y224393D01*
Y225400D01*
X367363Y225904D01*
X367867D01*
X368371Y225400D01*
X368874Y225904D01*
X369378D01*
X369882Y225400D01*
Y224393D01*
X369378Y223889D01*
X368874D01*
X368371Y224393D01*
X367867Y223889D01*
X367363D01*
X368371Y224393D02*
Y225400D01*
X367363Y226911D02*
X366859Y227415D01*
Y228423D01*
X367363Y228926D01*
X367867D01*
X368371Y228423D01*
Y227919D01*
Y228423D01*
X368874Y228926D01*
X369378D01*
X369882Y228423D01*
Y227415D01*
X369378Y226911D01*
X449803Y224016D02*
Y227038D01*
X451314D01*
X451818Y226535D01*
Y225527D01*
X451314Y225023D01*
X449803D01*
X450811D02*
X451818Y224016D01*
X452826Y226535D02*
X453330Y227038D01*
X454337D01*
X454841Y226535D01*
Y226031D01*
X454337Y225527D01*
X454841Y225023D01*
Y224519D01*
X454337Y224016D01*
X453330D01*
X452826Y224519D01*
Y225023D01*
X453330Y225527D01*
X452826Y226031D01*
Y226535D01*
X453330Y225527D02*
X454337D01*
X457360Y224016D02*
Y227038D01*
X455848Y225527D01*
X457864D01*
X449803Y219291D02*
Y222314D01*
X451314D01*
X451818Y221810D01*
Y220803D01*
X451314Y220299D01*
X449803D01*
X450811D02*
X451818Y219291D01*
X452826Y221810D02*
X453330Y222314D01*
X454337D01*
X454841Y221810D01*
Y221306D01*
X454337Y220803D01*
X454841Y220299D01*
Y219795D01*
X454337Y219291D01*
X453330D01*
X452826Y219795D01*
Y220299D01*
X453330Y220803D01*
X452826Y221306D01*
Y221810D01*
X453330Y220803D02*
X454337D01*
X457864Y222314D02*
X455848D01*
Y220803D01*
X456856Y221306D01*
X457360D01*
X457864Y220803D01*
Y219795D01*
X457360Y219291D01*
X456352D01*
X455848Y219795D01*
X402135Y269582D02*
X399113D01*
Y271094D01*
X399616Y271598D01*
X400624D01*
X401128Y271094D01*
Y269582D01*
Y270590D02*
X402135Y271598D01*
X399616Y272605D02*
X399113Y273109D01*
Y274116D01*
X399616Y274620D01*
X400120D01*
X400624Y274116D01*
X401128Y274620D01*
X401631D01*
X402135Y274116D01*
Y273109D01*
X401631Y272605D01*
X401128D01*
X400624Y273109D01*
X400120Y272605D01*
X399616D01*
X400624Y273109D02*
Y274116D01*
X399113Y277643D02*
X399616Y276635D01*
X400624Y275628D01*
X401631D01*
X402135Y276132D01*
Y277139D01*
X401631Y277643D01*
X401128D01*
X400624Y277139D01*
Y275628D01*
X397441Y269582D02*
X394418D01*
Y271094D01*
X394922Y271598D01*
X395930D01*
X396433Y271094D01*
Y269582D01*
Y270590D02*
X397441Y271598D01*
X394922Y272605D02*
X394418Y273109D01*
Y274116D01*
X394922Y274620D01*
X395426D01*
X395930Y274116D01*
X396433Y274620D01*
X396937D01*
X397441Y274116D01*
Y273109D01*
X396937Y272605D01*
X396433D01*
X395930Y273109D01*
X395426Y272605D01*
X394922D01*
X395930Y273109D02*
Y274116D01*
X394418Y275628D02*
Y277643D01*
X394922D01*
X396937Y275628D01*
X397441D01*
X388005Y269582D02*
X384982D01*
Y271094D01*
X385486Y271598D01*
X386493D01*
X386997Y271094D01*
Y269582D01*
Y270590D02*
X388005Y271598D01*
X385486Y272605D02*
X384982Y273109D01*
Y274116D01*
X385486Y274620D01*
X385990D01*
X386493Y274116D01*
X386997Y274620D01*
X387501D01*
X388005Y274116D01*
Y273109D01*
X387501Y272605D01*
X386997D01*
X386493Y273109D01*
X385990Y272605D01*
X385486D01*
X386493Y273109D02*
Y274116D01*
X385486Y275628D02*
X384982Y276132D01*
Y277139D01*
X385486Y277643D01*
X385990D01*
X386493Y277139D01*
X386997Y277643D01*
X387501D01*
X388005Y277139D01*
Y276132D01*
X387501Y275628D01*
X386997D01*
X386493Y276132D01*
X385990Y275628D01*
X385486D01*
X386493Y276132D02*
Y277139D01*
X392336Y269582D02*
X389313D01*
Y271094D01*
X389817Y271598D01*
X390824D01*
X391328Y271094D01*
Y269582D01*
Y270590D02*
X392336Y271598D01*
X389817Y272605D02*
X389313Y273109D01*
Y274116D01*
X389817Y274620D01*
X390320D01*
X390824Y274116D01*
X391328Y274620D01*
X391832D01*
X392336Y274116D01*
Y273109D01*
X391832Y272605D01*
X391328D01*
X390824Y273109D01*
X390320Y272605D01*
X389817D01*
X390824Y273109D02*
Y274116D01*
X391832Y275628D02*
X392336Y276132D01*
Y277139D01*
X391832Y277643D01*
X389817D01*
X389313Y277139D01*
Y276132D01*
X389817Y275628D01*
X390320D01*
X390824Y276132D01*
Y277643D01*
X379331Y269685D02*
X376308D01*
Y271196D01*
X376812Y271700D01*
X377819D01*
X378323Y271196D01*
Y269685D01*
Y270693D02*
X379331Y271700D01*
X378827Y272708D02*
X379331Y273212D01*
Y274219D01*
X378827Y274723D01*
X376812D01*
X376308Y274219D01*
Y273212D01*
X376812Y272708D01*
X377316D01*
X377819Y273212D01*
Y274723D01*
X376812Y275730D02*
X376308Y276234D01*
Y277242D01*
X376812Y277745D01*
X378827D01*
X379331Y277242D01*
Y276234D01*
X378827Y275730D01*
X376812D01*
X383661Y269685D02*
X380639D01*
Y271196D01*
X381142Y271700D01*
X382150D01*
X382654Y271196D01*
Y269685D01*
Y270693D02*
X383661Y271700D01*
X383158Y272708D02*
X383661Y273212D01*
Y274219D01*
X383158Y274723D01*
X381142D01*
X380639Y274219D01*
Y273212D01*
X381142Y272708D01*
X381646D01*
X382150Y273212D01*
Y274723D01*
X383661Y275730D02*
Y276738D01*
Y276234D01*
X380639D01*
X381142Y275730D01*
X370276Y269685D02*
X367253D01*
Y271196D01*
X367757Y271700D01*
X368764D01*
X369268Y271196D01*
Y269685D01*
Y270693D02*
X370276Y271700D01*
X369772Y272708D02*
X370276Y273212D01*
Y274219D01*
X369772Y274723D01*
X367757D01*
X367253Y274219D01*
Y273212D01*
X367757Y272708D01*
X368261D01*
X368764Y273212D01*
Y274723D01*
X370276Y277745D02*
Y275730D01*
X368261Y277745D01*
X367757D01*
X367253Y277242D01*
Y276234D01*
X367757Y275730D01*
X375000Y269685D02*
X371977D01*
Y271196D01*
X372481Y271700D01*
X373489D01*
X373992Y271196D01*
Y269685D01*
Y270693D02*
X375000Y271700D01*
X374496Y272708D02*
X375000Y273212D01*
Y274219D01*
X374496Y274723D01*
X372481D01*
X371977Y274219D01*
Y273212D01*
X372481Y272708D01*
X372985D01*
X373489Y273212D01*
Y274723D01*
X372481Y275730D02*
X371977Y276234D01*
Y277242D01*
X372481Y277745D01*
X372985D01*
X373489Y277242D01*
Y276738D01*
Y277242D01*
X373992Y277745D01*
X374496D01*
X375000Y277242D01*
Y276234D01*
X374496Y275730D01*
X148357Y315361D02*
Y316369D01*
Y315865D01*
X151380D01*
Y315361D01*
Y316369D01*
X148861Y319895D02*
X148357Y319392D01*
Y318384D01*
X148861Y317880D01*
X150876D01*
X151380Y318384D01*
Y319392D01*
X150876Y319895D01*
X148861Y320903D02*
X148357Y321407D01*
Y322414D01*
X148861Y322918D01*
X149365D01*
X149869Y322414D01*
X150372Y322918D01*
X150876D01*
X151380Y322414D01*
Y321407D01*
X150876Y320903D01*
X150372D01*
X149869Y321407D01*
X149365Y320903D01*
X148861D01*
X149869Y321407D02*
Y322414D01*
X482480Y122835D02*
Y123335D01*
X482980D01*
Y122835D01*
X482480D01*
X484979Y125834D02*
Y123335D01*
X485479Y122835D01*
X486479D01*
X486979Y123335D01*
Y125834D01*
X487979Y122835D02*
X488978D01*
X488478D01*
Y125834D01*
X487979Y125334D01*
X490478D02*
X490978Y125834D01*
X491977D01*
X492477Y125334D01*
Y123335D01*
X491977Y122835D01*
X490978D01*
X490478Y123335D01*
Y125334D01*
X483268Y75590D02*
Y76090D01*
X483768D01*
Y75590D01*
X483268D01*
X485767Y78590D02*
Y76090D01*
X486267Y75590D01*
X487266D01*
X487766Y76090D01*
Y78590D01*
X488766D02*
X490765D01*
Y78090D01*
X488766Y76090D01*
Y75590D01*
X483268Y170079D02*
Y170579D01*
X483768D01*
Y170079D01*
X483268D01*
X485767Y173078D02*
Y171078D01*
X486767Y170079D01*
X487766Y171078D01*
Y173078D01*
X488766D02*
X490765D01*
Y172578D01*
X488766Y170579D01*
Y170079D01*
X483268Y218504D02*
Y219004D01*
X483768D01*
Y218504D01*
X483268D01*
X485767Y221503D02*
X487766D01*
X486767D01*
Y218504D01*
X488766Y219004D02*
X489266Y218504D01*
X490266D01*
X490765Y219004D01*
Y221003D01*
X490266Y221503D01*
X489266D01*
X488766Y221003D01*
Y220503D01*
X489266Y220004D01*
X490765D01*
D112*
X287756Y306591D02*
X286969D01*
X287362D01*
Y304229D01*
X287756Y304623D01*
X281457Y316827D02*
X283032D01*
X281457Y315252D01*
Y314859D01*
X281851Y314465D01*
X282638D01*
X283032Y314859D01*
X237362Y306197D02*
X236969Y306591D01*
X236181D01*
X235788Y306197D01*
Y304623D01*
X236181Y304229D01*
X236969D01*
X237362Y304623D01*
Y305016D01*
X236969Y305410D01*
X235788D01*
X238386Y323622D02*
X237599D01*
X237992D01*
Y321261D01*
X238386Y321654D01*
X236418D02*
X236024Y321261D01*
X235237D01*
X234844Y321654D01*
Y323229D01*
X235237Y323622D01*
X236024D01*
X236418Y323229D01*
Y321654D01*
X286968Y363283D02*
X286181D01*
X286575D01*
Y360922D01*
X286968Y361316D01*
X285001Y363283D02*
X284213D01*
X284607D01*
Y360922D01*
X285001Y361316D01*
X266339Y362205D02*
X265551D01*
X265945D01*
Y359843D01*
X266339Y360237D01*
X262796Y362205D02*
X264371D01*
X262796Y360630D01*
Y360237D01*
X263190Y359843D01*
X263977D01*
X264371Y360237D01*
X244449Y363283D02*
X243662D01*
X244055D01*
Y360922D01*
X244449Y361316D01*
X242481D02*
X242087Y360922D01*
X241300D01*
X240907Y361316D01*
Y361709D01*
X241300Y362103D01*
X241694D01*
X241300D01*
X240907Y362496D01*
Y362890D01*
X241300Y363283D01*
X242087D01*
X242481Y362890D01*
X234213Y363283D02*
X233425D01*
X233819D01*
Y360922D01*
X234213Y361316D01*
X231064Y363283D02*
Y360922D01*
X232245Y362103D01*
X230670D01*
M02*
