M48
;Layer_Color=9474304
;FILE_FORMAT=2:5
INCH,LZ
;TYPE=PLATED
T3F00S00C0.02165
T5F00S00C0.03346
T7F00S00C0.03543
T8F00S00C0.03937
;TYPE=NON_PLATED
%
G90
G05
T03
G00X013376Y0374902
M15
G01Y0372342
M16
G00X0164272Y0374902
M15
G01Y0372342
M16
T05
G00X013435Y0359744
M15
G01Y0357579
M16
G00X0163681Y0359744
M15
G01Y0357579
M16
T07
G00X0385433Y034685
M15
G01Y0339764
M16
G00X0385433Y0368347
M15
G01Y0365197
M16
G00X0328346Y0368347
M15
G01Y0365197
M16
G00X0328346Y034685
M15
G01Y0339764
M16
T08
G00X0045472Y0336417
M15
G01Y0344291
M16
G00X0069685Y032874
M15
G01X0059842
M16
G00X0060827Y0352362
M15
G01X0068701
M16
M17
M30
