%FSLAX25Y25*%
%MOIN*%
G70*
G01*
G75*
G04 Layer_Physical_Order=4*
G04 Layer_Color=16711680*
%ADD10C,0.02362*%
%ADD11C,0.00984*%
%ADD12R,0.02441X0.02244*%
%ADD13R,0.02244X0.02441*%
%ADD14O,0.01378X0.06693*%
%ADD15R,0.01614X0.06299*%
%ADD16R,0.02362X0.02165*%
%ADD17R,0.01181X0.10236*%
%ADD18R,0.03000X0.03000*%
G04:AMPARAMS|DCode=19|XSize=29.53mil|YSize=16.54mil|CornerRadius=4.13mil|HoleSize=0mil|Usage=FLASHONLY|Rotation=90.000|XOffset=0mil|YOffset=0mil|HoleType=Round|Shape=RoundedRectangle|*
%AMROUNDEDRECTD19*
21,1,0.02953,0.00827,0,0,90.0*
21,1,0.02126,0.01654,0,0,90.0*
1,1,0.00827,0.00413,0.01063*
1,1,0.00827,0.00413,-0.01063*
1,1,0.00827,-0.00413,-0.01063*
1,1,0.00827,-0.00413,0.01063*
%
%ADD19ROUNDEDRECTD19*%
%ADD20O,0.03150X0.01181*%
%ADD21O,0.01181X0.03150*%
%ADD22R,0.03937X0.05906*%
%ADD23R,0.05906X0.03937*%
%ADD24O,0.01378X0.05512*%
%ADD25R,0.03819X0.03780*%
%ADD26R,0.01181X0.02165*%
%ADD27R,0.01575X0.02165*%
%ADD28R,0.03937X0.02362*%
%ADD29R,0.03000X0.03000*%
%ADD30R,0.05118X0.06102*%
%ADD31C,0.07874*%
%ADD32R,0.02756X0.00984*%
%ADD33R,0.10630X0.10630*%
%ADD34R,0.00984X0.02756*%
%ADD35R,0.06102X0.05118*%
%ADD36R,0.01575X0.01969*%
%ADD37R,0.05906X0.02165*%
%ADD38R,0.03780X0.03819*%
%ADD39R,0.13504X0.09843*%
%ADD40R,0.03937X0.06890*%
%ADD41R,0.02756X0.06890*%
%ADD42R,0.05906X0.06890*%
%ADD43R,0.03150X0.05512*%
%ADD44R,0.05906X0.03937*%
%ADD45R,0.03937X0.06102*%
%ADD46R,0.06200X0.02400*%
%ADD47O,0.06200X0.02400*%
%ADD48R,0.02400X0.06200*%
%ADD49O,0.02400X0.06200*%
%ADD50R,0.01181X0.01181*%
%ADD51R,0.01772X0.02323*%
%ADD52R,0.00787X0.01969*%
%ADD53R,0.08504X0.08898*%
%ADD54R,0.04000X0.05000*%
%ADD55R,0.05000X0.04000*%
%ADD56R,0.01378X0.07874*%
%ADD57R,0.17716X0.18110*%
%ADD58R,0.02441X0.01575*%
%ADD59R,0.04724X0.01181*%
%ADD60R,0.11811X0.10630*%
%ADD61R,0.05512X0.04528*%
%ADD62R,0.04528X0.05512*%
%ADD63R,0.01772X0.05118*%
%ADD64R,0.03740X0.03740*%
%ADD65R,0.02362X0.03937*%
%ADD66O,0.02756X0.00984*%
%ADD67O,0.00984X0.02756*%
%ADD68R,0.17126X0.17126*%
%ADD69C,0.00787*%
%ADD70C,0.00906*%
%ADD71C,0.01969*%
%ADD72C,0.01378*%
%ADD73C,0.01181*%
%ADD74C,0.02756*%
%ADD75C,0.01575*%
%ADD76C,0.00052*%
%ADD77C,0.01000*%
%ADD78C,0.07087*%
%ADD79R,0.07087X0.07087*%
%ADD80C,0.07480*%
%ADD81C,0.25590*%
%ADD82O,0.05906X0.12992*%
%ADD83O,0.05906X0.09055*%
%ADD84C,0.20866*%
%ADD85C,0.08268*%
%ADD86C,0.12795*%
%ADD87C,0.06496*%
%ADD88C,0.09843*%
%ADD89C,0.06693*%
%ADD90R,0.06693X0.06693*%
%ADD91C,0.06000*%
%ADD92R,0.06000X0.06000*%
%ADD93C,0.13780*%
%ADD94C,0.05512*%
%ADD95O,0.15748X0.07874*%
%ADD96O,0.07874X0.15748*%
%ADD97O,0.17716X0.07874*%
%ADD98C,0.04331*%
%ADD99C,0.06299*%
%ADD100C,0.11811*%
%ADD101C,0.03150*%
%ADD102O,0.04528X0.07087*%
%ADD103O,0.05709X0.07874*%
%ADD104C,0.02362*%
%ADD105C,0.00866*%
D11*
X321421Y211516D02*
X321457Y211551D01*
Y212205D01*
X273031Y194488D02*
Y203543D01*
X270276Y206299D02*
X273031Y203543D01*
X270276Y206299D02*
Y214961D01*
X283268Y227953D01*
Y227953D01*
X81693Y75931D02*
Y81575D01*
X221555Y237333D02*
Y240059D01*
X221063Y240551D02*
X221555Y240059D01*
X219262Y235039D02*
X221555Y237333D01*
X210827Y235039D02*
X219262D01*
X211221Y238583D02*
X219094D01*
X219488Y238189D01*
X184843Y297244D02*
X188779Y293307D01*
X193110D01*
X163583Y282677D02*
Y290158D01*
X156496Y275590D02*
X163583Y282677D01*
D13*
X359252Y273228D02*
D03*
X363032D02*
D03*
X356417D02*
D03*
X352638D02*
D03*
X370748Y254724D02*
D03*
X374528D02*
D03*
X367835D02*
D03*
X364055D02*
D03*
X349488D02*
D03*
X353268D02*
D03*
X346575D02*
D03*
X342795D02*
D03*
X340433Y273228D02*
D03*
X344213D02*
D03*
X337520D02*
D03*
X333740D02*
D03*
D31*
X288386Y179134D02*
D03*
X316732Y160236D02*
D03*
X221457Y198425D02*
D03*
X81693Y75931D02*
D03*
D69*
X221850Y94488D02*
X256181Y128819D01*
X172835Y282087D02*
X216142D01*
X159252Y268504D02*
X172835Y282087D01*
X216142D02*
X216338Y281891D01*
X207283Y290551D02*
X217913D01*
X204528Y287795D02*
X207283Y290551D01*
X217913D02*
X219094Y289370D01*
X193748Y269047D02*
X197685D01*
X208071Y194882D02*
Y200787D01*
Y194882D02*
X213032Y189921D01*
X234323D01*
X251850Y172394D01*
X215866Y192598D02*
X235364D01*
X214764Y193701D02*
X215866Y192598D01*
X213976Y191339D02*
X234842D01*
X212795Y192520D02*
X213976Y191339D01*
X251850Y168302D02*
Y172394D01*
Y168302D02*
X256181Y163971D01*
X254606Y169185D02*
X257283Y166507D01*
X253346Y168588D02*
X258071Y163863D01*
X248071Y165885D02*
Y170817D01*
X249331Y166407D02*
Y171339D01*
X246811Y165364D02*
X251142Y161033D01*
X246811Y165364D02*
Y166386D01*
X245107Y168090D02*
X246811Y166386D01*
X248071Y165885D02*
X252402Y161555D01*
X249331Y166407D02*
X253661Y162077D01*
X250591Y166929D02*
X254921Y162598D01*
X250591Y166929D02*
Y171872D01*
X257283Y166432D02*
X259331Y164385D01*
X257283Y166432D02*
Y166507D01*
X225000Y91339D02*
X259331Y125669D01*
X224213Y92913D02*
X258071Y126772D01*
X19094Y72395D02*
X22870Y68620D01*
X19094Y72395D02*
Y83465D01*
X24213Y88583D01*
X244705Y168090D02*
X245107D01*
X232480Y180315D02*
X244705Y168090D01*
X232480Y180315D02*
Y183465D01*
X233454Y185433D02*
X248071Y170817D01*
X208858Y185433D02*
X233454D01*
X233268Y187402D02*
X249331Y171339D01*
X209646Y187402D02*
X233268D01*
X233801Y188661D02*
X250591Y171872D01*
X210990Y188661D02*
X233801D01*
X205709Y193943D02*
X210990Y188661D01*
X200984Y196063D02*
X209646Y187402D01*
X292323Y232283D02*
X307677D01*
X288779Y228740D02*
X292323Y232283D01*
X288779Y222441D02*
Y228740D01*
X28382Y72970D02*
X35569Y80158D01*
X32319Y74525D02*
X36691Y78898D01*
X36256Y74525D02*
X39368Y77638D01*
X62795Y76378D02*
X77756Y91339D01*
X43328Y76378D02*
X62795D01*
X40193Y73243D02*
X43328Y76378D01*
X50015Y74939D02*
X50823Y74132D01*
X46098Y74939D02*
X50015D01*
X44130Y72970D02*
X46098Y74939D01*
X198622Y195669D02*
X208858Y185433D01*
X212795Y192520D02*
Y201181D01*
X214764Y193701D02*
Y196063D01*
X117520Y203543D02*
X140354D01*
X206496Y103937D02*
X207283Y103150D01*
X363209Y273051D02*
Y275492D01*
X352559Y271063D02*
Y273504D01*
X344291Y272953D02*
Y276378D01*
X342717Y254646D02*
Y257087D01*
X333563Y270965D02*
Y273406D01*
X284449Y183465D02*
X288386Y179527D01*
Y179134D02*
Y179527D01*
X299016Y186221D02*
X302165Y183071D01*
X274213Y186221D02*
X299016D01*
X311221Y165748D02*
X316732Y160236D01*
X311221Y165748D02*
Y182311D01*
X301800Y191732D02*
X311221Y182311D01*
X301772Y191732D02*
X301800D01*
X302165Y183071D02*
X307677D01*
X223740Y197638D02*
X226181D01*
X353268Y257402D02*
X353346Y257480D01*
X353268Y254724D02*
Y257402D01*
X361614Y254724D02*
X364055D01*
X374528D02*
X376969D01*
X206496Y103937D02*
Y116535D01*
X190354Y162205D02*
X200197D01*
X205709Y167717D01*
X218701D01*
X177362Y267173D02*
X181937Y262598D01*
X177362Y267173D02*
Y269685D01*
X181937Y251425D02*
Y262598D01*
X173425Y270079D02*
X174213Y269291D01*
X148228Y195669D02*
X155315D01*
X140354Y203543D02*
X148228Y195669D01*
X205709Y193943D02*
Y199213D01*
X48067Y71376D02*
Y72970D01*
X28362Y72951D02*
X28382Y72970D01*
X154528Y241338D02*
Y247638D01*
Y241338D02*
X157283Y238583D01*
X184862D01*
X188386Y235059D01*
X430118Y284252D02*
Y287008D01*
X432972Y289862D01*
X417913Y282677D02*
Y284252D01*
Y282677D02*
X420276Y280315D01*
X478937Y287402D02*
X479724D01*
X379331Y312205D02*
Y316142D01*
X374606Y320866D02*
X379331Y316142D01*
X366339Y320866D02*
X374606D01*
X255890Y356512D02*
X275512D01*
X152559Y179921D02*
X152953D01*
X178150Y247638D02*
X181937Y251425D01*
X170276Y247638D02*
X174213Y251575D01*
Y269291D01*
X184843Y180709D02*
Y187795D01*
X184843Y187795D01*
X179724Y180709D02*
Y185039D01*
X179724Y185039D01*
X203346Y105905D02*
X203740Y105512D01*
X203346Y105905D02*
Y116535D01*
X196260Y107874D02*
Y116535D01*
X262795Y193307D02*
Y200787D01*
Y193307D02*
X280118Y175984D01*
X198622Y195669D02*
Y201181D01*
X200984Y196063D02*
Y199606D01*
X259646Y193701D02*
Y200787D01*
Y193701D02*
X278150Y175197D01*
X300197Y181102D02*
X308071Y173228D01*
Y163386D02*
Y173228D01*
X297047Y181102D02*
X305709Y172441D01*
X199409Y106693D02*
Y116535D01*
X219094Y284252D02*
Y289370D01*
X207677Y248425D02*
X212795Y253543D01*
X211221Y244488D02*
Y248819D01*
X214370Y251969D01*
X219488Y270079D02*
Y270472D01*
X192323Y270472D02*
X193748Y269047D01*
X197685D02*
X218457D01*
X219488Y270079D01*
X212795Y253543D02*
X218307D01*
X214370Y251969D02*
X219094D01*
X224213Y257087D01*
X218307Y253543D02*
X222638Y257874D01*
X201772Y311811D02*
X224213Y289370D01*
Y257087D02*
Y289370D01*
X199803Y311811D02*
X222638Y288976D01*
Y257874D02*
Y288976D01*
X477756Y293307D02*
X478937Y292126D01*
X432972Y289862D02*
X465453D01*
X473032Y282283D01*
X478937D01*
X471063Y287402D02*
X478937D01*
X434449Y284252D02*
X464764D01*
X471457Y277559D01*
X478937D01*
X421850Y284252D02*
Y290551D01*
X424606Y293307D01*
X477756D01*
X420276Y280315D02*
X423819D01*
X426181Y282677D01*
Y285433D01*
X432480Y291732D01*
X466732D01*
X471063Y287402D01*
X201772Y311811D02*
Y350787D01*
X207496Y356512D01*
X233307D01*
X199803Y311811D02*
Y353543D01*
X210039Y363779D01*
X248622D01*
X255890Y356512D01*
X310827Y229134D02*
X318307D01*
X307677Y232283D02*
X310827Y229134D01*
X305709Y159843D02*
Y172441D01*
Y159843D02*
X308071Y157480D01*
X40193Y72970D02*
Y73243D01*
X36256Y72970D02*
Y74525D01*
X32319Y72970D02*
Y74525D01*
X20901Y72951D02*
Y83187D01*
X24445Y86730D01*
X17752Y84368D02*
X23657Y90273D01*
X17752Y71376D02*
Y84368D01*
Y71376D02*
X22870Y66258D01*
X24445D01*
X20901Y72951D02*
X23264Y70588D01*
X47279D01*
X48067Y71376D01*
X44523Y65470D02*
X50823Y71770D01*
Y74132D01*
X22870Y68620D02*
X28775D01*
X31925Y65470D01*
X44523D01*
X30512Y162992D02*
X40748D01*
X167126Y180315D02*
Y192126D01*
X135630Y208661D02*
Y251575D01*
X169488Y285433D01*
X206496D01*
X209252Y288189D01*
X215551D01*
X170669Y180315D02*
Y181102D01*
X169095Y182677D02*
X170669Y181102D01*
X169095Y182677D02*
Y192126D01*
X137205Y209055D02*
Y250787D01*
X170079Y283661D01*
X207480D01*
X209252Y285433D01*
X215551D01*
X314370Y283071D02*
Y288583D01*
X154528Y206693D02*
X169095Y192126D01*
X153819Y205433D02*
X167126Y192126D01*
X137205Y209055D02*
X139567Y206693D01*
X154528D01*
X135630Y208661D02*
X138858Y205433D01*
X153819D01*
X188386Y235059D02*
Y240551D01*
X190157Y242323D01*
X194732D01*
X197685Y245276D01*
Y269047D01*
X207677Y243701D02*
Y248425D01*
X144685Y297638D02*
X153740Y288583D01*
X144685Y297638D02*
Y316142D01*
X149016Y320472D01*
X256181Y128819D02*
Y163971D01*
X254921Y129921D02*
Y162598D01*
X253661Y130928D02*
Y162077D01*
X252402Y132126D02*
Y161555D01*
X251142Y132835D02*
Y161033D01*
X258071Y126772D02*
Y163863D01*
X259331Y125669D02*
Y164385D01*
X253346Y168588D02*
Y172835D01*
X234842Y191339D02*
X253346Y172835D01*
X254606Y169185D02*
Y173356D01*
X235364Y192598D02*
X254606Y173356D01*
X278150Y125591D02*
Y175197D01*
X268307Y115748D02*
X278150Y125591D01*
X269488Y113779D02*
X280118Y124409D01*
Y175984D01*
X264764Y115354D02*
X265158Y115748D01*
X268307D01*
X267126Y113779D02*
X269488D01*
X425394Y254724D02*
Y261024D01*
X418307Y247638D02*
X425394Y254724D01*
X405709Y247638D02*
X418307D01*
X396654Y274410D02*
X399016Y276772D01*
Y282677D01*
X400591Y281496D02*
X403346Y284252D01*
X399016Y282677D02*
X402165Y285827D01*
X403346Y284252D02*
X408071D01*
X419488Y272835D01*
X402165Y285827D02*
X409252D01*
X421063Y274016D01*
Y267717D02*
Y274016D01*
X419488Y266929D02*
Y272835D01*
Y266929D02*
X425394Y261024D01*
X421063Y267717D02*
X426968Y261811D01*
Y253150D02*
Y261811D01*
X419882Y246063D02*
X426968Y253150D01*
X407283Y246063D02*
X419882D01*
X394213Y272953D02*
X394724Y272441D01*
X397835D02*
X400591Y275197D01*
X394724Y272441D02*
X397835D01*
X400591Y275197D02*
Y281496D01*
X40748Y142520D02*
X40748D01*
X60827Y118898D02*
X67520D01*
X61614Y121653D02*
X67520D01*
X40748Y142520D02*
X61614Y121653D01*
X62795Y127165D02*
X67520D01*
X62795Y124409D02*
X67520D01*
X49409Y126772D02*
X49437D01*
X51378Y124831D01*
Y124803D02*
Y124831D01*
Y122047D02*
Y122075D01*
X49409Y124016D02*
X49437D01*
X51378Y122075D01*
X71822Y116142D02*
X71850D01*
X74213Y118504D01*
X69854Y114173D02*
X71822Y116142D01*
X51378Y124803D02*
X60039Y116142D01*
X69488D01*
X51378Y122047D02*
X59252Y114173D01*
X69854D01*
X49409Y120079D02*
X60827Y108661D01*
X49409Y116929D02*
X60039Y106299D01*
X60827Y108661D02*
X70669D01*
X39368Y77638D02*
X61415D01*
X36691Y78898D02*
X60313D01*
X35569Y80158D02*
X59210D01*
X24445Y86730D02*
X63421D01*
X24213Y88583D02*
X62795D01*
X23657Y90273D02*
X62240D01*
X61415Y77638D02*
X76691Y92913D01*
X60313Y78898D02*
X75903Y94488D01*
X221063Y96063D02*
X254921Y129921D01*
X220371Y97638D02*
X253661Y130928D01*
X59210Y80158D02*
X75116Y96063D01*
X63421Y86730D02*
X74329Y97638D01*
X219882Y99606D02*
X252402Y132126D01*
X219488Y101181D02*
X251142Y132835D01*
X62795Y88583D02*
X73819Y99606D01*
X62240Y90273D02*
X73147Y101181D01*
X60039Y106299D02*
X73032D01*
X36024Y156299D02*
X38780D01*
X36024Y153543D02*
X38386D01*
X39961Y151969D01*
X38780Y156299D02*
X41929Y153150D01*
Y148031D02*
X62795Y127165D01*
X41929Y148031D02*
Y153150D01*
X39961Y147244D02*
Y151969D01*
Y147244D02*
X62795Y124409D01*
X35630Y150787D02*
X37992Y148425D01*
X31693Y150787D02*
X35630D01*
X31693Y147638D02*
X34055D01*
X37992Y145276D02*
Y148425D01*
Y145276D02*
X40748Y142520D01*
X36024Y143701D02*
X60827Y118898D01*
X36024Y143701D02*
Y145669D01*
X34055Y147638D02*
X36024Y145669D01*
X53740Y140129D02*
Y140945D01*
Y140129D02*
X59618Y134252D01*
X78150Y116142D02*
X83268D01*
X77756Y91339D02*
X225000D01*
X76691Y92913D02*
X224213D01*
X73032Y106299D02*
X80905Y114173D01*
X83661D01*
X75903Y94488D02*
X221850D01*
X75116Y96063D02*
X221063D01*
X74329Y97638D02*
X220371D01*
X73819Y99606D02*
X219882D01*
X73147Y101181D02*
X219488D01*
X70669Y108661D02*
X78150Y116142D01*
X74213Y118504D02*
X81299D01*
X69488Y116142D02*
X75787Y122441D01*
X81299D01*
X74131Y134252D02*
X90666Y117717D01*
X106496D01*
X135236Y179921D02*
X152559D01*
X129724Y174409D02*
X135236Y179921D01*
X126181Y174409D02*
X129724D01*
X111614Y188976D02*
X126181Y174409D01*
X97047Y188976D02*
X111614D01*
X30512Y159449D02*
X42717D01*
X49409Y152756D01*
Y155512D02*
X50197D01*
X41929Y162992D02*
X49409Y155512D01*
X40748Y162992D02*
X41929D01*
X40748Y162992D02*
X40748Y162992D01*
X49803Y143307D02*
X61221D01*
X63976Y140551D01*
X59618Y134252D02*
X74131D01*
D70*
X245630Y282480D02*
G03*
X246535Y283386I0J905D01*
G01*
X242008Y282480D02*
G03*
X242913Y283386I0J905D01*
G01*
X239173Y293287D02*
G03*
X240079Y294193I0J905D01*
G01*
X242795Y293287D02*
G03*
X243701Y294193I0J905D01*
G01*
X197835Y151181D02*
G03*
X198425Y151772I0J591D01*
G01*
X199059Y153543D02*
G03*
X198425Y152909I0J-634D01*
G01*
X200236D02*
G03*
X199602Y153543I-634J0D01*
G01*
X200236Y151815D02*
G03*
X200870Y151181I634J0D01*
G01*
X65564Y212781D02*
G03*
X65564Y211779I501J-501D01*
G01*
Y212781D02*
G03*
X66232Y214396I-1615J1615D01*
G01*
D02*
G03*
X65564Y216010I-2283J0D01*
G01*
Y216010D02*
G03*
X62334Y216010I-1615J-1615D01*
G01*
X59077Y214034D02*
G03*
X60356Y214032I640J640D01*
G01*
X59077Y215314D02*
G03*
X59075Y214036I640J-640D01*
G01*
X61054Y217291D02*
G03*
X61722Y218906I-1615J1615D01*
G01*
D02*
G03*
X61054Y220520I-2283J0D01*
G01*
X61054D02*
G03*
X57824Y220520I-1615J-1615D01*
G01*
X56822D02*
G03*
X57824Y220520I501J501D01*
G01*
X64589Y213755D02*
G03*
X64589Y210805I1476J-1476D01*
G01*
Y213755D02*
G03*
X64855Y214396I-640J640D01*
G01*
D02*
G03*
X64589Y215036I-905J0D01*
G01*
Y215036D02*
G03*
X63309Y215036I-640J-640D01*
G01*
X58103Y213059D02*
G03*
X61332Y213059I1615J1615D01*
G01*
X58103Y216289D02*
G03*
X58103Y213059I1615J-1615D01*
G01*
X60079Y218265D02*
G03*
X60345Y218906I-640J640D01*
G01*
D02*
G03*
X60081Y219544I-905J0D01*
G01*
X60079Y219546D02*
G03*
X58799Y219546I-640J-640D01*
G01*
X55848D02*
G03*
X58799Y219546I1476J1476D01*
G01*
X156220Y164183D02*
G03*
X157126Y165089I0J905D01*
G01*
X174449Y165246D02*
G03*
X169882Y165246I-2283J0D01*
G01*
X178543Y164183D02*
G03*
X176260Y161900I0J-2283D01*
G01*
X168071Y165246D02*
G03*
X163504Y165246I-2283J0D01*
G01*
X168071Y161742D02*
G03*
X169882Y161742I905J0D01*
G01*
X161693D02*
G03*
X163504Y161742I905J0D01*
G01*
X174449D02*
G03*
X176260Y161742I905J0D01*
G01*
X161693Y165246D02*
G03*
X157126Y165246I-2283J0D01*
G01*
X173071D02*
G03*
X171260Y165246I-905J0D01*
G01*
X178543Y162805D02*
G03*
X177638Y161900I0J-905D01*
G01*
X160315Y165246D02*
G03*
X158504Y165246I-905J0D01*
G01*
X166693D02*
G03*
X164882Y165246I-905J0D01*
G01*
X156220Y162805D02*
G03*
X158504Y165089I0J2283D01*
G01*
X160315Y161742D02*
G03*
X164882Y161742I2283J0D01*
G01*
X166693D02*
G03*
X171260Y161742I2283J0D01*
G01*
X173071D02*
G03*
X177638Y161742I2283J0D01*
G01*
X230413Y142913D02*
G03*
X229823Y143504I-591J0D01*
G01*
X228917Y144409D02*
G03*
X229823Y143504I905J0D01*
G01*
Y145315D02*
G03*
X228917Y144409I0J-905D01*
G01*
X229823Y145315D02*
G03*
X230413Y145905I0J591D01*
G01*
X81926Y154190D02*
G03*
X79615Y154190I-1155J-1155D01*
G01*
X78334Y154190D02*
G03*
X79615Y154190I640J640D01*
G01*
X78334Y155470D02*
G03*
X78333Y154192I640J-640D01*
G01*
X79671Y156806D02*
G03*
X80340Y158421I-1615J1615D01*
G01*
D02*
G03*
X76441Y160036I-2283J0D01*
G01*
X73825Y158700D02*
G03*
X75105Y158700I640J640D01*
G01*
X73825Y159980D02*
G03*
X73823Y158702I640J-640D01*
G01*
X75161Y161316D02*
G03*
X75830Y162931I-1615J1615D01*
G01*
D02*
G03*
X71932Y164546I-2283J0D01*
G01*
X69315Y163209D02*
G03*
X70595Y163209I640J640D01*
G01*
X69315Y164490D02*
G03*
X69313Y163211I640J-640D01*
G01*
X70651Y165826D02*
G03*
X71320Y167441I-1615J1615D01*
G01*
D02*
G03*
X67422Y169056I-2283J0D01*
G01*
X64805Y167719D02*
G03*
X66085Y167719I640J640D01*
G01*
X64805Y169000D02*
G03*
X64803Y167721I640J-640D01*
G01*
X66141Y170336D02*
G03*
X66810Y171951I-1615J1615D01*
G01*
D02*
G03*
X62912Y173565I-2283J0D01*
G01*
X62550Y173565D02*
G03*
X62912Y173565I181J181D01*
G01*
X80951Y153215D02*
G03*
X80589Y153215I-181J-181D01*
G01*
X77360Y156445D02*
G03*
X80589Y153215I1615J-1615D01*
G01*
X78696Y157781D02*
G03*
X78962Y158421I-640J640D01*
G01*
D02*
G03*
X78698Y159059I-905J0D01*
G01*
X78696Y159061D02*
G03*
X77416Y159061I-640J-640D01*
G01*
X72850Y160954D02*
G03*
X76080Y157725I1615J-1615D01*
G01*
X74186Y162291D02*
G03*
X74452Y162931I-640J640D01*
G01*
D02*
G03*
X74189Y163569I-905J0D01*
G01*
X74186Y163571D02*
G03*
X72906Y163571I-640J-640D01*
G01*
X68340Y165464D02*
G03*
X71570Y162235I1615J-1615D01*
G01*
X69677Y166801D02*
G03*
X69942Y167441I-640J640D01*
G01*
D02*
G03*
X69679Y168079I-905J0D01*
G01*
X69677Y168081D02*
G03*
X68396Y168081I-640J-640D01*
G01*
X63830Y169974D02*
G03*
X67060Y166745I1615J-1615D01*
G01*
X65167Y171310D02*
G03*
X65432Y171951I-640J640D01*
G01*
D02*
G03*
X65167Y172591I-905J0D01*
G01*
X65165Y172593D02*
G03*
X63886Y172591I-638J-642D01*
G01*
X61576D02*
G03*
X63886Y172591I1155J1155D01*
G01*
X94325Y129860D02*
G03*
X94325Y130695I-418J418D01*
G01*
X94325Y129860D02*
G03*
X94325Y128579I640J-640D01*
G01*
D02*
G03*
X95606Y128579I640J640D01*
G01*
X96441D02*
G03*
X95606Y128579I-418J-418D01*
G01*
X239567Y142067D02*
G03*
X238661Y142973I-905J0D01*
G01*
X237677Y143878D02*
G03*
X238583Y142973I905J0D01*
G01*
Y144783D02*
G03*
X237677Y143878I0J-905D01*
G01*
X238661Y144783D02*
G03*
X239567Y145689I0J905D01*
G01*
D02*
G03*
X238661Y146595I-905J0D01*
G01*
X237677Y147500D02*
G03*
X238583Y146595I905J0D01*
G01*
Y148406D02*
G03*
X237677Y147500I0J-905D01*
G01*
X238661Y148406D02*
G03*
X239567Y149311I0J905D01*
G01*
X56178Y167227D02*
G03*
X56688Y168666I-1773J1439D01*
G01*
D02*
G03*
X52790Y170281I-2283J0D01*
G01*
X50869Y169641D02*
G03*
X52150Y169641I640J640D01*
G01*
X50869Y170921D02*
G03*
X50867Y169643I640J-640D01*
G01*
X51510Y171562D02*
G03*
X52179Y173176I-1615J1615D01*
G01*
D02*
G03*
X48280Y174791I-2283J0D01*
G01*
X46362Y174149D02*
G03*
X47640Y174151I638J642D01*
G01*
X46360Y175431D02*
G03*
X46360Y174151I640J-640D01*
G01*
X47000Y176072D02*
G03*
X47669Y177686I-1615J1615D01*
G01*
D02*
G03*
X43946Y179459I-2283J0D01*
G01*
X55045Y168026D02*
G03*
X55045Y166411I807J-807D01*
G01*
X55045Y168026D02*
G03*
X55310Y168666I-640J640D01*
G01*
D02*
G03*
X55047Y169305I-905J0D01*
G01*
X55045Y169307D02*
G03*
X53765Y169307I-640J-640D01*
G01*
X49895Y171896D02*
G03*
X53124Y168666I1615J-1615D01*
G01*
X50535Y172536D02*
G03*
X50801Y173176I-640J640D01*
G01*
D02*
G03*
X50535Y173817I-905J0D01*
G01*
X50533Y173819D02*
G03*
X49255Y173817I-638J-642D01*
G01*
X45385Y176406D02*
G03*
X48614Y173176I1615J-1615D01*
G01*
X46025Y177046D02*
G03*
X46291Y177686I-640J640D01*
G01*
D02*
G03*
X46025Y178326I-905J0D01*
G01*
X46023Y178329D02*
G03*
X44745Y178326I-638J-642D01*
G01*
X43130Y178326D02*
G03*
X44745Y178326I807J807D01*
G01*
X433196Y85733D02*
G03*
X432978Y86260I-746J0D01*
G01*
X432978Y85205D02*
G03*
X433196Y85733I-527J527D01*
G01*
X432727Y81500D02*
G03*
X435461Y81271I1502J1502D01*
G01*
X428686Y90242D02*
G03*
X428468Y90770I-746J0D01*
G01*
X428468Y89715D02*
G03*
X428686Y90242I-527J527D01*
G01*
X428217Y86010D02*
G03*
X431221Y86010I1502J1502D01*
G01*
X434574Y85733D02*
G03*
X433952Y87234I-2124J0D01*
G01*
Y84231D02*
G03*
X434574Y85733I-1502J1502D01*
G01*
X436207Y82474D02*
G03*
X434757Y82474I-725J-725D01*
G01*
X433702Y82474D02*
G03*
X434757Y82474I527J527D01*
G01*
X429442Y88741D02*
G03*
X430064Y90242I-1502J1502D01*
G01*
X433476Y83755D02*
G03*
X433476Y82700I527J-527D01*
G01*
X429192Y86984D02*
G03*
X430247Y86984I527J528D01*
G01*
X430064Y90242D02*
G03*
X429442Y91744I-2124J0D01*
G01*
X429217Y91970D02*
G03*
X426483Y92198I-1502J-1502D01*
G01*
X444319Y59409D02*
G03*
X445079Y60169I0J760D01*
G01*
X444319Y59409D02*
G03*
X443504Y58595I0J-815D01*
G01*
X445079Y56839D02*
G03*
X444319Y57598I-760J0D01*
G01*
X443504Y58413D02*
G03*
X444319Y57598I815J0D01*
G01*
X428242Y90996D02*
G03*
X427187Y90996I-527J-527D01*
G01*
X432752Y86486D02*
G03*
X431697Y86486I-527J-527D01*
G01*
X432502Y84729D02*
G03*
X432502Y81725I1502J-1502D01*
G01*
X425737Y90996D02*
G03*
X427187Y90996I725J725D01*
G01*
X427992Y89239D02*
G03*
X427992Y86235I1502J-1502D01*
G01*
X433727Y87460D02*
G03*
X430723Y87460I-1502J-1502D01*
G01*
X428966Y88265D02*
G03*
X428966Y87209I527J-527D01*
G01*
X354020Y131070D02*
G03*
X353802Y131597I-746J0D01*
G01*
X353802Y130542D02*
G03*
X354020Y131070I-528J527D01*
G01*
X353576Y131823D02*
G03*
X352521Y131823I-527J-528D01*
G01*
X353551Y126837D02*
G03*
X356285Y126609I1502J1502D01*
G01*
X353326Y130066D02*
G03*
X353326Y127063I1502J-1502D01*
G01*
X344556Y140843D02*
G03*
X343501Y140843I-527J-527D01*
G01*
X342051Y140843D02*
G03*
X343501Y140843I725J725D01*
G01*
X349066Y136333D02*
G03*
X348011Y136333I-527J-528D01*
G01*
X349041Y131347D02*
G03*
X352045Y131347I1502J1502D01*
G01*
X345001Y140090D02*
G03*
X344782Y140617I-746J0D01*
G01*
X344306Y139086D02*
G03*
X344306Y136082I1502J-1502D01*
G01*
X348816Y134576D02*
G03*
X348816Y131572I1502J-1502D01*
G01*
X355398Y131070D02*
G03*
X354776Y132572I-2124J0D01*
G01*
X354526Y127812D02*
G03*
X355581Y127812I527J527D01*
G01*
X354551Y132797D02*
G03*
X351547Y132797I-1502J-1502D01*
G01*
X354300Y129092D02*
G03*
X354300Y128037I527J-527D01*
G01*
X345531Y141817D02*
G03*
X342797Y142045I-1502J-1502D01*
G01*
X350041Y137307D02*
G03*
X347037Y137307I-1502J-1502D01*
G01*
X350016Y132321D02*
G03*
X351071Y132321I527J527D01*
G01*
X349790Y133602D02*
G03*
X349790Y132547I527J-527D01*
G01*
X345280Y138112D02*
G03*
X345280Y137057I527J-527D01*
G01*
X349510Y135580D02*
G03*
X349292Y136107I-746J0D01*
G01*
Y135052D02*
G03*
X349510Y135580I-527J527D01*
G01*
X344782Y139562D02*
G03*
X345001Y140090I-527J527D01*
G01*
X344531Y135857D02*
G03*
X347535Y135857I1502J1502D01*
G01*
X357031Y127811D02*
G03*
X355581Y127811I-725J-725D01*
G01*
X354776Y129568D02*
G03*
X355398Y131070I-1502J1502D01*
G01*
X350888Y135580D02*
G03*
X350266Y137082I-2124J0D01*
G01*
Y134078D02*
G03*
X350888Y135580I-1502J1502D01*
G01*
X346378Y140090D02*
G03*
X345756Y141592I-2124J0D01*
G01*
Y138588D02*
G03*
X346378Y140090I-1502J1502D01*
G01*
X345506Y136831D02*
G03*
X346561Y136831I527J527D01*
G01*
X298191Y93440D02*
G03*
X297136Y93440I-527J-528D01*
G01*
X294572Y93440D02*
G03*
X297136Y93440I1282J1282D01*
G01*
X297052Y87340D02*
G03*
X300056Y87340I1502J1502D01*
G01*
X298635Y92687D02*
G03*
X298416Y93214I-746J0D01*
G01*
X298416Y92159D02*
G03*
X298635Y92687I-528J527D01*
G01*
X296827Y90570D02*
G03*
X296827Y87566I1502J-1502D01*
G01*
X299165Y94414D02*
G03*
X296162Y94414I-1502J-1502D01*
G01*
X300013Y92687D02*
G03*
X299391Y94189I-2124J0D01*
G01*
X301646Y88315D02*
G03*
X299082Y88315I-1282J-1282D01*
G01*
X297801Y89596D02*
G03*
X297801Y88540I528J-527D01*
G01*
X295546Y94414D02*
G03*
X296162Y94414I308J308D01*
G01*
X298027Y88315D02*
G03*
X299082Y88315I527J527D01*
G01*
X329206Y57654D02*
G03*
X329206Y58806I-576J576D01*
G01*
X331639Y56373D02*
G03*
X330486Y56373I-576J-576D01*
G01*
X328677Y55716D02*
G03*
X329829Y55716I576J576D01*
G01*
X300671Y87340D02*
G03*
X300056Y87340I-308J-308D01*
G01*
X328549Y56997D02*
G03*
X328549Y55844I576J-576D01*
G01*
X299391Y91185D02*
G03*
X300013Y92687I-1502J1502D01*
G01*
X314188Y91990D02*
G03*
X313133Y91990I-527J-527D01*
G01*
X310569Y91990D02*
G03*
X313133Y91990I1282J1282D01*
G01*
X314632Y91237D02*
G03*
X314413Y91765I-746J0D01*
G01*
X319142Y86727D02*
G03*
X318923Y87255I-746J0D01*
G01*
Y86200D02*
G03*
X319142Y86727I-528J527D01*
G01*
X323208Y82970D02*
G03*
X322153Y82970I-527J-528D01*
G01*
X318698Y87480D02*
G03*
X317643Y87480I-527J-527D01*
G01*
X312824Y89120D02*
G03*
X312824Y86116I1502J-1502D01*
G01*
X317334Y84610D02*
G03*
X317334Y81606I1502J-1502D01*
G01*
X313049Y85891D02*
G03*
X316053Y85891I1502J1502D01*
G01*
X324408Y80715D02*
G03*
X324408Y80100I308J-308D01*
G01*
X319898Y85225D02*
G03*
X320520Y86727I-1502J1502D01*
G01*
X324182Y83945D02*
G03*
X321178Y83945I-1502J-1502D01*
G01*
X318534Y82355D02*
G03*
X319589Y82355I527J527D01*
G01*
X315162Y92965D02*
G03*
X312158Y92965I-1502J-1502D01*
G01*
X311543D02*
G03*
X312158Y92965I308J308D01*
G01*
X315388Y89735D02*
G03*
X316010Y91237I-1502J1502D01*
G01*
X319672Y88455D02*
G03*
X316668Y88455I-1502J-1502D01*
G01*
X318308Y83636D02*
G03*
X318308Y82581I527J-527D01*
G01*
X316010Y91237D02*
G03*
X315388Y92739I-2124J0D01*
G01*
X313798Y88146D02*
G03*
X313798Y87090I527J-527D01*
G01*
X314024Y86865D02*
G03*
X315079Y86865I527J528D01*
G01*
X325030Y82217D02*
G03*
X324408Y83719I-2124J0D01*
G01*
Y80715D02*
G03*
X325030Y82217I-1502J1502D01*
G01*
X320520Y86727D02*
G03*
X319898Y88229I-2124J0D01*
G01*
X335266Y67293D02*
G03*
X334319Y67293I-473J-473D01*
G01*
X333039Y67293D02*
G03*
X334319Y67293I640J640D01*
G01*
X333039Y68574D02*
G03*
X333039Y69520I-473J473D01*
G01*
X333039Y68574D02*
G03*
X333039Y67293I640J-640D01*
G01*
X323652Y82217D02*
G03*
X323433Y82745I-746J0D01*
G01*
Y81690D02*
G03*
X323652Y82217I-527J527D01*
G01*
X323433Y81690D02*
G03*
X323433Y79126I1282J-1282D01*
G01*
X314413Y90710D02*
G03*
X314632Y91237I-527J527D01*
G01*
X317559Y81381D02*
G03*
X320563Y81381I1502J1502D01*
G01*
X324706Y106711D02*
G03*
X324971Y107351I-640J640D01*
G01*
X329216Y103481D02*
G03*
X327935Y103481I-640J-640D01*
G01*
X329216Y102201D02*
G03*
X329481Y102841I-640J640D01*
G01*
X329216Y102201D02*
G03*
X329216Y99918I1141J-1141D01*
G01*
X330190Y101226D02*
G03*
X330859Y102841I-1615J1615D01*
G01*
X330190Y101226D02*
G03*
X330190Y100892I167J-167D01*
G01*
X324372Y103147D02*
G03*
X325652Y103147I640J640D01*
G01*
X324372Y104428D02*
G03*
X324372Y103147I640J-640D01*
G01*
X352728Y63032D02*
G03*
X353543Y63846I0J815D01*
G01*
Y60405D02*
G03*
X352728Y61221I-815J0D01*
G01*
Y59409D02*
G03*
X353543Y60224I0J815D01*
G01*
X352587Y63032D02*
G03*
X351772Y62217I0J-815D01*
G01*
Y62035D02*
G03*
X352587Y61221I815J0D01*
G01*
Y59409D02*
G03*
X351772Y58595I0J-815D01*
G01*
Y58413D02*
G03*
X352587Y57598I815J0D01*
G01*
X353543Y56783D02*
G03*
X352728Y57598I-815J0D01*
G01*
X324706Y107991D02*
G03*
X323425Y107991I-640J-640D01*
G01*
X324971Y107351D02*
G03*
X324706Y107991I-905J0D01*
G01*
X321143Y107991D02*
G03*
X323425Y107991I1141J1141D01*
G01*
X329481Y102841D02*
G03*
X329216Y103481I-905J0D01*
G01*
X323397Y105402D02*
G03*
X323397Y102173I1615J-1615D01*
G01*
X323397D02*
G03*
X326627Y102173I1615J1615D01*
G01*
X330859Y102841D02*
G03*
X330190Y104456I-2283J0D01*
G01*
X326349Y107351D02*
G03*
X325680Y108966I-2283J0D01*
G01*
Y105736D02*
G03*
X326349Y107351I-1615J1615D01*
G01*
X325680Y108966D02*
G03*
X322451Y108966I-1615J-1615D01*
G01*
X330190Y104456D02*
G03*
X326961Y104456I-1615J-1615D01*
G01*
X322117Y108966D02*
G03*
X322451Y108966I167J167D01*
G01*
X235827Y263819D02*
G03*
X235039Y263032I0J-787D01*
G01*
Y262795D02*
G03*
X235827Y262008I787J0D01*
G01*
X241102Y283386D02*
G03*
X242008Y282480I905J0D01*
G01*
X241102Y283937D02*
G03*
X240197Y284842I-905J0D01*
G01*
X241890Y294193D02*
G03*
X242795Y293287I905J0D01*
G01*
X243819Y284842D02*
G03*
X242913Y283937I0J-905D01*
G01*
X244724Y283386D02*
G03*
X245630Y282480I905J0D01*
G01*
X244724Y283937D02*
G03*
X243819Y284842I-905J0D01*
G01*
X247441D02*
G03*
X246535Y283937I0J-905D01*
G01*
X236024Y293287D02*
G03*
X236457Y293720I0J433D01*
G01*
X238268Y294193D02*
G03*
X239173Y293287I905J0D01*
G01*
X240984Y295650D02*
G03*
X240079Y294744I0J-905D01*
G01*
X237362Y295650D02*
G03*
X236457Y294744I0J-905D01*
G01*
X238268D02*
G03*
X237362Y295650I-905J0D01*
G01*
X241890Y294744D02*
G03*
X240984Y295650I-905J0D01*
G01*
X245512Y294193D02*
G03*
X246417Y293287I905J0D01*
G01*
X244606Y295650D02*
G03*
X243701Y294744I0J-905D01*
G01*
X245512D02*
G03*
X244606Y295650I-905J0D01*
G01*
X278150Y291260D02*
G03*
X279055Y290354I905J0D01*
G01*
X278150Y294882D02*
G03*
X279055Y293976I905J0D01*
G01*
X278583Y274055D02*
G03*
X278150Y273622I0J-433D01*
G01*
Y287638D02*
G03*
X279055Y286732I905J0D01*
G01*
Y284921D02*
G03*
X278150Y284016I0J-905D01*
G01*
Y276772D02*
G03*
X279055Y275866I905J0D01*
G01*
Y277677D02*
G03*
X278150Y276772I0J-905D01*
G01*
Y280394D02*
G03*
X279055Y279488I905J0D01*
G01*
Y281299D02*
G03*
X278150Y280394I0J-905D01*
G01*
Y284016D02*
G03*
X279055Y283110I905J0D01*
G01*
X279095Y274055D02*
G03*
X280000Y274961I0J905D01*
G01*
D02*
G03*
X279095Y275866I-905J0D01*
G01*
Y277677D02*
G03*
X280000Y278583I0J905D01*
G01*
D02*
G03*
X279095Y279488I-905J0D01*
G01*
X280000Y282205D02*
G03*
X279095Y283110I-905J0D01*
G01*
Y281299D02*
G03*
X280000Y282205I0J905D01*
G01*
X279055Y288543D02*
G03*
X278150Y287638I0J-905D01*
G01*
X279055Y292165D02*
G03*
X278150Y291260I0J-905D01*
G01*
X279095Y288543D02*
G03*
X280000Y289449I0J905D01*
G01*
D02*
G03*
X279095Y290354I-905J0D01*
G01*
Y284921D02*
G03*
X280000Y285827I0J905D01*
G01*
D02*
G03*
X279095Y286732I-905J0D01*
G01*
Y292165D02*
G03*
X280000Y293071I0J905D01*
G01*
D02*
G03*
X279095Y293976I-905J0D01*
G01*
X262008Y288976D02*
G03*
X261102Y289882I-905J0D01*
G01*
X258661Y290787D02*
G03*
X259567Y289882I905J0D01*
G01*
Y291693D02*
G03*
X258661Y290787I0J-905D01*
G01*
Y294409D02*
G03*
X259567Y293504I905J0D01*
G01*
Y295315D02*
G03*
X258661Y294409I0J-905D01*
G01*
X261102Y291693D02*
G03*
X262008Y292598I0J905D01*
G01*
D02*
G03*
X261102Y293504I-905J0D01*
G01*
Y295315D02*
G03*
X262008Y296220I0J905D01*
G01*
X284449Y276299D02*
G03*
X285354Y275394I905J0D01*
G01*
Y277205D02*
G03*
X284449Y276299I0J-905D01*
G01*
Y287165D02*
G03*
X285354Y286260I905J0D01*
G01*
X284449Y283543D02*
G03*
X285354Y282638I905J0D01*
G01*
Y284449D02*
G03*
X284449Y283543I0J-905D01*
G01*
X285354Y288071D02*
G03*
X284449Y287165I0J-905D01*
G01*
Y290787D02*
G03*
X285354Y289882I905J0D01*
G01*
X284449Y279921D02*
G03*
X285354Y279016I905J0D01*
G01*
Y280827D02*
G03*
X284449Y279921I0J-905D01*
G01*
X285354Y295315D02*
G03*
X284449Y294409I0J-905D01*
G01*
X285354Y291693D02*
G03*
X284449Y290787I0J-905D01*
G01*
Y294409D02*
G03*
X285354Y293504I905J0D01*
G01*
X286811Y274488D02*
G03*
X285906Y275394I-905J0D01*
G01*
Y277205D02*
G03*
X286811Y278110I0J905D01*
G01*
Y281732D02*
G03*
X285906Y282638I-905J0D01*
G01*
Y284449D02*
G03*
X286811Y285354I0J905D01*
G01*
Y278110D02*
G03*
X285906Y279016I-905J0D01*
G01*
Y280827D02*
G03*
X286811Y281732I0J905D01*
G01*
Y288976D02*
G03*
X285906Y289882I-905J0D01*
G01*
Y291693D02*
G03*
X286811Y292598I0J905D01*
G01*
Y285354D02*
G03*
X285906Y286260I-905J0D01*
G01*
Y288071D02*
G03*
X286811Y288976I0J905D01*
G01*
Y292598D02*
G03*
X285906Y293504I-905J0D01*
G01*
Y295315D02*
G03*
X286811Y296220I0J905D01*
G01*
X345598Y266968D02*
G03*
X344783Y266154I0J-815D01*
G01*
Y265972D02*
G03*
X345598Y265158I815J0D01*
G01*
X347342Y264342D02*
G03*
X346528Y265158I-815J0D01*
G01*
Y266968D02*
G03*
X347342Y267783I0J815D01*
G01*
X299438Y200816D02*
G03*
X300013Y202205I-1389J1389D01*
G01*
D02*
G03*
X299438Y203594I-1965J0D01*
G01*
X300719Y204875D02*
G03*
X303497Y204875I1389J1389D01*
G01*
X351032Y211524D02*
G03*
X350698Y211524I-167J-167D01*
G01*
X351032D02*
G03*
X354930Y213139I1615J1615D01*
G01*
X354261Y215088D02*
G03*
X354261Y214754I167J-167D01*
G01*
X354930Y213139D02*
G03*
X354261Y214754I-2283J0D01*
G01*
X298041Y205821D02*
G03*
X298041Y203043I1389J-1389D01*
G01*
X301270Y206273D02*
G03*
X298492Y206273I-1389J-1389D01*
G01*
X352006Y212499D02*
G03*
X353285Y212497I640J640D01*
G01*
X353552Y213139D02*
G03*
X353287Y213779I-905J0D01*
G01*
Y212499D02*
G03*
X353552Y213139I-640J640D01*
G01*
X299014Y204846D02*
G03*
X299015Y204017I416J-414D01*
G01*
X300295Y205298D02*
G03*
X299468Y205300I-415J-415D01*
G01*
X338661Y208465D02*
G03*
X340276Y210079I0J1614D01*
G01*
X342087D02*
G03*
X343701Y208465I1614J0D01*
G01*
X342087Y210079D02*
G03*
X340276Y210079I-905J0D01*
G01*
X358524Y262087D02*
G03*
X356909Y263701I-1614J0D01*
G01*
Y265512D02*
G03*
X356909Y263701I0J-905D01*
G01*
Y265512D02*
G03*
X358524Y267126I0J1614D01*
G01*
X298465Y201791D02*
G03*
X298636Y202205I-416J414D01*
G01*
D02*
G03*
X298464Y202620I-587J0D01*
G01*
X301694Y205848D02*
G03*
X302523Y205849I414J416D01*
G01*
X338661Y209842D02*
G03*
X338898Y210079I0J236D01*
G01*
X343465D02*
G03*
X343701Y209842I236J0D01*
G01*
X343465Y210079D02*
G03*
X338898Y210079I-2283J0D01*
G01*
X352006Y212499D02*
G03*
X349723Y212499I-1141J-1141D01*
G01*
X351959Y239595D02*
G03*
X352774Y238779I815J0D01*
G01*
Y240591D02*
G03*
X351959Y239776I0J-815D01*
G01*
X353287Y216062D02*
G03*
X353287Y213779I1141J-1141D01*
G01*
X354911Y237965D02*
G03*
X354096Y238779I-815J0D01*
G01*
Y240591D02*
G03*
X354911Y241406I0J815D01*
G01*
X356909Y266890D02*
G03*
X356909Y262323I0J-2283D01*
G01*
X357146Y262087D02*
G03*
X356909Y262323I-236J0D01*
G01*
Y266890D02*
G03*
X357146Y267126I0J236D01*
G01*
X363189Y231642D02*
G03*
X364004Y230827I815J0D01*
G01*
Y232638D02*
G03*
X363189Y231823I0J-815D01*
G01*
Y235264D02*
G03*
X364004Y234449I815J0D01*
G01*
Y236260D02*
G03*
X363189Y235445I0J-815D01*
G01*
X365158Y230012D02*
G03*
X364342Y230827I-815J0D01*
G01*
Y232638D02*
G03*
X365158Y233453I0J815D01*
G01*
Y233634D02*
G03*
X364342Y234449I-815J0D01*
G01*
Y236260D02*
G03*
X365158Y237075I0J815D01*
G01*
X144016Y145512D02*
G03*
X148583Y145512I2283J0D01*
G01*
X144016D02*
G03*
X143661Y145866I-354J0D01*
G01*
X150394Y145512D02*
G03*
X154961Y145512I2283J0D01*
G01*
X156772D02*
G03*
X161339Y145512I2283J0D01*
G01*
X150394Y147598D02*
G03*
X148583Y147598I-905J0D01*
G01*
X156772D02*
G03*
X154961Y147598I-905J0D01*
G01*
X163150Y145512D02*
G03*
X167717Y145512I2283J0D01*
G01*
X169527Y147598D02*
G03*
X167717Y147598I-905J0D01*
G01*
X163150D02*
G03*
X161339Y147598I-905J0D01*
G01*
X169527Y145512D02*
G03*
X174094Y145512I2283J0D01*
G01*
X174449Y145866D02*
G03*
X174094Y145512I0J-354D01*
G01*
X145394D02*
G03*
X147205Y145512I905J0D01*
G01*
X145394D02*
G03*
X143661Y147244I-1732J0D01*
G01*
X151772Y145512D02*
G03*
X153583Y145512I905J0D01*
G01*
X158150D02*
G03*
X159961Y145512I905J0D01*
G01*
X158150Y147598D02*
G03*
X153583Y147598I-2283J0D01*
G01*
X151772D02*
G03*
X147205Y147598I-2283J0D01*
G01*
X164527D02*
G03*
X159961Y147598I-2283J0D01*
G01*
X164527Y145512D02*
G03*
X166339Y145512I905J0D01*
G01*
X170905D02*
G03*
X172716Y145512I905J0D01*
G01*
X174449Y147244D02*
G03*
X172716Y145512I0J-1732D01*
G01*
X170905Y147598D02*
G03*
X166339Y147598I-2283J0D01*
G01*
X205748Y145000D02*
G03*
X204842Y144095I0J-905D01*
G01*
X206653D02*
G03*
X205748Y145000I-905J0D01*
G01*
X45599Y201944D02*
G03*
X46880Y201944I640J640D01*
G01*
X50109Y198715D02*
G03*
X50109Y197434I640J-640D01*
G01*
X45599Y203225D02*
G03*
X45597Y201946I640J-640D01*
G01*
X45641Y203266D02*
G03*
X45843Y203753I-487J487D01*
G01*
X50111Y197432D02*
G03*
X51390Y197434I638J642D01*
G01*
X50862Y200413D02*
G03*
X46963Y202028I-2283J0D01*
G01*
X50193Y198798D02*
G03*
X50862Y200413I-1615J1615D01*
G01*
X49216Y201055D02*
G03*
X47938Y201053I-638J-642D01*
G01*
X49218Y199773D02*
G03*
X49484Y200413I-640J640D01*
G01*
D02*
G03*
X49218Y201053I-905J0D01*
G01*
X45843Y203753D02*
G03*
X45641Y204241I-689J0D01*
G01*
X52407Y197474D02*
G03*
X52406Y197476I-489J-486D01*
G01*
D02*
G03*
X51432Y197476I-487J-487D01*
G01*
X45641Y204241D02*
G03*
X45640Y204242I-487J-487D01*
G01*
X44242Y203691D02*
G03*
X47854Y200970I1997J-1107D01*
G01*
X49135Y199689D02*
G03*
X51856Y196077I1615J-1615D01*
G01*
X32382Y173130D02*
G03*
X31300Y172048I0J-1082D01*
G01*
X31299Y175591D02*
G03*
X32381Y174508I1082J0D01*
G01*
X219386Y123394D02*
G03*
X220339Y122441I953J0D01*
G01*
X219386Y123850D02*
G03*
X218433Y124803I-953J0D01*
G01*
X218433D02*
G03*
X217480Y123850I0J-953D01*
G01*
X216528Y122441D02*
G03*
X217480Y123394I0J953D01*
G01*
X285630Y215748D02*
X286516Y214862D01*
Y213209D02*
Y214862D01*
X288779Y213386D02*
Y214173D01*
Y213386D02*
X289173Y212992D01*
X290748D01*
X292323Y214567D01*
Y225984D01*
X293898Y227559D01*
X298622D01*
X300394Y225787D01*
Y221457D02*
Y225787D01*
Y221457D02*
X300984Y220866D01*
X304154D01*
X304921Y221634D01*
Y224803D01*
X306102Y225984D01*
X310827D01*
X312205Y224606D01*
Y220669D02*
Y224606D01*
X310827Y220098D02*
X311821Y219104D01*
X310827Y220098D02*
Y224036D01*
X312225Y218701D02*
X316122D01*
X311821Y219104D02*
X312225Y218701D01*
X312205Y220669D02*
X312795Y220079D01*
X315551D01*
X316339Y220866D01*
Y224016D01*
X318307Y225984D01*
X326181Y231890D02*
X326575Y231496D01*
X315945Y231890D02*
X326181D01*
X314173Y233661D02*
X315945Y231890D01*
X314173Y233661D02*
Y253740D01*
X317126Y256693D01*
X326575Y220846D02*
Y231496D01*
X325807Y220079D02*
X326575Y220846D01*
X323799Y220079D02*
X325807D01*
X323228Y220650D02*
X323799Y220079D01*
X321457Y225984D02*
X323228Y224213D01*
Y220650D02*
Y224213D01*
X318307Y225984D02*
X321457D01*
X339173Y311417D02*
X340236Y310354D01*
Y309311D02*
Y310354D01*
X338228Y307303D02*
X340236Y309311D01*
X338228Y305610D02*
X338287Y305551D01*
Y275669D02*
Y305551D01*
X338228Y305610D02*
Y307303D01*
X338287Y256575D02*
Y270787D01*
X337520Y273228D02*
Y274902D01*
X338287Y275669D01*
X337520Y271555D02*
Y273228D01*
Y271555D02*
X338287Y270787D01*
X335453Y253740D02*
X338287Y256575D01*
X325787Y256693D02*
X328740Y253740D01*
X317126Y256693D02*
X325787D01*
X328740Y253740D02*
X335453D01*
X342264Y311358D02*
X342323Y311417D01*
X342264Y308209D02*
Y311358D01*
X339665Y305610D02*
X342264Y308209D01*
X340433Y273228D02*
Y274902D01*
X339665Y275669D02*
Y305610D01*
Y275669D02*
X340433Y274902D01*
X339665Y270787D02*
X340433Y271555D01*
Y273228D01*
X339665Y256004D02*
Y270787D01*
X325217Y255315D02*
X328169Y252362D01*
X336024D02*
X339665Y256004D01*
X328169Y252362D02*
X336024D01*
X327953Y220276D02*
Y232067D01*
X326752Y233268D02*
X327953Y232067D01*
X326378Y218701D02*
X327953Y220276D01*
X318878Y224606D02*
X320886D01*
X321850Y223642D01*
X317697Y255315D02*
X325217D01*
X317717Y223445D02*
X318878Y224606D01*
X321850Y220079D02*
Y223642D01*
X323228Y218701D02*
X326378D01*
X317717Y220295D02*
Y223445D01*
X321850Y220079D02*
X323228Y218701D01*
X315551Y253169D02*
X317697Y255315D01*
X315551Y234232D02*
Y253169D01*
X316516Y233268D02*
X326752D01*
X315551Y234232D02*
X316516Y233268D01*
X306673Y224606D02*
X310256D01*
X306299Y224232D02*
X306673Y224606D01*
X310256D02*
X310827Y224036D01*
X298051Y226181D02*
X299016Y225217D01*
Y220886D02*
Y225217D01*
X294468Y226181D02*
X298051D01*
X293701Y225413D02*
X294468Y226181D01*
X306299Y221063D02*
Y224232D01*
X304724Y219488D02*
X306299Y221063D01*
X299016Y220886D02*
X300413Y219488D01*
X304724D01*
X316122Y218701D02*
X317717Y220295D01*
X311821Y219104D02*
X311821D01*
X293701Y213996D02*
Y225413D01*
X293297Y213593D02*
X293701Y213996D01*
X293297Y213593D02*
Y213593D01*
X288110Y211614D02*
X291319D01*
X293297Y213593D01*
X286516Y213209D02*
X288110Y211614D01*
X265374Y269094D02*
X269291D01*
X271260Y271063D02*
Y281083D01*
X269291Y269094D02*
X271260Y271063D01*
X262008Y296220D02*
Y305350D01*
X245276Y272618D02*
X247658Y275000D01*
X245276Y241929D02*
Y272618D01*
X247658Y275000D02*
X261417D01*
X230689Y235984D02*
X232303Y237598D01*
X230689Y226949D02*
Y235984D01*
X232303Y237598D02*
X235807D01*
X237205Y236201D01*
Y225590D02*
Y236201D01*
X267323Y245472D02*
Y250984D01*
X266535Y244685D02*
X267323Y245472D01*
X251969Y244685D02*
X266535D01*
X277155Y255699D02*
X278150Y256693D01*
X253927Y255699D02*
X277155D01*
X266535Y251772D02*
X267323Y250984D01*
X253543Y251772D02*
X266535D01*
X251575Y251791D02*
X252973Y250394D01*
X252953Y252362D02*
X253543Y251772D01*
X252953Y252362D02*
Y254724D01*
X251575Y255295D02*
X253356Y257077D01*
X251575Y251791D02*
Y255295D01*
X252953Y254724D02*
X253927Y255699D01*
X252973Y250394D02*
X265158D01*
X253356Y257077D02*
X275187D01*
X238189Y278150D02*
X251949D01*
X237205Y277165D02*
X238189Y278150D01*
X237205Y246870D02*
Y277165D01*
X247441Y284842D02*
X250394D01*
X252165Y283071D01*
Y280315D02*
Y283071D01*
X251378Y279528D02*
X252165Y280315D01*
X237618Y279528D02*
X251378D01*
X235827Y277736D02*
X237618Y279528D01*
X235827Y263819D02*
Y277736D01*
X234055Y245669D02*
X235827Y247441D01*
X231279Y245669D02*
X234055D01*
X230030Y246919D02*
X231279Y245669D01*
X230030Y246919D02*
Y250876D01*
X227953Y252953D02*
X230030Y250876D01*
X224823Y252953D02*
X227953D01*
X232874Y286614D02*
X234646Y284842D01*
X232874Y286614D02*
Y291339D01*
X234823Y293287D01*
X251909Y294232D02*
Y305449D01*
X250964Y293287D02*
X251909Y294232D01*
X246417Y293287D02*
X250964D01*
X204941Y151181D02*
X207382Y153622D01*
X202953Y151181D02*
X204941D01*
X195453D02*
X197835D01*
X198425Y151772D02*
Y152909D01*
X199059Y153543D02*
X199602D01*
X200236Y151815D02*
Y152909D01*
X200870Y151181D02*
X202953D01*
X182451Y164183D02*
X195453Y151181D01*
X178543Y164183D02*
X182451D01*
X65564Y211779D02*
X68701Y208642D01*
X60357Y214033D02*
X62335Y216011D01*
X59077Y215314D02*
X61054Y217291D01*
X54212Y223130D02*
X56822Y220520D01*
X64589Y210805D02*
X68130Y207264D01*
X61332Y213059D02*
X63309Y215036D01*
X58102Y216288D02*
X60079Y218265D01*
X53642Y221752D02*
X55849Y219545D01*
X32579Y221752D02*
X53642D01*
X150620Y164183D02*
X156220D01*
X143130Y156693D02*
X150620Y164183D01*
X68701Y208642D02*
X120650Y156693D01*
X174449Y161742D02*
Y165246D01*
X176260Y161742D02*
Y161900D01*
X168071Y161742D02*
Y165246D01*
X169882Y161742D02*
Y165246D01*
X161693Y161742D02*
Y165246D01*
X163504Y161742D02*
Y165246D01*
X157126Y165089D02*
Y165246D01*
X178543Y162805D02*
X181880Y162805D01*
X177638Y161742D02*
Y161900D01*
X173071Y161742D02*
Y165246D01*
X166693Y161742D02*
Y165246D01*
X171260Y161742D02*
Y165246D01*
X160315Y161742D02*
Y165246D01*
X164882Y161742D02*
Y165246D01*
X158504Y165089D02*
Y165246D01*
X68130Y207264D02*
X120079Y155315D01*
X156220Y162805D02*
X156220D01*
X153347Y162805D02*
X156220Y162805D01*
X206102Y155118D02*
X207382Y153839D01*
Y153622D02*
Y153839D01*
X32579Y223130D02*
X54212D01*
X31693Y224016D02*
X32579Y223130D01*
X208760Y153839D02*
X210039Y155118D01*
X181880Y162805D02*
X194882Y149803D01*
X208760Y153051D02*
Y153839D01*
X205512Y149803D02*
X208760Y153051D01*
X194882Y149803D02*
X205512D01*
X31693Y220866D02*
X32579Y221752D01*
X151772Y162805D02*
X153347D01*
X151772Y162805D02*
X151772Y162805D01*
X151191Y162805D02*
X151772D01*
X120079Y155315D02*
X143701D01*
X151191Y162805D01*
X54212Y223130D02*
Y223130D01*
X68130Y207264D02*
Y207264D01*
X230413Y145905D02*
Y153642D01*
X81926Y154190D02*
X102848Y133268D01*
X78334Y155470D02*
X79671Y156806D01*
X75105Y158700D02*
X76442Y160036D01*
X73825Y159980D02*
X75161Y161316D01*
X70595Y163209D02*
X71932Y164546D01*
X69315Y164490D02*
X70651Y165826D01*
X66085Y167719D02*
X67422Y169055D01*
X64805Y169000D02*
X66141Y170336D01*
X47631Y188484D02*
X62550Y173565D01*
X80951Y153215D02*
X102277Y131890D01*
X77360Y156445D02*
X78696Y157781D01*
X76080Y157725D02*
X77416Y159061D01*
X72850Y160954D02*
X74186Y162291D01*
X71570Y162235D02*
X72906Y163571D01*
X68340Y165464D02*
X69677Y166801D01*
X67060Y166745D02*
X68396Y168081D01*
X63830Y169974D02*
X65167Y171310D01*
X47060Y187106D02*
X61576Y172591D01*
X32185Y188484D02*
X47631D01*
X32185Y187106D02*
X47060D01*
X102848Y133268D02*
Y133268D01*
X102277Y131890D02*
Y131890D01*
X102848Y133268D02*
X224410D01*
X239567Y139370D02*
Y142067D01*
X238583Y142973D02*
X238661D01*
X238583Y144783D02*
X238661D01*
X238583Y146595D02*
X238661D01*
X238583Y148406D02*
X238661D01*
X228937Y155118D02*
X230413Y153642D01*
X31299Y189370D02*
X32185Y188484D01*
X231791Y153642D02*
X233268Y155118D01*
X31299Y186221D02*
X32185Y187106D01*
X240945Y153937D02*
X242126Y155118D01*
X240945Y138799D02*
Y153937D01*
X228917Y126772D02*
X240945Y138799D01*
X55045Y166411D02*
X81496Y139961D01*
X56178Y167227D02*
X82067Y141339D01*
X52150Y169641D02*
X52790Y170281D01*
X50869Y170921D02*
X51510Y171562D01*
X47640Y174151D02*
X48280Y174791D01*
X46360Y175431D02*
X47000Y176072D01*
X41811Y181595D02*
X43946Y179459D01*
X53124Y168666D02*
X53765Y169307D01*
X49895Y171896D02*
X50535Y172536D01*
X48614Y173176D02*
X49255Y173817D01*
X45385Y176406D02*
X46025Y177046D01*
X41240Y180217D02*
X43130Y178326D01*
X32185Y181595D02*
X41811D01*
X32185Y180217D02*
X41240D01*
X238386Y155118D02*
X239567Y153937D01*
Y149311D02*
Y153937D01*
X31299Y182481D02*
X32185Y181595D01*
X31299Y179331D02*
X32185Y180217D01*
X154629Y328774D02*
X158858Y324545D01*
X149769Y328774D02*
X154629D01*
X158858Y319291D02*
Y324545D01*
X155281Y330349D02*
X160433Y325197D01*
X420815Y51035D02*
X426181Y45669D01*
X418031Y51035D02*
X418032Y51035D01*
X417859Y51208D02*
X418031Y51035D01*
X417363Y54487D02*
X417859Y53992D01*
X417858Y51208D02*
X417859Y51208D01*
X411614Y60236D02*
X414407Y57444D01*
X414579Y54487D02*
X414580Y54487D01*
X414407Y54660D02*
X414579Y54487D01*
X414406Y54660D02*
X414407Y54660D01*
X426181Y45669D02*
Y45669D01*
X324410Y141949D02*
Y171683D01*
Y141949D02*
X366142Y100217D01*
X305512Y190581D02*
X324410Y171683D01*
X366142Y81713D02*
X366949Y80905D01*
X367116D01*
X366142Y81713D02*
Y100217D01*
X305512Y190581D02*
Y194685D01*
X304528Y195669D02*
X305512Y194685D01*
X391535Y60236D02*
X411614D01*
X391535D02*
X391535Y60236D01*
X367116Y80905D02*
X387785Y60236D01*
X391535D01*
X421795Y52014D02*
X421806Y52026D01*
X421795Y52014D02*
X422095Y51714D01*
X421314Y52519D02*
X421806Y52026D01*
X422095Y51704D02*
X423012Y50787D01*
X430512D01*
X422095Y51704D02*
Y51714D01*
X418838Y54971D02*
X418850Y54983D01*
X419343Y54491D01*
X418342Y55466D02*
X418355Y55479D01*
X419343Y54290D02*
X421113Y52519D01*
X421314D01*
X419343Y54290D02*
Y54491D01*
X325787Y142520D02*
Y172254D01*
Y142520D02*
X367520Y100787D01*
X306890Y191152D02*
X325787Y172254D01*
X367520Y82284D02*
X367687D01*
X388356Y61614D02*
X412185D01*
X367520Y82284D02*
Y100787D01*
X306890Y194882D02*
X307677Y195669D01*
X306890Y191152D02*
Y194882D01*
X415891Y57741D02*
Y57942D01*
Y57741D02*
X417661Y55971D01*
X415398Y58435D02*
X415891Y57942D01*
X417862Y55971D02*
X418355Y55479D01*
X418342Y55466D02*
X418838Y54971D01*
X417661Y55971D02*
X417862D01*
X412185Y61614D02*
X415076Y58723D01*
X415086D01*
X367687Y82284D02*
X388356Y61614D01*
X415386Y58423D02*
X415398Y58435D01*
X415086Y58723D02*
X415386Y58423D01*
X435461Y81271D02*
X445079Y71653D01*
X428242Y90996D02*
X428468Y90770D01*
X432752Y86486D02*
X432978Y86260D01*
X431221Y86010D02*
X431697Y86486D01*
X432502Y84729D02*
X432978Y85205D01*
X427992Y89239D02*
X428468Y89715D01*
X427992Y86235D02*
X428217Y86010D01*
X436207Y82474D02*
X446457Y72224D01*
X433727Y87460D02*
X433952Y87234D01*
X433476Y82700D02*
X433702Y82474D01*
X396634Y122047D02*
X426483Y92198D01*
X430247Y86984D02*
X430723Y87460D01*
X433476Y83755D02*
X433952Y84231D01*
X429217Y91970D02*
X429442Y91744D01*
X428966Y88265D02*
X429442Y88741D01*
X428966Y87209D02*
X429192Y86984D01*
X445079Y60169D02*
Y71653D01*
Y50394D02*
Y56839D01*
X442323Y47638D02*
X445079Y50394D01*
X443504Y58413D02*
Y58595D01*
X441496Y46811D02*
X442323Y47638D01*
X356102Y151988D02*
Y176772D01*
Y151988D02*
X387421Y120669D01*
X330236Y191535D02*
X341339D01*
X356102Y176772D01*
X387421Y120669D02*
X396063D01*
X425737Y90996D01*
X323425Y200394D02*
X324311Y199508D01*
Y197461D02*
Y199508D01*
Y197461D02*
X330236Y191535D01*
X432502Y81725D02*
X432727Y81500D01*
X446457Y49803D02*
X447441Y48819D01*
X446457Y49803D02*
Y72224D01*
X341909Y192913D02*
X357480Y177342D01*
Y152559D02*
Y177342D01*
X325689Y198031D02*
X330807Y192913D01*
X341909D01*
X387992Y122047D02*
X396634D01*
X357480Y152559D02*
X387992Y122047D01*
X325689Y199508D02*
X326575Y200394D01*
X325689Y198031D02*
Y199508D01*
X415541Y78543D02*
X421695Y72390D01*
X439567Y48425D02*
Y54351D01*
X428404Y65513D02*
X439567Y54351D01*
X424952Y68965D02*
X425064Y68854D01*
X317165Y193061D02*
X325512Y184714D01*
Y184547D02*
Y184714D01*
X316339Y200394D02*
X317165Y199567D01*
X326319Y183740D02*
X337471D01*
X325512Y184547D02*
X326319Y183740D01*
X317165Y193061D02*
Y199567D01*
X414567Y79351D02*
X415374Y78543D01*
X386659Y112771D02*
X414567Y84862D01*
X415374Y78543D02*
X415541D01*
X341339Y152185D02*
Y179872D01*
Y152185D02*
X380753Y112771D01*
X337471Y183740D02*
X341339Y179872D01*
X414567Y79351D02*
Y84862D01*
X380753Y112771D02*
X386659D01*
X442323Y50787D02*
Y53543D01*
X429467Y66576D02*
X429483Y66592D01*
X429467Y66576D02*
X429767Y66276D01*
X428722Y67144D02*
X428930D01*
X429483Y66592D01*
X429873Y65994D02*
Y66021D01*
Y65994D02*
X442323Y53543D01*
X429767Y66127D02*
Y66276D01*
Y66127D02*
X429873Y66021D01*
X342717Y152756D02*
Y180443D01*
Y152756D02*
X381324Y114148D01*
X326890Y185118D02*
X338042D01*
X342717Y180443D01*
X415945Y79921D02*
X416112D01*
X415945D02*
Y85433D01*
X381324Y114148D02*
X387229D01*
X415945Y85433D01*
X318543Y199449D02*
X319488Y200394D01*
X326890Y185118D02*
Y185285D01*
X318543Y193632D02*
Y199449D01*
Y193632D02*
X326890Y185285D01*
X426015Y70028D02*
X426031Y70044D01*
X426015Y70028D02*
X426126Y69917D01*
X425270Y70596D02*
X425478D01*
X426031Y70044D01*
X426695Y69172D02*
Y69380D01*
Y69172D02*
X428722Y67144D01*
X426126Y69917D02*
X426142Y69933D01*
X426695Y69380D01*
X422374Y73669D02*
X422674Y73369D01*
X422690Y73385D02*
X423243Y72832D01*
X416112Y79921D02*
X422364Y73669D01*
X422374D01*
X423243Y72624D02*
Y72832D01*
Y72624D02*
X425270Y70596D01*
X422674Y73369D02*
X422690Y73385D01*
X356285Y126609D02*
X388209Y94685D01*
X353576Y131823D02*
X353802Y131597D01*
X353326Y130066D02*
X353802Y130542D01*
X353326Y127063D02*
X353551Y126837D01*
X344556Y140843D02*
X344782Y140617D01*
X334055Y148839D02*
X342051Y140843D01*
X349066Y136333D02*
X349292Y136107D01*
X352045Y131347D02*
X352521Y131823D01*
X348816Y134576D02*
X349292Y135052D01*
X348816Y131572D02*
X349041Y131347D01*
X344306Y139086D02*
X344782Y139562D01*
X347535Y135857D02*
X348011Y136333D01*
X344306Y136082D02*
X344531Y135857D01*
X354551Y132797D02*
X354776Y132572D01*
X351071Y132321D02*
X351547Y132797D01*
X354300Y129092D02*
X354776Y129568D01*
X354300Y128037D02*
X354526Y127811D01*
X335433Y149409D02*
X342797Y142045D01*
X350041Y137307D02*
X350266Y137082D01*
X349790Y133602D02*
X350266Y134078D01*
X349790Y132547D02*
X350016Y132321D01*
X345280Y138112D02*
X345756Y138588D01*
X346561Y136831D02*
X347037Y137307D01*
X345280Y137057D02*
X345506Y136831D01*
X395669Y94685D02*
X406102Y84252D01*
Y75217D02*
Y84252D01*
X388209Y94685D02*
X395669D01*
X428740Y58071D02*
X432874Y53937D01*
Y50282D02*
Y53937D01*
X406102Y75217D02*
X423248Y58071D01*
X428740D01*
X430118Y47638D02*
X430230D01*
X432874Y50282D01*
X331890Y176969D02*
X334055Y174803D01*
Y148839D02*
Y174803D01*
X311811Y191162D02*
X326004Y176969D01*
X331890D01*
X309252Y200394D02*
X310138Y199508D01*
Y197461D02*
X311811Y195788D01*
Y191162D02*
Y195788D01*
X310138Y197461D02*
Y199508D01*
X396240Y96063D02*
X407480Y84823D01*
Y75787D02*
Y84823D01*
X357031Y127811D02*
X388779Y96063D01*
X396240D01*
X435630Y48425D02*
Y53130D01*
X429311Y59449D02*
X435630Y53130D01*
X407480Y75787D02*
X423819Y59449D01*
X429311D01*
X326575Y178347D02*
X332461D01*
X335433Y175374D01*
X311516Y198031D02*
X313189Y196358D01*
Y191732D02*
X326575Y178347D01*
X345531Y141817D02*
X345756Y141592D01*
X335433Y149409D02*
Y175374D01*
X311516Y199508D02*
X312402Y200394D01*
X313189Y191732D02*
Y196358D01*
X311516Y198031D02*
Y199508D01*
X328563Y59449D02*
X329206Y58806D01*
X298191Y93440D02*
X298416Y93214D01*
X296827Y90570D02*
X298416Y92159D01*
X296827Y87566D02*
X297052Y87340D01*
X285236Y104724D02*
X295546Y94414D01*
X299165D02*
X299391Y94189D01*
X301646Y88315D02*
X336417Y53543D01*
X297801Y89596D02*
X299391Y91185D01*
X297801Y88540D02*
X298027Y88315D01*
X333661Y46457D02*
Y54351D01*
X331639Y56373D02*
X333661Y54351D01*
X329829Y55716D02*
X330486Y56373D01*
X283858Y104154D02*
Y135256D01*
Y104154D02*
X294572Y93440D01*
X282972Y136142D02*
X283858Y135256D01*
X300671Y87340D02*
X328563Y59449D01*
X328549Y56997D02*
X329206Y57654D01*
X328549Y55844D02*
X328677Y55716D01*
X336417Y51181D02*
Y53543D01*
X285236Y104724D02*
Y135827D01*
X284350Y166831D02*
X285236Y167717D01*
X284350Y136713D02*
X285236Y135827D01*
X284350Y136713D02*
Y166831D01*
X323208Y82970D02*
X323433Y82745D01*
X290551Y112008D02*
X310569Y91990D01*
X314188Y91990D02*
X314413Y91765D01*
X312824Y89120D02*
X314413Y90710D01*
X318698Y87480D02*
X318923Y87255D01*
X317334Y84610D02*
X318923Y86200D01*
X320563Y81381D02*
X322153Y82970D01*
X316053Y85891D02*
X317643Y87480D01*
X312824Y86116D02*
X313049Y85891D01*
X317334Y81606D02*
X317559Y81381D01*
X324182Y83945D02*
X324408Y83719D01*
X324408Y80100D02*
X333206Y71302D01*
X319672Y88455D02*
X319898Y88229D01*
X319589Y82355D02*
X321178Y83945D01*
X291929Y112579D02*
X311543Y92965D01*
X315162Y92965D02*
X315388Y92739D01*
X315079Y86865D02*
X316668Y88455D01*
X318308Y83636D02*
X319898Y85225D01*
X318308Y82581D02*
X318534Y82355D01*
X313798Y88146D02*
X315388Y89735D01*
X313798Y87090D02*
X314024Y86865D01*
X340059Y50295D02*
X342323Y48031D01*
X340059Y50295D02*
Y64449D01*
X333206Y71302D02*
X340059Y64449D01*
X291929Y112579D02*
Y148405D01*
X289075Y151260D02*
X291929Y148405D01*
X289075Y163681D02*
X289961Y164567D01*
X289075Y151260D02*
Y163681D01*
X338681Y50295D02*
Y63878D01*
X336417Y48031D02*
X338681Y50295D01*
X335266Y67293D02*
X338681Y63878D01*
X332087Y70472D02*
X333039Y69520D01*
X323433Y79126D02*
X332087Y70472D01*
X287697Y150689D02*
X290551Y147835D01*
X286811Y164567D02*
X287697Y163681D01*
Y150689D02*
Y163681D01*
X290551Y112008D02*
Y147835D01*
X346285Y60039D02*
Y60748D01*
Y55158D02*
Y55866D01*
Y48007D02*
Y50984D01*
X296186Y156747D02*
X299902Y153032D01*
X300590Y117323D02*
Y152342D01*
X299902Y153032D02*
X300590Y152342D01*
X296063Y156870D02*
X296186Y156747D01*
X300684Y117229D02*
X347835Y70079D01*
X300590Y117323D02*
X300684Y117229D01*
X347835Y53543D02*
X349803Y51575D01*
X347835Y53543D02*
Y70079D01*
X346285Y64921D02*
Y69493D01*
Y48007D02*
X346654Y47638D01*
X294685Y156299D02*
X294724Y156260D01*
Y156093D02*
Y156260D01*
X293898Y166929D02*
X294685Y166142D01*
X299164Y151654D02*
X299213D01*
X294724Y156093D02*
X299164Y151654D01*
X294685Y156299D02*
Y166142D01*
X299213Y116565D02*
X346285Y69493D01*
X299213Y116565D02*
Y151654D01*
X323397Y105402D02*
X324706Y106711D01*
X326627Y102173D02*
X327935Y103481D01*
X330190Y100892D02*
X354921Y76161D01*
X325652Y103147D02*
X326961Y104456D01*
X324372Y104428D02*
X325680Y105736D01*
X353543Y63846D02*
Y75590D01*
Y60224D02*
Y60405D01*
X352587Y61221D02*
X352728D01*
X352587Y57598D02*
X352728D01*
X352587Y63032D02*
X352728D01*
X351772Y62035D02*
Y62217D01*
X352587Y59409D02*
X352728D01*
X351772Y58413D02*
Y58595D01*
X353543Y52448D02*
Y56783D01*
X349915Y48819D02*
X353543Y52448D01*
X349803Y48819D02*
X349915D01*
X299508Y158563D02*
X311221Y146850D01*
Y117913D02*
X321143Y107991D01*
X298622Y164173D02*
X299508Y163287D01*
Y158563D02*
Y163287D01*
X311221Y117913D02*
Y146850D01*
X329216Y99918D02*
X353543Y75590D01*
X354921Y47244D02*
Y76161D01*
X354921Y47244D02*
X354921Y47244D01*
X300886Y163287D02*
X301772Y164173D01*
X300886Y159134D02*
X312598Y147421D01*
Y118484D02*
X322117Y108966D01*
X312598Y118484D02*
Y147421D01*
X300886Y159134D02*
Y163287D01*
X371024Y263622D02*
X371850Y262795D01*
X371024Y264528D02*
X371850Y265354D01*
X371024Y263622D02*
Y264528D01*
X418268Y259488D02*
X419095Y258661D01*
X416112Y262795D02*
X418268Y260640D01*
Y259488D02*
Y260640D01*
X371850Y262795D02*
X416112D01*
X331929Y261575D02*
X332874Y260630D01*
X316496Y261575D02*
X331929D01*
X301693Y246772D02*
X316496Y261575D01*
X295394Y246772D02*
X301693D01*
X259173Y210551D02*
X295394Y246772D01*
X193425Y210551D02*
X259173D01*
X188622Y205748D02*
X193425Y210551D01*
X188622Y201732D02*
X189567Y200787D01*
X188622Y201732D02*
Y205748D01*
X368701Y265354D02*
X369646Y264409D01*
Y263051D02*
Y264409D01*
X416890Y259606D02*
Y260069D01*
X415542Y261417D02*
X416890Y260069D01*
X415945Y258661D02*
X416890Y259606D01*
X371280Y261417D02*
X415542D01*
X369646Y263051D02*
X371280Y261417D01*
X332047Y262953D02*
X332874Y263779D01*
X315925Y262953D02*
X332047D01*
X301122Y248150D02*
X315925Y262953D01*
X294823Y248150D02*
X301122D01*
X258602Y211929D02*
X294823Y248150D01*
X192854Y211929D02*
X258602D01*
X187244Y206319D02*
X192854Y211929D01*
X187244Y201614D02*
Y206319D01*
X186417Y200787D02*
X187244Y201614D01*
X232874Y236221D02*
X235236D01*
X232067Y235413D02*
X232874Y236221D01*
X232067Y226378D02*
Y235413D01*
X235827Y225020D02*
Y235630D01*
X235236Y236221D02*
X235827Y235630D01*
X250000Y244665D02*
X251398Y246063D01*
X250000Y238406D02*
Y244665D01*
X251378Y244094D02*
X251969Y244685D01*
X251378Y238976D02*
Y244094D01*
X250000Y238406D02*
X251595Y236811D01*
X252165Y238189D02*
X256476D01*
X251378Y238976D02*
X252165Y238189D01*
X251949Y278150D02*
X253543Y279744D01*
Y283642D01*
X250964Y286221D02*
X253543Y283642D01*
X235216Y286221D02*
X250964D01*
X234252Y290768D02*
X235394Y291909D01*
X234252Y287185D02*
Y290768D01*
Y287185D02*
X235216Y286221D01*
X235394Y291909D02*
X251535D01*
X223405Y229528D02*
X225984Y232106D01*
X158465Y229528D02*
X223405D01*
X224606Y232677D02*
Y241949D01*
X222835Y230906D02*
X224606Y232677D01*
X157894Y230906D02*
X222835D01*
X154331Y220256D02*
X160059Y225984D01*
X160630Y224606D02*
X230295D01*
X155709Y219685D02*
X160630Y224606D01*
X155709Y211024D02*
Y219685D01*
X276772Y258661D02*
Y315311D01*
X281909Y300217D02*
Y305449D01*
X278150Y296457D02*
X281909Y300217D01*
X256476Y238189D02*
X259055Y235610D01*
Y232500D02*
Y235610D01*
X172835Y219882D02*
X246437D01*
X259055Y232500D01*
X174606Y212598D02*
X175492Y211713D01*
X171457Y218504D02*
X172835Y219882D01*
X175492Y211339D02*
Y211713D01*
X171457Y211398D02*
Y218504D01*
Y211398D02*
X172028Y210827D01*
X174980D02*
X175492Y211339D01*
X172028Y210827D02*
X174980D01*
X276772Y315311D02*
X276909Y315449D01*
X265158Y250394D02*
X265945Y249606D01*
Y246457D02*
Y249606D01*
X265551Y246063D02*
X265945Y246457D01*
X251398Y246063D02*
X265551D01*
X255906Y236811D02*
X257677Y235039D01*
X245866Y221260D02*
X257677Y233071D01*
Y235039D01*
X251595Y236811D02*
X255906D01*
X176870Y211713D02*
X177756Y212598D01*
X172264Y221260D02*
X245866D01*
X170482Y219478D02*
X172264Y221260D01*
X170482Y219478D02*
Y219478D01*
X170079Y219075D02*
X170482Y219478D01*
X170079Y212421D02*
Y219075D01*
X176870Y210768D02*
Y211713D01*
X175551Y209449D02*
X176870Y210768D01*
X171457Y209449D02*
X175551D01*
X170079Y210827D02*
X170079Y210827D01*
X170079Y210827D02*
Y212421D01*
X170079Y210827D02*
X171457Y209449D01*
X170079Y210827D02*
X170079D01*
X275187Y257077D02*
X276772Y258661D01*
X256890Y297264D02*
Y307480D01*
X251535Y291909D02*
X256890Y297264D01*
X230709Y244291D02*
X234626D01*
X228652Y246348D02*
X230709Y244291D01*
X228652Y246348D02*
Y250305D01*
X234626Y244291D02*
X237205Y246870D01*
X224400Y252549D02*
X224419D01*
X223238Y251388D02*
X224400Y252549D01*
X224419D02*
X224823Y252953D01*
X223238Y251368D02*
Y251388D01*
X225394Y251575D02*
X227382D01*
X224410Y250590D02*
X225394Y251575D01*
X224410Y244094D02*
Y250590D01*
X227382Y251575D02*
X228652Y250305D01*
X223031Y251161D02*
X223238Y251368D01*
X223031Y243524D02*
Y251161D01*
Y243524D02*
X223238Y243317D01*
X224410Y244094D02*
X225984Y242520D01*
Y232106D02*
Y242520D01*
X157490Y230502D02*
X157894Y230906D01*
X157490Y230502D02*
X157490D01*
X149508Y222520D02*
X157490Y230502D01*
X149508Y213484D02*
Y222520D01*
X148622Y212598D02*
X149508Y213484D01*
X248921Y315449D02*
X256890Y307480D01*
X246909Y315449D02*
X248921D01*
X150886Y221949D02*
X158465Y229528D01*
X150886Y213484D02*
Y221949D01*
Y213484D02*
X151772Y212598D01*
X223238Y243317D02*
X224606Y241949D01*
X223238Y243317D02*
Y243317D01*
X179331Y206693D02*
X179331D01*
X178740Y206102D02*
X179331Y206693D01*
X167736Y206102D02*
X178740D01*
X167146Y206693D02*
X167736Y206102D01*
X167146Y206693D02*
X167146D01*
X178169Y207480D02*
X187618Y216929D01*
X168307Y207480D02*
X178169D01*
X165945Y209842D02*
X168307Y207480D01*
X159232Y209055D02*
X160335Y210158D01*
X155728Y209055D02*
X159232D01*
X158957Y210728D02*
Y211713D01*
X158661Y210433D02*
X158957Y210728D01*
X156299Y210433D02*
X158661D01*
X155709Y211024D02*
X156299Y210433D01*
X154331Y210453D02*
X155728Y209055D01*
X154331Y210453D02*
Y220256D01*
X158071Y212598D02*
X158957Y211713D01*
X261909Y305449D02*
X262008Y305350D01*
X267520Y282874D02*
X269882Y280512D01*
Y272047D02*
Y280512D01*
X262008Y286831D02*
X265965Y282874D01*
X267520D01*
X265945Y270472D02*
X268307D01*
X269882Y272047D01*
X264370D02*
X264370D01*
X265945Y270472D01*
X261417Y275000D02*
X264370Y272047D01*
X242323Y238976D02*
X245276Y241929D01*
X242323Y238976D02*
Y238976D01*
X241919Y238573D02*
X242323Y238976D01*
X241919Y225974D02*
Y238573D01*
X237205Y225590D02*
X237795Y225000D01*
X240945D01*
X229724Y225984D02*
X230689Y226949D01*
X160059Y225984D02*
X229724D01*
X240945Y225000D02*
X241919Y225974D01*
X266909Y301358D02*
Y315449D01*
X263386Y297835D02*
X266909Y301358D01*
X268091Y284252D02*
X271260Y281083D01*
X266535Y284252D02*
X268091D01*
X263386Y287402D02*
Y297835D01*
Y287402D02*
X266535Y284252D01*
X260847Y273622D02*
X263799Y270669D01*
X248228Y273622D02*
X260847D01*
X246654Y272047D02*
X248228Y273622D01*
X264970Y269498D02*
X265374Y269094D01*
X264970Y269498D02*
X264970D01*
X263799Y270669D02*
X263799D01*
X264970Y269498D01*
X246654Y241358D02*
Y272047D01*
X243297Y225404D02*
Y238002D01*
X246654Y241358D01*
X237225Y223622D02*
X241516D01*
X243297Y225404D01*
X235827Y225020D02*
X237225Y223622D01*
X230295Y224606D02*
X232067Y226378D01*
X160335Y210158D02*
Y211713D01*
X161221Y212598D01*
X271909Y305449D02*
Y318563D01*
X274213Y320866D01*
X278957D01*
X286811Y313012D01*
Y296220D02*
Y313012D01*
X261319Y228839D02*
X286811Y254331D01*
X288189Y253760D02*
Y313583D01*
X279331Y322441D02*
X288189Y313583D01*
X263902Y322441D02*
X279331D01*
X179331Y206693D02*
X188189Y215551D01*
X163839Y210000D02*
X167146Y206693D01*
X163839Y210000D02*
Y212854D01*
X165945Y214961D01*
Y209842D02*
Y211811D01*
X256909Y315449D02*
X263902Y322441D01*
X188189Y215551D02*
X250131D01*
X262697Y228117D01*
Y228268D01*
X187618Y216929D02*
X249560D01*
X261319Y228688D01*
Y228839D01*
X262697Y228268D02*
X288189Y253760D01*
X149409Y332283D02*
X150197Y333071D01*
X147047D02*
X147835Y332283D01*
X160433Y315354D02*
Y322441D01*
X147835Y330709D02*
Y332283D01*
Y330709D02*
X149769Y328774D01*
X149409Y331361D02*
Y332283D01*
Y331361D02*
X150422Y330349D01*
X155281D01*
X160433Y322441D02*
X160433Y322441D01*
Y325197D01*
X158071Y318504D02*
X158858Y319291D01*
X235039Y262795D02*
Y263032D01*
X235827Y247441D02*
Y262008D01*
X234823Y293287D02*
X236024D01*
X241102Y283386D02*
Y283937D01*
X242913Y283386D02*
Y283937D01*
X244724Y283386D02*
Y283937D01*
X234646Y284842D02*
X240197D01*
X246535Y283386D02*
Y283937D01*
X236457Y293720D02*
Y294744D01*
X238268Y294193D02*
Y294744D01*
X240079Y294193D02*
Y294744D01*
X241890Y294193D02*
Y294744D01*
X243701Y294193D02*
Y294744D01*
X245512Y294193D02*
Y294744D01*
X278150Y256693D02*
Y273622D01*
X279055Y275866D02*
X279095D01*
X279055Y277677D02*
X279095D01*
X279055Y283110D02*
X279095D01*
X278583Y274055D02*
X279095D01*
X279055Y279488D02*
X279095D01*
X279055Y281299D02*
X279095D01*
X279055Y288543D02*
X279095D01*
X279055Y284921D02*
X279095D01*
X279055Y286732D02*
X279095D01*
X278150Y294882D02*
Y296457D01*
X279055Y290354D02*
X279095D01*
X279055Y293976D02*
X279095D01*
X279055Y292165D02*
X279095D01*
X259567Y289882D02*
X261102D01*
X262008Y286831D02*
Y288976D01*
X259567Y291693D02*
X261102D01*
X259567Y293504D02*
X261102D01*
X259567Y295315D02*
X261102D01*
X285354Y277205D02*
X285906D01*
X285354Y275394D02*
X285906D01*
X285354Y282638D02*
X285906D01*
X285354Y284449D02*
X285906D01*
X285354Y279016D02*
X285906D01*
X285354Y280827D02*
X285906D01*
X286811Y254331D02*
Y274488D01*
X285354Y289882D02*
X285906D01*
X285354Y286260D02*
X285906D01*
X285354Y288071D02*
X285906D01*
X285354Y291693D02*
X285906D01*
X285354Y293504D02*
X285906D01*
X285354Y295315D02*
X285906D01*
X346752Y307973D02*
X347833Y309054D01*
X283268Y208232D02*
Y211811D01*
X284055Y212598D01*
X283268Y208232D02*
X285008Y206492D01*
X291354D01*
X300610Y215748D01*
X332677D01*
X333465Y216535D01*
Y232500D01*
X327756Y238209D02*
X333465Y232500D01*
X343898Y220079D02*
X344291Y219685D01*
X343898Y220079D02*
Y242500D01*
X327756Y238209D02*
Y242500D01*
X329154Y243898D01*
X342500D02*
X343898Y242500D01*
X329154Y243898D02*
X342500D01*
X344291Y219685D02*
X346654D01*
X346575Y253051D02*
Y254724D01*
Y256398D01*
Y253051D02*
X347342Y252284D01*
X346654Y219685D02*
X347342Y220374D01*
Y252284D01*
X346575Y256398D02*
X347342Y257165D01*
X345374Y280827D02*
X347342Y278858D01*
Y267783D02*
Y278858D01*
X281890Y207662D02*
Y211614D01*
X284437Y205114D02*
X291925D01*
X281890Y207662D02*
X284437Y205114D01*
X281756Y211748D02*
X281890Y211614D01*
X291925Y205114D02*
X301181Y214370D01*
X333248D01*
X329134Y238779D02*
X334842Y233071D01*
X333248Y214370D02*
X334842Y215965D01*
Y233071D01*
X329134Y238779D02*
Y241929D01*
X329724Y242520D01*
X341929D01*
X342520Y219508D02*
Y241929D01*
X343721Y218307D02*
X347224D01*
X342520Y219508D02*
X343721Y218307D01*
X341929Y242520D02*
X342520Y241929D01*
X346752Y281398D02*
X348721Y279429D01*
X347224Y218307D02*
X348721Y219803D01*
Y252284D01*
X349488Y253051D01*
Y254724D01*
X348721Y257165D02*
Y279429D01*
X349488Y254724D02*
Y256398D01*
X348721Y257165D02*
X349488Y256398D01*
X346752Y281398D02*
Y307973D01*
X345374Y280827D02*
Y307972D01*
X344291Y309055D02*
X345374Y307972D01*
X344783Y265972D02*
Y266154D01*
X345598Y265158D02*
X346528D01*
X347342Y257165D02*
Y264342D01*
X345598Y266968D02*
X346528D01*
X352461Y305413D02*
X352520Y305472D01*
Y305472D01*
X295669Y197047D02*
X299438Y200816D01*
X286240Y197047D02*
X295669D01*
X275014Y208274D02*
X286240Y197047D01*
X275014Y208274D02*
Y209455D01*
X303497Y204875D02*
X307087Y208465D01*
X275000Y209469D02*
X275014Y209455D01*
X273819Y212598D02*
X275000Y211417D01*
Y209469D02*
Y211417D01*
X347638Y208465D02*
X350698Y211524D01*
X353839Y291732D02*
X355315Y290256D01*
X354261Y215088D02*
X356289Y217116D01*
Y248238D01*
X355315Y280709D02*
Y290256D01*
X358524Y267126D02*
Y270827D01*
X356289Y248238D02*
X358524Y250472D01*
Y270827D02*
X359252Y271555D01*
Y273228D01*
X358524Y275630D02*
X359252Y274902D01*
X355315Y280709D02*
X358524Y277500D01*
Y275630D02*
Y277500D01*
X359252Y273228D02*
Y274902D01*
X353839Y304843D02*
X358268Y309272D01*
Y309646D01*
X360039Y311417D01*
Y311811D01*
X286811Y198425D02*
X295098D01*
X276392Y208844D02*
X286811Y198425D01*
X298041Y205821D02*
X298492Y206273D01*
X276392Y208844D02*
Y212022D01*
X276969Y212598D01*
X352461Y291161D02*
X353937Y289685D01*
X354911Y241406D02*
Y248809D01*
X355315Y249213D01*
Y249213D01*
X357146Y251043D01*
X356417Y271555D02*
X357146Y270827D01*
X356417Y271555D02*
Y273228D01*
X353937Y280138D02*
X357146Y276929D01*
X353937Y280138D02*
X353937Y280138D01*
X356417Y273228D02*
Y274902D01*
X357146Y275630D02*
Y276929D01*
X356417Y274902D02*
X357146Y275630D01*
X353937Y280138D02*
Y289685D01*
X352520Y305472D02*
X356890Y309842D01*
Y311811D01*
X353839Y291732D02*
Y304843D01*
X299015Y204017D02*
X299438Y203594D01*
X299014Y204846D02*
X299467Y205299D01*
X300295Y205298D02*
X300719Y204875D01*
X343701Y208465D02*
X347638Y208465D01*
X307087Y208465D02*
X338661D01*
X358524Y250472D02*
Y262087D01*
X352461Y291161D02*
Y305413D01*
X295098Y198425D02*
X298465Y201791D01*
X298041Y203043D02*
X298464Y202620D01*
X301270Y206273D02*
X301694Y205848D01*
X302523Y205849D02*
X306516Y209842D01*
X338661D01*
X343701D02*
X347067D01*
X349723Y212499D01*
X351959Y239595D02*
Y239776D01*
X352774Y240591D02*
X354096D01*
X354911Y217687D02*
Y237965D01*
X353287Y216062D02*
X354911Y217687D01*
X352774Y238779D02*
X354096D01*
X357146Y262087D02*
X357146Y251043D01*
X357146Y267126D02*
X357146Y270827D01*
X361221Y305906D02*
X362008Y306693D01*
X266732Y200787D02*
X267618Y199902D01*
Y193228D02*
Y199902D01*
X270689Y190157D02*
X281102D01*
X267618Y193228D02*
X270689Y190157D01*
X281102D02*
X283661Y192717D01*
X297638D01*
X308661Y203740D01*
X353130D01*
X366535Y217146D01*
Y245197D01*
X364370Y261260D02*
X366595D01*
X366595Y261260D02*
X367165D01*
X366595Y261260D02*
X366595Y261260D01*
X362402Y263228D02*
X364370Y261260D01*
X362402Y263228D02*
Y267520D01*
X363386Y268504D01*
X364744D01*
X366535Y245197D02*
X369980Y248642D01*
Y252284D01*
X370748Y253051D01*
Y254724D01*
X369980Y257165D02*
X370748Y256398D01*
X367165Y261260D02*
X369980Y258445D01*
Y257165D02*
Y258445D01*
X370748Y254724D02*
Y256398D01*
X364744Y268504D02*
X366732Y270492D01*
Y270492D01*
X367136Y270896D01*
Y279518D01*
X364370Y282283D02*
Y289272D01*
X366732Y279921D02*
X367136Y279518D01*
X364370Y282283D02*
X366732Y279921D01*
Y279921D02*
Y279921D01*
X358858Y306693D02*
X359646Y305906D01*
X268996Y193799D02*
X271260Y191535D01*
X268996Y193799D02*
Y199902D01*
X269882Y200787D01*
X280532Y191535D02*
X283091Y194095D01*
X271260Y191535D02*
X280532D01*
X283091Y194095D02*
X297067D01*
X308091Y205118D01*
X352559D01*
X365158Y217717D01*
Y237075D02*
Y245768D01*
X368602Y249213D01*
X367835Y253051D02*
X368602Y252284D01*
Y249213D02*
Y252284D01*
X361024Y262658D02*
Y268091D01*
Y262658D02*
X363396Y260285D01*
X361024Y268091D02*
X362815Y269882D01*
X362992Y281713D02*
Y288701D01*
X367835Y253051D02*
Y254724D01*
Y256398D01*
X368602Y257165D02*
Y257874D01*
X367835Y256398D02*
X368602Y257165D01*
X363799Y259882D02*
X366595D01*
X362815Y269882D02*
X364173D01*
X362992Y281713D02*
X365758Y278947D01*
X366595Y259882D02*
X368602Y257874D01*
X365758Y271467D02*
Y278947D01*
X364173Y269882D02*
X365758Y271467D01*
X361221Y292421D02*
Y305906D01*
Y292421D02*
X364370Y289272D01*
X359646Y292047D02*
Y305906D01*
X364004Y230827D02*
X364342D01*
X363189Y231642D02*
Y231823D01*
X364004Y232638D02*
X364342D01*
X364004Y234449D02*
X364342D01*
X363189Y235264D02*
Y235445D01*
X364004Y236260D02*
X364342D01*
X365158Y217717D02*
Y230012D01*
Y233453D02*
Y233634D01*
X359646Y292047D02*
X362992Y288701D01*
X217027Y153839D02*
X218307Y155118D01*
X111437Y145866D02*
X111437D01*
X105148Y152155D02*
X111437Y145866D01*
X31299Y213779D02*
X32185Y214665D01*
X41437D01*
X186634Y145866D02*
X189784Y142717D01*
X46841Y211211D02*
X56683Y201368D01*
X46841Y211211D02*
Y211211D01*
X56683Y201368D02*
X56683D01*
X31299Y216929D02*
X32185Y216043D01*
X42008D02*
X46841Y211211D01*
X32185Y216043D02*
X42008D01*
X187205Y147244D02*
X190354Y144095D01*
X214370Y155118D02*
X215650Y153839D01*
X111437Y145866D02*
X143661Y145866D01*
X148583Y145512D02*
Y147598D01*
X154961Y145512D02*
Y147598D01*
X150394Y145512D02*
Y147598D01*
X156772Y145512D02*
Y147598D01*
X161339Y145512D02*
Y147598D01*
X163150Y145512D02*
Y147598D01*
X169527Y145512D02*
Y147598D01*
X167717Y145512D02*
Y147598D01*
X174449Y145866D02*
X186634Y145866D01*
X151772Y145512D02*
Y147598D01*
X147205Y145512D02*
Y147598D01*
X153583Y145512D02*
Y147598D01*
X158150Y145512D02*
Y147598D01*
X159961Y145512D02*
Y147598D01*
X164527Y145512D02*
Y147598D01*
X170905Y145512D02*
Y147598D01*
X166339Y145512D02*
Y147598D01*
X190354Y144095D02*
X204842D01*
X174449Y147244D02*
X187205D01*
X224303Y153864D02*
X225476Y155037D01*
X224303Y143082D02*
Y153864D01*
X221753Y155059D02*
X222925Y153887D01*
X32185Y208957D02*
X40925D01*
X31299Y209842D02*
X32185Y208957D01*
X31299Y206693D02*
X32185Y207579D01*
X40354D01*
X40925Y208957D02*
X45640Y204242D01*
X45641Y204241D01*
X52406Y197476D02*
X52407Y197474D01*
X40354Y207579D02*
X44242Y203691D01*
X51856Y196077D02*
X110531Y137402D01*
X282087Y167717D02*
X282972Y166831D01*
Y136142D02*
Y166831D01*
X296063Y156870D02*
Y165945D01*
X297047Y166929D01*
X248164Y138912D02*
Y154052D01*
X249090Y154979D01*
X229744Y122441D02*
X246786Y139482D01*
Y154123D01*
X245859Y155049D02*
X246786Y154123D01*
X32382Y173130D02*
X35630D01*
X32381Y174508D02*
X36201D01*
X221291Y122441D02*
X222244D01*
X220339D02*
X221291D01*
X219386Y123394D02*
Y123850D01*
X218433Y124803D02*
X218433D01*
X217480Y123394D02*
Y123850D01*
X191142Y122441D02*
X216528D01*
X222244D02*
X229744D01*
X224410Y133268D02*
X230413Y139272D01*
Y142913D01*
X228346Y128150D02*
X239567Y139370D01*
X230315Y121063D02*
X248164Y138912D01*
X224980Y131890D02*
X231791Y138701D01*
Y153642D01*
X206653Y144095D02*
X212795D01*
X215650Y146949D01*
Y153839D01*
X189784Y142717D02*
X213366D01*
X217027Y146378D01*
Y153839D01*
X218052Y138779D02*
X222925Y143652D01*
Y153887D01*
X120650Y156693D02*
X143130D01*
X103543Y152559D02*
X103543D01*
X103947Y152155D01*
X105148D01*
X36201Y174508D02*
X67599Y143110D01*
X35630Y173130D02*
X67028Y141732D01*
X67599Y143110D02*
X71634D01*
X67028Y141732D02*
X71063D01*
X82067Y141339D02*
X84823D01*
X84823Y141339D01*
X84823D01*
X84823Y141339D01*
X85630D01*
X110531Y137402D02*
X218623D01*
X224303Y143082D01*
X56683Y201368D02*
X104518Y153533D01*
X105719D01*
X112008Y147244D01*
X143661D01*
X41437Y214665D02*
X103543Y152559D01*
X52407Y197474D02*
X111102Y138779D01*
X218052D01*
X102277Y131890D02*
X224980D01*
X96441Y128579D02*
X98248Y126772D01*
X228917D01*
X98819Y128150D02*
X228346D01*
X81496Y139961D02*
X85059D01*
X94325Y130695D01*
X85630Y141339D02*
X98819Y128150D01*
X71634Y143110D02*
X92303Y122441D01*
X71063Y141732D02*
X91732Y121063D01*
X92303Y122441D02*
X191142D01*
X91732Y121063D02*
X230315D01*
D72*
X72638Y318504D02*
X80512D01*
X63189Y309055D02*
X72638Y318504D01*
X63189Y295276D02*
Y309055D01*
X59252Y291339D02*
X63189Y295276D01*
X54921Y291339D02*
X59252D01*
X262954Y145284D02*
X266339Y148669D01*
Y171653D01*
X262008Y148425D02*
X263976Y150394D01*
Y170472D01*
X245472Y199606D02*
X246260Y198819D01*
X243504Y190945D02*
Y197244D01*
Y190945D02*
X263976Y170472D01*
X246260Y191732D02*
Y198819D01*
Y191732D02*
X266339Y171653D01*
X262402Y130709D02*
X269094Y137402D01*
X248622Y193701D02*
X269094Y173228D01*
X248622Y193701D02*
Y199948D01*
X248327Y200243D02*
X248622Y199948D01*
X248327Y200243D02*
Y200689D01*
X232087Y198425D02*
Y198477D01*
X269094Y137402D02*
Y173228D01*
X234842Y197244D02*
Y198031D01*
X233661Y196063D02*
X234842Y197244D01*
X231247Y196063D02*
X233661D01*
X229823Y197487D02*
Y197539D01*
X229724Y197638D02*
X229823Y197539D01*
Y197487D02*
X231247Y196063D01*
X229724Y197638D02*
Y201181D01*
X232087Y198477D02*
X237153Y203543D01*
X245472D01*
X248327Y200689D01*
X229724Y201181D02*
X234449Y205906D01*
X250590D01*
X253346Y203150D01*
Y193701D02*
Y203150D01*
Y193701D02*
X275394Y171653D01*
Y166142D02*
Y171653D01*
X271850Y162598D02*
X275394Y166142D01*
X271850Y136221D02*
Y162598D01*
X263583Y127953D02*
X271850Y136221D01*
X262402Y127953D02*
X263583D01*
D73*
X114764Y192913D02*
Y205906D01*
Y192913D02*
X128543Y179134D01*
D74*
X32087Y274016D02*
X45079Y287008D01*
Y302756D01*
D78*
X111890Y83858D02*
D03*
D79*
X101890D02*
D03*
D81*
X524409Y369685D02*
D03*
X197D02*
D03*
X0Y0D02*
D03*
X524409D02*
D03*
D82*
X385433Y343307D02*
D03*
X328346D02*
D03*
D83*
X385433Y366772D02*
D03*
X328346D02*
D03*
D85*
X408779Y14173D02*
D03*
X418780D02*
D03*
X428780D02*
D03*
X438779D02*
D03*
X448779D02*
D03*
X458779D02*
D03*
Y24173D02*
D03*
X448779D02*
D03*
X438779D02*
D03*
X428780D02*
D03*
X418780D02*
D03*
X408779D02*
D03*
X319409Y14173D02*
D03*
X329410D02*
D03*
X339409D02*
D03*
X349410D02*
D03*
Y24173D02*
D03*
X339409D02*
D03*
X329410D02*
D03*
X319409D02*
D03*
X369409D02*
D03*
X359409D02*
D03*
X369409Y14173D02*
D03*
X359409D02*
D03*
D86*
X281909Y340449D02*
D03*
X236909D02*
D03*
D87*
X275512Y356512D02*
D03*
X243307D02*
D03*
X285512D02*
D03*
X233307D02*
D03*
D88*
X289902Y328441D02*
D03*
X228917D02*
D03*
D89*
X261909Y305449D02*
D03*
X241909D02*
D03*
X236909Y315449D02*
D03*
X266909D02*
D03*
X246909D02*
D03*
X251909Y305449D02*
D03*
X276909Y315449D02*
D03*
X271909Y305449D02*
D03*
X256909Y315449D02*
D03*
D90*
X281909Y305449D02*
D03*
D91*
X154528Y247638D02*
D03*
Y255512D02*
D03*
X162402Y247638D02*
D03*
Y255512D02*
D03*
X170276Y247638D02*
D03*
Y255512D02*
D03*
X178150Y247638D02*
D03*
Y255512D02*
D03*
X186024Y247638D02*
D03*
Y255512D02*
D03*
X193898Y247638D02*
D03*
Y255512D02*
D03*
X201772Y247638D02*
D03*
D92*
Y255512D02*
D03*
D93*
X432795Y321615D02*
D03*
Y343977D02*
D03*
X484527Y321615D02*
D03*
X484527Y343977D02*
D03*
D94*
X444882Y323111D02*
D03*
X472441Y333347D02*
D03*
X444882D02*
D03*
X472441Y323111D02*
D03*
X462598Y333347D02*
D03*
X454724D02*
D03*
X462598Y323111D02*
D03*
X454724D02*
D03*
D95*
X64764Y352362D02*
D03*
D96*
X45472Y340354D02*
D03*
D97*
X64764Y328740D02*
D03*
D98*
X133823Y190350D02*
D03*
D99*
X396815D02*
D03*
D100*
X390516Y166335D02*
D03*
X140122D02*
D03*
X-5433Y318504D02*
D03*
Y266535D02*
D03*
X32087Y311024D02*
D03*
Y292520D02*
D03*
Y274016D02*
D03*
D101*
X139173Y362795D02*
D03*
X158858D02*
D03*
X45079Y302756D02*
D03*
D102*
X133760Y373622D02*
D03*
X164272D02*
D03*
D103*
X134350Y358661D02*
D03*
X163681D02*
D03*
D104*
X288779Y214567D02*
D03*
X339173Y311417D02*
D03*
X342323D02*
D03*
X285630Y215748D02*
D03*
X206102Y155118D02*
D03*
X31693Y224016D02*
D03*
Y220866D02*
D03*
X228937Y155118D02*
D03*
X31299Y189370D02*
D03*
X233268Y155118D02*
D03*
X31299Y186221D02*
D03*
X238386Y155118D02*
D03*
X31299Y182481D02*
D03*
X242126Y155118D02*
D03*
X31299Y179331D02*
D03*
X426181Y45669D02*
D03*
X430512Y50787D02*
D03*
X307677Y195669D02*
D03*
X304528D02*
D03*
X442323Y47638D02*
D03*
X447441Y48819D02*
D03*
X439567Y48425D02*
D03*
X442323Y50787D02*
D03*
X430118Y47638D02*
D03*
X435630Y48425D02*
D03*
X333661Y46457D02*
D03*
X336417Y51181D02*
D03*
X342323Y48031D02*
D03*
X336417D02*
D03*
X349803Y51575D02*
D03*
X346654Y47638D02*
D03*
X297047Y166929D02*
D03*
X349803Y48819D02*
D03*
X354921Y47244D02*
D03*
X208071Y200787D02*
D03*
X298622Y164173D02*
D03*
X301772D02*
D03*
X309252Y200394D02*
D03*
X323425D02*
D03*
X326575D02*
D03*
X371850Y265354D02*
D03*
X419095Y258661D02*
D03*
X332874Y260630D02*
D03*
X189567Y200787D02*
D03*
X415945Y258661D02*
D03*
X368701Y265354D02*
D03*
X332874Y263779D02*
D03*
X186417Y200787D02*
D03*
X174606Y212598D02*
D03*
X177756D02*
D03*
X148622D02*
D03*
X151772D02*
D03*
X161221D02*
D03*
X158071D02*
D03*
X165945Y214961D02*
D03*
Y211811D02*
D03*
X141929Y318110D02*
D03*
X137598Y334252D02*
D03*
X319488Y200394D02*
D03*
X316339D02*
D03*
X312402D02*
D03*
X388779Y179528D02*
D03*
X80512Y318504D02*
D03*
X54921Y291339D02*
D03*
X63583Y340945D02*
D03*
Y364567D02*
D03*
Y377559D02*
D03*
X43504D02*
D03*
Y365748D02*
D03*
Y353937D02*
D03*
X52165Y340945D02*
D03*
X77362Y377559D02*
D03*
Y364567D02*
D03*
Y352756D02*
D03*
Y340945D02*
D03*
X60271Y49722D02*
D03*
X48460D02*
D03*
X72082Y8777D02*
D03*
Y20588D02*
D03*
Y32399D02*
D03*
Y44210D02*
D03*
X17752Y8384D02*
D03*
Y20195D02*
D03*
Y32006D02*
D03*
Y43817D02*
D03*
X458071Y271260D02*
D03*
X500591Y339843D02*
D03*
X284449Y183465D02*
D03*
X301772Y191732D02*
D03*
X226969Y197638D02*
D03*
X30512Y162992D02*
D03*
Y159449D02*
D03*
X333563Y270571D02*
D03*
X363209Y275886D02*
D03*
X352559Y270669D02*
D03*
X344291Y276378D02*
D03*
X342717Y257480D02*
D03*
X353346Y257480D02*
D03*
X361220Y254724D02*
D03*
X377362D02*
D03*
X365551Y265354D02*
D03*
X278937Y201181D02*
D03*
X48067Y82419D02*
D03*
X192323Y200787D02*
D03*
X226969D02*
D03*
X265551Y212598D02*
D03*
X302559Y211811D02*
D03*
X321457Y212205D02*
D03*
X273031Y194488D02*
D03*
X274213Y186221D02*
D03*
X69488Y137008D02*
D03*
X300197Y181102D02*
D03*
X297047D02*
D03*
X308071Y163386D02*
D03*
X308858Y156693D02*
D03*
X203740Y105512D02*
D03*
X206496Y103150D02*
D03*
X199409Y106693D02*
D03*
X196260Y116535D02*
D03*
X206496D02*
D03*
X190354Y162205D02*
D03*
X218701Y167717D02*
D03*
X238386Y197244D02*
D03*
X314370Y212205D02*
D03*
X250590Y201181D02*
D03*
X189173Y280118D02*
D03*
X177362Y269685D02*
D03*
X219094Y284252D02*
D03*
X204528Y287795D02*
D03*
X318307Y229134D02*
D03*
X321063Y251969D02*
D03*
X321063Y241338D02*
D03*
X342520Y248031D02*
D03*
X283268Y227953D02*
D03*
X155315Y195669D02*
D03*
X204528Y179921D02*
D03*
X228150D02*
D03*
X279724Y180315D02*
D03*
X116732Y170866D02*
D03*
X118307Y203543D02*
D03*
X262795Y200787D02*
D03*
X259646Y199606D02*
D03*
X215158Y199606D02*
D03*
X209252Y271260D02*
D03*
X192323Y270472D02*
D03*
X193110Y277953D02*
D03*
X202165Y291732D02*
D03*
X214764Y196063D02*
D03*
X212795Y201181D02*
D03*
X205709Y199213D02*
D03*
X203346Y201181D02*
D03*
X200984Y199606D02*
D03*
X198622Y201181D02*
D03*
X24445Y66258D02*
D03*
X44130Y72970D02*
D03*
X48067D02*
D03*
X28382D02*
D03*
X32319D02*
D03*
X36256D02*
D03*
X40193D02*
D03*
X58071Y156693D02*
D03*
X60827Y132283D02*
D03*
X186811Y324410D02*
D03*
X417913Y264961D02*
D03*
X122244Y174409D02*
D03*
X349803Y311417D02*
D03*
Y320866D02*
D03*
X182480Y235059D02*
D03*
X188386D02*
D03*
X53972Y71356D02*
D03*
X53972Y83600D02*
D03*
X68145Y49742D02*
D03*
X45311Y7616D02*
D03*
X37043D02*
D03*
X35074Y67459D02*
D03*
Y56002D02*
D03*
X24445Y82419D02*
D03*
X28382D02*
D03*
X32319D02*
D03*
X36256D02*
D03*
X40193D02*
D03*
X44130D02*
D03*
X66732Y111024D02*
D03*
X18701Y179134D02*
D03*
Y172441D02*
D03*
X19094Y196457D02*
D03*
Y202362D02*
D03*
Y208268D02*
D03*
Y214567D02*
D03*
X81693Y248031D02*
D03*
X49803Y246850D02*
D03*
X56890Y241339D02*
D03*
X71457Y247638D02*
D03*
X59252Y229528D02*
D03*
X50984Y263779D02*
D03*
X59252Y268898D02*
D03*
X81693Y294094D02*
D03*
X71850Y284252D02*
D03*
X54528Y262598D02*
D03*
X126181Y255118D02*
D03*
X125787Y299213D02*
D03*
X94291Y327953D02*
D03*
X119488Y275197D02*
D03*
X125394D02*
D03*
X82874Y303937D02*
D03*
X77756Y303543D02*
D03*
X436417Y287795D02*
D03*
X413583Y268504D02*
D03*
X404134Y272441D02*
D03*
X404134Y268504D02*
D03*
X404134Y276378D02*
D03*
Y280315D02*
D03*
X410433Y256299D02*
D03*
X406102D02*
D03*
X414764Y287795D02*
D03*
X447441Y267323D02*
D03*
X423425Y275590D02*
D03*
X429724D02*
D03*
X429724Y269291D02*
D03*
X423425Y269291D02*
D03*
X426575Y272441D02*
D03*
X446654Y259055D02*
D03*
X436024Y256693D02*
D03*
X437205Y246063D02*
D03*
X413583Y252362D02*
D03*
X421063Y256299D02*
D03*
X429724Y242126D02*
D03*
X417913Y284252D02*
D03*
X430118D02*
D03*
X434449D02*
D03*
X421850D02*
D03*
X478937Y287402D02*
D03*
Y292126D02*
D03*
Y282283D02*
D03*
Y277559D02*
D03*
X448228Y301575D02*
D03*
X479331D02*
D03*
X500591Y328346D02*
D03*
X436417Y280315D02*
D03*
X427756Y290551D02*
D03*
X441142Y264567D02*
D03*
X370669Y333465D02*
D03*
X305709Y310630D02*
D03*
X363188Y311416D02*
D03*
X362795Y320866D02*
D03*
X336811Y321260D02*
D03*
X73425Y333465D02*
D03*
X228346Y276378D02*
D03*
X515945Y130709D02*
D03*
Y177559D02*
D03*
X514764Y225197D02*
D03*
X499803Y152323D02*
D03*
X509252Y152362D02*
D03*
X504528Y148031D02*
D03*
X504468Y156457D02*
D03*
Y203307D02*
D03*
X504528Y194882D02*
D03*
X509252Y199213D02*
D03*
X499803Y199173D02*
D03*
X468701D02*
D03*
X478150Y199213D02*
D03*
X473425Y194882D02*
D03*
X473366Y203307D02*
D03*
X436417Y95276D02*
D03*
Y109055D02*
D03*
Y122835D02*
D03*
Y136614D02*
D03*
Y150394D02*
D03*
X436024Y164173D02*
D03*
X436417Y177953D02*
D03*
Y191732D02*
D03*
X366339Y320866D02*
D03*
X379331Y312205D02*
D03*
X369094Y287402D02*
D03*
X368110Y293701D02*
D03*
X349803Y289370D02*
D03*
X342717Y283661D02*
D03*
X333661Y276575D02*
D03*
X320079Y285827D02*
D03*
X319291Y274410D02*
D03*
X350000Y286614D02*
D03*
X362795Y327362D02*
D03*
X211221Y310433D02*
D03*
X447047Y287008D02*
D03*
X472185Y250945D02*
D03*
X472244Y242520D02*
D03*
X476968Y246850D02*
D03*
X467520Y246811D02*
D03*
X503287Y250945D02*
D03*
X503346Y242520D02*
D03*
X508071Y246850D02*
D03*
X498622Y246811D02*
D03*
X302008Y234587D02*
D03*
X310433Y234646D02*
D03*
X306102Y239370D02*
D03*
X306142Y229921D02*
D03*
X302008Y265689D02*
D03*
X310433Y265748D02*
D03*
X306102Y270472D02*
D03*
X306142Y261024D02*
D03*
X259291Y229527D02*
D03*
X255157Y234193D02*
D03*
X263583Y234252D02*
D03*
X259252Y238976D02*
D03*
X255157Y265295D02*
D03*
X263583Y265354D02*
D03*
X259252Y270079D02*
D03*
X259291Y260630D02*
D03*
X278543Y240945D02*
D03*
X29331Y139764D02*
D03*
Y137008D02*
D03*
X18701Y133465D02*
D03*
X144685Y212205D02*
D03*
X141535D02*
D03*
X146653Y201181D02*
D03*
X345079D02*
D03*
X352165D02*
D03*
X359252D02*
D03*
X366339D02*
D03*
X373425D02*
D03*
X381693Y168898D02*
D03*
X374606D02*
D03*
X367520D02*
D03*
X360433D02*
D03*
X353346D02*
D03*
X346260D02*
D03*
X273031D02*
D03*
X216339Y179528D02*
D03*
X192717D02*
D03*
X173819D02*
D03*
X164370D02*
D03*
X123425Y294094D02*
D03*
Y249606D02*
D03*
X122244Y235039D02*
D03*
X141535Y281890D02*
D03*
X139173Y286614D02*
D03*
X147047Y286221D02*
D03*
X144291Y283071D02*
D03*
X131496Y316339D02*
D03*
X139961Y298425D02*
D03*
Y308268D02*
D03*
X152559Y179921D02*
D03*
X179724Y180709D02*
D03*
X184843D02*
D03*
X179724Y201181D02*
D03*
X378150Y212205D02*
D03*
X382874D02*
D03*
X387598D02*
D03*
X385236Y214961D02*
D03*
X389961D02*
D03*
X380512D02*
D03*
X239961Y168898D02*
D03*
X87337Y75931D02*
D03*
X75656Y75931D02*
D03*
X81693Y70287D02*
D03*
X472972Y156850D02*
D03*
X473032Y148425D02*
D03*
X477756Y152756D02*
D03*
X468307Y152717D02*
D03*
X472972Y108425D02*
D03*
X473032Y100000D02*
D03*
X477756Y104331D02*
D03*
X468307Y104291D02*
D03*
X504468Y108425D02*
D03*
X504528Y100000D02*
D03*
X509252Y104331D02*
D03*
X499803Y104291D02*
D03*
X164173Y335827D02*
D03*
X176969Y338189D02*
D03*
X196260Y335827D02*
D03*
Y326378D02*
D03*
X186811Y304724D02*
D03*
X193110Y298031D02*
D03*
X151378Y326378D02*
D03*
X183268Y332283D02*
D03*
X187205Y300787D02*
D03*
X173031Y290945D02*
D03*
X157283Y302362D02*
D03*
X157677Y298425D02*
D03*
X151772Y318110D02*
D03*
X191929Y335433D02*
D03*
X149016Y298425D02*
D03*
X228150Y272835D02*
D03*
X173425Y270079D02*
D03*
X159252Y268504D02*
D03*
X451772Y268110D02*
D03*
X358858Y287402D02*
D03*
X122343Y229823D02*
D03*
X91535Y108661D02*
D03*
X95866Y113779D02*
D03*
X315551Y168898D02*
D03*
X303740Y168504D02*
D03*
X179724Y185039D02*
D03*
X184843Y187795D02*
D03*
X350591Y44823D02*
D03*
X337992Y44882D02*
D03*
X443504Y44429D02*
D03*
X430905Y44488D02*
D03*
X219488Y270472D02*
D03*
X515945Y83071D02*
D03*
X150197Y333071D02*
D03*
X158071Y318504D02*
D03*
X170669Y180315D02*
D03*
X167126D02*
D03*
X396654Y351575D02*
D03*
X203346Y116535D02*
D03*
X196260Y107874D02*
D03*
X199409Y116535D02*
D03*
X82087Y149213D02*
D03*
X61614Y153543D02*
D03*
X288779Y222441D02*
D03*
X290748Y201181D02*
D03*
X423032Y258661D02*
D03*
X375000Y265354D02*
D03*
X211221Y244488D02*
D03*
X332874Y266929D02*
D03*
Y257480D02*
D03*
X307677Y183071D02*
D03*
X232480Y183465D02*
D03*
X258858Y167717D02*
D03*
X69095Y172047D02*
D03*
X160433Y315354D02*
D03*
X157283Y305905D02*
D03*
X216732Y281496D02*
D03*
X153740Y288583D02*
D03*
X84528Y136653D02*
D03*
X379016Y250866D02*
D03*
X396535Y250905D02*
D03*
X393976D02*
D03*
X391496Y250945D02*
D03*
X405787Y224370D02*
D03*
X439213Y207165D02*
D03*
X424449Y237047D02*
D03*
X427047D02*
D03*
X429567D02*
D03*
X432165Y237008D02*
D03*
X446142Y224606D02*
D03*
X446181Y220945D02*
D03*
X439213Y215905D02*
D03*
X373307Y229252D02*
D03*
X378465Y266260D02*
D03*
X381614D02*
D03*
X384764D02*
D03*
X387913D02*
D03*
X391063D02*
D03*
X394213D02*
D03*
X397362D02*
D03*
X400512D02*
D03*
X402953Y248937D02*
D03*
X330906Y300591D02*
D03*
X215945Y288583D02*
D03*
X215551Y285433D02*
D03*
X314370Y288583D02*
D03*
Y283071D02*
D03*
X406102Y233465D02*
D03*
X402559Y230039D02*
D03*
X150197Y347638D02*
D03*
X81693Y81575D02*
D03*
X114764Y205906D02*
D03*
X196260Y239764D02*
D03*
X199803D02*
D03*
X205709D02*
D03*
X210827Y235039D02*
D03*
X221063Y240551D02*
D03*
X211221Y238583D02*
D03*
X219488Y238189D02*
D03*
X207677Y243701D02*
D03*
X143898Y353937D02*
D03*
X176181Y372441D02*
D03*
X344291Y309055D02*
D03*
X347833Y309054D02*
D03*
X284055Y212598D02*
D03*
X280906D02*
D03*
X273819D02*
D03*
X360039Y311811D02*
D03*
X276969Y212598D02*
D03*
X356890Y311811D02*
D03*
X362008Y306693D02*
D03*
X266732Y200787D02*
D03*
X358858Y306693D02*
D03*
X269882Y200787D02*
D03*
X165748Y317913D02*
D03*
X170079D02*
D03*
X174409D02*
D03*
X178740D02*
D03*
X165748Y313583D02*
D03*
X170079D02*
D03*
X174409D02*
D03*
X178740D02*
D03*
X165748Y309252D02*
D03*
X170079D02*
D03*
X174409D02*
D03*
X178740D02*
D03*
X165748Y304921D02*
D03*
X170079D02*
D03*
X174409D02*
D03*
X178740D02*
D03*
X182480Y358661D02*
D03*
X194685Y372441D02*
D03*
X184055Y380315D02*
D03*
Y364173D02*
D03*
X186024Y338976D02*
D03*
X188386Y347244D02*
D03*
X149016Y319685D02*
D03*
X173031Y338189D02*
D03*
X196260Y320866D02*
D03*
X196653Y310630D02*
D03*
X184843Y297244D02*
D03*
X196346Y288763D02*
D03*
X193110Y293307D02*
D03*
X163583Y290158D02*
D03*
X162795Y268898D02*
D03*
X165945Y268110D02*
D03*
X156496Y275590D02*
D03*
X138779Y269685D02*
D03*
X146201Y269744D02*
D03*
X135630Y293701D02*
D03*
X31299Y213779D02*
D03*
Y216929D02*
D03*
X214370Y155118D02*
D03*
X210039D02*
D03*
X218307D02*
D03*
X225476Y155037D02*
D03*
X221753Y155059D02*
D03*
X31299Y209842D02*
D03*
Y206693D02*
D03*
X262008Y148425D02*
D03*
X262954Y145284D02*
D03*
X262402Y130709D02*
D03*
Y127953D02*
D03*
X234842Y198031D02*
D03*
X232087Y198425D02*
D03*
X245472Y199606D02*
D03*
X243504Y197244D02*
D03*
X289961Y164567D02*
D03*
X282087Y167717D02*
D03*
X291929Y168898D02*
D03*
X293898Y166929D02*
D03*
X286811Y164567D02*
D03*
X285236Y167717D02*
D03*
X264764Y115354D02*
D03*
X267126Y113779D02*
D03*
X249090Y154979D02*
D03*
X31300Y172048D02*
D03*
X245859Y155049D02*
D03*
X31299Y175591D02*
D03*
X394213Y272953D02*
D03*
X396654Y274410D02*
D03*
X406102Y248150D02*
D03*
X407677Y245394D02*
D03*
X67520Y127165D02*
D03*
Y124409D02*
D03*
Y121653D02*
D03*
Y118898D02*
D03*
X49409Y126772D02*
D03*
Y124016D02*
D03*
Y120079D02*
D03*
Y116929D02*
D03*
X31693Y147638D02*
D03*
Y150787D02*
D03*
X36024Y156299D02*
D03*
Y153543D02*
D03*
X53740Y140945D02*
D03*
X72638Y114173D02*
D03*
X87992Y115354D02*
D03*
X83268Y113779D02*
D03*
X84055Y116535D02*
D03*
X81693Y122441D02*
D03*
Y118504D02*
D03*
X106496Y117717D02*
D03*
X192717Y273622D02*
D03*
X208858Y277559D02*
D03*
X317913Y248031D02*
D03*
X342126Y251575D02*
D03*
X85236Y202756D02*
D03*
X99016D02*
D03*
X128543Y179134D02*
D03*
X97047Y189370D02*
D03*
X50197Y155512D02*
D03*
X49409Y152756D02*
D03*
X49803Y143307D02*
D03*
X63976Y140551D02*
D03*
X64764Y131890D02*
D03*
X47047Y129528D02*
D03*
X59646Y137008D02*
D03*
X55315Y105512D02*
D03*
X72638Y124409D02*
D03*
X51772Y108268D02*
D03*
X86024Y177953D02*
D03*
X176038Y343972D02*
D03*
X147047Y333071D02*
D03*
X144291Y332283D02*
D03*
X154527Y335827D02*
D03*
X155257Y344726D02*
D03*
D105*
X420815Y51035D02*
G03*
X419585Y51035I-615J-615D01*
G01*
X417859Y52761D02*
G03*
X417859Y53992I-615J615D01*
G01*
X418031Y51035D02*
G03*
X418032Y51035I777J777D01*
G01*
D02*
G03*
X419585Y51035I776J777D01*
G01*
X417363Y54487D02*
G03*
X416133Y54487I-615J-615D01*
G01*
X414580Y54487D02*
G03*
X416133Y54487I776J777D01*
G01*
X417858Y51208D02*
G03*
X417859Y51208I777J776D01*
G01*
Y52761D02*
G03*
X417858Y51208I777J-777D01*
G01*
X414407Y56213D02*
G03*
X414407Y57444I-615J615D01*
G01*
X414579Y54487D02*
G03*
X414580Y54487I777J777D01*
G01*
X414407Y56213D02*
G03*
X414406Y54660I777J-777D01*
G01*
D02*
G03*
X414407Y54660I777J776D01*
G01*
X421695Y70775D02*
G03*
X421695Y72390I-807J807D01*
G01*
X428488Y65597D02*
G03*
X426873Y65597I-807J-807D01*
G01*
X425147D02*
G03*
X426873Y65597I863J863D01*
G01*
X425147Y67323D02*
G03*
X425147Y68937I-807J807D01*
G01*
X425036Y69049D02*
G03*
X423421Y69049I-807J-807D01*
G01*
X421695D02*
G03*
X423421Y69049I863J863D01*
G01*
X425147Y67323D02*
G03*
X425147Y65597I863J-863D01*
G01*
X421695Y70775D02*
G03*
X421695Y69049I863J-863D01*
G01*
X346285Y60748D02*
G03*
X345418Y61614I-866J0D01*
G01*
Y59173D02*
G03*
X346285Y60039I0J866D01*
G01*
X345418Y64055D02*
G03*
X346285Y64921I0J866D01*
G01*
Y50984D02*
G03*
X345418Y51850I-866J0D01*
G01*
Y64055D02*
G03*
X344198Y62835I0J-1221D01*
G01*
D02*
G03*
X345418Y61614I1221J0D01*
G01*
Y54291D02*
G03*
X346285Y55158I0J866D01*
G01*
Y55866D02*
G03*
X345418Y56732I-866J0D01*
G01*
Y59173D02*
G03*
X344198Y57953I0J-1221D01*
G01*
D02*
G03*
X345418Y56732I1221J0D01*
G01*
X344198Y53071D02*
G03*
X345418Y51850I1221J0D01*
G01*
Y54291D02*
G03*
X344198Y53071I0J-1221D01*
G01*
M02*
