M48
;Layer_Color=9474304
;FILE_FORMAT=2:5
INCH,LZ
;TYPE=PLATED
T1F00S00C0.00984
T2F00S00C0.01378
T4F00S00C0.03000
T6F00S00C0.03543
T9F00S00C0.04016
T10F00S00C0.04201
T11F00S00C0.05512
T12F00S00C0.05906
T13F00S00C0.06299
T14F00S00C0.07283
T15F00S00C0.09055
T16F00S00C0.11811
T17F00S00C0.14173
;TYPE=NON_PLATED
T18F00S00C0.03150
T19F00S00C0.04331
T20F00S00C0.06299
T21F00S00C0.12795
%
T01
X0515945Y0083071
X0509252Y0104331
X0504468Y0108425
X0504528Y01
X0499803Y0104291
X0515945Y0130709
X0477756Y0104331
X0472972Y0108425
X0473032Y01
X0468307Y0104291
X0436417Y0109055
Y0122835
Y0136614
Y0095276
X043563Y0048425
X0439567
X0442323Y0047638
Y0050787
X0447441Y0048819
X0443504Y0044429
X0430905Y0044488
X0430118Y0047638
X0430512Y0050787
X0426181Y0045669
X0354921Y0047244
X0349803Y0048819
Y0051575
X0346654Y0047638
X0342323Y0048031
X0336417
Y0051181
X0337992Y0044882
X0350591Y0044823
X0333661Y0046457
X0267126Y0113779
X0264764Y0115354
X0262402Y0127953
Y0130709
X0206496Y0116535
X0203346
X0199409
X019626
Y0107874
X0199409Y0106693
X020374Y0105512
X0206496Y010315
X0106496Y0117717
X0095866Y0113779
X0087992Y0115354
X0084055Y0116535
X0083268Y0113779
X0081693Y0118504
Y0122441
X0072638Y0124409
X006752
Y0127165
Y0121653
Y0118898
X0066732Y0111024
X0072638Y0114173
X0091535Y0108661
X0084528Y0136653
X0069488Y0137008
X0064764Y013189
X0060827Y0132283
X0059646Y0137008
X0047047Y0129528
X0049409Y0126772
Y0124016
Y0120079
Y0116929
X0051772Y0108268
X0055315Y0105512
X0053972Y00836
X0048067Y0082419
X004413
X0040193
X0036256
X0032319
X0028382
X0024445
X0028382Y007297
X0032319
X0036256
X0040193
X004413
X0048067
X0053972Y0071356
X0035074Y0067459
Y0056002
X004846Y0049722
X0060271
X0068145Y0049742
X0072082Y004421
Y0032399
Y0020588
Y0008777
X0045311Y0007616
X0037043
X0024445Y0066258
X0075656Y0075931
X0081693Y0070287
X0087337Y0075931
X0081693Y0081575
X0029331Y0137008
X0018701Y0133465
X0017752Y0043817
Y0032006
Y0020195
Y0008384
X0018701Y0172441
Y0179134
X0019094Y0196457
Y0202362
Y0208268
Y0214567
X0031299Y0213779
Y0216929
X0031693Y0220866
Y0224016
X0031299Y0209842
Y0206693
Y018937
Y0186221
Y0182481
Y0179331
Y0175591
X00313Y0172048
X0030512Y0162992
Y0159449
X0036024Y0156299
Y0153543
X0031693Y0150787
Y0147638
X0029331Y0139764
X0049803Y0143307
X005374Y0140945
X0063976Y0140551
X0061614Y0153543
X0058071Y0156693
X0050197Y0155512
X0049409Y0152756
X0082087Y0149213
X0086024Y0177953
X0097047Y018937
X0099016Y0202756
X0085236
X0114764Y0205906
X0118307Y0203543
X0122343Y0229823
X0122244Y0235039
X0123425Y0249606
X0126181Y0255118
X0125394Y0275197
X0119488
X0123425Y0294094
X013563Y0293701
X0139173Y0286614
X0141535Y028189
X0144291Y0283071
X0147047Y0286221
X015374Y0288583
X0163583Y0290158
X0173031Y0290945
X0173425Y0270079
X0177362Y0269685
X0165945Y026811
X0162795Y0268898
X0159252Y0268504
X0156496Y027559
X0146201Y0269744
X0138779Y0269685
X0141535Y0212205
X0144685
X0148622Y0212598
X0151772
X0158071
X0161221
X0165945Y0211811
Y0214961
X0174606Y0212598
X0177756
X0173819Y0179528
X0170669Y0180315
X0167126
X016437Y0179528
X0152559Y0179921
X0155315Y0195669
X0146653Y0201181
X0128543Y0179134
X0122244Y0174409
X0116732Y0170866
X0069095Y0172047
X0059252Y0229528
X005689Y0241339
X0049803Y024685
X0050984Y0263779
X0054528Y0262598
X0059252Y0268898
X0054921Y0291339
X007185Y0284252
X0081693Y0294094
Y0248031
X0071457Y0247638
X018248Y0235059
X0188386
X019626Y0239764
X0199803
X0205709
X0207677Y0243701
X0211221Y0244488
Y0238583
X0210827Y0235039
X0219488Y0238189
X0221063Y0240551
X0219488Y0270472
X0209252Y027126
X0208858Y0277559
X0216732Y0281496
X0219094Y0284252
X0215551Y0285433
X0215945Y0288583
X0204528Y0287795
X0202165Y0291732
X0196346Y0288763
X019311Y0293307
Y0277953
X0192717Y0273622
X0192323Y0270472
X0189173Y0280118
X0228346Y0276378
X022815Y0272835
X0259252Y0270079
X0255157Y0265295
X0263583Y0265354
X0259291Y026063
X0259252Y0238976
X0255157Y0234193
X0263583Y0234252
X0259291Y0229527
X0265551Y0212598
X0273819
X0276969
X0280906
X0284055
X028563Y0215748
X0288779Y0214567
Y0222441
X0283268Y0227953
X0278543Y0240945
X0306102Y023937
X0302008Y0234587
X0310433Y0234646
X0306142Y0229921
X0318307Y0229134
X0321063Y0241338
X0317913Y0248031
X0321063Y0251969
X0332874Y025748
Y026063
Y0263779
Y0266929
X0333563Y0270571
X0333661Y0276575
X0319291Y027441
X0320079Y0285827
X031437Y0288583
Y0283071
X0306102Y0270472
X0302008Y0265689
X0310433Y0265748
X0306142Y0261024
X0302559Y0211811
X031437Y0212205
X0321457Y0212205
X0319488Y0200394
X0316339
X0312402
X0309252
X0307677Y0195669
X0304528
X0301772Y0191732
X0300197Y0181102
X0297047
X0307677Y0183071
X030374Y0168504
X0301772Y0164173
X0298622
X0297047Y0166929
X0293898
X0291929Y0168898
X0289961Y0164567
X0286811
X0285236Y0167717
X0282087
X0273031Y0168898
X0258858Y0167717
X0239961Y0168898
X0238386Y0155118
X0242126
X0245859Y0155049
X024909Y0154979
X0233268Y0155118
X0228937
X0225476Y0155037
X0221753Y0155059
X0218307Y0155118
X021437
X0210039
X0206102
X0190354Y0162205
X0192717Y0179528
X0184843Y0180709
X0179724
X0179724Y0185039
X0184843Y0187795
X0186417Y0200787
X0189567
X0192323
X0198622Y0201181
X0200984Y0199606
X0203346Y0201181
X0205709Y0199213
X0208071Y0200787
X0212795Y0201181
X0215158Y0199606
X0214764Y0196063
X0226969Y0197638
Y0200787
X0232087Y0198425
X0234842Y0198031
X0238386Y0197244
X0243504
X0245472Y0199606
X025059Y0201181
X0259646Y0199606
X0262795Y0200787
X0266732
X0269882
X0278937Y0201181
X0290748Y0201181
X0284449Y0183465
X0279724Y0180315
X0274213Y0186221
X0273031Y0194488
X023248Y0183465
X022815Y0179921
X0216339Y0179528
X0204528Y0179921
X0218701Y0167717
X0262008Y0148425
X0262954Y0145284
X0308858Y0156693
X0308071Y0163386
X0315551Y0168898
X0323425Y0200394
X0326575
X0179724Y0201181
X0345079
X0352165
X0359252
X0366339
X0373425
X037815Y0212205
X0382874
X0387598
X0389961Y0214961
X0385236
X0380512
X0373307Y0229252
X0379016Y0250866
X0377362Y0254724
X0378465Y026626
X0381614
X0384764
X0387913
X0391063
X0394213
X0397362
X0400512
X0404134Y0268504
X0404134Y0272441
Y0276378
Y0280315
X0396654Y027441
X0394213Y0272953
X0393976Y0250905
X0391496Y0250945
X0396535Y0250905
X0402953Y0248937
X0406102Y024815
X0407677Y0245394
X0406102Y0256299
X0410433
X0413583Y0252362
X0415945Y0258661
X0419095
X0423032
X0421063Y0256299
X0417913Y0264961
X0413583Y0268504
X0423425Y0269291
Y027559
X0429724
X0426575Y0272441
X0429724Y0269291
X0430118Y0284252
X0434449
X0436417Y0287795
Y0280315
X0447047Y0287008
X0447441Y0267323
X0451772Y026811
X0458071Y027126
X0446654Y0259055
X0441142Y0264567
X0436024Y0256693
X0437205Y0246063
X0429724Y0242126
X0429567Y0237047
X0427047
X0424449
X0432165Y0237008
X0446142Y0224606
X0446181Y0220945
X0439213Y0215905
X0439213Y0207165
X0436417Y0191732
Y0177953
X0436024Y0164173
X0436417Y0150394
X0468307Y0152717
X0472972Y015685
X0473032Y0148425
X0477756Y0152756
X0473425Y0194882
X0473366Y0203307
X0468701Y0199173
X047815Y0199213
X0476968Y024685
X0472185Y0250945
X0472244Y024252
X046752Y0246811
X0478937Y0277559
Y0282283
Y0287402
Y0292126
X0427756Y0290551
X042185Y0284252
X0417913
X0414764Y0287795
X0369094Y0287402
X036811Y0293701
X0358858Y0287402
X035Y0286614
X0349803Y028937
X0342717Y0283661
X0344291Y0276378
X0352559Y0270669
X0353346Y025748
X036122Y0254724
X0365551Y0265354
X0368701
X037185
X0375
X0363209Y0275886
X0342717Y025748
X0342126Y0251575
X034252Y0248031
X0402559Y0230039
X0406102Y0233465
X0405787Y022437
X0388779Y0179528
X0381693Y0168898
X0374606
X036752
X0360433
X0353346
X034626
X0499803Y0152323
X0504468Y0156457
X0504528Y0148031
X0509252Y0152362
X0515945Y0177559
X0509252Y0199213
X0504468Y0203307
X0504528Y0194882
X0499803Y0199173
X0514764Y0225197
X0508071Y024685
X0503287Y0250945
X0503346Y024252
X0498622Y0246811
X0500591Y0328346
Y0339843
X0479331Y0301575
X0448228
X0379331Y0312205
X0363188Y0311416
X0360039Y0311811
X035689
X0358858Y0306693
X0362008
X0362795Y0320866
X0366339
X0362795Y0327362
X0370669Y0333465
X0349803Y0320866
Y0311417
X0347833Y0309054
X0344291Y0309055
X0342323Y0311417
X0339173
X0336811Y032126
X0396654Y0351575
X0330906Y0300591
X0305709Y031063
X0211221Y0310433
X0196653Y031063
X019626Y0320866
Y0326378
Y0335827
X0191929Y0335433
X0186024Y0338976
X0183268Y0332283
X0186811Y032441
X017874Y0317913
Y0313583
Y0309252
Y0304921
X0186811Y0304724
X0187205Y0300787
X0184843Y0297244
X019311Y0298031
X0188386Y0347244
X018248Y0358661
X0184055Y0364173
Y0380315
X0194685Y0372441
X0176181
X0176038Y0343972
X0176969Y0338189
X0173031
X0164173Y0335827
X0154527
X0150197Y0333071
X0147047
X0144291Y0332283
X0137598Y0334252
X0141929Y031811
X0149016Y0319685
X0151772Y031811
X0158071Y0318504
X0160433Y0315354
X0165748Y0313583
Y0317913
X0170079
X0174409
Y0313583
X0170079
Y0309252
X0165748
Y0304921
X0170079
X0174409
Y0309252
X0157283Y0305905
X0157283Y0302362
X0157677Y0298425
X0149016Y0298425
X0139961Y0298425
Y0308268
X0131496Y0316339
X0125787Y0299213
X0082874Y0303937
X0077756Y0303543
X0080512Y0318504
X0073425Y0333465
X0077362Y0340945
Y0352756
Y0364567
Y0377559
X0063583
Y0364567
X0043504Y0365748
Y0377559
Y0353937
X0052165Y0340945
X0063583
X0094291Y0327953
X0151378Y0326378
X0155257Y0344726
X0150197Y0347638
X0143898Y0353937
T02
X0045079Y0302756
T04
X0154528Y0247638
Y0255512
X0162402
Y0247638
X0170276
Y0255512
X017815
Y0247638
X0186024
Y0255512
X0193898
Y0247638
X0201772
Y0255512
T06
X0444882Y0323111
X0454724
X0462598
X0472441
Y0333347
X0462598
X0454724
X0444882
X0276909Y0315449
X0266909
X0256909
X0246909
X0236909
X0241909Y0305449
X0251909
X0261909
X0271909
X0281909
T09
X010189Y0083858
X011189
X0233307Y0356512
X0243307
X0275512
X0285512
T10
X0339409Y0014173
X034941
Y0024173
X0339409
X0359409
X0369409
Y0014173
X0359409
X0408779
X041878
X042878
X0438779
X0448779
X0458779
Y0024173
X0448779
X0438779
X042878
X041878
X0408779
X032941
Y0014173
X0319409
Y0024173
T11
X0140122Y0166335
T12
X0390516Y0166335
T13
X0228917Y0328441
X0289902
T14
X-0005433Y0266535
X0032087Y0274016
Y029252
Y0311024
X-0005433Y0318504
T15
X0432795Y0321615
Y0343977
X0484527
X0484527Y0321615
T16
X0390516Y007972
X0140122
T17
X0524409Y0
X0
X0524409Y0369685
X0000197
T18
X0139173Y0362795
X0158858
T19
X0133823Y019035
T20
X0396815Y019035
T21
X0236909Y0340449
X0281909
M30
